<svg width="30" height="30" viewBox="0 0 30 30" fill="none" xmlns="http://www.w3.org/2000/svg">
<g id="Iconly/Bold/Message">
<g id="Message">
<path id="Message_2" fill-rule="evenodd" clip-rule="evenodd" d="M21.1738 3.75C22.85 3.75 24.4625 4.4125 25.6488 5.60125C26.8363 6.7875 27.5 8.3875 27.5 10.0625V19.9375C27.5 23.425 24.6625 26.25 21.1738 26.25H8.825C5.33625 26.25 2.5 23.425 2.5 19.9375V10.0625C2.5 6.575 5.32375 3.75 8.825 3.75H21.1738ZM23.1626 11.925L23.2626 11.825C23.5613 11.4625 23.5613 10.9375 23.2488 10.575C23.0751 10.3888 22.8363 10.275 22.5876 10.25C22.3251 10.2363 22.0751 10.325 21.8863 10.5L16.2501 15C15.5251 15.6013 14.4863 15.6013 13.7501 15L8.12508 10.5C7.73633 10.2125 7.19883 10.25 6.87508 10.5875C6.53758 10.925 6.50008 11.4625 6.78633 11.8375L6.95008 12L12.6376 16.4375C13.3376 16.9875 14.1863 17.2875 15.0751 17.2875C15.9613 17.2875 16.8251 16.9875 17.5238 16.4375L23.1626 11.925Z" fill="#0F241A"/>
</g>
</g>
</svg>
