<svg width="24" height="25" viewBox="0 0 24 25" fill="none" xmlns="http://www.w3.org/2000/svg">
<path fill-rule="evenodd" clip-rule="evenodd" d="M2 11.1699C2 6.38166 5.84034 2.5 10.5776 2.5C12.8526 2.5 15.0343 3.41344 16.6429 5.03936C18.2516 6.66529 19.1553 8.87052 19.1553 11.1699C19.1553 15.9582 15.3149 19.8399 10.5776 19.8399C5.84034 19.8399 2 15.9582 2 11.1699ZM19.0134 18.1543L21.568 20.2164H21.6124C22.1292 20.7388 22.1292 21.5858 21.6124 22.1082C21.0955 22.6306 20.2576 22.6306 19.7407 22.1082L17.6207 19.6785C17.4203 19.4766 17.3076 19.2024 17.3076 18.9164C17.3076 18.6304 17.4203 18.3562 17.6207 18.1543C18.0072 17.7704 18.6268 17.7704 19.0134 18.1543Z" fill="#0F241A"/>
</svg>
