<svg width="24" height="25" viewBox="0 0 24 25" fill="none" xmlns="http://www.w3.org/2000/svg">
<path fill-rule="evenodd" clip-rule="evenodd" d="M16.6653 2.51034C18.1038 2.42043 19.5224 2.91991 20.5913 3.8989C21.5703 4.96779 22.0697 6.38633 21.9898 7.83483V17.1652C22.0797 18.6137 21.5703 20.0322 20.6013 21.1011C19.5323 22.0801 18.1038 22.5796 16.6653 22.4897H7.33487C5.88636 22.5796 4.46781 22.0801 3.39891 21.1011C2.41991 20.0322 1.92043 18.6137 2.01034 17.1652V7.83483C1.92043 6.38633 2.41991 4.96779 3.39891 3.8989C4.46781 2.91991 5.88636 2.42043 7.33487 2.51034H16.6653ZM10.9811 17.345L17.7042 10.602C18.3136 9.9826 18.3136 8.98364 17.7042 8.37427L16.4056 7.07561C15.7862 6.45625 14.7872 6.45625 14.1679 7.07561L13.4985 7.75491C13.3986 7.85481 13.3986 8.02463 13.4985 8.12453C13.4985 8.12453 15.0869 9.70289 15.1169 9.74285C15.2268 9.86273 15.2967 10.0226 15.2967 10.2024C15.2967 10.562 15.007 10.8617 14.6374 10.8617C14.4675 10.8617 14.3077 10.7918 14.1978 10.6819L12.5295 9.0236C12.4496 8.94368 12.3098 8.94368 12.2298 9.0236L7.46474 13.7887C7.13507 14.1183 6.94527 14.5579 6.93528 15.0274L6.87534 17.3949C6.87534 17.5248 6.9153 17.6447 7.00521 17.7346C7.09512 17.8245 7.21499 17.8744 7.34486 17.8744H9.69245C10.172 17.8744 10.6315 17.6846 10.9811 17.345Z" fill="#0F241A"/>
</svg>
