<svg width="24" height="25" viewBox="0 0 24 25" fill="none" xmlns="http://www.w3.org/2000/svg">
<path fill-rule="evenodd" clip-rule="evenodd" d="M21.7872 11.039C21.6518 11.1706 21.4681 11.2457 21.2747 11.2457C20.559 11.2457 19.9787 11.8095 19.9787 12.4953C19.9787 13.1858 20.5522 13.7467 21.2611 13.7543C21.6605 13.758 22 14.0286 22 14.4166V16.8265C22 18.8549 20.3075 20.5 18.2186 20.5H15.0658C14.7398 20.5 14.4758 20.2435 14.4758 19.9269V17.8975C14.4758 17.5029 14.1567 17.1929 13.7505 17.1929C13.354 17.1929 13.0251 17.5029 13.0251 17.8975V19.9269C13.0251 20.2435 12.7611 20.5 12.4362 20.5H5.78143C3.70213 20.5 2 18.8558 2 16.8265V14.4166C2 14.0286 2.33946 13.758 2.73888 13.7543C3.44874 13.7467 4.02128 13.1858 4.02128 12.4953C4.02128 11.8282 3.46035 11.3209 2.72534 11.3209C2.53191 11.3209 2.34816 11.2457 2.21277 11.1142C2.07737 10.9827 2 10.8042 2 10.6163V8.18291C2 6.15731 3.706 4.5 5.7911 4.5H12.4362C12.7611 4.5 13.0251 4.75649 13.0251 5.07311V7.47827C13.0251 7.86348 13.354 8.18291 13.7505 8.18291C14.1567 8.18291 14.4758 7.86348 14.4758 7.47827V5.07311C14.4758 4.75649 14.7398 4.5 15.0658 4.5H18.2186C20.3075 4.5 22 6.14416 22 8.17352V10.5411C22 10.729 21.9226 10.9075 21.7872 11.039ZM13.7505 15.3702C14.1567 15.3702 14.4758 15.0508 14.4758 14.6656V10.9075C14.4758 10.5223 14.1567 10.2029 13.7505 10.2029C13.354 10.2029 13.0251 10.5223 13.0251 10.9075V14.6656C13.0251 15.0508 13.354 15.3702 13.7505 15.3702Z" fill="#0F241A"/>
</svg>
