<svg width="24" height="25" viewBox="0 0 24 25" fill="none" xmlns="http://www.w3.org/2000/svg">
<path fill-rule="evenodd" clip-rule="evenodd" d="M7.33021 2.5H16.6602C20.0602 2.5 22.0002 4.42 22.0002 7.83V17.17C22.0002 20.56 20.0702 22.5 16.6702 22.5H7.33021C3.92021 22.5 2.00021 20.56 2.00021 17.17V7.83C2.00021 4.42 3.92021 2.5 7.33021 2.5ZM12.8202 13.33H15.6602C16.1202 13.32 16.4902 12.95 16.4902 12.49C16.4902 12.03 16.1202 11.66 15.6602 11.66H12.8202V8.84C12.8202 8.38 12.4502 8.01 11.9902 8.01C11.5302 8.01 11.1602 8.38 11.1602 8.84V11.66H8.33021C8.11021 11.66 7.90021 11.75 7.74021 11.9C7.59021 12.06 7.50021 12.269 7.50021 12.49C7.50021 12.95 7.87021 13.32 8.33021 13.33H11.1602V16.16C11.1602 16.62 11.5302 16.99 11.9902 16.99C12.4502 16.99 12.8202 16.62 12.8202 16.16V13.33Z" fill="#0F241A"/>
</svg>
