<svg width="36" height="36" viewBox="0 0 36 36" fill="none" xmlns="http://www.w3.org/2000/svg">
<path fill-rule="evenodd" clip-rule="evenodd" d="M30.6035 20.37C31.14 20.655 31.5539 21.105 31.8452 21.555C32.4124 22.485 32.3664 23.625 31.8145 24.63L30.7415 26.43C30.1743 27.39 29.1166 27.99 28.0282 27.99C27.4917 27.99 26.8938 27.84 26.4033 27.54C26.0047 27.285 25.5448 27.195 25.0543 27.195C23.5367 27.195 22.2643 28.44 22.2184 29.925C22.2184 31.65 20.8081 33 19.0452 33H16.9604C15.1822 33 13.7719 31.65 13.7719 29.925C13.7412 28.44 12.4689 27.195 10.9513 27.195C10.4454 27.195 9.98553 27.285 9.60229 27.54C9.11175 27.84 8.49858 27.99 7.97738 27.99C6.87367 27.99 5.81594 27.39 5.24876 26.43L4.19103 24.63C3.62384 23.655 3.59318 22.485 4.16037 21.555C4.40564 21.105 4.86552 20.655 5.38672 20.37C5.81594 20.16 6.09187 19.815 6.35247 19.41C7.11894 18.12 6.65906 16.425 5.35606 15.66C3.83845 14.805 3.34791 12.9 4.22169 11.415L5.24876 9.645C6.13786 8.16 8.0387 7.635 9.57164 8.505C10.9053 9.225 12.6375 8.745 13.4193 7.47C13.6646 7.05 13.8025 6.6 13.7719 6.15C13.7412 5.565 13.9098 5.01 14.2011 4.56C14.7683 3.63 15.7954 3.03 16.9144 3H19.0758C20.2102 3 21.2373 3.63 21.8045 4.56C22.0804 5.01 22.2643 5.565 22.2184 6.15C22.1877 6.6 22.3257 7.05 22.5709 7.47C23.3527 8.745 25.0849 9.225 26.4339 8.505C27.9515 7.635 29.8677 8.16 30.7415 9.645L31.7686 11.415C32.6577 12.9 32.1671 14.805 30.6342 15.66C29.3312 16.425 28.8713 18.12 29.6531 19.41C29.8984 19.815 30.1743 20.16 30.6035 20.37ZM13.6646 18.015C13.6646 20.37 15.6114 22.245 18.0181 22.245C20.4248 22.245 22.3257 20.37 22.3257 18.015C22.3257 15.66 20.4248 13.77 18.0181 13.77C15.6114 13.77 13.6646 15.66 13.6646 18.015Z" fill="#FBFEFD"/>
</svg>
