<svg width="36" height="36" viewBox="0 0 36 36" fill="none" xmlns="http://www.w3.org/2000/svg">
<path fill-rule="evenodd" clip-rule="evenodd" d="M11.505 3H24.51C29.595 3 33 6.57 33 11.88V24.1365C33 29.43 29.595 33 24.51 33H11.505C6.42 33 3 29.43 3 24.1365V11.88C3 6.57 6.42 3 11.505 3ZM17.145 22.485L24.27 15.36C24.78 14.85 24.78 14.025 24.27 13.5C23.76 12.99 22.92 12.99 22.41 13.5L16.215 19.695L13.59 17.07C13.08 16.56 12.24 16.56 11.73 17.07C11.22 17.58 11.22 18.405 11.73 18.93L15.3 22.485C15.555 22.74 15.885 22.86 16.215 22.86C16.56 22.86 16.89 22.74 17.145 22.485Z" fill="#FBFEFD"/>
</svg>
