<svg width="50" height="50" viewBox="0 0 50 50" fill="none" xmlns="http://www.w3.org/2000/svg">
<g clip-path="url(#clip0)">
<path d="M33.2761 5.37251L31.8111 3.4493L33.2761 1.52632C33.5943 1.10906 33.514 0.512873 33.0968 0.194658C32.9306 0.0679918 32.7274 -0.000460585 32.5184 1.56056e-05H25.0184C24.4896 -0.00296058 24.0568 0.420135 24.0479 0.948944V9.40478H25.9526V6.90478H32.5184C33.0456 6.90359 33.472 6.47525 33.4708 5.94811C33.4703 5.74013 33.4019 5.53799 33.2761 5.37251Z" fill="#FBFEFD"/>
<path d="M3.19827 30C2.42244 29.996 1.79018 30.6216 1.78613 31.3973C1.78613 31.4035 1.78613 31.4097 1.78613 31.4159V50H13.8099V30H3.19827ZM6.30994 44.7619C6.30994 45.2879 5.88351 45.7143 5.35756 45.7143C4.83161 45.7143 4.40518 45.2879 4.40518 44.7619V42.7154C4.40518 42.1894 4.83161 41.763 5.35756 41.763C5.88351 41.763 6.30994 42.1894 6.30994 42.7154V44.7619ZM6.30994 36.7907C6.30994 37.3167 5.88351 37.7431 5.35756 37.7431C4.83161 37.7431 4.40518 37.3167 4.40518 36.7907V34.7441C4.40518 34.2181 4.83161 33.7917 5.35756 33.7917C5.88351 33.7917 6.30994 34.2181 6.30994 34.7441V36.7907ZM11.1909 44.7619C11.1909 45.2879 10.7645 45.7143 10.2385 45.7143C9.71256 45.7143 9.28613 45.2879 9.28613 44.7619V42.7154C9.28613 42.1894 9.71256 41.763 10.2385 41.763C10.7645 41.763 11.1909 42.1894 11.1909 42.7154V44.7619ZM11.1909 36.7907C11.1909 37.3167 10.7645 37.7431 10.2385 37.7431C9.71256 37.7431 9.28613 37.3167 9.28613 36.7907V34.7441C9.28613 34.2181 9.71256 33.7917 10.2385 33.7917C10.7645 33.7917 11.1909 34.2181 11.1909 34.7441V36.7907Z" fill="#FBFEFD"/>
<path d="M24.8465 16.7261L15.7139 24.4944V49.9999H19.8805V40.0819C19.8679 39.5889 20.2573 39.1792 20.7503 39.1664C20.7664 39.1661 20.7824 39.1661 20.7985 39.1666H28.9852C29.4679 39.1544 29.8691 39.5358 29.8812 40.0185C29.8817 40.0396 29.8816 40.0607 29.8805 40.0819V49.9999H33.9281V24.4856L24.8465 16.7261ZM28.9852 33.8094H20.7447C20.2187 33.8094 19.7923 33.383 19.7923 32.857C19.7923 32.3311 20.2187 31.9046 20.7447 31.9046H28.9852C29.5111 31.9046 29.9376 32.3311 29.9376 32.857C29.9376 33.383 29.5111 33.8094 28.9852 33.8094Z" fill="#FBFEFD"/>
<path d="M46.8204 30C46.8142 30 46.808 30 46.8018 30H35.833V50H48.214V31.4158C48.2201 30.64 47.5961 30.0062 46.8204 30ZM40.714 44.7619C40.714 45.2879 40.2875 45.7143 39.7616 45.7143C39.2356 45.7143 38.8092 45.2879 38.8092 44.7619V42.7154C38.8092 42.1894 39.2356 41.763 39.7616 41.763C40.2875 41.763 40.714 42.1894 40.714 42.7154V44.7619ZM40.714 36.7907C40.714 37.3167 40.2875 37.7431 39.7616 37.7431C39.2356 37.7431 38.8092 37.3167 38.8092 36.7907V34.7441C38.8092 34.2181 39.2356 33.7917 39.7616 33.7917C40.2875 33.7917 40.714 34.2181 40.714 34.7441V36.7907ZM45.4759 44.7619C45.4759 45.2879 45.0494 45.7143 44.5235 45.7143C43.9975 45.7143 43.5711 45.2879 43.5711 44.7619V42.7154C43.5711 42.1894 43.9975 41.763 44.5235 41.763C45.0494 41.763 45.4759 42.1894 45.4759 42.7154V44.7619ZM45.4759 36.7907C45.4759 37.3167 45.0494 37.7431 44.5235 37.7431C43.9975 37.7431 43.5711 37.3167 43.5711 36.7907V34.7441C43.5711 34.2181 43.9975 33.7917 44.5235 33.7917C45.0494 33.7917 45.4759 34.2181 45.4759 34.7441V36.7907Z" fill="#FBFEFD"/>
<path d="M24.8926 10.6948L11.2637 22.3627L12.9861 24.3668L24.2743 14.7484C24.6308 14.4446 25.1553 14.4451 25.5113 14.7497L36.7526 24.3708L38.5145 22.3572L24.8926 10.6948Z" fill="#FBFEFD"/>
<path d="M27.9766 41.0713H21.7861V49.9999H27.9766V41.0713Z" fill="#FBFEFD"/>
</g>
<defs>
<clipPath id="clip0">
<rect width="50" height="50" fill="white"/>
</clipPath>
</defs>
</svg>
