<svg width="36" height="36" viewBox="0 0 36 36" fill="none" xmlns="http://www.w3.org/2000/svg">
<path fill-rule="evenodd" clip-rule="evenodd" d="M29.6415 18.0015C29.6415 19.2217 30.6435 20.2146 31.875 20.2146C32.496 20.2146 33 20.714 33 21.3293V25.3438C33 28.7385 30.213 31.5 26.787 31.5H9.2145C5.7885 31.5 3 28.7385 3 25.3438V21.3293C3 20.714 3.504 20.2146 4.125 20.2146C5.358 20.2146 6.36 19.2217 6.36 18.0015C6.36 16.8125 5.3985 15.9177 4.125 15.9177C3.8265 15.9177 3.5415 15.8003 3.33 15.5907C3.1185 15.3812 3 15.0973 3 14.803L3.003 10.6577C3.003 7.26302 5.79 4.5 9.216 4.5H26.784C30.21 4.5 32.9985 7.26302 32.9985 10.6577L33 14.6737C33 14.968 32.8815 15.2533 32.6715 15.4614C32.46 15.671 32.175 15.7884 31.875 15.7884C30.6435 15.7884 29.6415 16.7812 29.6415 18.0015ZM21.378 18.972L23.1465 17.2658C23.454 16.9715 23.5605 16.5375 23.427 16.1362C23.295 15.7349 22.95 15.4495 22.533 15.3916L20.0895 15.0378L18.996 12.844C18.8085 12.4665 18.4275 12.2317 18.003 12.2302H18C17.577 12.2302 17.196 12.465 17.0055 12.8426L15.912 15.0378L13.473 15.3901C13.0515 15.4495 12.7065 15.7349 12.573 16.1362C12.441 16.5375 12.5475 16.9715 12.8535 17.2658L14.622 18.972L14.205 21.3843C14.133 21.8005 14.3025 22.2136 14.6475 22.4619C14.8425 22.6001 15.069 22.6714 15.2985 22.6714C15.474 22.6714 15.651 22.6283 15.813 22.5436L18 21.4051L20.1825 22.5406C20.5605 22.7413 21.009 22.7101 21.3525 22.4604C21.699 22.2136 21.8685 21.8005 21.7965 21.3843L21.378 18.972Z" fill="#FBFEFD"/>
</svg>
