<svg width="36" height="36" viewBox="0 0 36 36" fill="none" xmlns="http://www.w3.org/2000/svg">
<path d="M18.2122 9.88485C17.8612 10.0742 17.6424 10.4343 17.6424 10.8259V16.9241H5.60144C4.99345 16.9241 4.5 17.4061 4.5 18C4.5 18.5939 4.99345 19.0759 5.60144 19.0759H17.6424V25.174C17.6424 25.5671 17.8612 25.9272 18.2122 26.1151C18.5632 26.3059 18.992 26.293 19.3313 26.085L30.986 18.9109C31.3061 18.7129 31.5 18.3701 31.5 18C31.5 17.6299 31.3061 17.287 30.986 17.089L19.3313 9.91497C19.1521 9.80595 18.948 9.75 18.7438 9.75C18.5617 9.75 18.3782 9.7959 18.2122 9.88485Z" fill="#52B788"/>
</svg>
