<svg width="36" height="36" viewBox="0 0 36 36" fill="none" xmlns="http://www.w3.org/2000/svg">
<path fill-rule="evenodd" clip-rule="evenodd" d="M6.81 3H11.88C13.995 3 15.69 4.725 15.69 6.8415V11.955C15.69 14.085 13.995 15.795 11.88 15.795H6.81C4.71 15.795 3 14.085 3 11.955V6.8415C3 4.725 4.71 3 6.81 3ZM6.81 20.2045H11.88C13.995 20.2045 15.69 21.916 15.69 24.046V29.1595C15.69 31.2745 13.995 32.9995 11.88 32.9995H6.81C4.71 32.9995 3 31.2745 3 29.1595V24.046C3 21.916 4.71 20.2045 6.81 20.2045ZM29.1902 3H24.1202C22.0052 3 20.3102 4.725 20.3102 6.8415V11.955C20.3102 14.085 22.0052 15.795 24.1202 15.795H29.1902C31.2902 15.795 33.0002 14.085 33.0002 11.955V6.8415C33.0002 4.725 31.2902 3 29.1902 3ZM24.1202 20.2045H29.1902C31.2902 20.2045 33.0002 21.916 33.0002 24.046V29.1595C33.0002 31.2745 31.2902 32.9995 29.1902 32.9995H24.1202C22.0052 32.9995 20.3102 31.2745 20.3102 29.1595V24.046C20.3102 21.916 22.0052 20.2045 24.1202 20.2045Z" fill="#FBFEFD"/>
</svg>
