<svg width="36" height="36" viewBox="0 0 36 36" fill="none" xmlns="http://www.w3.org/2000/svg">
<path fill-rule="evenodd" clip-rule="evenodd" d="M24.6163 4.15293L24.6178 5.27736C28.7498 5.6012 31.4792 8.41679 31.4837 12.7346L31.5 25.3733C31.5059 30.0809 28.5484 32.9775 23.8077 32.985L12.2278 33C7.51679 33.006 4.52222 30.0405 4.5163 25.3193L4.50001 12.8291C4.49409 8.48276 7.12729 5.67466 11.2593 5.29535L11.2578 4.17092C11.2563 3.51125 11.745 3.015 12.3967 3.015C13.0483 3.0135 13.537 3.50825 13.5385 4.16792L13.54 5.21739L22.3371 5.2054L22.3356 4.15592C22.3341 3.49625 22.8228 3.0015 23.4745 3C24.1113 2.9985 24.6148 3.49326 24.6163 4.15293ZM6.78223 13.2924L29.2044 13.2624V12.7376C29.1408 9.51424 27.5235 7.82309 24.6208 7.57122L24.6223 8.72564C24.6223 9.37031 24.1202 9.88156 23.4834 9.88156C22.8317 9.88306 22.3415 9.37331 22.3415 8.72864L22.3401 7.51424L13.543 7.52624L13.5444 8.73913C13.5444 9.38531 13.0572 9.89505 12.4056 9.89505C11.7539 9.89655 11.2637 9.38831 11.2637 8.74213L11.2622 7.58771C8.3743 7.87706 6.77631 9.57421 6.78075 12.8261L6.78223 13.2924ZM22.8599 20.1064V20.1229C22.8747 20.8126 23.4375 21.3358 24.1202 21.3208C24.7867 21.3043 25.3184 20.7331 25.3035 20.0435C25.2724 19.3838 24.7378 18.8456 24.0728 18.8471C23.3916 18.8621 22.8584 19.4168 22.8599 20.1064ZM24.0832 26.8381C23.4019 26.8231 22.8524 26.2549 22.851 25.5652C22.8362 24.8755 23.3826 24.3043 24.0639 24.2878H24.0787C24.7748 24.2878 25.339 24.8561 25.339 25.5607C25.3405 26.2654 24.7777 26.8366 24.0832 26.8381ZM16.7582 20.1304C16.7878 20.8201 17.3521 21.3583 18.0333 21.3283C18.6998 21.2968 19.2314 20.7271 19.2018 20.0375C19.1855 19.3628 18.6376 18.8381 17.9711 18.8396C17.2899 18.8696 16.7567 19.4408 16.7582 20.1304ZM18.0393 26.7706C17.358 26.8006 16.7952 26.2624 16.7641 25.5727C16.7641 24.883 17.2958 24.3133 17.9771 24.2818C18.6435 24.2803 19.193 24.8051 19.2078 25.4782C19.2389 26.1694 18.7057 26.7391 18.0393 26.7706ZM10.6565 20.1829C10.6861 20.8726 11.2504 21.4123 11.9316 21.3808C12.5981 21.3508 13.1298 20.7796 13.0987 20.0899C13.0839 19.4153 12.5359 18.8905 11.868 18.892C11.1867 18.922 10.655 19.4932 10.6565 20.1829ZM11.9376 26.7781C11.2563 26.8096 10.6935 26.2699 10.6624 25.5802C10.6609 24.8905 11.1941 24.3193 11.8753 24.2893C12.5418 24.2878 13.0912 24.8126 13.1061 25.4872C13.1372 26.1769 12.6055 26.7481 11.9376 26.7781Z" fill="#FBFEFD"/>
</svg>
