<svg width="28" height="28" viewBox="0 0 28 28" fill="none" xmlns="http://www.w3.org/2000/svg">
<path d="M14.0204 0C21.3232 0 27.3127 5.59234 27.9568 12.7272H16.5659V8.90901C16.5659 8.39492 16.2552 7.93046 15.7805 7.73308C15.3047 7.53592 14.7572 7.64522 14.3935 8.00923L9.30239 13.1003C8.80484 13.5978 8.80484 14.4021 9.30239 14.8999L14.3935 19.9907C14.7572 20.3547 15.3047 20.4642 15.7805 20.2668C16.2552 20.0697 16.5659 19.605 16.5659 19.0909V15.2727H27.9568C27.3127 22.4076 21.3232 27.9999 14.0204 27.9999C6.28867 27.9999 0.0205078 21.7318 0.0205078 14.0001C0.0205078 6.26817 6.28867 0 14.0204 0V0Z" fill="#FBFEFD"/>
</svg>
