<svg width="36" height="36" viewBox="0 0 36 36" fill="none" xmlns="http://www.w3.org/2000/svg">
<path d="M22.4998 19.4997C21.6703 19.4997 20.9999 20.1718 20.9999 20.9996V26.9997C20.9999 27.8262 20.3278 28.4996 19.4997 28.4996H14.9998V5.99985C14.9998 4.71886 14.1838 3.57437 12.9569 3.14838L12.5127 2.99979H19.4997C20.3278 2.99979 20.9999 3.67324 20.9999 4.49996V8.99991C20.9999 9.82773 21.6703 10.4998 22.4998 10.4998C23.3292 10.4998 23.9997 9.82773 23.9997 8.99991V4.49996C23.9997 2.01899 21.9807 0 19.4997 0H3.37496C3.31784 0 3.27005 0.025543 3.21457 0.0329586C3.14233 0.0269163 3.07339 0 3.00006 0C1.34554 0 0 1.34526 0 2.99979V29.9995C0 31.2805 0.816001 32.425 2.04289 32.851L11.07 35.8601C11.3759 35.9546 11.6803 35.9997 12 35.9997C13.6545 35.9997 14.9998 34.6541 14.9998 32.9996V31.4997H19.4997C21.9807 31.4997 23.9997 29.4807 23.9997 26.9997V20.9996C23.9997 20.1718 23.3292 19.4997 22.4998 19.4997V19.4997Z" fill="#FBFEFD"/>
<path d="M35.5605 13.9397L29.5604 7.9399C29.1316 7.51089 28.4864 7.3818 27.9256 7.61416C27.3661 7.84679 27 8.39418 27 9.00035V13.5003H21.0002C20.1721 13.5003 19.5 14.1721 19.5 15.0002C19.5 15.8283 20.1721 16.5001 21.0002 16.5001H27V21C27 21.6062 27.3661 22.1536 27.9256 22.3862C28.4864 22.6186 29.1316 22.4895 29.5604 22.0608L35.5605 16.0606C36.1469 15.4742 36.1469 14.5261 35.5605 13.9397V13.9397Z" fill="#FBFEFD"/>
</svg>
