<svg width="36" height="36" viewBox="0 0 36 36" fill="none" xmlns="http://www.w3.org/2000/svg">
<path d="M17.7878 26.1152C18.1388 25.9258 18.3576 25.5657 18.3576 25.1741V19.0759H30.3986C31.0066 19.0759 31.5 18.5939 31.5 18C31.5 17.4061 31.0066 16.9241 30.3986 16.9241H18.3576V10.826C18.3576 10.4329 18.1388 10.0728 17.7878 9.88492C17.4368 9.69413 17.008 9.70704 16.6687 9.91505L5.01401 17.0891C4.69385 17.2871 4.5 17.6299 4.5 18C4.5 18.3701 4.69385 18.713 5.01401 18.911L16.6687 26.085C16.8479 26.1941 17.052 26.25 17.2562 26.25C17.4383 26.25 17.6218 26.2041 17.7878 26.1152Z" fill="#52B788"/>
</svg>
