<svg width="36" height="36" viewBox="0 0 36 36" fill="none" xmlns="http://www.w3.org/2000/svg">
<path fill-rule="evenodd" clip-rule="evenodd" d="M11.715 3H24.2865C28.92 3 31.5 5.67 31.5 10.245V25.74C31.5 30.39 28.92 33 24.2865 33H11.715C7.155 33 4.5 30.39 4.5 25.74V10.245C4.5 5.67 7.155 3 11.715 3ZM12.12 9.99V9.975H16.6035C17.25 9.975 17.775 10.5 17.775 11.1435C17.775 11.805 17.25 12.33 16.6035 12.33H12.12C11.4735 12.33 10.95 11.805 10.95 11.16C10.95 10.515 11.4735 9.99 12.12 9.99ZM12.12 19.11H23.88C24.525 19.11 25.05 18.585 25.05 17.94C25.05 17.295 24.525 16.7685 23.88 16.7685H12.12C11.4735 16.7685 10.95 17.295 10.95 17.94C10.95 18.585 11.4735 19.11 12.12 19.11ZM12.12 25.965H23.88C24.4785 25.905 24.93 25.3935 24.93 24.795C24.93 24.18 24.4785 23.67 23.88 23.61H12.12C11.67 23.565 11.235 23.775 10.995 24.165C10.755 24.54 10.755 25.035 10.995 25.425C11.235 25.8 11.67 26.025 12.12 25.965Z" fill="#FBFEFD"/>
</svg>
