<svg width="36" height="36" viewBox="0 0 36 36" fill="none" xmlns="http://www.w3.org/2000/svg">
<path fill-rule="evenodd" clip-rule="evenodd" d="M24.2375 12.3493C24.2375 15.8738 21.4277 18.6999 17.9235 18.6999C14.4194 18.6999 11.6096 15.8738 11.6096 12.3493C11.6096 8.8234 14.4194 6 17.9235 6C21.4277 6 24.2375 8.8234 24.2375 12.3493ZM17.9236 30C12.7768 30 8.38216 29.184 8.38216 25.9202C8.38216 22.6551 12.7486 21.8094 17.9236 21.8094C23.0703 21.8094 27.465 22.6254 27.465 25.8905C27.465 29.1543 23.0985 30 17.9236 30ZM26.9357 12.4638C26.9357 14.2605 26.3998 15.9343 25.4596 17.3258C25.3629 17.469 25.4489 17.6621 25.6194 17.6919C25.8545 17.7324 26.0976 17.7553 26.3447 17.7621C28.8093 17.8269 31.0214 16.2315 31.6325 13.8296C32.5378 10.2619 29.8798 7.05884 26.4951 7.05884C26.1271 7.05884 25.7752 7.09802 25.4327 7.16827C25.3857 7.17907 25.336 7.20069 25.3092 7.24257C25.2769 7.2939 25.3011 7.3628 25.3333 7.40738C26.3501 8.84069 26.9357 10.5888 26.9357 12.4638ZM31.0173 20.2689C32.6734 20.5944 33.7626 21.2591 34.2139 22.225C34.5954 23.018 34.5954 23.9379 34.2139 24.7296C33.5236 26.2277 31.298 26.7086 30.4331 26.8329C30.2545 26.8599 30.1107 26.7046 30.1295 26.5249C30.5714 22.3736 27.0565 20.4053 26.1472 19.9527C26.1083 19.9325 26.1002 19.9014 26.1043 19.8825C26.1069 19.869 26.1231 19.8474 26.1526 19.8433C28.1203 19.8068 30.2356 20.077 31.0173 20.2689ZM9.65564 17.762C9.90277 17.7552 10.1445 17.7336 10.3809 17.6917C10.5515 17.662 10.6375 17.4688 10.5407 17.3256C9.60058 15.9342 9.06468 14.2604 9.06468 12.4637C9.06468 10.5886 9.65027 8.84056 10.667 7.40724C10.6992 7.36266 10.7221 7.29377 10.6912 7.24243C10.6643 7.2019 10.6133 7.17894 10.5676 7.16813C10.2238 7.09788 9.87188 7.05871 9.50387 7.05871C6.11925 7.05871 3.46125 10.2617 4.36784 13.8295C4.97895 16.2314 7.19105 17.8268 9.65564 17.762ZM9.89541 19.8817C9.89944 19.9019 9.89138 19.9317 9.85377 19.9533C8.94315 20.4058 5.42824 22.3741 5.87012 26.5241C5.88893 26.7051 5.74656 26.8591 5.56793 26.8335C4.70297 26.7092 2.47744 26.2283 1.78709 24.7301C1.4043 23.9371 1.4043 23.0185 1.78709 22.2255C2.23837 21.2596 3.32629 20.595 4.98233 20.268C5.76536 20.0776 7.87941 19.8074 9.8484 19.8439C9.87795 19.8479 9.89272 19.8695 9.89541 19.8817Z" fill="#FBFEFD"/>
</svg>
