<svg width="36" height="36" viewBox="0 0 36 36" fill="none" xmlns="http://www.w3.org/2000/svg">
<path fill-rule="evenodd" clip-rule="evenodd" d="M3 17.999C3 9.72052 9.72 2.99902 18 2.99902C26.295 2.99902 33 9.72052 33 17.999C33 26.2805 26.295 32.999 18 32.999C9.72 32.999 3 26.2805 3 17.999ZM16.68 12.314C16.68 11.5955 17.28 10.994 18 10.994C18.72 10.994 19.305 11.5955 19.305 12.314V18.944C19.305 19.6655 18.72 20.249 18 20.249C17.28 20.249 16.68 19.6655 16.68 18.944V12.314ZM18.015 25.0205C17.28 25.0205 16.695 24.4205 16.695 23.7005C16.695 22.9805 17.28 22.3955 18 22.3955C18.735 22.3955 19.32 22.9805 19.32 23.7005C19.32 24.4205 18.735 25.0205 18.015 25.0205Z" fill="#FBFEFD"/>
</svg>
