<svg width="24" height="24" viewBox="0 0 24 24" fill="none" xmlns="http://www.w3.org/2000/svg">
<g clip-path="url(#clip0)">
<path d="M23.5013 17.9982L15.0233 2.4134C13.6612 0.120233 10.3407 0.117186 8.9767 2.4134L0.499073 17.9982C-0.893396 20.3414 0.792463 23.3087 3.52167 23.3087H20.478C23.2049 23.3087 24.8938 20.3438 23.5013 17.9982ZM12 20.4962C11.2248 20.4962 10.5937 19.8652 10.5937 19.09C10.5937 18.3148 11.2248 17.6837 12 17.6837C12.7752 17.6837 13.4062 18.3148 13.4062 19.09C13.4062 19.8652 12.7752 20.4962 12 20.4962ZM13.4062 14.8712C13.4062 15.6464 12.7752 16.2775 12 16.2775C11.2248 16.2775 10.5937 15.6464 10.5937 14.8712V7.83998C10.5937 7.06476 11.2248 6.43373 12 6.43373C12.7752 6.43373 13.4062 7.06476 13.4062 7.83998V14.8712Z" fill="#F7CF22"/>
</g>
<defs>
<clipPath id="clip0">
<rect width="24" height="24" fill="white"/>
</clipPath>
</defs>
</svg>
