<svg width="551" height="550" viewBox="0 0 551 550" fill="none" xmlns="http://www.w3.org/2000/svg">
<path d="M321.447 52.9871C272.717 52.4591 223.954 65.5051 180.449 87.4831C136.944 109.461 99.0052 144.1 77.9842 188.1C56.9632 232.1 54.2792 285.593 75.6082 329.417C83.6052 345.84 95.6832 361.427 112.755 367.917C134.59 376.211 158.79 368.005 182.121 367.136C213.746 365.97 244.238 378.499 272.321 393.129C300.404 407.759 327.508 424.875 357.769 434.126C388.03 443.377 422.933 443.729 449.234 426.14C474.061 409.541 487.228 379.478 490.374 349.778C493.52 320.078 487.954 290.235 482.421 260.887C476.613 230.23 448.563 54.3511 321.447 52.9871Z" fill="#52B788"/>
<g opacity="0.7">
<path opacity="0.7" d="M321.447 52.9871C272.717 52.4591 223.954 65.5051 180.449 87.4831C136.944 109.461 99.0052 144.1 77.9842 188.1C56.9632 232.1 54.2792 285.593 75.6082 329.417C83.6052 345.84 95.6832 361.427 112.755 367.917C134.59 376.211 158.79 368.005 182.121 367.136C213.746 365.97 244.238 378.499 272.321 393.129C300.404 407.759 327.508 424.875 357.769 434.126C388.03 443.377 422.933 443.729 449.234 426.14C474.061 409.541 487.228 379.478 490.374 349.778C493.52 320.078 487.954 290.235 482.421 260.887C476.613 230.23 448.563 54.3511 321.447 52.9871Z" fill="white"/>
</g>
<path d="M277.48 495.616C364.962 495.616 435.88 488.829 435.88 480.458C435.88 472.086 364.962 465.3 277.48 465.3C189.998 465.3 119.08 472.086 119.08 480.458C119.08 488.829 189.998 495.616 277.48 495.616Z" fill="#52B788"/>
<path opacity="0.5" d="M277.48 495.616C364.962 495.616 435.88 488.829 435.88 480.458C435.88 472.086 364.962 465.3 277.48 465.3C189.998 465.3 119.08 472.086 119.08 480.458C119.08 488.829 189.998 495.616 277.48 495.616Z" fill="white"/>
<path d="M398.051 186.494C398.59 190.96 396.434 197.494 391.814 196.999C391.059 196.904 390.319 196.712 389.614 196.427C390.065 193.127 388.074 189.398 389.724 186.527C390.615 184.921 392.881 181.94 394.641 181.676C397.039 181.291 397.743 184.041 398.051 186.494Z" fill="#52B788"/>
<path d="M392.958 200.64C391.418 203.94 389.306 206.635 384.345 206.503C383.234 206.458 382.155 206.116 381.221 205.513C380.757 205.233 380.359 204.856 380.053 204.408C379.747 203.96 379.542 203.452 379.45 202.917C379.401 202.216 379.563 201.516 379.914 200.907C380.264 200.298 380.788 199.807 381.419 199.496C382.692 198.872 384.083 198.527 385.5 198.484C387.011 198.389 388.528 198.545 389.988 198.946C391.069 199.334 392.074 199.908 392.958 200.64Z" fill="#52B788"/>
<path d="M381.991 188.661C387.194 194.612 392.925 199.914 398.106 205.645" stroke="#52B788" stroke-miterlimit="10"/>
<path d="M414.639 204.732C414.799 207.262 414.139 209.777 412.758 211.904C411.427 213.884 409.458 215.061 407.258 214.522C406.541 214.311 405.848 214.027 405.19 213.675C405.512 211.969 405.553 210.223 405.311 208.505C405.019 206.841 405.245 205.129 405.96 203.599C406.884 202.004 409.084 198.924 410.998 198.88C413.55 198.825 414.496 202.059 414.639 204.732Z" fill="#52B788"/>
<path d="M407.819 218.273C406.887 219.765 405.617 221.016 404.112 221.925C402.357 222.826 400.353 223.12 398.414 222.761C397.406 222.63 396.454 222.223 395.664 221.584C395.279 221.312 394.967 220.948 394.758 220.526C394.549 220.103 394.448 219.635 394.465 219.164C394.552 218.481 394.816 217.833 395.231 217.283C395.646 216.733 396.197 216.301 396.83 216.029C398.098 215.479 399.475 215.227 400.856 215.292C402.338 215.298 403.804 215.601 405.168 216.183C406.167 216.719 407.064 217.427 407.819 218.273Z" fill="#52B788"/>
<path d="M398.106 205.7C400.735 208.527 403.144 211.53 405.498 214.566C407.852 217.602 409.964 220.836 411.933 224.147" stroke="#52B788" stroke-miterlimit="10"/>
<path d="M428.334 226.303C427.663 231.121 423.494 236.423 419.248 234.542C418.57 234.224 417.938 233.817 417.367 233.332C417.733 232.554 417.989 231.728 418.126 230.879C418.269 230.032 418.346 229.152 418.445 228.283C418.489 226.592 419.053 224.956 420.062 223.597C421.283 222.211 424 219.626 425.925 219.934C428.4 220.374 428.686 223.707 428.334 226.303Z" fill="#52B788"/>
<path d="M419.149 238.337C416.564 241.01 413.704 242.737 409.106 241.098C407.137 240.449 405.366 238.656 405.806 236.698C406.006 236.04 406.379 235.448 406.886 234.984C407.393 234.519 408.015 234.199 408.688 234.058C410.052 233.745 411.47 233.745 412.835 234.058C414.282 234.374 415.659 234.955 416.894 235.774C417.804 236.475 418.569 237.345 419.149 238.337Z" fill="#52B788"/>
<path d="M411.9 224.092C415.865 230.719 419.332 237.631 422.273 244.772" stroke="#52B788" stroke-miterlimit="10"/>
<path d="M438.3 249.799C437.586 252.291 436.031 254.46 433.9 255.937C431.92 257.268 429.665 257.587 427.817 256.234C427.224 255.78 426.685 255.259 426.211 254.683C427.165 253.22 427.819 251.582 428.136 249.865C428.388 248.203 429.158 246.663 430.336 245.465C431.722 244.277 434.824 242.165 436.65 242.671C437.202 242.852 437.686 243.198 438.036 243.662C438.386 244.126 438.585 244.686 438.608 245.267C438.839 246.782 438.734 248.329 438.3 249.799Z" fill="#52B788"/>
<path d="M426.915 259.907C423.791 261.909 420.579 262.756 416.52 260.413C414.804 259.434 413.451 257.619 414.32 256.013C414.692 255.464 415.181 255.002 415.751 254.662C416.321 254.322 416.959 254.111 417.62 254.044C418.977 253.896 420.349 254.089 421.613 254.605C422.98 255.123 424.221 255.926 425.254 256.959C425.993 257.825 426.557 258.827 426.915 259.907Z" fill="#52B788"/>
<path d="M422.306 244.771L424.506 250.15C425.184 251.924 425.76 253.735 426.233 255.573C427.21 259.278 427.934 263.045 428.4 266.848" stroke="#52B788" stroke-miterlimit="10"/>
<path d="M442.216 276.1C440.813 278.262 438.737 279.902 436.309 280.764C434.021 281.501 431.799 281.171 430.369 279.367C429.929 278.766 429.56 278.117 429.269 277.431C431.997 275.429 432.899 271.194 435.935 269.731C437.618 268.983 441.204 267.751 442.788 268.884C444.9 270.501 443.701 273.9 442.216 276.1Z" fill="#52B788"/>
<path d="M428.4 282.7C426.731 283.248 424.956 283.395 423.219 283.129C421.325 282.726 419.601 281.751 418.28 280.335C416.894 278.949 416.08 276.848 417.367 275.396C417.862 274.927 418.466 274.588 419.125 274.409C419.783 274.231 420.476 274.218 421.14 274.373C422.486 274.681 423.743 275.294 424.814 276.166C425.973 277.064 426.938 278.186 427.652 279.466C428.114 280.484 428.368 281.583 428.4 282.7Z" fill="#52B788"/>
<path d="M428.4 266.849C429.409 274.436 429.219 282.134 427.839 289.663" stroke="#52B788" stroke-miterlimit="10"/>
<path d="M437.42 303.599C436.325 304.407 435.101 305.025 433.801 305.425C432.566 305.801 431.27 305.935 429.984 305.821C428.884 305.792 427.822 305.409 426.957 304.73C426.091 304.05 425.467 303.11 425.177 302.048C425.031 301.324 424.95 300.588 424.935 299.848C426.601 299.323 428.14 298.458 429.456 297.307C430.72 296.155 432.276 295.372 433.955 295.041C435.792 294.887 439.62 294.821 440.709 296.526C442.205 298.759 439.73 301.817 437.42 303.599Z" fill="#52B788"/>
<path d="M422.064 304.106C420.255 303.873 418.544 303.155 417.111 302.028C415.677 300.901 414.576 299.407 413.924 297.704C413.143 295.999 413.121 294.14 414.749 293.447C415.391 293.25 416.068 293.196 416.734 293.29C417.399 293.383 418.035 293.62 418.599 293.986C419.746 294.72 420.703 295.715 421.393 296.89C422.138 298.113 422.597 299.49 422.735 300.916C422.754 302.016 422.524 303.107 422.064 304.106Z" fill="#52B788"/>
<path d="M427.795 289.663C427.058 293.379 425.903 296.999 424.352 300.454C422.778 303.87 420.714 307.039 418.225 309.859" stroke="#52B788" stroke-miterlimit="10"/>
<path d="M420.909 325.919C418.465 326.252 415.976 325.894 413.726 324.885C411.526 323.862 410.107 322.135 410.305 319.836C410.382 319.082 410.564 318.341 410.844 317.636C414.144 318.054 417.851 315.964 420.744 317.581C421.8 318.17 422.815 318.832 423.78 319.561C424.271 319.887 424.691 320.308 425.016 320.799C425.341 321.291 425.564 321.842 425.672 322.421C426.112 324.775 423.395 325.6 420.909 325.919Z" fill="#52B788"/>
<path d="M406.664 320.969C403.364 319.385 400.801 317.185 400.801 312.367C400.801 310.332 402 307.912 404.178 307.593C404.88 307.529 405.586 307.677 406.204 308.018C406.821 308.359 407.323 308.878 407.643 309.507C408.288 310.764 408.663 312.143 408.743 313.555C408.873 315.058 408.743 316.572 408.358 318.031C407.979 319.107 407.405 320.103 406.664 320.969Z" fill="#52B788"/>
<path d="M418.225 309.859C417.642 310.585 416.927 311.212 416.289 311.894L414.188 313.94L410.041 318.087C408.666 319.451 407.302 320.815 405.894 322.124C405.19 322.773 404.486 323.422 403.76 324.049C403.034 324.676 402.297 325.281 401.56 325.963" stroke="#52B788" stroke-miterlimit="10"/>
<path d="M405.3 341.253C404.205 341.384 403.101 341.418 402 341.352C400.806 341.28 399.623 341.085 398.469 340.769C396.269 340.153 394.289 338.877 394.069 336.578C394.018 335.822 394.077 335.063 394.245 334.323C397.655 334.213 401.01 331.98 403.991 333.597C405.608 334.422 408.589 336.655 409.051 338.294C409.215 338.715 409.215 339.182 409.051 339.603C408.891 339.971 408.607 340.271 408.248 340.45C407.314 340.872 406.319 341.143 405.3 341.253Z" fill="#52B788"/>
<path d="M390.747 338.569C388.991 338.406 387.299 337.829 385.808 336.886C384.411 335.874 383.388 334.257 383.124 331.386C382.882 328.999 384.224 325.699 386.6 324.896C387.29 324.665 388.038 324.68 388.718 324.939C389.398 325.198 389.967 325.684 390.329 326.315C391.047 327.591 391.503 328.997 391.671 330.451C391.904 332.006 391.949 333.583 391.803 335.148C391.607 336.331 391.251 337.482 390.747 338.569Z" fill="#52B788"/>
<path d="M401.549 325.963C395.538 331.326 390.806 337.967 387.7 345.4" stroke="#52B788" stroke-miterlimit="10"/>
<path d="M397.6 357.599C395.662 358.818 393.507 359.651 391.253 360.052C388.921 360.415 386.688 360.118 385.489 358.127C385.106 357.47 384.838 356.752 384.697 356.004C387.7 354.453 389.834 351.021 393.2 351.186C395.015 351.186 398.7 351.945 399.8 353.254C401.263 354.948 399.382 356.4 397.6 357.599Z" fill="#52B788"/>
<path d="M383.3 361.35C379.758 362.351 376.293 363.022 373.323 358.105C372.699 356.933 372.37 355.627 372.366 354.299C372.361 352.99 372.839 351.725 373.708 350.746C374.243 350.246 374.934 349.945 375.665 349.893C376.395 349.841 377.122 350.041 377.723 350.46C378.9 351.312 379.901 352.384 380.671 353.617C381.546 354.928 382.262 356.339 382.805 357.819C382.991 358.389 383.106 358.98 383.146 359.579C383.3 360.173 383.3 360.8 383.3 361.35Z" fill="#52B788"/>
<path d="M387.7 345.4C384.545 352.8 383.097 360.816 383.465 368.852" stroke="#52B788" stroke-miterlimit="10"/>
<path d="M476.8 310.2C475.812 311.18 474.648 311.964 473.368 312.51C472.187 313.037 470.91 313.315 469.617 313.324C468.515 313.409 467.415 313.133 466.484 312.538C465.554 311.942 464.842 311.06 464.458 310.024C464.218 309.311 464.063 308.573 463.996 307.824C465.599 307.101 467.028 306.043 468.187 304.722C469.298 303.383 470.722 302.34 472.334 301.686C474.127 301.224 477.889 300.388 479.242 302.049C479.647 302.651 479.887 303.349 479.937 304.073C479.988 304.797 479.846 305.521 479.528 306.174C478.912 307.693 477.983 309.065 476.8 310.2Z" fill="#52B788"/>
<path d="M461.499 312.466C459.668 312.436 457.881 311.898 456.337 310.914C454.794 309.929 453.553 308.536 452.754 306.888C451.885 305.282 451.522 303.5 453.084 302.763C454.338 302.298 455.725 302.345 456.945 302.895C458.178 303.445 459.252 304.296 460.069 305.37C460.971 306.486 461.59 307.803 461.873 309.21C461.987 310.309 461.859 311.42 461.499 312.466Z" fill="#52B788"/>
<path d="M465.272 297.506C465.134 305.111 462.707 312.498 458.309 318.703" stroke="#52B788" stroke-miterlimit="10"/>
<path d="M461.774 335.236C459.224 335.856 456.537 335.56 454.184 334.4C452.061 333.3 450.752 331.441 451.06 329.142C451.195 328.391 451.402 327.654 451.676 326.942C454.976 327.503 458.694 325.028 461.895 325.996C463.644 326.579 467.197 328.02 467.516 330.011C468 332.761 464.546 334.576 461.774 335.236Z" fill="#52B788"/>
<path d="M447.375 330C445.821 329.174 444.483 327.995 443.47 326.557C442.463 324.905 441.976 322.989 442.073 321.057C442.06 320.118 442.296 319.192 442.755 318.373C442.948 318.007 443.235 317.698 443.587 317.48C443.939 317.261 444.343 317.141 444.757 317.13C445.431 317.177 446.086 317.38 446.67 317.721C447.254 318.063 447.751 318.534 448.123 319.099C448.883 320.236 449.365 321.536 449.531 322.894C449.732 324.338 449.619 325.809 449.201 327.206C448.783 328.249 448.162 329.199 447.375 330Z" fill="#52B788"/>
<path d="M458.309 318.703C456.159 321.859 453.669 324.769 450.884 327.382C448.065 329.992 445.033 332.361 441.82 334.466" stroke="#52B788" stroke-miterlimit="10"/>
<path d="M439.697 350.999C437.177 350.692 434.821 349.585 432.976 347.842C431.271 346.159 430.468 344.047 431.425 341.946C431.751 341.266 432.161 340.631 432.646 340.054C435.682 341.561 439.873 340.472 442.491 342.584C443.91 343.75 446.605 346.412 446.286 348.348C445.846 350.9 442.359 351.329 439.697 350.999Z" fill="#52B788"/>
<path d="M427.608 341.803C424.968 339.218 423.329 336.303 424.935 331.738C425.628 329.824 427.3 328.031 429.225 328.504C429.876 328.72 430.46 329.1 430.923 329.606C431.385 330.113 431.709 330.729 431.865 331.397C432.179 332.751 432.179 334.158 431.865 335.511C431.568 336.968 430.993 338.354 430.171 339.592C429.457 340.478 428.588 341.227 427.608 341.803Z" fill="#52B788"/>
<path d="M441.82 334.466C435.284 338.635 428.34 342.125 421.096 344.883" stroke="#52B788" stroke-miterlimit="10"/>
<path d="M416.817 360.668C414.52 359.922 412.464 358.573 410.866 356.763C409.326 354.981 408.534 352.858 409.634 350.801C410.013 350.147 410.479 349.547 411.02 349.019C413.924 350.768 418.104 350.383 420.271 352.957C421.437 354.365 423.516 357.511 422.955 359.315C422.207 361.713 419.138 361.383 416.817 360.668Z" fill="#52B788"/>
<path d="M405.773 350.526C403.177 347.919 401.175 345.092 403.573 340.307C404.607 338.294 406.994 336.457 409.073 337.084C409.734 337.321 410.31 337.749 410.728 338.312C411.147 338.876 411.39 339.551 411.427 340.252C411.502 341.665 411.265 343.077 410.734 344.388C410.202 345.828 409.44 347.173 408.479 348.37C407.688 349.218 406.776 349.944 405.773 350.526Z" fill="#52B788"/>
<path d="M421.096 344.883C413.88 347.754 406.29 350.152 399.239 354.057" stroke="#52B788" stroke-miterlimit="10"/>
<path d="M399.8 369.655C397.598 369.368 395.454 368.745 393.442 367.807C391.374 366.817 389.57 365.343 389.702 363.011C389.774 362.251 389.971 361.507 390.285 360.811C391.995 360.938 393.712 360.938 395.422 360.811C397.038 360.665 398.651 361.119 399.954 362.087C401.362 363.242 403.793 366.058 403.892 367.763C404.079 369.952 401.857 369.842 399.8 369.655Z" fill="#52B788"/>
<path d="M386.116 364.584C384.378 364.264 382.738 363.541 381.331 362.472C380.066 361.372 379.23 359.447 379.582 356.356C379.846 353.738 382.046 350.427 384.653 350.031C385.384 349.903 386.136 350.046 386.77 350.433C387.403 350.82 387.875 351.423 388.096 352.132C388.516 353.558 388.654 355.052 388.503 356.532C388.402 358.142 388.137 359.738 387.711 361.295C387.289 362.441 386.755 363.543 386.116 364.584Z" fill="#52B788"/>
<path d="M399.239 354.057C395.667 355.989 392.38 358.406 389.471 361.24C386.476 364.109 384.148 367.601 382.651 371.47" stroke="#52B788" stroke-miterlimit="10"/>
<path d="M358.154 486.552C357.791 486.64 345.119 486.64 344.745 486.552C335.45 484.506 302.439 473.66 332.194 438.537H370.287C400.02 473.649 367.46 484.506 358.154 486.552Z" fill="white" stroke="#263238" stroke-miterlimit="10"/>
<path d="M370.276 438.768C370.276 439.34 369.418 439.868 367.911 440.341C364.611 439.318 358.363 438.636 351.125 438.636C343.887 438.636 337.606 439.318 334.35 440.341C332.843 439.879 331.985 439.34 331.985 438.768C331.985 436.964 340.554 435.468 351.125 435.468C361.696 435.468 370.276 436.964 370.276 438.768Z" fill="white" stroke="#263238" stroke-miterlimit="10"/>
<path d="M367.9 440.341C364.6 441.353 358.352 442.035 351.114 442.035C343.876 442.035 337.595 441.353 334.339 440.341C337.639 439.318 343.887 438.636 351.114 438.636C358.341 438.636 364.655 439.318 367.9 440.341Z" fill="#263238" stroke="#263238" stroke-miterlimit="10"/>
<path d="M365.799 448.712C367.13 448.437 368.45 448.129 369.737 447.788L365.799 448.712Z" fill="white"/>
<path d="M365.799 448.712C367.13 448.437 368.45 448.129 369.737 447.788" stroke="#263238" stroke-miterlimit="10"/>
<path d="M332.942 447.227C342.028 450.527 352.687 450.846 362.565 449.295L332.942 447.227Z" fill="white"/>
<path d="M332.942 447.227C342.028 450.527 352.687 450.846 362.565 449.295" stroke="#263238" stroke-miterlimit="10"/>
<path d="M378.9 384.791C374.555 385.154 368.538 382.426 368.725 378.191C368.779 377.516 368.92 376.85 369.143 376.211C372.289 376.948 375.6 375.21 378.57 376.651C380.198 377.465 383.421 379.401 383.751 381.227C384.147 383.658 381.265 384.593 378.9 384.791Z" fill="#52B788"/>
<path d="M365.37 378.917C362.18 377.201 359.606 375 359.551 370.314C359.551 368.345 360.519 366.256 362.378 366.278C363.056 366.342 363.709 366.568 364.283 366.935C364.857 367.302 365.335 367.801 365.678 368.389C366.377 369.545 366.827 370.834 366.998 372.173C367.208 373.545 367.16 374.945 366.855 376.298C366.532 377.258 366.028 378.147 365.37 378.917Z" fill="#52B788"/>
<path d="M375.424 369.369C371.024 374.341 365.909 378.73 360.992 383.46" stroke="#52B788" stroke-miterlimit="10"/>
<path d="M365.117 398.2C362.888 398.237 360.676 397.818 358.616 396.968C356.559 396.066 354.645 394.702 354.458 392.568C354.409 391.884 354.472 391.196 354.645 390.533C357.835 390.852 360.981 389.136 363.874 390.753C365.458 391.622 368.472 393.8 368.923 395.461C369.506 397.683 367.207 398.134 365.117 398.2Z" fill="#52B788"/>
<path d="M351.279 394.02C349.55 393.692 347.909 393.006 346.461 392.007C345.097 390.907 344.151 389.334 344.041 386.507C343.931 384.153 345.075 381.491 347.242 381.073C347.938 380.992 348.641 381.117 349.267 381.431C349.893 381.746 350.412 382.237 350.762 382.844C351.466 384.038 351.933 385.356 352.137 386.727C352.399 388.145 352.458 389.593 352.313 391.028C352.113 392.069 351.765 393.077 351.279 394.02Z" fill="#52B788"/>
<path d="M360.992 383.46C358.502 385.83 356.148 388.338 353.941 390.973C352.816 392.322 351.787 393.748 350.861 395.241C350.421 396.011 349.948 396.748 349.552 397.54L348.452 399.916" stroke="#52B788" stroke-miterlimit="10"/>
<path d="M358.583 411.158C356.609 412.183 354.459 412.825 352.247 413.05C349.97 413.27 347.682 412.852 346.527 411.059C346.175 410.474 345.911 409.84 345.746 409.178C347.171 408.488 348.521 407.651 349.772 406.681C351 405.761 352.507 405.291 354.04 405.35C355.822 405.471 359.463 406.34 360.64 407.495C361.432 408.276 361.377 408.925 360.882 409.508C360.23 410.202 359.449 410.763 358.583 411.158Z" fill="#52B788"/>
<path d="M344.327 413.732C340.752 414.37 337.298 414.645 334.427 410.366C333.25 408.551 332.986 405.537 334.779 404.085C335.347 403.668 336.031 403.436 336.736 403.423C337.44 403.409 338.132 403.613 338.717 404.008C339.89 404.776 340.906 405.762 341.709 406.912C342.587 408.057 343.308 409.315 343.854 410.652C344.165 411.649 344.325 412.687 344.327 413.732Z" fill="#52B788"/>
<path d="M348.408 399.916C347.044 403.122 346.009 406.457 345.317 409.871C344.614 413.253 344.173 416.684 343.997 420.134" stroke="#52B788" stroke-miterlimit="10"/>
<path d="M357.153 428.032C355.578 429.655 353.672 430.92 351.565 431.739C349.365 432.553 347.165 432.696 345.515 431.277C345.015 430.811 344.592 430.269 344.261 429.671C346.824 427.724 347.869 424.259 351.103 423.467C352.852 423.016 356.537 422.554 358.011 423.412C359.925 424.512 358.594 426.448 357.153 428.032Z" fill="#52B788"/>
<path d="M344.052 434.412C340.807 435.908 337.452 436.942 333.679 433.675C332.062 432.3 331.094 429.638 332.337 427.911C332.798 427.388 333.399 427.006 334.069 426.811C334.739 426.616 335.451 426.616 336.121 426.811C337.453 427.189 338.702 427.812 339.806 428.648C340.97 429.477 342.001 430.479 342.864 431.618C343.42 432.473 343.822 433.419 344.052 434.412Z" fill="#52B788"/>
<path d="M343.997 420.134C343.626 427.009 344.047 433.903 345.251 440.682" stroke="#52B788" stroke-miterlimit="10"/>
<path d="M385.214 418.923C380.869 420.265 374.357 418.758 373.917 414.381C373.866 413.674 373.911 412.963 374.049 412.269C377.349 412.346 380.396 409.849 383.63 410.652C385.39 411.125 388.954 412.39 389.57 414.172C390.373 416.58 387.59 418.241 385.214 418.923Z" fill="#52B788"/>
<path d="M370.65 415.8C367.174 414.7 364.259 412.984 363.489 408.265C363.159 406.274 363.808 403.964 365.689 403.59C366.364 403.523 367.045 403.621 367.674 403.876C368.302 404.131 368.859 404.535 369.297 405.053C370.192 406.095 370.842 407.324 371.2 408.65C371.625 410.011 371.793 411.44 371.695 412.863C371.529 413.897 371.175 414.893 370.65 415.8Z" fill="#52B788"/>
<path d="M379.274 403.942C375.721 410.003 371.189 415.558 366.877 421.322" stroke="#52B788" stroke-miterlimit="10"/>
<path d="M372.674 435.93C370.419 436.427 368.079 436.386 365.843 435.809C363.588 435.204 361.674 433.983 361.289 431.805C361.179 431.102 361.179 430.385 361.289 429.682C364.589 429.539 367.581 427.185 370.727 428.285C372.443 428.879 375.798 430.485 376.436 432.168C377.261 434.368 374.83 435.391 372.674 435.93Z" fill="#52B788"/>
<path d="M358.154 433.62C354.568 432.96 351.279 431.926 350.278 426.778C350.078 425.64 350.188 424.47 350.597 423.39C350.776 422.875 351.066 422.405 351.446 422.013C351.826 421.622 352.287 421.318 352.797 421.124C353.475 420.956 354.187 420.988 354.847 421.216C355.507 421.445 356.086 421.86 356.515 422.411C357.388 423.507 358.021 424.773 358.374 426.129C358.799 427.538 359.006 429.003 358.99 430.474C358.879 431.56 358.596 432.622 358.154 433.62Z" fill="#52B788"/>
<path d="M366.877 421.3C362.356 427.021 358.473 433.218 355.294 439.78" stroke="#52B788" stroke-miterlimit="10"/>
<path d="M460.223 295.372C459.744 292.794 460.246 290.13 461.631 287.903C461.796 287.694 464.227 284.735 465.052 284.812C466.883 285.729 468.352 287.237 469.221 289.091C470.251 291.03 470.683 293.231 470.464 295.416C470.211 297.462 468.176 301.367 465.426 301.532C462.676 301.697 460.586 297.253 460.223 295.372Z" fill="#52B788"/>
<path d="M393.145 98.5703H181.945V379.301H393.145V98.5703Z" fill="white"/>
<path d="M393.2 379.852H182C181.854 379.852 181.714 379.794 181.611 379.69C181.508 379.587 181.45 379.447 181.45 379.302V98.5705C181.45 98.4246 181.508 98.2847 181.611 98.1816C181.714 98.0785 181.854 98.0205 182 98.0205H393.2C393.346 98.0205 393.486 98.0785 393.589 98.1816C393.692 98.2847 393.75 98.4246 393.75 98.5705V379.302C393.75 379.447 393.692 379.587 393.589 379.69C393.486 379.794 393.346 379.852 393.2 379.852ZM182.55 378.752H392.65V99.1205H182.55V378.752Z" fill="#263238"/>
<path d="M365.832 243.221H205.078V249.821H365.832V243.221Z" fill="#263238"/>
<path d="M365.832 160.094H234.877V166.694H365.832V160.094Z" fill="#263238"/>
<path d="M365.832 201.662H205.078V208.262H365.832V201.662Z" fill="#263238"/>
<path d="M324.527 326.337C322.481 328.537 320.391 330.737 318.257 332.937H205.1V326.337H324.527Z" fill="#263238"/>
<path d="M356.108 284.778C354.7 286.978 353.259 289.178 351.763 291.378H205.1V284.778H356.108Z" fill="#263238"/>
<path d="M261.926 371.723C261.926 371.723 252.532 376.288 226.22 378.752H182.495" stroke="#263238" stroke-linecap="round" stroke-linejoin="round"/>
<path d="M388.569 218.9C390.195 216.459 391.179 213.648 391.429 210.727C391.759 207.053 392.001 202.774 392.078 200.167L392.496 185.768V216.7L388.569 218.9Z" fill="#263238"/>
<path d="M391.264 215.423C391.264 216.765 378.966 249.193 356.064 284.723C354.656 286.923 353.215 289.123 351.719 291.323C343.512 303.63 334.409 315.314 324.483 326.281C322.437 328.481 320.347 330.681 318.213 332.881C302.098 349.227 283.53 363.142 262.729 371.117C263.917 370.512 282.034 361.371 285.983 332.881C286.276 330.791 286.485 328.591 286.61 326.281C287.138 316.645 286.104 305.095 282.606 291.323C282.063 289.182 281.458 286.982 280.791 284.723C275.709 267.552 266.975 247.202 253.06 223.123L249.474 215.313L272.904 221.913C377.547 246.212 391.209 215.313 391.209 215.313C391.209 215.313 391.264 215.401 391.264 215.423Z" fill="white" stroke="#263238" stroke-linecap="round" stroke-linejoin="round"/>
<path d="M301.229 313.312C301.302 315.26 301.258 317.211 301.097 319.154L301.229 313.312Z" fill="white"/>
<path d="M301.229 313.312C301.302 315.26 301.258 317.211 301.097 319.154" stroke="#263238" stroke-linecap="round" stroke-linejoin="round"/>
<path d="M276.061 238.414C291.263 258.104 298.93 291.379 300.932 307.164L276.061 238.414Z" fill="white"/>
<path d="M276.061 238.414C291.263 258.104 298.93 291.379 300.932 307.164" stroke="#263238" stroke-linecap="round" stroke-linejoin="round"/>
<path d="M207.432 129.172C205.951 129.219 204.474 128.968 203.092 128.433C201.709 127.898 200.448 127.091 199.383 126.059C198.318 125.027 197.472 123.792 196.894 122.427C196.316 121.062 196.018 119.594 196.018 118.112C196.018 116.629 196.316 115.162 196.894 113.797C197.472 112.431 198.318 111.196 199.383 110.165C200.448 109.133 201.709 108.326 203.092 107.791C204.474 107.256 205.951 107.005 207.432 107.051C207.87 107.051 208.29 107.225 208.599 107.535C208.909 107.844 209.082 108.264 209.082 108.701C209.082 109.139 208.909 109.559 208.599 109.868C208.29 110.178 207.87 110.351 207.432 110.351C205.894 110.338 204.386 110.783 203.1 111.628C201.814 112.473 200.809 113.682 200.211 115.099C199.613 116.517 199.45 118.081 199.742 119.592C200.034 121.102 200.768 122.492 201.852 123.585C202.935 124.678 204.319 125.424 205.827 125.729C207.335 126.034 208.9 125.884 210.323 125.298C211.746 124.713 212.963 123.717 213.819 122.439C214.675 121.16 215.132 119.656 215.132 118.117C215.132 117.68 215.306 117.26 215.616 116.951C215.925 116.641 216.345 116.467 216.782 116.467C217.22 116.467 217.64 116.641 217.949 116.951C218.259 117.26 218.432 117.68 218.432 118.117C218.43 121.039 217.271 123.841 215.211 125.912C213.15 127.983 210.354 129.155 207.432 129.172Z" fill="#263238"/>
<path d="M207.168 124.608C197.059 124.608 196.509 102.762 196.498 98.3836V98.2516C196.498 93.8516 197.015 71.8516 207.168 71.8516C217.321 71.8516 218.025 95.5456 218.08 98.2516L209.28 98.4166C209.262 93.3253 208.522 88.2625 207.08 83.3796C205.785 88.213 205.178 93.2047 205.276 98.2076V98.3396C205.179 103.368 205.808 108.385 207.146 113.234C207.245 112.915 207.344 112.563 207.454 112.134L208.147 109.747L214.285 111.54C214.589 111.628 214.873 111.776 215.12 111.974C215.368 112.172 215.573 112.418 215.725 112.695C215.878 112.973 215.974 113.279 216.008 113.594C216.042 113.909 216.013 114.227 215.924 114.532C214.142 121.209 211.183 124.608 207.168 124.608Z" fill="#BFBFBF" stroke="#263238" stroke-linecap="round" stroke-linejoin="round"/>
<path d="M216.837 119.768C216.4 119.768 215.98 119.594 215.671 119.284C215.361 118.975 215.187 118.555 215.187 118.118C215.187 116.069 214.378 114.104 212.936 112.65C211.494 111.195 209.536 110.369 207.487 110.352C207.05 110.352 206.63 110.178 206.321 109.868C206.011 109.559 205.837 109.139 205.837 108.702C205.837 108.264 206.011 107.844 206.321 107.535C206.63 107.226 207.05 107.052 207.487 107.052C210.41 107.072 213.206 108.247 215.266 110.319C217.327 112.392 218.485 115.195 218.487 118.118C218.487 118.555 218.314 118.975 218.004 119.284C217.695 119.594 217.275 119.768 216.837 119.768Z" fill="#263238"/>
<path d="M259.572 129.173C256.699 129.082 253.974 127.877 251.974 125.813C249.973 123.748 248.855 120.987 248.855 118.112C248.855 115.238 249.973 112.476 251.974 110.412C253.974 108.347 256.699 107.142 259.572 107.052C260.01 107.052 260.429 107.226 260.739 107.535C261.048 107.844 261.222 108.264 261.222 108.702C261.222 109.139 261.048 109.559 260.739 109.868C260.429 110.178 260.01 110.352 259.572 110.352C258.036 110.352 256.535 110.807 255.258 111.661C253.98 112.514 252.985 113.727 252.397 115.146C251.809 116.565 251.656 118.126 251.955 119.633C252.255 121.139 252.995 122.523 254.081 123.609C255.167 124.695 256.551 125.435 258.057 125.735C259.564 126.034 261.125 125.88 262.544 125.293C263.963 124.705 265.176 123.709 266.029 122.432C266.883 121.155 267.338 119.654 267.338 118.118C267.338 117.68 267.512 117.26 267.821 116.951C268.131 116.642 268.551 116.468 268.988 116.468C269.426 116.468 269.845 116.642 270.155 116.951C270.464 117.26 270.638 117.68 270.638 118.118C270.632 121.05 269.464 123.86 267.39 125.932C265.316 128.005 262.504 129.17 259.572 129.173Z" fill="#263238"/>
<path d="M259.319 124.608C249.21 124.608 248.649 102.762 248.649 98.3836V98.2516C248.649 93.8516 249.155 71.8516 259.319 71.8516C269.483 71.8516 270.176 95.5456 270.231 98.2516L261.431 98.4166C261.415 93.3253 260.674 88.2622 259.231 83.3796C257.941 88.2137 257.338 93.2053 257.438 98.2076V98.3396C257.341 103.39 257.971 108.428 259.308 113.3C259.418 112.981 259.517 112.629 259.627 112.2L260.32 109.813L266.458 111.606C266.763 111.694 267.047 111.842 267.294 112.04C267.541 112.238 267.747 112.484 267.899 112.761C268.051 113.039 268.147 113.345 268.181 113.66C268.215 113.975 268.187 114.293 268.097 114.598C266.293 121.209 263.334 124.608 259.319 124.608Z" fill="#BFBFBF" stroke="#263238" stroke-linecap="round" stroke-linejoin="round"/>
<path d="M268.988 119.768C268.551 119.768 268.131 119.594 267.822 119.284C267.512 118.975 267.338 118.555 267.338 118.118C267.335 116.059 266.516 114.085 265.061 112.63C263.605 111.174 261.631 110.355 259.572 110.352C259.135 110.352 258.715 110.178 258.406 109.868C258.096 109.559 257.922 109.139 257.922 108.702C257.922 108.264 258.096 107.844 258.406 107.535C258.715 107.226 259.135 107.052 259.572 107.052C262.506 107.055 265.319 108.221 267.394 110.296C269.469 112.371 270.635 115.184 270.638 118.118C270.638 118.555 270.465 118.975 270.155 119.284C269.846 119.594 269.426 119.768 268.988 119.768Z" fill="#263238"/>
<path d="M311.723 129.173C308.85 129.082 306.125 127.877 304.125 125.813C302.124 123.748 301.006 120.987 301.006 118.112C301.006 115.238 302.124 112.476 304.125 110.412C306.125 108.347 308.85 107.142 311.723 107.052C312.161 107.052 312.58 107.226 312.89 107.535C313.199 107.844 313.373 108.264 313.373 108.702C313.373 109.139 313.199 109.559 312.89 109.868C312.58 110.178 312.161 110.352 311.723 110.352C310.187 110.352 308.686 110.807 307.408 111.661C306.131 112.514 305.136 113.727 304.548 115.146C303.96 116.565 303.807 118.126 304.106 119.633C304.406 121.139 305.146 122.523 306.232 123.609C307.318 124.695 308.702 125.435 310.208 125.735C311.714 126.034 313.276 125.88 314.695 125.293C316.114 124.705 317.327 123.709 318.18 122.432C319.034 121.155 319.489 119.654 319.489 118.118C319.489 117.68 319.663 117.26 319.972 116.951C320.282 116.642 320.701 116.468 321.139 116.468C321.577 116.468 321.996 116.642 322.306 116.951C322.615 117.26 322.789 117.68 322.789 118.118C322.783 121.05 321.615 123.86 319.541 125.932C317.466 128.005 314.655 129.17 311.723 129.173Z" fill="#263238"/>
<path d="M311.459 124.608C301.35 124.608 300.8 102.762 300.789 98.3836V98.2516C300.789 93.8516 301.306 71.8516 311.459 71.8516C321.612 71.8516 322.327 95.5456 322.371 98.2516L313.571 98.4166C313.553 93.3253 312.813 88.2625 311.371 83.3796C310.083 88.2287 309.487 93.2356 309.6 98.2516V98.3836C309.503 103.412 310.132 108.429 311.47 113.278C311.569 112.959 311.679 112.607 311.778 112.178L312.482 109.791L318.609 111.584C318.913 111.672 319.197 111.82 319.444 112.018C319.692 112.216 319.897 112.462 320.049 112.739C320.202 113.017 320.298 113.323 320.332 113.638C320.366 113.953 320.337 114.271 320.248 114.576C318.4 121.209 315.485 124.608 311.459 124.608Z" fill="#BFBFBF" stroke="#263238" stroke-linecap="round" stroke-linejoin="round"/>
<path d="M321.139 119.768C320.702 119.768 320.282 119.594 319.973 119.284C319.663 118.975 319.489 118.555 319.489 118.118C319.486 116.059 318.667 114.085 317.211 112.63C315.756 111.174 313.782 110.355 311.723 110.352C311.286 110.352 310.866 110.178 310.557 109.868C310.247 109.559 310.073 109.139 310.073 108.702C310.073 108.264 310.247 107.844 310.557 107.535C310.866 107.226 311.286 107.052 311.723 107.052C314.659 107.052 317.475 108.217 319.552 110.292C321.629 112.367 322.797 115.182 322.8 118.118C322.797 118.556 322.621 118.976 322.31 119.285C321.999 119.594 321.578 119.768 321.139 119.768Z" fill="#263238"/>
<path d="M363.874 129.172C362.392 129.219 360.916 128.968 359.533 128.433C358.151 127.898 356.889 127.091 355.825 126.059C354.76 125.027 353.913 123.792 353.335 122.427C352.757 121.062 352.459 119.594 352.459 118.112C352.459 116.629 352.757 115.162 353.335 113.797C353.913 112.431 354.76 111.196 355.825 110.165C356.889 109.133 358.151 108.326 359.533 107.791C360.916 107.256 362.392 107.005 363.874 107.051C364.312 107.051 364.731 107.225 365.041 107.535C365.35 107.844 365.524 108.264 365.524 108.701C365.524 109.139 365.35 109.559 365.041 109.868C364.731 110.178 364.312 110.351 363.874 110.351C362.338 110.349 360.835 110.803 359.557 111.655C358.278 112.507 357.281 113.719 356.691 115.138C356.102 116.557 355.947 118.119 356.245 119.626C356.543 121.133 357.282 122.518 358.368 123.605C359.453 124.692 360.837 125.433 362.344 125.733C363.851 126.034 365.413 125.881 366.832 125.293C368.252 124.706 369.466 123.71 370.319 122.433C371.173 121.156 371.629 119.654 371.629 118.117C371.629 117.68 371.803 117.26 372.112 116.951C372.422 116.641 372.842 116.467 373.279 116.467C373.717 116.467 374.136 116.641 374.446 116.951C374.755 117.26 374.929 117.68 374.929 118.117C374.926 121.048 373.761 123.859 371.688 125.931C369.615 128.004 366.805 129.169 363.874 129.172Z" fill="#263238"/>
<path d="M363.61 124.608C353.501 124.608 352.951 102.762 352.94 98.3836V98.2516C352.94 93.8516 353.457 71.8516 363.61 71.8516C373.763 71.8516 374.5 95.5896 374.5 98.2956L365.7 98.4606C365.677 93.3698 364.936 88.3077 363.5 83.4236C362.199 88.2558 361.592 93.2484 361.696 98.2516V98.3836C361.614 103.421 362.255 108.444 363.599 113.3C363.709 112.981 363.808 112.629 363.918 112.2L364.611 109.813L370.749 111.606C371.053 111.694 371.337 111.842 371.585 112.04C371.832 112.238 372.037 112.484 372.19 112.761C372.342 113.039 372.438 113.345 372.472 113.66C372.506 113.975 372.477 114.293 372.388 114.598C370.584 121.209 367.625 124.608 363.61 124.608Z" fill="#BFBFBF" stroke="#263238" stroke-linecap="round" stroke-linejoin="round"/>
<path d="M373.279 119.768C372.842 119.768 372.422 119.594 372.112 119.284C371.803 118.975 371.629 118.555 371.629 118.118C371.629 116.06 370.812 114.086 369.358 112.63C367.904 111.174 365.932 110.355 363.874 110.352C363.437 110.352 363.017 110.178 362.707 109.868C362.398 109.559 362.224 109.139 362.224 108.702C362.224 108.264 362.398 107.844 362.707 107.535C363.017 107.226 363.437 107.052 363.874 107.052C366.806 107.058 369.616 108.226 371.689 110.3C373.761 112.374 374.926 115.186 374.929 118.118C374.929 118.555 374.755 118.975 374.446 119.284C374.136 119.594 373.717 119.768 373.279 119.768Z" fill="#263238"/>
<path d="M421.274 376.116C426.384 353.896 412.513 331.741 390.293 326.631C368.073 321.522 345.918 335.393 340.808 357.613C335.699 379.833 349.57 401.988 371.79 407.097C394.01 412.207 416.165 398.336 421.274 376.116Z" fill="#52B788" stroke="#263238" stroke-miterlimit="10"/>
<path d="M405.135 366.883C405.136 367.389 405.038 367.89 404.845 368.358C404.652 368.826 404.368 369.251 404.011 369.608C403.653 369.966 403.228 370.25 402.76 370.443C402.292 370.636 401.791 370.734 401.285 370.733H384.906V387.123C384.906 388.144 384.5 389.123 383.778 389.845C383.056 390.567 382.077 390.973 381.056 390.973C380.035 390.973 379.056 390.567 378.334 389.845C377.612 389.123 377.206 388.144 377.206 387.123V370.7H360.827C359.806 370.7 358.827 370.294 358.105 369.572C357.383 368.85 356.977 367.871 356.977 366.85C356.977 365.829 357.383 364.849 358.105 364.127C358.827 363.405 359.806 363 360.827 363H377.206V346.654C377.206 345.633 377.612 344.653 378.334 343.931C379.056 343.209 380.035 342.804 381.056 342.804C382.077 342.804 383.056 343.209 383.778 343.931C384.5 344.653 384.906 345.633 384.906 346.654V363H401.285C401.793 363 402.297 363.1 402.766 363.296C403.235 363.491 403.661 363.778 404.019 364.139C404.377 364.5 404.66 364.928 404.851 365.399C405.043 365.87 405.139 366.374 405.135 366.883Z" fill="white"/>
<path d="M183.1 231.881C183.1 231.881 186.488 251.351 185.839 253.771C185.19 255.485 184.04 256.965 182.539 258.017L190.129 276.057V261.944C190.129 261.944 192.219 229.274 192.472 214.644C192.579 207.381 192.296 200.118 191.625 192.886L188.028 193.469C188.028 193.469 183.903 224.038 183.1 231.881Z" fill="white" stroke="#263238" stroke-linecap="round" stroke-linejoin="round"/>
<path d="M167.238 468.512L165.126 452.98L151.101 451.88L152.74 468.853C154.804 470.525 157.395 471.409 160.051 471.346C162.707 471.284 165.254 470.279 167.238 468.512Z" fill="white" stroke="#263238" stroke-linecap="round" stroke-linejoin="round"/>
<path d="M151.827 466.885C151.365 470.713 150.914 474.739 152.014 478.402C153.114 482.065 156.337 485.156 159.505 484.254C160.231 484.056 160.924 483.649 161.705 483.517C163.113 483.275 164.499 484.023 165.819 484.672C173.827 488.621 194.705 486.927 196.355 486.058C196.831 485.771 197.218 485.358 197.473 484.865C197.729 484.372 197.842 483.817 197.801 483.263C197.76 482.709 197.566 482.177 197.241 481.727C196.916 481.276 196.472 480.925 195.959 480.712C186.378 476.169 186.994 477.313 171.176 468.348C168.338 466.742 166.655 467.512 165.225 468.986C164.287 469.905 163.146 470.591 161.896 470.991C160.645 471.391 159.318 471.493 158.02 471.289C156.723 471.085 155.491 470.58 154.424 469.816C153.356 469.051 152.482 468.047 151.871 466.885H151.827Z" fill="#263238"/>
<path d="M166.314 433.4C159.153 442.299 150.188 453.695 150.188 453.695L143.72 439.769C143.72 439.769 158.746 421.927 166.457 403.106C166.457 406.791 166.754 410.806 166.853 413.105C167.117 420.057 166.424 426.481 166.314 433.4Z" fill="#263238"/>
<path d="M151.112 471.097C151.078 471.685 150.846 472.244 150.452 472.681C149.22 473.781 147.856 471.79 146.822 470.481C143.644 466.256 140.78 461.804 138.253 457.16L137.45 449.999L135.096 450.978H134.799L134.117 449.779C128.903 440.671 135.129 438.9 141.762 439.197C142.521 439.197 144.105 439.395 146.657 444.29C147.343 445.42 147.956 446.592 148.494 447.799C151.451 455.187 152.356 463.237 151.112 471.097Z" fill="#263238"/>
<path d="M192.065 283.657C191.819 279.705 191.782 275.743 191.955 271.788C192.027 268.704 191.385 265.644 190.08 262.849C188.775 260.054 186.842 257.598 184.431 255.673C184.431 255.673 178.667 263.373 162.2 263.373H161.375C154.041 263.196 146.768 261.989 139.771 259.787C136.805 258.858 133.896 257.756 131.059 256.487C131.059 256.487 131.389 278.487 132.082 298.936C132.676 315.161 136.856 388.036 139.496 411.224C141.696 430.54 148.23 449.614 149.011 457.853C149.385 461.736 158.152 460.526 162.343 459.03C167.843 457.061 168.228 455.895 168.228 455.895C168.591 449.911 166.996 439.395 167.128 433.444C182.132 414.744 205.474 385.154 206.134 380.589C211.227 345.125 192.615 287.331 192.065 283.657ZM177.71 374.957C177.325 377.355 172.342 389.917 166.71 403.634C166.71 397.562 169.394 391.237 170.186 381.436C171.693 362.582 167.865 341.836 168.404 326.689C171.451 339.713 178.414 370.458 177.71 374.913V374.957Z" fill="#263238"/>
<path d="M201.261 386.166C198.86 388.21 196.057 389.728 193.033 390.621" stroke="#BFBFBF" stroke-linecap="round" stroke-linejoin="round"/>
<path d="M204.627 382.613C204.154 383.238 203.647 383.837 203.109 384.406" stroke="#BFBFBF" stroke-linecap="round" stroke-linejoin="round"/>
<path d="M171.803 270.072C173.31 278.091 173.552 288.926 170.263 296.384C169.441 297.661 168.462 298.829 167.348 299.86" stroke="#BFBFBF" stroke-linecap="round" stroke-linejoin="round"/>
<path d="M145.821 269.214C144.93 273.064 143.324 279.411 141.234 282.766C139.229 286.23 135.935 288.761 132.071 289.806" stroke="#BFBFBF" stroke-linecap="round" stroke-linejoin="round"/>
<path d="M166.127 277.332C167.282 290.334 167.227 302.951 168.47 324.808" stroke="#BFBFBF" stroke-linecap="round" stroke-linejoin="round"/>
<path d="M165.423 270.601C165.544 271.635 165.665 272.658 165.775 273.67" stroke="white" stroke-linecap="round" stroke-linejoin="round"/>
<path d="M177.765 371.404C178.514 376.759 180.03 381.979 182.264 386.903" stroke="#BFBFBF" stroke-linecap="round" stroke-linejoin="round"/>
<path d="M178.7 376.442C177.734 384.074 178.156 391.818 179.943 399.3" stroke="#BFBFBF" stroke-linecap="round" stroke-linejoin="round"/>
<path d="M135.459 288.486C137.472 318.472 140.266 341.286 142.499 364.056" stroke="#BFBFBF" stroke-linecap="round" stroke-linejoin="round"/>
<path d="M142.576 371.965C142.576 371.03 142.576 370.073 142.576 369.116" stroke="#BFBFBF" stroke-linecap="round" stroke-linejoin="round"/>
<path d="M155.446 459.932C153.895 455.125 143.181 418.132 142.675 402.787C142.334 392.612 141.927 385.363 142.444 375.529" stroke="#BFBFBF" stroke-linecap="round" stroke-linejoin="round"/>
<path d="M167.601 400.169L167.216 433.29" stroke="#BFBFBF" stroke-linecap="round" stroke-linejoin="round"/>
<path d="M189.392 172.282C186.818 159.082 178.051 157.366 176.06 156.739C162.343 152.416 152.96 151.69 142.114 156.442C129.409 162.03 126.857 162.228 122.941 176.726C120.741 184.657 125.064 211.365 127.638 222.992C129.695 232.243 129.178 256.212 133.138 260.051C140.486 267.168 150.903 266.145 160.979 264.363C169.702 262.812 184.266 260.744 187.577 252.527C188.05 251.35 188.006 246.378 187.841 239.206C187.313 217.503 188.765 205.051 188.545 191.158L191.493 189.794C191.493 189.794 191.746 184.305 189.392 172.282Z" fill="#52B788"/>
<path opacity="0.2" d="M125.9 200.508C126.285 204.996 124.8 209.814 126.747 213.851C127.26 214.996 128.102 215.962 129.165 216.628C130.228 217.294 131.466 217.629 132.72 217.591C134.282 217.426 135.756 216.491 137.318 216.667C139.32 216.876 140.695 218.713 141.872 220.352C144.333 224.147 147.486 227.446 151.167 230.076C154.94 232.551 159.736 233.794 164.059 232.496C162.916 234.365 161.629 236.142 160.209 237.809C162.607 236.918 167.909 233.057 172.551 233.035L187.368 232.936C188.325 229.834 186.103 226.435 183.155 225.06C180.207 223.685 176.797 223.861 173.574 224.301C170.351 224.741 167.095 225.401 163.883 224.961C159.581 224.15 155.706 221.838 152.949 218.438C150.226 215.055 147.911 211.363 146.052 207.438C145.249 208.956 143.027 209.143 141.531 208.318C140.117 207.346 138.938 206.073 138.077 204.589C135.14 200.442 129.519 193.534 124.338 192.412C123.48 194.623 125.691 198.066 125.9 200.508Z" fill="black"/>
<path opacity="0.2" d="M171.451 222.541C177.193 220.341 181.043 214.643 182.704 208.703C183.694 205.117 185.927 195.272 183.441 192.203C181.582 197.362 180.295 202.708 178.282 207.834C177.248 210.452 176.148 213.037 174.982 215.534C174.388 216.755 172.661 222.068 171.451 222.541Z" fill="black"/>
<path opacity="0.2" d="M129.969 239.283C133.654 248.16 142.146 254.463 151.364 257.18C160.582 259.897 171.318 259.798 180.767 258.016C168.59 264.913 152.442 265.584 139.407 260.491C137.064 259.578 134.732 260.634 133.005 258.797C129.045 254.595 129.221 245.905 129.705 240.097L127.505 240.196" fill="black"/>
<path opacity="0.2" d="M154.203 169.84C154.621 170.468 155.242 170.934 155.963 171.16C156.383 171.202 156.807 171.134 157.192 170.962C157.578 170.79 157.913 170.521 158.163 170.181C158.662 169.489 159.096 168.753 159.461 167.981C160.51 166.117 162.135 164.643 164.092 163.779C165.154 166.335 166.761 168.628 168.8 170.5H169.482C170.546 167.938 170.848 165.123 170.351 162.393C170.257 162.743 170.089 163.069 169.86 163.35C169.63 163.631 169.344 163.859 169.02 164.021C168.503 162.906 167.82 161.875 166.996 160.963C166.578 160.512 166.066 160.159 165.495 159.931C164.924 159.702 164.309 159.604 163.696 159.643C163.177 159.726 162.675 159.893 162.211 160.138C159.153 161.623 156.997 164.538 155.38 167.475C153.106 165.805 150.737 164.27 148.285 162.877C150.1 165.231 152.212 167.508 154.203 169.84Z" fill="black"/>
<path d="M189.392 172.282C186.818 159.082 178.051 157.366 176.06 156.739C162.343 152.416 152.96 151.69 142.114 156.442C129.409 162.03 126.857 162.228 122.941 176.726C120.741 184.657 125.064 211.365 127.638 222.992C129.695 232.243 129.178 256.212 133.138 260.051C140.486 267.168 150.903 266.145 160.979 264.363C169.702 262.812 184.266 260.744 187.577 252.527C188.05 251.35 188.006 246.378 187.841 239.206C187.313 217.503 188.765 205.051 188.545 191.158L191.493 189.794C191.493 189.794 191.746 184.305 189.392 172.282Z" stroke="#263238" stroke-miterlimit="10"/>
<path d="M166.864 153.814C168.515 153.811 170.126 153.303 171.479 152.357C172.832 151.411 173.863 150.073 174.432 148.523C176.016 144.123 176.753 130.109 176.753 127.557C176.753 125.005 174.74 119.857 174.333 116.931C173.926 114.005 172.133 107.911 172.133 107.911L166.798 102.763L159.461 105.865L149.077 107.24C149.077 107.24 147.141 124.081 144.49 121.375C141.839 118.669 133.831 122.145 134.326 128.525C134.821 134.905 142.983 134.817 142.983 134.817C142.983 134.817 145.007 136.808 146.217 143.441C146.974 147.566 147 151.792 146.294 155.926C147.602 157.534 149.298 158.782 151.223 159.552C153.148 160.322 155.237 160.588 157.294 160.326C164.323 159.435 164.994 154.661 164.994 154.661C164.994 154.661 165.082 153.858 166.864 153.814Z" fill="white"/>
<path d="M143.103 125.5C141.541 123.3 135.931 119.736 134.567 127.194C133.203 134.652 140.65 134.179 144.555 135.103C147.481 139.976 153.355 148.16 158.305 150.723C161.374 152.318 165.213 154.166 168.832 153.748C172.451 153.33 173.892 151.163 174.596 147.742C175.571 143.149 176.207 138.491 176.499 133.805C176.675 130.824 177.192 126.831 175.982 124.004C174.244 119.923 174.618 115.204 173.287 111.035C171.956 106.866 168.348 103.808 165.004 101.135" stroke="#263238" stroke-linecap="round" stroke-linejoin="round"/>
<path d="M156.513 122.771C158.801 121.352 160.792 120.736 162.717 122.771C163.256 122.771 164.499 120.571 164.499 120.571C163.931 119.879 163.165 119.377 162.304 119.131C161.444 118.885 160.528 118.908 159.681 119.196C156.326 120.01 156.513 122.771 156.513 122.771Z" fill="#263238"/>
<path d="M161.605 139.326C163.178 141.592 164.85 142.285 167.798 142.032" stroke="#263238" stroke-linecap="round" stroke-linejoin="round"/>
<path d="M160.473 126.247C160.979 126.247 161.474 127.006 161.573 128.051C161.672 129.096 161.32 129.976 160.803 130.009C160.286 130.042 159.802 129.239 159.703 128.205C159.604 127.171 160 126.291 160.473 126.247Z" fill="#263238"/>
<path d="M171.627 124.773C172.155 124.773 172.65 125.521 172.727 126.566C172.804 127.611 172.485 128.502 171.957 128.546C171.429 128.59 170.945 127.776 170.857 126.742C170.769 125.708 171.11 124.828 171.627 124.773Z" fill="#263238"/>
<path d="M170.394 121.561C170.394 121.561 172.924 120.329 173.936 121.22C173.936 121.22 174.662 118.701 172.748 118.118C172.271 117.919 171.736 117.905 171.249 118.078C170.761 118.251 170.355 118.598 170.108 119.053L170.185 121.77L170.394 121.561Z" fill="#263238"/>
<path d="M165.148 153.594C165.214 153.594 164.675 157.785 162.948 158.962C161.793 159.976 160.305 160.532 158.768 160.524C155.215 160.832 148.186 158.973 146.327 155.926C147.01 152.919 147.118 149.81 146.646 146.763C146.327 142.814 145.612 138.908 144.512 135.103C144.512 135.103 153.719 152.23 165.148 153.594Z" stroke="#263238" stroke-linecap="round" stroke-linejoin="round"/>
<path d="M147.173 152.769C144.753 153.341 142.773 153.473 142.245 155.134C141.893 156.234 142.696 157.202 143.554 158.115C147.122 161.814 151.231 164.948 155.743 167.41C157.721 164.43 160.152 161.776 162.947 159.545C157.721 158.534 152.759 156.456 148.372 153.44L147.173 152.769Z" fill="white" stroke="#263238" stroke-linecap="round" stroke-linejoin="round"/>
<path d="M165.213 153.923C165.922 153.939 166.617 154.122 167.241 154.457C167.866 154.791 168.404 155.268 168.81 155.848C169.844 157.025 170.68 161.854 169.624 164.923C167.27 162.195 165.818 158.07 162.419 159.137C165.081 158.301 165.213 153.923 165.213 153.923Z" fill="white" stroke="#263238" stroke-linecap="round" stroke-linejoin="round"/>
<path d="M146.8 138.601C146.8 138.601 151.266 155.035 156.337 156.597C157.828 157.016 159.408 156.998 160.888 156.543C162.369 156.089 163.687 155.218 164.686 154.034C155.325 150.976 146.8 138.601 146.8 138.601Z" fill="#263238"/>
<path d="M151.035 119.68C147.944 121.561 145.81 127.193 148.032 130.141C150.254 133.089 147.966 134.838 146.932 135.839C146.144 134.268 145.457 132.647 144.875 130.988C144.204 129.03 144.27 127.314 143.17 125.565C142.565 124.597 139.771 123.046 138.66 122.749C137.021 122.309 135.36 124.08 134.832 125.697C134.454 127.362 134.507 129.096 134.986 130.735C132.786 128.37 132.61 127.71 132.39 124.52C132.414 122.779 132.333 121.038 132.148 119.306C131.796 117.502 130.883 115.83 130.641 114.015C130.223 110.814 131.928 107.767 133.578 104.995C135.019 102.242 136.903 99.7452 139.155 97.6033C141.247 95.9596 143.606 94.6871 146.129 93.8413C151.761 91.7183 157.855 90.3763 163.806 91.2783C169.757 92.1803 175.554 95.6783 178.106 101.068C179.082 102.878 179.375 104.979 178.931 106.986C178.643 107.998 178.092 108.914 177.334 109.642C176.576 110.371 175.638 110.884 174.616 111.13C173.594 111.377 172.525 111.347 171.518 111.044C170.512 110.741 169.604 110.176 168.888 109.406C170.113 109.713 171.406 109.589 172.551 109.054C173.115 108.777 173.593 108.353 173.936 107.826C174.279 107.3 174.473 106.69 174.498 106.062C174.474 105.648 174.36 105.244 174.165 104.878C173.97 104.512 173.698 104.192 173.368 103.941C173.037 103.691 172.657 103.514 172.252 103.425C171.847 103.335 171.427 103.334 171.022 103.422C170.633 103.562 170.282 103.79 169.995 104.087C169.709 104.385 169.495 104.745 169.371 105.139C169.246 105.533 169.214 105.95 169.277 106.358C169.34 106.766 169.497 107.154 169.735 107.492L167.832 106.535L167.623 107.8L165.423 106.249L165.258 107.349C164.246 106.942 157.14 107.349 154.709 107.613C153.49 107.732 152.285 107.968 151.112 108.317C149.792 108.713 149.418 108.845 149.176 110.231C148.494 114.224 147.647 117.447 151.035 119.68Z" fill="#263238"/>
<path d="M151.882 99.9902C151.675 100.179 151.515 100.412 151.413 100.672C151.311 100.932 151.271 101.212 151.294 101.491C151.317 101.769 151.404 102.038 151.548 102.278C151.692 102.517 151.889 102.721 152.124 102.872" stroke="#BFBFBF" stroke-linecap="round" stroke-linejoin="round"/>
<path d="M154.115 100.475C153.976 100.679 153.901 100.92 153.901 101.168C153.901 101.415 153.976 101.656 154.115 101.861" stroke="#BFBFBF" stroke-linecap="round" stroke-linejoin="round"/>
<path d="M156.414 100.463C156.293 100.914 156.161 101.376 156.029 101.827" stroke="#BFBFBF" stroke-linecap="round" stroke-linejoin="round"/>
<path d="M162.199 99.3418C161.759 99.6779 161.429 100.138 161.252 100.664C161.076 101.189 161.061 101.756 161.209 102.29" stroke="#BFBFBF" stroke-linecap="round" stroke-linejoin="round"/>
<path d="M163.718 102.509C163.645 101.804 163.837 101.096 164.255 100.523C164.674 99.9506 165.289 99.553 165.984 99.4072" stroke="#BFBFBF" stroke-linecap="round" stroke-linejoin="round"/>
<path d="M165.819 102.741C166.298 101.744 167.046 100.902 167.979 100.309C168.913 99.7156 169.993 99.3959 171.099 99.3857" stroke="#BFBFBF" stroke-linecap="round" stroke-linejoin="round"/>
<path d="M167.634 103.708C168.012 103.058 168.536 102.505 169.165 102.092C169.793 101.679 170.509 101.418 171.256 101.33C172.003 101.241 172.76 101.327 173.468 101.582C174.175 101.836 174.814 102.251 175.334 102.795" stroke="#BFBFBF" stroke-linecap="round" stroke-linejoin="round"/>
<path d="M145.853 102.092C145.706 102.311 145.609 102.561 145.57 102.822C145.53 103.084 145.549 103.351 145.624 103.604C145.7 103.857 145.831 104.091 146.007 104.288C146.184 104.485 146.402 104.64 146.645 104.743" stroke="#BFBFBF" stroke-linecap="round" stroke-linejoin="round"/>
<path d="M149.143 98.791C148.502 99.8552 148.279 101.119 148.517 102.339C148.754 103.558 149.436 104.646 150.43 105.391" stroke="#BFBFBF" stroke-linecap="round" stroke-linejoin="round"/>
<path d="M143.038 103.95C142.979 104.131 142.962 104.323 142.988 104.511C143.014 104.7 143.083 104.88 143.189 105.037C143.295 105.195 143.435 105.327 143.6 105.423C143.764 105.518 143.948 105.575 144.138 105.589" stroke="#BFBFBF" stroke-linecap="round" stroke-linejoin="round"/>
<path d="M140.529 105.513C140.466 105.755 140.497 106.012 140.615 106.232C140.733 106.453 140.931 106.62 141.167 106.701" stroke="#BFBFBF" stroke-linecap="round" stroke-linejoin="round"/>
<path d="M138.308 107.074C138.282 107.143 138.272 107.216 138.278 107.289C138.284 107.361 138.305 107.432 138.34 107.496C138.376 107.559 138.425 107.615 138.484 107.658C138.543 107.701 138.61 107.731 138.682 107.745" stroke="#BFBFBF" stroke-linecap="round" stroke-linejoin="round"/>
<path d="M184.068 188.749C184.607 207.658 182.341 227.436 159.868 237.897" stroke="#263238" stroke-linecap="round" stroke-linejoin="round"/>
<path d="M150.661 246.521C160.453 249.195 170.674 249.92 180.746 248.655" stroke="#263238" stroke-linecap="round" stroke-linejoin="round"/>
<path d="M142.906 243.958C144.193 244.453 145.491 244.926 146.8 245.355" stroke="#263238" stroke-linecap="round" stroke-linejoin="round"/>
<path d="M261.53 218.681C261.571 218.216 261.5 217.748 261.323 217.317C261.146 216.886 260.868 216.503 260.512 216.201C260.156 215.899 259.733 215.687 259.279 215.583C258.824 215.478 258.351 215.485 257.9 215.601C257.9 215.711 257.658 215.744 257.68 215.843C258.53 216.508 259.196 217.379 259.616 218.373C260.254 218.417 260.892 218.659 261.53 218.681Z" stroke="#263238" stroke-linecap="round" stroke-linejoin="round"/>
<path d="M260.364 220.627C259.649 218.583 258.629 216.658 257.339 214.918C253.302 211.816 255.062 210.815 247.241 209.418C247.241 209.506 232.127 213.323 223.899 217.118C223.899 217.118 169.79 210.716 169.79 210.199L161.43 199.199L137.901 202.862C137.901 202.862 150.452 223.245 159.901 228.47C159.901 228.47 205.001 227.37 219.631 227.293C227.584 227.293 232.05 231.341 239.871 222.596C239.871 222.596 244.139 226.809 246.68 225.599C248.352 225.137 242.918 220.561 241.059 219.065C241.653 219.406 250.013 225.181 254.666 225.346C254.887 225.358 255.106 225.295 255.288 225.169C255.47 225.042 255.605 224.859 255.672 224.648C255.739 224.436 255.733 224.209 255.657 224.001C255.58 223.793 255.437 223.616 255.249 223.498C255.249 223.498 243.677 217.008 244.249 216.183C244.249 216.183 250.662 218.493 251.685 219.912C255.964 225.786 258.857 223.729 259.264 223.377C260.1 222.651 258.934 221.991 258.934 221.309C258.846 221.32 260.562 221.815 260.364 220.627Z" fill="white" stroke="#263238" stroke-linecap="round" stroke-linejoin="round"/>
<path d="M248.209 213.323C250.497 214.225 253.709 215.655 255.238 217.58C258.208 221.32 258.846 221.32 258.846 221.32" stroke="#263238" stroke-linecap="round" stroke-linejoin="round"/>
<path d="M128.364 164.12C128.364 164.12 121.082 170.72 123.139 188.166C124.239 197.054 134.898 211.816 134.898 211.816L163.905 202.609C163.905 202.609 157.052 187.121 149.792 176.66" stroke="#263238" stroke-miterlimit="10"/>
<path d="M154.5 176.342C156.383 180.684 157.46 185.332 157.679 190.059" stroke="#263238" stroke-linecap="round" stroke-linejoin="round"/>
<path d="M170.846 120.912C170.846 120.978 168.03 125.312 168.91 126.522C172.408 131.12 172.892 136.554 171.363 136.807C169.339 137.126 167.832 135.498 166.963 134.904" stroke="#263238" stroke-linecap="round" stroke-linejoin="round"/>
<path d="M126.274 205.546L132.016 212.74L163.916 202.609L160 194.568C160 194.568 125.68 205.546 126.274 205.546Z" fill="white" stroke="#263238" stroke-linecap="round" stroke-linejoin="round"/>
<path d="M164.499 159.676C164.499 159.489 168.415 180.653 168.415 180.653L165.808 181.258" stroke="#263238" stroke-linecap="round" stroke-linejoin="round"/>
<path d="M188.6 187.694L192.791 186.143L193.055 192.677L188.523 194.36L188.6 187.694Z" fill="white" stroke="#263238" stroke-linecap="round" stroke-linejoin="round"/>
<path d="M186.29 176.33C187.445 182.221 188.217 188.181 188.6 194.172L186.29 176.33Z" fill="white"/>
<path d="M186.29 176.33C187.445 182.221 188.217 188.181 188.6 194.172" stroke="#263238" stroke-linecap="round" stroke-linejoin="round"/>
<path d="M184.948 169.147C185.19 170.533 185.432 171.853 185.685 173.162L184.948 169.147Z" fill="white"/>
<path d="M184.948 169.147C185.19 170.533 185.432 171.853 185.685 173.162" stroke="#263238" stroke-linecap="round" stroke-linejoin="round"/>
</svg>
