<svg width="500" height="500" viewBox="0 0 500 500" fill="none" xmlns="http://www.w3.org/2000/svg">
<path d="M186.39 78.3697C186.39 78.3697 123.16 102.9 103.59 168.87C84.0196 234.84 113.05 306.51 135 365.08C156.95 423.65 210.87 455.58 265.26 444.08C319.65 432.58 314.88 383.65 362.6 339.38C410.32 295.11 430.5 290.46 443.68 227.68C456.86 164.9 399.09 94.2897 318.77 74.8597C238.45 55.4297 186.39 78.3697 186.39 78.3697Z" fill="#52B788"/>
<path opacity="0.75" d="M186.39 78.3697C186.39 78.3697 123.16 102.9 103.59 168.87C84.0196 234.84 113.05 306.51 135 365.08C156.95 423.65 210.87 455.58 265.26 444.08C319.65 432.58 314.88 383.65 362.6 339.38C410.32 295.11 430.5 290.46 443.68 227.68C456.86 164.9 399.09 94.2897 318.77 74.8597C238.45 55.4297 186.39 78.3697 186.39 78.3697Z" fill="white"/>
<path d="M328.57 320.56H276.69C272.777 320.555 269.026 318.998 266.259 316.231C263.492 313.464 261.935 309.713 261.93 305.8V127.57C261.935 123.658 263.492 119.908 266.259 117.143C269.026 114.378 272.778 112.823 276.69 112.82H328.57V113.82H276.69C273.043 113.823 269.546 115.272 266.966 117.85C264.387 120.428 262.935 123.923 262.93 127.57V305.8C262.932 309.449 264.383 312.947 266.963 315.527C269.543 318.107 273.041 319.558 276.69 319.56H328.57V320.56Z" fill="#263238"/>
<path d="M382.569 320.56H295.239C290.996 320.56 286.926 318.875 283.926 315.874C280.925 312.873 279.239 308.804 279.239 304.56V128.82C279.239 124.577 280.925 120.507 283.926 117.507C286.926 114.506 290.996 112.82 295.239 112.82H382.569C386.813 112.82 390.882 114.506 393.883 117.507C396.884 120.507 398.569 124.577 398.569 128.82V304.56C398.569 308.804 396.884 312.873 393.883 315.874C390.882 318.875 386.813 320.56 382.569 320.56ZM295.239 113.82C291.261 113.82 287.446 115.401 284.633 118.214C281.82 121.027 280.239 124.842 280.239 128.82V304.56C280.239 308.539 281.82 312.354 284.633 315.167C287.446 317.98 291.261 319.56 295.239 319.56H382.569C386.548 319.56 390.363 317.98 393.176 315.167C395.989 312.354 397.569 308.539 397.569 304.56V128.82C397.569 124.842 395.989 121.027 393.176 118.214C390.363 115.401 386.548 113.82 382.569 113.82H295.239Z" fill="#263238"/>
<path d="M380.999 152.31H296.129C295.484 152.339 294.839 152.238 294.234 152.011C293.629 151.785 293.076 151.438 292.609 150.991C292.142 150.545 291.77 150.009 291.516 149.415C291.262 148.82 291.131 148.181 291.131 147.535C291.131 146.889 291.262 146.249 291.516 145.655C291.77 145.061 292.142 144.525 292.609 144.079C293.076 143.632 293.629 143.285 294.234 143.059C294.839 142.832 295.484 142.73 296.129 142.76H380.999C381.645 142.73 382.29 142.832 382.895 143.059C383.5 143.285 384.053 143.632 384.52 144.079C384.987 144.525 385.359 145.061 385.613 145.655C385.867 146.249 385.998 146.889 385.998 147.535C385.998 148.181 385.867 148.82 385.613 149.415C385.359 150.009 384.987 150.545 384.52 150.991C384.053 151.438 383.5 151.785 382.895 152.011C382.29 152.238 381.645 152.339 380.999 152.31ZM296.169 143.76C295.657 143.734 295.145 143.812 294.664 143.989C294.183 144.167 293.744 144.441 293.372 144.794C293 145.147 292.704 145.572 292.502 146.044C292.299 146.515 292.195 147.022 292.195 147.535C292.195 148.048 292.299 148.555 292.502 149.026C292.704 149.497 293 149.922 293.372 150.276C293.744 150.629 294.183 150.903 294.664 151.08C295.145 151.258 295.657 151.336 296.169 151.31H380.999C381.512 151.336 382.024 151.258 382.505 151.08C382.985 150.903 383.425 150.629 383.797 150.276C384.169 149.922 384.465 149.497 384.667 149.026C384.869 148.555 384.974 148.048 384.974 147.535C384.974 147.022 384.869 146.515 384.667 146.044C384.465 145.572 384.169 145.147 383.797 144.794C383.425 144.441 382.985 144.167 382.505 143.989C382.024 143.812 381.512 143.734 380.999 143.76H296.169Z" fill="#263238"/>
<path d="M381 293.3H296.13C294.862 293.3 293.646 292.797 292.75 291.9C291.853 291.004 291.35 289.788 291.35 288.52C291.35 287.252 291.853 286.037 292.75 285.14C293.646 284.244 294.862 283.74 296.13 283.74H381C382.267 283.74 383.483 284.244 384.38 285.14C385.276 286.037 385.78 287.252 385.78 288.52C385.78 289.788 385.276 291.004 384.38 291.9C383.483 292.797 382.267 293.3 381 293.3ZM296.17 284.74C295.167 284.74 294.206 285.138 293.497 285.847C292.788 286.556 292.39 287.518 292.39 288.52C292.39 289.523 292.788 290.484 293.497 291.193C294.206 291.902 295.167 292.3 296.17 292.3H381C382.002 292.3 382.964 291.902 383.672 291.193C384.381 290.484 384.78 289.523 384.78 288.52C384.78 287.518 384.381 286.556 383.672 285.847C382.964 285.138 382.002 284.74 381 284.74H296.17Z" fill="#263238"/>
<path d="M355.299 169.42H296.129C295.484 169.45 294.839 169.348 294.234 169.122C293.629 168.895 293.076 168.548 292.609 168.102C292.142 167.655 291.77 167.119 291.516 166.525C291.262 165.931 291.131 165.291 291.131 164.645C291.131 163.999 291.262 163.36 291.516 162.766C291.77 162.172 292.142 161.635 292.609 161.189C293.076 160.743 293.629 160.396 294.234 160.169C294.839 159.942 295.484 159.841 296.129 159.87H355.299C355.945 159.841 356.59 159.942 357.195 160.169C357.8 160.396 358.353 160.743 358.82 161.189C359.287 161.635 359.659 162.172 359.913 162.766C360.167 163.36 360.298 163.999 360.298 164.645C360.298 165.291 360.167 165.931 359.913 166.525C359.659 167.119 359.287 167.655 358.82 168.102C358.353 168.548 357.8 168.895 357.195 169.122C356.59 169.348 355.945 169.45 355.299 169.42ZM296.129 160.87C295.617 160.844 295.105 160.922 294.624 161.1C294.143 161.278 293.704 161.551 293.332 161.905C292.96 162.258 292.664 162.683 292.462 163.154C292.259 163.625 292.155 164.132 292.155 164.645C292.155 165.158 292.259 165.665 292.462 166.137C292.664 166.608 292.96 167.033 293.332 167.386C293.704 167.739 294.143 168.013 294.624 168.191C295.105 168.369 295.617 168.447 296.129 168.42H355.299C355.811 168.447 356.324 168.369 356.805 168.191C357.285 168.013 357.725 167.739 358.097 167.386C358.469 167.033 358.765 166.608 358.967 166.137C359.169 165.665 359.274 165.158 359.274 164.645C359.274 164.132 359.169 163.625 358.967 163.154C358.765 162.683 358.469 162.258 358.097 161.905C357.725 161.551 357.285 161.278 356.805 161.1C356.324 160.922 355.811 160.844 355.299 160.87H296.129Z" fill="#263238"/>
<path d="M373.119 171.781C377.057 171.781 380.249 168.588 380.249 164.65C380.249 160.713 377.057 157.521 373.119 157.521C369.181 157.521 365.989 160.713 365.989 164.65C365.989 168.588 369.181 171.781 373.119 171.781Z" fill="#52B788"/>
<path d="M373.119 172.281C371.61 172.281 370.135 171.833 368.88 170.995C367.626 170.156 366.648 168.965 366.07 167.57C365.493 166.176 365.341 164.642 365.636 163.162C365.93 161.682 366.657 160.322 367.724 159.255C368.791 158.188 370.151 157.462 371.631 157.167C373.111 156.873 374.645 157.024 376.039 157.601C377.433 158.179 378.625 159.157 379.463 160.412C380.302 161.666 380.749 163.141 380.749 164.651C380.744 166.672 379.938 168.61 378.509 170.04C377.079 171.47 375.141 172.275 373.119 172.281ZM373.119 158.021C371.808 158.021 370.526 158.409 369.436 159.138C368.346 159.866 367.496 160.902 366.994 162.113C366.492 163.325 366.361 164.658 366.617 165.944C366.872 167.23 367.504 168.411 368.431 169.339C369.358 170.266 370.54 170.897 371.826 171.153C373.112 171.409 374.445 171.278 375.656 170.776C376.868 170.274 377.903 169.424 378.632 168.334C379.36 167.244 379.749 165.962 379.749 164.651C379.751 163.779 379.58 162.915 379.248 162.109C378.915 161.303 378.427 160.57 377.812 159.952C377.196 159.335 376.465 158.845 375.66 158.51C374.854 158.175 373.991 158.002 373.119 158.001V158.021Z" fill="#263238"/>
<path d="M303.61 208.63C301.465 208.63 299.369 207.994 297.586 206.803C295.803 205.611 294.414 203.918 293.594 201.936C292.774 199.955 292.559 197.775 292.979 195.672C293.398 193.569 294.431 191.637 295.948 190.122C297.465 188.606 299.397 187.574 301.501 187.157C303.604 186.74 305.784 186.956 307.765 187.778C309.745 188.6 311.438 189.991 312.628 191.775C313.817 193.559 314.452 195.656 314.45 197.8C314.447 200.673 313.304 203.428 311.271 205.459C309.238 207.49 306.483 208.63 303.61 208.63ZM303.61 187.96C301.663 187.96 299.761 188.537 298.143 189.619C296.525 190.7 295.263 192.237 294.519 194.035C293.774 195.833 293.579 197.811 293.959 199.72C294.338 201.629 295.275 203.382 296.652 204.758C298.028 206.134 299.781 207.071 301.69 207.451C303.599 207.831 305.577 207.636 307.375 206.891C309.173 206.146 310.71 204.885 311.791 203.267C312.872 201.649 313.45 199.746 313.45 197.8C313.439 195.197 312.398 192.705 310.553 190.868C308.709 189.031 306.212 188 303.61 188V187.96Z" fill="#263238"/>
<path d="M338.9 208.63C336.755 208.63 334.659 207.994 332.876 206.803C331.093 205.611 329.704 203.918 328.884 201.936C328.064 199.955 327.85 197.775 328.269 195.672C328.688 193.569 329.721 191.637 331.238 190.122C332.755 188.606 334.688 187.574 336.791 187.157C338.894 186.74 341.074 186.956 343.055 187.778C345.035 188.6 346.728 189.991 347.918 191.775C349.107 193.559 349.742 195.656 349.74 197.8C349.734 200.673 348.59 203.426 346.558 205.456C344.526 207.486 341.772 208.628 338.9 208.63ZM338.9 187.96C336.953 187.96 335.051 188.537 333.433 189.619C331.815 190.7 330.553 192.237 329.809 194.035C329.064 195.833 328.869 197.811 329.249 199.72C329.628 201.629 330.566 203.382 331.942 204.758C333.318 206.134 335.071 207.071 336.98 207.451C338.889 207.831 340.867 207.636 342.665 206.891C344.463 206.146 346 204.885 347.081 203.267C348.162 201.649 348.74 199.746 348.74 197.8C348.726 195.198 347.684 192.707 345.841 190.871C343.997 189.035 341.502 188.003 338.9 188V187.96Z" fill="#263238"/>
<path d="M374.189 208.63C372.044 208.636 369.945 208.005 368.158 206.817C366.371 205.629 364.977 203.938 364.152 201.957C363.327 199.976 363.109 197.795 363.525 195.69C363.94 193.585 364.971 191.651 366.487 190.132C368.003 188.614 369.935 187.579 372.04 187.159C374.144 186.74 376.325 186.954 378.308 187.775C380.29 188.596 381.984 189.987 383.175 191.772C384.366 193.557 385.001 195.655 384.999 197.8C384.994 200.667 383.854 203.416 381.829 205.445C379.803 207.475 377.057 208.62 374.189 208.63ZM374.189 187.96C372.242 187.954 370.336 188.526 368.714 189.604C367.092 190.682 365.826 192.216 365.077 194.014C364.328 195.811 364.128 197.791 364.505 199.701C364.881 201.612 365.816 203.368 367.191 204.747C368.566 206.127 370.319 207.067 372.229 207.449C374.138 207.831 376.118 207.638 377.918 206.894C379.718 206.15 381.256 204.889 382.339 203.27C383.421 201.651 383.999 199.748 383.999 197.8C383.986 195.203 382.948 192.717 381.111 190.882C379.274 189.046 376.786 188.011 374.189 188V187.96Z" fill="#263238"/>
<path d="M303.61 235.73C301.466 235.73 299.37 235.094 297.587 233.903C295.805 232.712 294.415 231.019 293.595 229.038C292.774 227.057 292.56 224.878 292.978 222.775C293.396 220.672 294.428 218.741 295.945 217.225C297.461 215.709 299.392 214.676 301.495 214.258C303.597 213.84 305.777 214.055 307.758 214.875C309.739 215.695 311.432 217.085 312.623 218.867C313.814 220.65 314.45 222.746 314.45 224.89C314.447 227.764 313.304 230.52 311.272 232.552C309.239 234.584 306.484 235.727 303.61 235.73ZM303.61 215.05C301.663 215.05 299.761 215.627 298.143 216.708C296.525 217.789 295.263 219.326 294.519 221.124C293.774 222.922 293.579 224.901 293.959 226.81C294.338 228.718 295.275 230.472 296.652 231.848C298.028 233.224 299.781 234.161 301.69 234.541C303.599 234.92 305.577 234.726 307.375 233.981C309.173 233.236 310.71 231.975 311.791 230.357C312.872 228.738 313.45 226.836 313.45 224.89C313.45 222.28 312.413 219.777 310.567 217.932C308.722 216.087 306.219 215.05 303.61 215.05Z" fill="#263238"/>
<path d="M338.9 235.73C336.756 235.73 334.66 235.094 332.877 233.903C331.095 232.712 329.705 231.019 328.885 229.038C328.064 227.057 327.85 224.878 328.268 222.775C328.686 220.672 329.719 218.741 331.235 217.225C332.751 215.709 334.682 214.676 336.785 214.258C338.888 213.84 341.067 214.055 343.048 214.875C345.029 215.695 346.722 217.085 347.913 218.867C349.104 220.65 349.74 222.746 349.74 224.89C349.734 227.763 348.591 230.517 346.559 232.549C344.527 234.581 341.773 235.725 338.9 235.73ZM338.9 215.05C336.953 215.05 335.051 215.627 333.433 216.708C331.815 217.789 330.553 219.326 329.809 221.124C329.064 222.922 328.869 224.901 329.249 226.81C329.628 228.718 330.566 230.472 331.942 231.848C333.318 233.224 335.071 234.161 336.98 234.541C338.889 234.92 340.867 234.726 342.665 233.981C344.463 233.236 346 231.975 347.081 230.357C348.162 228.738 348.74 226.836 348.74 224.89C348.737 222.281 347.699 219.78 345.855 217.935C344.01 216.09 341.508 215.052 338.9 215.05Z" fill="#263238"/>
<path d="M374.189 235.73C372.044 235.736 369.945 235.105 368.159 233.918C366.372 232.73 364.978 231.039 364.153 229.059C363.328 227.079 363.109 224.898 363.524 222.793C363.939 220.689 364.969 218.754 366.484 217.235C367.998 215.716 369.93 214.681 372.034 214.26C374.137 213.84 376.318 214.053 378.301 214.872C380.283 215.692 381.978 217.081 383.17 218.864C384.363 220.648 384.999 222.745 384.999 224.89C384.994 227.758 383.854 230.508 381.829 232.538C379.804 234.569 377.057 235.717 374.189 235.73ZM374.189 215.05C372.243 215.05 370.341 215.627 368.723 216.708C367.104 217.789 365.843 219.326 365.098 221.124C364.354 222.922 364.159 224.901 364.538 226.809C364.918 228.718 365.855 230.472 367.231 231.848C368.608 233.224 370.361 234.161 372.27 234.541C374.178 234.92 376.157 234.726 377.955 233.981C379.753 233.236 381.29 231.975 382.371 230.357C383.452 228.738 384.029 226.836 384.029 224.89C384.027 222.281 382.989 219.78 381.144 217.935C379.3 216.09 376.798 215.052 374.189 215.05Z" fill="#263238"/>
<path d="M303.61 262.82C301.465 262.82 299.368 262.183 297.585 260.991C295.802 259.799 294.413 258.105 293.593 256.123C292.773 254.141 292.559 251.961 292.979 249.858C293.399 247.754 294.434 245.823 295.952 244.308C297.47 242.792 299.403 241.762 301.507 241.346C303.611 240.93 305.791 241.147 307.772 241.971C309.752 242.794 311.444 244.187 312.632 245.972C313.821 247.757 314.453 249.855 314.45 252C314.442 254.87 313.296 257.621 311.265 259.649C309.233 261.677 306.48 262.817 303.61 262.82ZM303.61 242.14C301.663 242.14 299.761 242.717 298.143 243.798C296.525 244.879 295.263 246.416 294.519 248.214C293.774 250.012 293.579 251.991 293.959 253.899C294.338 255.808 295.275 257.561 296.652 258.938C298.028 260.314 299.781 261.251 301.69 261.631C303.599 262.01 305.577 261.815 307.375 261.071C309.173 260.326 310.71 259.065 311.791 257.446C312.872 255.828 313.45 253.926 313.45 251.98C313.45 249.37 312.413 246.867 310.567 245.022C308.722 243.176 306.219 242.14 303.61 242.14Z" fill="#263238"/>
<path d="M338.9 262.82C336.755 262.82 334.658 262.183 332.875 260.991C331.092 259.799 329.703 258.105 328.883 256.123C328.063 254.141 327.849 251.961 328.269 249.858C328.689 247.754 329.724 245.823 331.242 244.308C332.76 242.792 334.693 241.762 336.797 241.346C338.901 240.93 341.081 241.147 343.062 241.971C345.042 242.794 346.734 244.187 347.922 245.972C349.111 247.757 349.744 249.855 349.74 252C349.729 254.87 348.583 257.618 346.552 259.646C344.521 261.673 341.769 262.814 338.9 262.82ZM338.9 242.14C336.953 242.14 335.051 242.717 333.433 243.798C331.815 244.879 330.553 246.416 329.809 248.214C329.064 250.012 328.869 251.991 329.249 253.899C329.628 255.808 330.565 257.561 331.942 258.938C333.318 260.314 335.071 261.251 336.98 261.631C338.889 262.01 340.867 261.815 342.665 261.071C344.463 260.326 346 259.065 347.081 257.446C348.162 255.828 348.74 253.926 348.74 251.98C348.737 249.371 347.699 246.869 345.855 245.025C344.01 243.18 341.508 242.142 338.9 242.14Z" fill="#263238"/>
<path d="M374.189 262.82C372.043 262.826 369.944 262.194 368.157 261.006C366.37 259.818 364.976 258.126 364.151 256.144C363.327 254.163 363.109 251.981 363.525 249.876C363.942 247.771 364.974 245.836 366.491 244.318C368.008 242.8 369.941 241.766 372.046 241.348C374.151 240.929 376.332 241.145 378.315 241.968C380.297 242.79 381.99 244.183 383.18 245.969C384.37 247.755 385.003 249.854 384.999 252C384.989 254.864 383.847 257.609 381.822 259.635C379.797 261.662 377.054 262.806 374.189 262.82ZM374.189 242.14C372.243 242.134 370.338 242.705 368.716 243.782C367.095 244.859 365.829 246.392 365.079 248.189C364.329 249.985 364.129 251.963 364.503 253.874C364.878 255.784 365.811 257.54 367.184 258.92C368.557 260.3 370.308 261.241 372.216 261.626C374.125 262.01 376.104 261.82 377.904 261.079C379.704 260.338 381.244 259.08 382.329 257.464C383.414 255.848 383.995 253.946 383.999 252C384.002 249.392 382.971 246.891 381.132 245.042C379.293 243.194 376.796 242.15 374.189 242.14Z" fill="#263238"/>
<path d="M196.18 64.5801H195.18V441.58H196.18V64.5801Z" fill="#263238"/>
<path d="M207.609 64.5801H206.609V441.58H207.609V64.5801Z" fill="#263238"/>
<path d="M247.18 64.5801H246.18V441.58H247.18V64.5801Z" fill="#263238"/>
<path d="M194.043 113.37L95.7725 203.45L96.4482 204.187L194.719 114.107L194.043 113.37Z" fill="#263238"/>
<path d="M156.878 158.707L149.027 165.903L149.703 166.64L157.554 159.444L156.878 158.707Z" fill="#263238"/>
<path d="M194.044 124.636L165.877 150.455L166.553 151.192L194.72 125.373L194.044 124.636Z" fill="#263238"/>
<path d="M194.072 201.199L132.612 257.457L133.288 258.195L194.747 201.937L194.072 201.199Z" fill="#263238"/>
<path d="M170.827 229.498L165.918 233.998L166.594 234.735L171.503 230.235L170.827 229.498Z" fill="#263238"/>
<path d="M194.055 208.21L176.451 224.346L177.127 225.083L194.73 208.947L194.055 208.21Z" fill="#263238"/>
<path d="M139.91 303.2C136.4 311.84 132.81 304.89 133.38 268.67C133.65 251.67 134.84 217 153.62 224.67C171.62 232 147.89 283.29 147.89 283.29L139.91 303.2ZM165.69 308.34C165.69 308.34 204.84 267.55 190.16 254.75C174.88 241.43 162.48 273.85 156.71 289.82C144.41 323.9 145.55 331.64 151.71 324.6L165.69 308.34ZM174 345C174 345 209.84 319.48 200.47 307.57C190.71 295.17 176.54 318.16 169.81 329.57C155.47 353.84 155.22 359.92 160.92 355.43L174 345ZM183.7 381.49C183.7 381.49 219.54 355.98 210.17 344.07C200.41 331.67 186.24 354.66 179.52 366.07C165.17 390.34 164.92 396.42 170.62 391.93L183.7 381.49ZM121.11 308.11C121.11 308.11 70.9699 282.01 62.8099 299.7C54.3199 318.1 88.9199 320.89 105.87 321.93C142.03 324.16 149.14 320.93 140.66 317L121.11 308.11ZM128.17 336.85C128.17 336.85 73.8399 321.23 69.3599 340.19C64.6999 359.91 99.16 355.77 115.98 353.42C151.86 348.42 158.18 343.8 149.1 341.67L128.17 336.85ZM140.61 368.17C140.61 368.17 94.2999 356.23 90.9499 372.36C87.4699 389.15 116.52 384.84 130.68 382.47C160.91 377.41 166.15 373.36 158.42 371.77L140.61 368.17ZM147.81 394C147.81 394 103 377.19 97.9999 392.88C92.7499 409.2 122.09 408 136.43 407.15C167.03 405.32 172.66 401.85 165.15 399.45L147.81 394ZM117.81 263C117.81 263 97.36 199.47 74.16 211C50 223 77.9299 251.64 91.8899 265.36C121.68 294.62 130.89 296.68 126.97 286.46L117.81 263Z" fill="#52B788"/>
<path opacity="0.4" d="M139.91 303.2C136.4 311.84 132.81 304.89 133.38 268.67C133.65 251.67 134.84 217 153.62 224.67C171.62 232 147.89 283.29 147.89 283.29L139.91 303.2ZM165.69 308.34C165.69 308.34 204.84 267.55 190.16 254.75C174.88 241.43 162.48 273.85 156.71 289.82C144.41 323.9 145.55 331.64 151.71 324.6L165.69 308.34ZM174 345C174 345 209.84 319.48 200.47 307.57C190.71 295.17 176.54 318.16 169.81 329.57C155.47 353.84 155.22 359.92 160.92 355.43L174 345ZM183.7 381.49C183.7 381.49 219.54 355.98 210.17 344.07C200.41 331.67 186.24 354.66 179.52 366.07C165.17 390.34 164.92 396.42 170.62 391.93L183.7 381.49ZM121.11 308.11C121.11 308.11 70.9699 282.01 62.8099 299.7C54.3199 318.1 88.9199 320.89 105.87 321.93C142.03 324.16 149.14 320.93 140.66 317L121.11 308.11ZM128.17 336.85C128.17 336.85 73.8399 321.23 69.3599 340.19C64.6999 359.91 99.16 355.77 115.98 353.42C151.86 348.42 158.18 343.8 149.1 341.67L128.17 336.85ZM140.61 368.17C140.61 368.17 94.2999 356.23 90.9499 372.36C87.4699 389.15 116.52 384.84 130.68 382.47C160.91 377.41 166.15 373.36 158.42 371.77L140.61 368.17ZM147.81 394C147.81 394 103 377.19 97.9999 392.88C92.7499 409.2 122.09 408 136.43 407.15C167.03 405.32 172.66 401.85 165.15 399.45L147.81 394ZM117.81 263C117.81 263 97.36 199.47 74.16 211C50 223 77.9299 251.64 91.8899 265.36C121.68 294.62 130.89 296.68 126.97 286.46L117.81 263Z" fill="white"/>
<path d="M172.92 439.379C172.761 439.379 172.608 439.318 172.492 439.208C172.377 439.099 172.308 438.948 172.3 438.789C170.38 404.979 160.9 363.499 146.93 327.789C134.82 296.879 83.9304 234.589 83.4004 233.959C83.2968 233.83 83.2481 233.666 83.265 233.501C83.2818 233.336 83.3628 233.185 83.4904 233.079C83.5538 233.027 83.627 232.987 83.7058 232.963C83.7846 232.939 83.8674 232.931 83.9493 232.94C84.0312 232.948 84.1106 232.973 84.1829 233.012C84.2552 233.052 84.319 233.105 84.3704 233.169C84.8904 233.799 135.92 296.249 148.1 327.339C162.1 363.109 171.63 404.729 173.55 438.669C173.559 438.835 173.501 438.997 173.391 439.12C173.28 439.244 173.126 439.319 172.96 439.329L172.92 439.379Z" fill="#263238"/>
<path d="M137.289 307.79H137.219C137.054 307.77 136.903 307.685 136.8 307.553C136.697 307.422 136.65 307.255 136.669 307.09L143.809 247.36C143.816 247.275 143.84 247.193 143.879 247.117C143.919 247.042 143.973 246.976 144.038 246.922C144.104 246.868 144.18 246.828 144.261 246.804C144.343 246.781 144.428 246.774 144.513 246.784C144.597 246.794 144.678 246.821 144.752 246.863C144.825 246.906 144.89 246.962 144.941 247.03C144.992 247.098 145.029 247.175 145.049 247.258C145.069 247.34 145.073 247.426 145.059 247.51L137.919 307.24C137.898 307.392 137.822 307.531 137.707 307.632C137.591 307.733 137.443 307.789 137.289 307.79Z" fill="#263238"/>
<path d="M147.52 328.239C147.419 328.241 147.319 328.217 147.23 328.169C147.157 328.132 147.092 328.081 147.038 328.019C146.985 327.956 146.945 327.884 146.919 327.806C146.894 327.727 146.885 327.645 146.892 327.563C146.899 327.482 146.922 327.402 146.96 327.329L172.79 277.119C172.827 277.046 172.879 276.981 172.941 276.928C173.004 276.875 173.076 276.835 173.154 276.81C173.232 276.785 173.314 276.776 173.396 276.782C173.477 276.789 173.557 276.812 173.63 276.849C173.703 276.887 173.768 276.938 173.821 277C173.874 277.063 173.914 277.135 173.939 277.213C173.964 277.291 173.973 277.373 173.967 277.455C173.96 277.537 173.937 277.616 173.9 277.689L148.07 327.899C148.019 328.002 147.941 328.088 147.844 328.148C147.746 328.208 147.634 328.24 147.52 328.239Z" fill="#263238"/>
<path d="M143.74 320.799H143.62L89.53 309.799C89.379 309.755 89.2502 309.655 89.1691 309.52C89.0879 309.385 89.0604 309.224 89.0917 309.07C89.1231 308.916 89.2112 308.779 89.3386 308.686C89.466 308.593 89.6235 308.552 89.78 308.569L143.87 319.569C144.017 319.607 144.145 319.696 144.231 319.82C144.318 319.944 144.357 320.095 144.341 320.246C144.325 320.396 144.256 320.536 144.146 320.639C144.035 320.743 143.891 320.803 143.74 320.809V320.799Z" fill="#263238"/>
<path d="M157.68 356.729C157.529 356.732 157.383 356.678 157.27 356.579C157.207 356.525 157.156 356.459 157.119 356.384C157.083 356.31 157.061 356.229 157.055 356.147C157.05 356.064 157.06 355.981 157.087 355.903C157.113 355.824 157.155 355.752 157.21 355.689L189 319.459C189.054 319.397 189.12 319.346 189.195 319.309C189.269 319.272 189.35 319.25 189.432 319.245C189.515 319.239 189.598 319.25 189.676 319.276C189.755 319.303 189.827 319.345 189.89 319.399C189.948 319.457 189.994 319.525 190.025 319.601C190.057 319.676 190.073 319.757 190.073 319.839C190.073 319.921 190.057 320.002 190.025 320.078C189.994 320.153 189.948 320.222 189.89 320.279L158.09 356.519C157.984 356.638 157.838 356.713 157.68 356.729Z" fill="#263238"/>
<path d="M153.23 344.79L112.39 344.44C112.224 344.437 112.067 344.369 111.951 344.252C111.835 344.134 111.77 343.975 111.77 343.81C111.77 343.727 111.786 343.646 111.818 343.57C111.849 343.494 111.896 343.425 111.955 343.368C112.013 343.31 112.083 343.264 112.159 343.234C112.236 343.203 112.317 343.188 112.4 343.19L153.24 343.54C153.404 343.545 153.56 343.613 153.676 343.73C153.791 343.848 153.857 344.005 153.86 344.17C153.86 344.252 153.843 344.333 153.811 344.409C153.78 344.485 153.733 344.554 153.674 344.612C153.616 344.669 153.546 344.715 153.47 344.745C153.393 344.776 153.312 344.791 153.23 344.79Z" fill="#263238"/>
<path d="M129.78 375.68C129.628 375.66 129.488 375.586 129.387 375.471C129.285 375.356 129.229 375.208 129.229 375.055C129.229 374.901 129.285 374.753 129.387 374.638C129.488 374.523 129.628 374.449 129.78 374.43L161.1 373.19C161.188 373.175 161.278 373.18 161.364 373.203C161.45 373.226 161.53 373.268 161.599 373.324C161.668 373.38 161.724 373.451 161.764 373.53C161.804 373.61 161.826 373.697 161.83 373.786C161.833 373.875 161.818 373.964 161.785 374.047C161.752 374.129 161.701 374.204 161.637 374.266C161.573 374.328 161.496 374.375 161.412 374.405C161.328 374.435 161.239 374.447 161.15 374.44L129.83 375.68H129.78Z" fill="#263238"/>
<path d="M167.53 393.36C167.394 393.359 167.261 393.317 167.15 393.24C167.017 393.139 166.931 392.989 166.908 392.824C166.886 392.66 166.929 392.492 167.03 392.36L183.8 370C183.899 369.866 184.048 369.777 184.213 369.753C184.378 369.728 184.546 369.771 184.68 369.87C184.812 369.971 184.899 370.12 184.921 370.285C184.943 370.45 184.9 370.617 184.8 370.75L168 393.11C167.946 393.185 167.875 393.246 167.794 393.29C167.712 393.333 167.622 393.357 167.53 393.36Z" fill="#263238"/>
<path d="M168.76 401.679L132.13 399.859C132.048 399.856 131.968 399.836 131.895 399.801C131.821 399.766 131.755 399.717 131.7 399.657C131.645 399.597 131.603 399.526 131.575 399.449C131.548 399.372 131.536 399.291 131.54 399.209C131.541 399.126 131.559 399.043 131.594 398.967C131.628 398.891 131.678 398.822 131.739 398.766C131.801 398.71 131.874 398.667 131.953 398.64C132.033 398.613 132.116 398.603 132.2 398.609L168.83 400.429C168.995 400.44 169.15 400.515 169.26 400.638C169.371 400.762 169.428 400.924 169.42 401.089C169.41 401.255 169.334 401.41 169.211 401.52C169.087 401.63 168.925 401.688 168.76 401.679Z" fill="#263238"/>
<path d="M135.31 391.86C131.554 391.87 127.805 391.535 124.11 390.86C112.35 388.67 102.71 382.45 97.6498 373.79C89.3598 359.57 94.6498 341.5 103.49 329.89C114.75 315.17 131.72 306.63 146.84 300.21C175.84 287.91 206.56 280.01 236.3 272.37C244.8 270.19 253.59 267.93 262.21 265.6C266.51 264.44 270.9 263.3 275.34 262.15C306.81 253.98 342.48 244.72 366.07 221.47C383.15 204.64 395.82 185.07 402.68 164.89C405.666 156.485 407.333 147.667 407.62 138.75C407.952 129.171 407.261 119.583 405.56 110.15L404.91 109.66C390.47 98.7504 374.38 92.1004 360.77 91.4104C339.09 90.3304 296 98.0004 272.91 123.37L271.91 124.47C262.051 136.744 253.413 149.95 246.12 163.9C246.009 164.144 245.851 164.363 245.654 164.545C245.457 164.726 245.226 164.866 244.974 164.957C244.722 165.047 244.454 165.086 244.187 165.071C243.92 165.056 243.658 164.988 243.418 164.87C243.178 164.752 242.963 164.587 242.788 164.385C242.613 164.183 242.479 163.948 242.397 163.693C242.314 163.439 242.283 163.17 242.306 162.903C242.329 162.637 242.405 162.377 242.53 162.14C246.458 154.489 250.829 147.074 255.62 139.93C255.475 139.608 255.418 139.253 255.455 138.902C255.492 138.551 255.621 138.216 255.83 137.93C259.608 132.727 263.65 127.72 267.94 122.93C268.946 121.657 269.976 120.384 271.03 119.11C287.72 98.9404 314.55 74.1104 347.56 70.1104C368.73 67.5704 384.18 71.0004 394.78 80.5904C401.78 86.9304 406.54 95.8704 409.17 107.94C425.17 120.85 431.43 137.17 427.74 156.48C422.19 185.48 406.95 207.08 389.07 230.29C341.52 292 289.75 337 235.23 363.78C209.991 376.198 183.11 384.953 155.4 389.78C148.775 391.051 142.054 391.747 135.31 391.86ZM410.31 114.22C411.415 122.381 411.853 130.618 411.62 138.85C411.324 148.178 409.586 157.404 406.47 166.2C399.4 186.97 386.4 207.07 368.88 224.34C344.52 248.34 308.3 257.74 276.35 266.04C271.92 267.19 267.54 268.33 263.26 269.48C254.61 271.82 245.81 274.08 237.26 276.27C207.67 283.87 177.07 291.73 148.37 303.91C133.74 310.13 117.37 318.36 106.64 332.34C98.5698 342.89 93.7198 359.18 101.08 371.79C105.55 379.45 114.2 384.97 124.81 386.95C134.81 388.8 145.06 387.5 154.68 385.83C182.016 381.074 208.533 372.44 233.43 360.19C286.67 334 339.39 288.25 385.9 227.83C403.46 205.03 418.43 183.83 423.81 155.71C426.91 139.51 422.37 125.59 410.31 114.22ZM360.26 73.2804C356.175 73.3022 352.094 73.5627 348.04 74.0604C325.37 76.7804 305.5 89.8304 289.47 105.18C313.47 91.0804 343.74 86.5604 360.97 87.4404C378.52 88.3304 394.55 97.4404 404.1 104.14C401.54 95.2504 397.57 88.4804 392.1 83.5304C384.51 76.6704 374 73.2804 360.26 73.2804Z" fill="#263238"/>
<path d="M185.48 208.851L212.93 402.001C213.126 403.351 213.848 404.568 214.938 405.387C216.029 406.206 217.399 406.559 218.75 406.371L335.63 389.751C336.981 389.558 338.2 388.836 339.019 387.745C339.838 386.654 340.191 385.282 340 383.931L312.54 190.791C312.445 190.122 312.22 189.479 311.877 188.898C311.534 188.316 311.08 187.808 310.54 187.402C310.001 186.997 309.386 186.701 308.733 186.533C308.079 186.364 307.398 186.326 306.73 186.421L189.84 203.001C189.168 203.095 188.521 203.322 187.937 203.667C187.354 204.013 186.844 204.472 186.439 205.016C186.033 205.56 185.74 206.179 185.575 206.837C185.41 207.496 185.378 208.18 185.48 208.851ZM261.93 205.511L238.18 208.881C237.674 208.952 237.158 208.924 236.663 208.796C236.168 208.668 235.703 208.445 235.294 208.137C234.886 207.83 234.542 207.445 234.282 207.005C234.022 206.564 233.852 206.077 233.78 205.571C233.708 205.065 233.737 204.549 233.865 204.054C233.992 203.559 234.216 203.094 234.524 202.685C234.831 202.277 235.216 201.933 235.656 201.673C236.097 201.413 236.584 201.242 237.09 201.171L260.83 197.791C261.343 197.706 261.867 197.724 262.372 197.845C262.878 197.965 263.354 198.186 263.773 198.493C264.192 198.8 264.546 199.188 264.813 199.633C265.08 200.079 265.256 200.574 265.329 201.088C265.402 201.603 265.372 202.127 265.24 202.629C265.108 203.132 264.877 203.603 264.56 204.015C264.244 204.427 263.848 204.771 263.396 205.028C262.944 205.285 262.446 205.449 261.93 205.511Z" fill="white"/>
<path d="M218 406.91C216.643 406.907 215.331 406.415 214.307 405.525C213.282 404.634 212.612 403.404 212.42 402.06L185 208.92C184.794 207.44 185.183 205.938 186.08 204.743C186.977 203.548 188.311 202.756 189.79 202.54L306.68 185.93C308.161 185.722 309.664 186.109 310.86 187.007C312.056 187.905 312.847 189.24 313.06 190.72L340.51 383.85C340.618 384.584 340.578 385.332 340.395 386.05C340.212 386.769 339.889 387.445 339.444 388.038C338.998 388.631 338.44 389.13 337.801 389.506C337.162 389.882 336.455 390.128 335.72 390.23L218.82 406.85C218.549 406.891 218.275 406.911 218 406.91ZM307.43 186.91C307.214 186.896 306.997 186.896 306.78 186.91L189.91 203.53C189.307 203.616 188.726 203.82 188.201 204.13C187.677 204.441 187.218 204.851 186.852 205.339C186.487 205.826 186.22 206.381 186.069 206.972C185.918 207.562 185.884 208.177 185.97 208.78L213.43 401.92C213.606 403.138 214.257 404.236 215.241 404.975C216.225 405.713 217.462 406.032 218.68 405.86L335.56 389.24C336.164 389.157 336.745 388.955 337.27 388.646C337.796 388.337 338.255 387.927 338.621 387.44C338.987 386.953 339.253 386.398 339.404 385.808C339.555 385.218 339.588 384.603 339.5 384L312.05 190.86C311.889 189.754 311.336 188.742 310.492 188.01C309.648 187.277 308.568 186.873 307.45 186.87L307.43 186.91ZM237.61 209.46C236.505 209.448 235.445 209.02 234.641 208.261C233.836 207.503 233.347 206.469 233.27 205.366C233.194 204.264 233.535 203.172 234.226 202.31C234.917 201.447 235.907 200.876 237 200.71L260.74 197.34C261.311 197.256 261.894 197.286 262.453 197.428C263.013 197.571 263.539 197.823 264 198.17C264.464 198.516 264.854 198.95 265.149 199.447C265.444 199.944 265.638 200.495 265.72 201.067C265.802 201.64 265.77 202.223 265.626 202.783C265.481 203.342 265.228 203.868 264.88 204.33C264.179 205.246 263.143 205.846 262 206L238.25 209.38C238.045 209.408 237.838 209.422 237.63 209.42L237.61 209.46ZM261.37 198.29C261.207 198.276 261.043 198.276 260.88 198.29L237.14 201.66C236.698 201.726 236.274 201.878 235.891 202.108C235.507 202.337 235.173 202.64 234.907 202.999C234.641 203.358 234.448 203.766 234.34 204.199C234.232 204.633 234.21 205.083 234.275 205.525C234.341 205.967 234.493 206.392 234.723 206.775C234.952 207.158 235.255 207.492 235.614 207.758C235.973 208.024 236.381 208.217 236.814 208.325C237.248 208.434 237.698 208.456 238.14 208.39L261.86 205C262.303 204.941 262.729 204.794 263.114 204.567C263.499 204.34 263.834 204.039 264.1 203.68C264.639 202.958 264.872 202.053 264.75 201.16C264.633 200.352 264.229 199.612 263.612 199.076C262.996 198.54 262.207 198.244 261.39 198.24L261.37 198.29Z" fill="#263238"/>
<path d="M308.642 208.563L194.143 224.838L218.908 399.067L333.407 382.791L308.642 208.563Z" fill="#52B788"/>
<path d="M218.92 399.561C218.801 399.56 218.685 399.516 218.595 399.437C218.506 399.358 218.447 399.249 218.43 399.131L193.66 224.911C193.651 224.844 193.655 224.776 193.672 224.711C193.689 224.646 193.719 224.584 193.76 224.531C193.798 224.479 193.846 224.436 193.901 224.404C193.956 224.371 194.017 224.35 194.08 224.341L308.59 208.061C308.655 208.052 308.722 208.057 308.785 208.074C308.849 208.091 308.908 208.121 308.96 208.161C309.014 208.198 309.06 208.247 309.093 208.304C309.126 208.361 309.145 208.425 309.15 208.491L333.92 382.711C333.93 382.776 333.927 382.842 333.911 382.906C333.896 382.97 333.867 383.03 333.828 383.083C333.789 383.136 333.74 383.181 333.684 383.215C333.628 383.249 333.565 383.271 333.5 383.281L219 399.561H218.92ZM194.72 225.261L219.35 398.501L332.86 382.361L308.23 209.121L194.72 225.261Z" fill="#263238"/>
<path d="M232 157.15L238.49 202.81C238.522 203.041 238.599 203.262 238.717 203.463C238.835 203.663 238.991 203.838 239.177 203.977C239.363 204.117 239.575 204.218 239.8 204.275C240.026 204.332 240.26 204.344 240.49 204.31L258.36 201.77C258.59 201.739 258.812 201.661 259.012 201.543C259.212 201.425 259.387 201.269 259.527 201.083C259.666 200.897 259.768 200.685 259.825 200.46C259.882 200.235 259.894 200 259.86 199.77L253.37 154.11L232 157.15ZM244.36 167.41C243.616 167.516 242.858 167.398 242.181 167.072C241.504 166.746 240.938 166.227 240.556 165.58C240.174 164.933 239.992 164.188 240.034 163.437C240.076 162.687 240.339 161.966 240.79 161.365C241.241 160.765 241.86 160.311 242.569 160.062C243.278 159.813 244.045 159.78 244.773 159.967C245.5 160.154 246.156 160.552 246.658 161.111C247.159 161.671 247.484 162.367 247.59 163.11C247.731 164.103 247.475 165.11 246.878 165.915C246.281 166.72 245.39 167.257 244.4 167.41H244.36Z" fill="white"/>
<path d="M240.279 204.831C239.726 204.827 239.194 204.622 238.781 204.254C238.369 203.886 238.105 203.38 238.039 202.831L231.539 157.171C231.525 157.039 231.561 156.906 231.641 156.8C231.721 156.694 231.838 156.623 231.969 156.601L253.339 153.601C253.471 153.587 253.603 153.622 253.709 153.701C253.763 153.74 253.808 153.789 253.842 153.846C253.877 153.902 253.899 153.965 253.909 154.031L260.399 199.691C260.442 199.986 260.425 200.287 260.351 200.576C260.277 200.866 260.147 201.137 259.967 201.376C259.788 201.615 259.564 201.816 259.306 201.968C259.049 202.119 258.765 202.219 258.469 202.261L240.599 204.801L240.279 204.831ZM232.599 157.571L238.999 202.741C239.046 203.073 239.223 203.373 239.491 203.576C239.759 203.778 240.097 203.866 240.429 203.821L258.299 201.281C258.634 201.231 258.936 201.051 259.139 200.781C259.239 200.648 259.312 200.496 259.353 200.335C259.395 200.173 259.403 200.005 259.379 199.841L252.999 154.681L232.599 157.571ZM243.859 167.941C242.753 167.862 241.721 167.357 240.98 166.532C240.239 165.707 239.848 164.627 239.887 163.519C239.927 162.411 240.395 161.361 241.192 160.592C241.99 159.822 243.056 159.392 244.164 159.392C245.273 159.392 246.338 159.822 247.136 160.592C247.934 161.361 248.402 162.411 248.442 163.519C248.481 164.627 248.089 165.707 247.348 166.532C246.607 167.357 245.575 167.862 244.469 167.941C244.266 167.956 244.062 167.956 243.859 167.941ZM243.869 160.351H243.399C242.971 160.41 242.559 160.554 242.186 160.773C241.814 160.993 241.488 161.284 241.229 161.631C240.703 162.332 240.477 163.213 240.599 164.081C240.659 164.509 240.802 164.921 241.022 165.294C241.242 165.666 241.533 165.992 241.879 166.251C242.58 166.777 243.461 167.003 244.329 166.881C244.974 166.788 245.577 166.507 246.063 166.072C246.548 165.637 246.894 165.068 247.056 164.437C247.219 163.806 247.191 163.141 246.976 162.526C246.761 161.911 246.369 161.373 245.849 160.981C245.276 160.56 244.58 160.338 243.869 160.351Z" fill="#263238"/>
<path d="M234.812 176.67L256.187 173.632L259.882 199.63C259.954 200.134 259.822 200.646 259.516 201.054C259.211 201.461 258.756 201.73 258.251 201.801L240.678 204.299C240.174 204.371 239.662 204.239 239.255 203.934C238.848 203.628 238.579 203.173 238.507 202.669L234.812 176.67Z" fill="white"/>
<path d="M240.409 204.81C239.827 204.807 239.265 204.596 238.825 204.214C238.384 203.833 238.095 203.306 238.009 202.73L234.319 176.73C234.308 176.666 234.311 176.6 234.326 176.536C234.342 176.472 234.37 176.413 234.409 176.36C234.448 176.307 234.498 176.262 234.554 176.227C234.611 176.193 234.674 176.17 234.739 176.16L256.119 173.16C256.25 173.146 256.381 173.183 256.486 173.263C256.59 173.343 256.66 173.46 256.679 173.59L260.379 199.59C260.468 200.227 260.301 200.872 259.915 201.385C259.529 201.899 258.955 202.239 258.319 202.33L240.749 204.83L240.409 204.81ZM235.409 177.08L238.999 202.59C239.054 202.963 239.254 203.299 239.556 203.524C239.858 203.749 240.237 203.845 240.609 203.79L258.179 201.3C258.365 201.275 258.543 201.212 258.704 201.117C258.866 201.022 259.007 200.897 259.119 200.747C259.232 200.597 259.313 200.427 259.36 200.246C259.406 200.064 259.416 199.876 259.389 199.69L255.759 174.18L235.409 177.08Z" fill="#263238"/>
<path d="M250.499 182.601C250.391 181.837 250.058 181.123 249.543 180.548C249.029 179.973 248.355 179.564 247.608 179.372C246.861 179.181 246.074 179.215 245.346 179.47C244.618 179.726 243.982 180.192 243.519 180.809C243.056 181.426 242.786 182.166 242.744 182.937C242.702 183.707 242.889 184.472 243.282 185.136C243.675 185.8 244.256 186.333 244.951 186.666C245.647 187 246.426 187.12 247.189 187.011C248.212 186.862 249.134 186.315 249.754 185.489C250.374 184.662 250.642 183.624 250.499 182.601Z" fill="white"/>
<path d="M246.629 187.55C245.68 187.552 244.756 187.243 243.999 186.67C243.301 186.151 242.772 185.436 242.481 184.616C242.19 183.797 242.148 182.909 242.363 182.065C242.577 181.222 243.037 180.461 243.685 179.88C244.332 179.299 245.138 178.923 245.999 178.8C246.573 178.713 247.159 178.74 247.722 178.88C248.285 179.021 248.814 179.272 249.28 179.619C249.745 179.966 250.136 180.402 250.432 180.902C250.727 181.402 250.92 181.955 250.999 182.53C251.084 183.104 251.055 183.688 250.913 184.25C250.771 184.812 250.52 185.341 250.173 185.805C249.827 186.27 249.392 186.662 248.893 186.958C248.395 187.254 247.843 187.448 247.269 187.53C247.057 187.552 246.843 187.559 246.629 187.55ZM246.629 179.75C246.466 179.735 246.302 179.735 246.139 179.75C245.472 179.842 244.847 180.13 244.345 180.578C243.842 181.026 243.484 181.614 243.317 182.266C243.15 182.918 243.18 183.606 243.405 184.241C243.63 184.875 244.039 185.429 244.579 185.83C245.117 186.232 245.762 186.465 246.432 186.5C247.103 186.536 247.768 186.372 248.346 186.03C248.923 185.688 249.387 185.183 249.677 184.577C249.968 183.972 250.073 183.295 249.979 182.63C249.866 181.822 249.465 181.081 248.849 180.545C248.234 180.008 247.446 179.712 246.629 179.71V179.75Z" fill="#263238"/>
<path d="M248.069 183C248.003 182.631 247.797 182.302 247.493 182.083C247.19 181.863 246.813 181.769 246.442 181.821C246.071 181.872 245.735 182.066 245.503 182.36C245.271 182.654 245.162 183.027 245.199 183.4C245.219 183.594 245.277 183.783 245.371 183.954C245.465 184.125 245.592 184.275 245.746 184.396C245.899 184.517 246.075 184.605 246.264 184.656C246.452 184.707 246.649 184.72 246.843 184.693C247.036 184.666 247.222 184.6 247.389 184.5C247.557 184.399 247.702 184.266 247.816 184.108C247.931 183.95 248.012 183.77 248.056 183.58C248.099 183.389 248.104 183.192 248.069 183Z" fill="white"/>
<path d="M246.64 185.101C246.251 185.112 245.868 185.01 245.537 184.807C245.205 184.604 244.94 184.308 244.774 183.957C244.608 183.606 244.548 183.214 244.601 182.829C244.654 182.444 244.818 182.083 245.073 181.789C245.328 181.496 245.662 181.283 246.036 181.177C246.41 181.071 246.807 181.077 247.178 181.192C247.549 181.308 247.878 181.529 248.125 181.829C248.372 182.129 248.527 182.495 248.57 182.881C248.636 183.39 248.504 183.906 248.2 184.321C248.046 184.527 247.853 184.7 247.631 184.831C247.41 184.961 247.165 185.046 246.91 185.081L246.64 185.101ZM246.64 182.201H246.5C246.258 182.249 246.043 182.385 245.895 182.583C245.747 182.78 245.678 183.025 245.7 183.271C245.746 183.514 245.881 183.732 246.079 183.882C246.276 184.032 246.523 184.102 246.77 184.081C247.019 184.041 247.244 183.909 247.4 183.711C247.545 183.508 247.609 183.258 247.58 183.011C247.537 182.79 247.421 182.589 247.251 182.442C247.08 182.295 246.865 182.21 246.64 182.201Z" fill="#263238"/>
<path d="M243.14 158.55C242.131 158.693 241.187 159.132 240.428 159.811C239.669 160.491 239.128 161.38 238.874 162.367C238.62 163.353 238.665 164.393 239.002 165.355C239.34 166.316 239.955 167.156 240.77 167.768C241.584 168.379 242.562 168.736 243.58 168.792C244.597 168.847 245.608 168.6 246.485 168.081C247.362 167.562 248.065 166.795 248.506 165.876C248.946 164.958 249.104 163.929 248.96 162.92C248.866 162.251 248.64 161.607 248.296 161.024C247.953 160.442 247.497 159.934 246.957 159.528C246.416 159.122 245.801 158.827 245.146 158.659C244.491 158.491 243.809 158.454 243.14 158.55ZM244.4 167.41C243.656 167.515 242.898 167.398 242.221 167.072C241.544 166.746 240.978 166.227 240.596 165.58C240.214 164.933 240.032 164.187 240.074 163.437C240.116 162.687 240.379 161.966 240.83 161.365C241.281 160.765 241.9 160.311 242.609 160.062C243.318 159.813 244.085 159.78 244.813 159.967C245.54 160.154 246.197 160.552 246.698 161.111C247.199 161.671 247.524 162.366 247.63 163.11C247.77 164.108 247.509 165.121 246.903 165.927C246.298 166.733 245.398 167.267 244.4 167.41Z" fill="white"/>
<path d="M243.859 169.3C242.809 169.3 241.78 169.007 240.887 168.454C239.994 167.901 239.273 167.11 238.805 166.17C238.337 165.231 238.139 164.179 238.236 163.133C238.332 162.087 238.718 161.089 239.349 160.25C239.792 159.655 240.349 159.153 240.988 158.776C241.627 158.398 242.334 158.151 243.069 158.05C243.805 157.945 244.553 157.986 245.273 158.171C245.992 158.356 246.667 158.683 247.259 159.13C247.856 159.572 248.358 160.129 248.736 160.768C249.114 161.407 249.36 162.115 249.459 162.85C249.668 164.334 249.28 165.84 248.38 167.037C247.48 168.235 246.142 169.027 244.659 169.24C244.395 169.28 244.127 169.3 243.859 169.3ZM243.209 159C242.142 159.151 241.159 159.667 240.429 160.46C239.699 161.254 239.267 162.276 239.206 163.353C239.145 164.429 239.46 165.494 240.096 166.364C240.732 167.235 241.651 167.858 242.695 168.127C243.739 168.397 244.844 168.296 245.822 167.841C246.8 167.387 247.59 166.608 248.058 165.636C248.525 164.664 248.642 163.561 248.387 162.513C248.132 161.465 247.521 160.538 246.659 159.89C246.172 159.52 245.616 159.251 245.024 159.098C244.432 158.945 243.815 158.912 243.209 159ZM243.859 167.9C242.78 167.887 241.745 167.469 240.96 166.728C240.175 165.987 239.697 164.978 239.622 163.902C239.546 162.825 239.878 161.759 240.552 160.916C241.226 160.073 242.193 159.514 243.259 159.35C244.369 159.229 245.483 159.544 246.365 160.228C247.247 160.913 247.828 161.914 247.985 163.02C248.143 164.125 247.864 165.248 247.207 166.152C246.551 167.055 245.569 167.668 244.469 167.86C244.268 167.902 244.064 167.929 243.859 167.94V167.9ZM243.869 160.31C243.713 160.301 243.556 160.301 243.399 160.31C242.971 160.37 242.559 160.513 242.186 160.733C241.814 160.953 241.489 161.244 241.229 161.59C240.703 162.291 240.477 163.173 240.599 164.04C240.659 164.469 240.802 164.881 241.022 165.254C241.242 165.626 241.533 165.951 241.879 166.21C242.296 166.527 242.783 166.739 243.298 166.83C243.813 166.921 244.343 166.888 244.843 166.735C245.343 166.581 245.8 166.31 246.175 165.945C246.55 165.58 246.832 165.131 247 164.635C247.167 164.139 247.214 163.611 247.137 163.093C247.059 162.576 246.86 162.084 246.555 161.658C246.25 161.233 245.849 160.886 245.384 160.647C244.918 160.407 244.403 160.282 243.879 160.28L243.869 160.31Z" fill="#263238"/>
<path d="M291.131 218.508L213.759 229.506L229.874 342.876L307.246 331.878L291.131 218.508Z" fill="white"/>
<path d="M229.88 343.37C229.769 343.373 229.659 343.337 229.57 343.27C229.468 343.188 229.4 343.07 229.38 342.94L213.26 229.57C213.243 229.438 213.278 229.304 213.359 229.198C213.439 229.091 213.558 229.02 213.69 229L291.06 218C291.192 217.983 291.326 218.019 291.433 218.099C291.539 218.179 291.61 218.298 291.63 218.43L307.75 331.8C307.764 331.932 307.728 332.064 307.65 332.17C307.611 332.224 307.562 332.269 307.505 332.303C307.449 332.338 307.386 332.361 307.32 332.37L229.95 343.37H229.88ZM214.32 229.92L230.32 342.31L306.71 331.45L290.71 219.07L214.32 229.92Z" fill="#263238"/>
<path d="M229.88 342.87C244.64 340.87 291.23 333.87 307.25 331.87C305.93 322.61 304.19 310.57 303.98 304.8C301.89 303.3 298.24 302.01 292.98 299.23C284.73 294.88 271.34 285.74 271.34 285.74L265.9 286.32L265.85 286L261.5 286.78L257.09 287.24V287.56L251.7 288.56C251.7 288.56 241.39 301.07 234.7 307.56C230.28 311.83 227.52 313.78 225.99 315.86C226.11 316.21 228.38 332.17 229.88 342.87Z" fill="white"/>
<path d="M229.869 343.251C229.778 343.249 229.691 343.215 229.623 343.154C229.555 343.094 229.511 343.011 229.499 342.921C227.989 332.131 225.749 316.321 225.659 315.921C225.647 315.869 225.647 315.814 225.66 315.762C225.672 315.71 225.696 315.662 225.729 315.621C226.965 314.113 228.353 312.736 229.869 311.511C231.119 310.401 232.679 309.021 234.479 307.271C241.099 300.891 251.369 288.451 251.479 288.321C251.537 288.25 251.619 288.203 251.709 288.191L256.709 287.291C256.705 287.246 256.71 287.2 256.723 287.157C256.737 287.114 256.76 287.075 256.789 287.041C256.819 287.001 256.856 286.968 256.899 286.944C256.942 286.92 256.99 286.905 257.039 286.901L261.449 286.441L265.779 285.661C265.828 285.65 265.877 285.65 265.926 285.661C265.974 285.671 266.02 285.691 266.059 285.721C266.135 285.773 266.188 285.851 266.209 285.941L271.289 285.401C271.377 285.394 271.464 285.415 271.539 285.461C271.679 285.561 285.009 294.641 293.139 298.931C295.429 300.141 297.379 301.051 299.139 301.851C300.907 302.595 302.607 303.491 304.219 304.531C304.267 304.563 304.307 304.606 304.335 304.656C304.362 304.707 304.378 304.763 304.379 304.821C304.569 310.291 306.169 321.491 307.449 330.491L307.639 331.851C307.648 331.9 307.647 331.95 307.635 331.998C307.622 332.046 307.6 332.092 307.569 332.131C307.507 332.21 307.418 332.263 307.319 332.281C297.219 333.511 275.439 336.691 256.219 339.491C245.049 341.121 235.409 342.491 229.949 343.271L229.869 343.251ZM226.419 315.911C226.709 317.741 228.869 333.001 230.189 342.451C235.709 341.691 245.189 340.311 256.089 338.721C275.089 335.951 296.559 332.821 306.829 331.551L306.689 330.551C305.419 321.631 303.839 310.551 303.619 304.981C302.077 304.028 300.466 303.192 298.799 302.481C297.079 301.681 295.119 300.761 292.799 299.541C285.039 295.451 272.569 287.011 271.239 286.111L265.939 286.671C265.854 286.676 265.768 286.654 265.696 286.607C265.624 286.56 265.569 286.491 265.539 286.411L261.539 287.131L257.489 287.561C257.488 287.646 257.456 287.729 257.399 287.793C257.342 287.857 257.264 287.899 257.179 287.911L251.929 288.851C250.929 290.091 241.289 301.661 234.929 307.761C233.119 309.521 231.549 310.911 230.289 312.021C228.887 313.2 227.592 314.502 226.419 315.911Z" fill="#263238"/>
<path d="M304 304.8C301.958 303.543 299.821 302.446 297.61 301.52L297.06 301.26L296.33 300.91L295.33 300.42L294.74 300.12C294.18 299.84 293.61 299.55 293.01 299.23C284.76 294.88 271.37 285.74 271.37 285.74L265.93 286.32L265.88 286L261.53 286.78L257.12 287.24V287.56L251.73 288.56C251.73 288.56 241.42 301.07 234.73 307.56C234.28 308 233.85 308.41 233.42 308.81C229.76 312.22 227.42 313.99 226.02 315.86C226.02 316 226.32 317.91 226.74 320.79L304.34 309.79C304.16 307.82 304 306.14 304 304.8Z" fill="#263238"/>
<path d="M305.33 318L227.92 329C228.32 331.85 228.75 334.87 229.16 337.76L306.52 326.76C306.11 323.86 305.7 320.86 305.33 318Z" fill="#263238"/>
<path d="M264.08 306.76L266.98 325.28L271.62 324.62L267.14 306.06C267.14 306.06 264.45 305.66 264.08 306.76Z" fill="white"/>
<path d="M267 325.65C266.912 325.65 266.827 325.618 266.759 325.562C266.692 325.505 266.646 325.427 266.63 325.34L263.73 306.82C263.715 306.761 263.715 306.699 263.73 306.64C264.18 305.28 266.89 305.64 267.2 305.69C267.272 305.701 267.34 305.733 267.394 305.783C267.447 305.833 267.484 305.899 267.5 305.97L272 324.53C272.014 324.581 272.017 324.634 272.008 324.686C271.999 324.738 271.98 324.787 271.95 324.83C271.92 324.874 271.881 324.91 271.837 324.938C271.792 324.965 271.742 324.983 271.69 324.99L267.05 325.65H267ZM264.49 306.81L267.31 324.81L271.18 324.26L266.86 306.36C265.93 306.31 264.73 306.37 264.47 306.81H264.49Z" fill="#263238"/>
<path d="M267.21 311.811C267.197 311.714 267.164 311.621 267.115 311.537C267.065 311.453 266.999 311.379 266.921 311.321C266.843 311.262 266.754 311.22 266.66 311.196C266.565 311.172 266.467 311.167 266.37 311.181C266.226 311.202 266.09 311.265 265.982 311.363C265.873 311.461 265.796 311.589 265.76 311.73C265.724 311.872 265.731 312.021 265.779 312.159C265.828 312.297 265.916 312.417 266.033 312.505C266.15 312.593 266.29 312.644 266.436 312.652C266.582 312.66 266.727 312.624 266.853 312.55C266.979 312.476 267.08 312.366 267.144 312.234C267.207 312.103 267.23 311.955 267.21 311.811Z" fill="white"/>
<path d="M266.479 313.001C266.237 313.001 266.001 312.92 265.809 312.771C265.574 312.594 265.416 312.332 265.369 312.041C265.35 311.895 265.359 311.746 265.397 311.604C265.435 311.462 265.5 311.328 265.589 311.211C265.72 311.031 265.902 310.894 266.111 310.818C266.32 310.742 266.547 310.731 266.763 310.786C266.978 310.841 267.172 310.96 267.32 311.126C267.467 311.293 267.561 311.5 267.589 311.721C267.613 311.866 267.607 312.015 267.571 312.158C267.535 312.301 267.47 312.434 267.379 312.551C267.293 312.668 267.183 312.766 267.058 312.84C266.933 312.914 266.794 312.962 266.649 312.981L266.479 313.001ZM266.479 311.511H266.429C266.382 311.515 266.335 311.53 266.294 311.554C266.253 311.579 266.217 311.611 266.189 311.651C266.159 311.688 266.137 311.731 266.125 311.778C266.112 311.825 266.111 311.874 266.119 311.921C266.124 311.969 266.139 312.015 266.163 312.056C266.187 312.098 266.22 312.133 266.259 312.161C266.337 312.218 266.434 312.243 266.529 312.231C266.577 312.226 266.623 312.212 266.665 312.187C266.706 312.163 266.742 312.13 266.769 312.091C266.827 312.013 266.852 311.917 266.839 311.821C266.819 311.741 266.773 311.67 266.708 311.619C266.642 311.568 266.562 311.541 266.479 311.541V311.511Z" fill="#263238"/>
<path d="M269.21 320.621C269.204 320.519 269.177 320.419 269.13 320.328C269.083 320.237 269.018 320.157 268.939 320.092C268.859 320.027 268.768 319.98 268.669 319.953C268.571 319.925 268.467 319.919 268.366 319.933C268.265 319.948 268.168 319.983 268.081 320.037C267.994 320.091 267.919 320.163 267.861 320.247C267.803 320.331 267.764 320.427 267.745 320.527C267.725 320.628 267.727 320.731 267.75 320.831C267.762 320.927 267.794 321.02 267.842 321.104C267.891 321.188 267.956 321.261 268.033 321.32C268.11 321.379 268.198 321.421 268.292 321.445C268.386 321.47 268.484 321.475 268.58 321.461C268.677 321.447 268.77 321.415 268.854 321.365C268.938 321.316 269.011 321.25 269.07 321.172C269.128 321.094 269.171 321.005 269.195 320.91C269.219 320.816 269.224 320.717 269.21 320.621Z" fill="white"/>
<path d="M268.48 321.84C268.204 321.842 267.939 321.74 267.735 321.554C267.531 321.369 267.405 321.115 267.38 320.84C267.353 320.697 267.357 320.549 267.394 320.407C267.43 320.265 267.497 320.133 267.59 320.02C267.72 319.84 267.902 319.703 268.111 319.628C268.32 319.552 268.547 319.541 268.763 319.596C268.978 319.651 269.173 319.769 269.32 319.936C269.467 320.103 269.561 320.31 269.59 320.53C269.614 320.676 269.607 320.825 269.571 320.967C269.535 321.11 269.47 321.244 269.38 321.36C269.201 321.593 268.939 321.747 268.65 321.79L268.48 321.84ZM268.48 320.36H268.43C268.369 320.368 268.311 320.39 268.261 320.425C268.211 320.461 268.171 320.508 268.143 320.562C268.116 320.617 268.102 320.678 268.104 320.739C268.106 320.8 268.123 320.86 268.154 320.913C268.184 320.965 268.227 321.01 268.279 321.042C268.331 321.074 268.39 321.093 268.451 321.097C268.512 321.101 268.573 321.089 268.629 321.064C268.684 321.038 268.733 320.999 268.77 320.95C268.8 320.913 268.821 320.87 268.834 320.823C268.846 320.776 268.848 320.728 268.84 320.68C268.83 320.592 268.787 320.51 268.721 320.451C268.655 320.392 268.569 320.36 268.48 320.36Z" fill="#263238"/>
<path d="M252.54 282.9C252.54 282.9 249.54 284.11 248.71 289.23C247.88 294.35 248.62 307.12 248.25 310.06C247.88 313 248.73 313.41 250.68 312.35C252.63 311.29 254.44 307.35 257.53 306.9C260.251 306.68 262.988 306.731 265.7 307.05C265.7 307.05 270.2 303.52 273.29 303.05C276.38 302.58 281.05 307.73 282.29 307.55C283.53 307.37 280.46 296.55 277.63 289.55C274.8 282.55 269.94 279.86 264.53 280.63C259.12 281.4 252.54 282.9 252.54 282.9Z" fill="white"/>
<path d="M249.14 313.261C248.892 313.267 248.647 313.197 248.44 313.061C247.84 312.651 247.67 311.711 247.88 310.011C248.02 308.861 247.99 306.111 247.95 302.931C247.89 298.181 247.82 292.271 248.34 289.161C249.21 283.901 252.27 282.601 252.4 282.551H252.46C252.53 282.551 259.16 281.071 264.53 280.311C270.53 279.461 275.28 282.711 278.03 289.461C280.26 294.941 283.79 306.021 282.85 307.651C282.805 307.736 282.741 307.809 282.663 307.864C282.585 307.92 282.495 307.956 282.4 307.971C281.77 308.061 280.92 307.471 279.34 306.331C277.54 305.021 275.06 303.231 273.34 303.481C270.39 303.901 265.98 307.331 265.93 307.371C265.854 307.431 265.757 307.459 265.66 307.451C262.978 307.133 260.272 307.08 257.58 307.291C255.8 307.551 254.42 309.121 253.2 310.511C252.545 311.361 251.755 312.098 250.86 312.691C250.341 313.016 249.751 313.212 249.14 313.261ZM252.66 283.261C252.38 283.401 249.84 284.721 249.08 289.261C248.57 292.261 248.65 298.171 248.7 302.891C248.7 306.101 248.78 308.891 248.62 310.081C248.41 311.821 248.68 312.281 248.86 312.411C249.04 312.541 249.47 312.551 250.5 311.991C251.309 311.434 252.03 310.76 252.64 309.991C253.94 308.511 255.42 306.821 257.48 306.531C260.181 306.301 262.898 306.348 265.59 306.671C266.35 306.081 270.33 303.131 273.24 302.671C275.24 302.391 277.77 304.201 279.78 305.671C280.515 306.29 281.337 306.799 282.22 307.181C282.71 306.071 280.32 297.031 277.33 289.691C274.73 283.291 270.23 280.201 264.63 281.001C259.5 281.761 253.2 283.131 252.66 283.251V283.261Z" fill="#263238"/>
<path d="M231.39 319C229.26 315.26 227.39 315.76 226.21 317C226.78 320.94 228.6 333.77 229.87 342.84H230.16C232.54 342.52 235.69 342.07 239.37 341.54L239.54 341.45C237.19 333.78 233.74 323.18 231.39 319Z" fill="white"/>
<path d="M229.87 343.23C229.779 343.228 229.692 343.194 229.624 343.134C229.556 343.073 229.512 342.99 229.5 342.9C228.3 334.33 226.44 321.17 225.84 317.06C225.83 317.003 225.834 316.944 225.852 316.888C225.869 316.833 225.899 316.782 225.94 316.74C226.235 316.393 226.609 316.122 227.029 315.948C227.45 315.774 227.906 315.703 228.36 315.74C229.51 315.9 230.64 316.94 231.71 318.83C234.05 322.95 237.46 333.33 239.9 341.31C239.929 341.403 239.922 341.504 239.879 341.591C239.836 341.678 239.761 341.746 239.67 341.78L239.52 341.85H239.43C235.74 342.38 232.59 342.85 230.21 343.15H229.9L229.87 343.23ZM226.61 317.14C227.22 321.4 229.01 334 230.19 342.45L239.07 341.19C236.65 333.3 233.33 323.19 231.07 319.19C230.12 317.51 229.18 316.6 228.27 316.47C227.961 316.449 227.651 316.498 227.363 316.614C227.076 316.73 226.818 316.91 226.61 317.14Z" fill="#263238"/>
<path d="M298.479 333C301.368 332.412 304.285 331.978 307.219 331.7C306.069 323.59 304.599 313.44 304.119 307.21C297.729 309.85 297.699 323.57 298.479 333Z" fill="white"/>
<path d="M298.48 333.331C298.4 333.329 298.323 333.3 298.26 333.251C298.217 333.221 298.182 333.183 298.156 333.138C298.13 333.093 298.114 333.042 298.11 332.991C297.24 322.541 297.55 309.521 303.98 306.821C304.033 306.793 304.091 306.779 304.15 306.779C304.209 306.779 304.268 306.793 304.32 306.821C304.37 306.855 304.412 306.899 304.443 306.951C304.474 307.003 304.494 307.061 304.5 307.121C304.95 313.031 306.32 322.651 307.42 330.371L307.59 331.571C307.598 331.622 307.595 331.674 307.581 331.724C307.567 331.774 307.543 331.821 307.51 331.861C307.481 331.9 307.443 331.933 307.4 331.957C307.357 331.982 307.309 331.996 307.26 332.001C304.339 332.278 301.435 332.712 298.56 333.301L298.48 333.331ZM303.79 307.741C298.05 310.861 298.17 324.321 298.79 332.501C301.28 332.001 303.9 331.611 306.79 331.311L306.68 330.501C305.61 323.001 304.29 313.711 303.79 307.741Z" fill="#263238"/>
<path d="M272.77 256.77C272.77 256.77 273.17 248.43 277.14 254.18C281.11 259.93 274.09 268.82 273.14 267.38C272.19 265.94 272.77 256.77 272.77 256.77Z" fill="white"/>
<path d="M273.41 267.91C273.288 267.914 273.167 267.886 273.058 267.83C272.95 267.774 272.857 267.692 272.79 267.59C271.79 266.09 272.33 257.72 272.4 256.75C272.4 256.27 272.66 252.32 274.4 251.83C275.3 251.58 276.31 252.27 277.48 253.96C279.78 257.29 278.48 261.27 277.48 263.34C276.33 265.77 274.55 267.82 273.48 267.91H273.41ZM274.74 252.53H274.58C273.64 252.8 273.21 255.53 273.15 256.77C272.89 260.26 272.74 266.17 273.41 267.14C273.58 267.14 274.5 266.63 275.63 264.99C277.63 262.14 279.1 257.64 276.83 254.36C276 253.18 275.26 252.53 274.74 252.53Z" fill="#263238"/>
<path d="M273.25 261.58H273.18C273.131 261.572 273.084 261.554 273.042 261.527C273 261.5 272.964 261.465 272.936 261.424C272.908 261.383 272.889 261.336 272.879 261.288C272.869 261.239 272.87 261.189 272.88 261.14C273.04 260.28 273.93 255.95 275.09 255.25C275.245 255.141 275.424 255.071 275.613 255.047C275.801 255.022 275.992 255.044 276.17 255.11C276.419 255.251 276.637 255.441 276.809 255.67C276.981 255.899 277.104 256.161 277.17 256.44C277.191 256.537 277.174 256.638 277.121 256.722C277.069 256.806 276.986 256.866 276.89 256.89C276.843 256.904 276.793 256.907 276.744 256.901C276.695 256.894 276.649 256.878 276.606 256.852C276.564 256.827 276.528 256.794 276.499 256.754C276.47 256.714 276.45 256.668 276.44 256.62C276.38 256.4 276.19 255.91 275.92 255.81C275.92 255.81 275.76 255.74 275.52 255.89C274.88 256.28 274.04 259.28 273.66 261.28C273.639 261.371 273.586 261.451 273.51 261.506C273.435 261.561 273.343 261.587 273.25 261.58Z" fill="#263238"/>
<path d="M275.75 261.551C275.689 261.551 275.629 261.537 275.575 261.509C275.521 261.482 275.475 261.441 275.44 261.391C275.386 261.308 275.366 261.207 275.385 261.11C275.403 261.013 275.459 260.927 275.54 260.871C275.741 260.718 275.891 260.509 275.969 260.269C276.048 260.03 276.052 259.772 275.98 259.531C275.97 259.485 275.95 259.442 275.92 259.405C275.891 259.369 275.853 259.34 275.81 259.321C275.177 259.224 274.53 259.329 273.96 259.621C273.916 259.641 273.867 259.651 273.819 259.653C273.77 259.654 273.721 259.645 273.676 259.628C273.63 259.61 273.588 259.584 273.553 259.55C273.518 259.516 273.49 259.475 273.47 259.431C273.449 259.386 273.437 259.338 273.435 259.289C273.433 259.239 273.441 259.19 273.459 259.144C273.477 259.098 273.504 259.057 273.538 259.022C273.573 258.987 273.614 258.959 273.66 258.941C274.421 258.56 275.29 258.454 276.12 258.641C276.263 258.701 276.39 258.794 276.49 258.912C276.591 259.03 276.663 259.17 276.7 259.321C276.815 259.714 276.807 260.132 276.676 260.52C276.546 260.908 276.299 261.247 275.97 261.491C275.904 261.53 275.828 261.551 275.75 261.551Z" fill="#263238"/>
<path d="M242 261.151C242 261.151 239.29 253.241 237.08 259.871C234.87 266.501 244.08 273.081 244.64 271.431C245.2 269.781 242 261.151 242 261.151Z" fill="white"/>
<path d="M244.21 272.061C243.981 272.053 243.755 272.009 243.54 271.931C241.1 271.121 234.81 265.501 236.73 259.751C237.38 257.801 238.16 256.851 239.09 256.851C240.87 256.851 242.2 260.571 242.35 261.021C242.69 261.941 245.57 269.811 245 271.541C244.945 271.703 244.837 271.842 244.694 271.936C244.551 272.03 244.381 272.074 244.21 272.061ZM239.1 257.601C238.54 257.601 237.96 258.451 237.44 259.991C236.18 263.781 238.87 267.681 241.56 269.871C243.1 271.131 244.14 271.401 244.31 271.291C244.67 270.191 242.87 264.561 241.65 261.291C241.13 259.741 240 257.601 239.1 257.601Z" fill="#263238"/>
<path d="M242.79 265.911C242.719 265.91 242.651 265.89 242.591 265.853C242.531 265.816 242.482 265.763 242.45 265.701C241.52 263.881 239.88 261.241 239.15 261.041C238.88 260.971 238.78 261.041 238.75 261.041C238.52 261.211 238.47 261.731 238.48 261.961C238.482 262.06 238.446 262.156 238.379 262.229C238.312 262.302 238.219 262.346 238.12 262.351C238.07 262.353 238.021 262.346 237.974 262.329C237.928 262.313 237.885 262.287 237.849 262.253C237.812 262.22 237.783 262.179 237.763 262.134C237.742 262.089 237.731 262.04 237.73 261.991C237.708 261.71 237.745 261.427 237.84 261.162C237.935 260.897 238.085 260.654 238.28 260.451C238.429 260.334 238.606 260.257 238.793 260.228C238.98 260.198 239.172 260.216 239.35 260.281C240.66 260.631 242.72 264.541 243.12 265.281C243.163 265.369 243.17 265.47 243.14 265.563C243.11 265.656 243.046 265.734 242.96 265.781C242.916 265.838 242.857 265.883 242.79 265.911Z" fill="#263238"/>
<path d="M240.369 266.581C240.33 266.59 240.289 266.59 240.249 266.581C239.865 266.439 239.533 266.183 239.299 265.847C239.064 265.511 238.939 265.111 238.939 264.701C238.938 264.547 238.97 264.395 239.034 264.255C239.098 264.115 239.192 263.99 239.309 263.891C240.057 263.482 240.921 263.341 241.759 263.491C241.808 263.497 241.855 263.513 241.898 263.537C241.941 263.562 241.978 263.594 242.008 263.634C242.037 263.673 242.059 263.717 242.071 263.765C242.084 263.812 242.087 263.862 242.079 263.911C242.075 263.96 242.06 264.008 242.036 264.051C242.012 264.094 241.979 264.132 241.939 264.162C241.9 264.192 241.855 264.214 241.807 264.226C241.758 264.237 241.708 264.239 241.66 264.231C241.031 264.111 240.38 264.191 239.8 264.461C239.765 264.491 239.738 264.527 239.719 264.569C239.7 264.61 239.69 264.655 239.689 264.701C239.687 264.954 239.763 265.202 239.906 265.411C240.049 265.62 240.253 265.781 240.49 265.871C240.585 265.903 240.664 265.971 240.709 266.061C240.754 266.151 240.761 266.255 240.729 266.351C240.698 266.42 240.648 266.479 240.584 266.519C240.52 266.56 240.445 266.582 240.369 266.581Z" fill="#263238"/>
<path d="M250.229 277.7C250.229 277.7 254.559 292.84 255.399 295.64C256.399 298.91 262.24 306.76 265.23 305.55C268.22 304.34 268.77 295.31 269.17 292.63C269.57 289.95 268.779 275.07 268.779 275.07L250.229 277.7Z" fill="white"/>
<path d="M264.55 306.05C264.023 306.036 263.506 305.899 263.04 305.65C259.87 304.14 255.88 298.49 255.04 295.74C254.2 292.99 249.91 277.96 249.86 277.81C249.838 277.762 249.826 277.709 249.826 277.655C249.826 277.602 249.838 277.549 249.86 277.5C249.89 277.456 249.928 277.418 249.973 277.388C250.017 277.359 250.068 277.339 250.12 277.33L268.68 274.7C268.731 274.691 268.784 274.693 268.835 274.707C268.885 274.72 268.931 274.746 268.97 274.78C269.011 274.812 269.044 274.853 269.067 274.9C269.089 274.947 269.101 274.998 269.1 275.05C269.1 275.66 269.9 289.99 269.49 292.68C269.43 293.09 269.37 293.63 269.29 294.28C268.69 299.36 267.84 304.87 265.29 305.89C265.055 305.989 264.805 306.043 264.55 306.05ZM250.7 278C251.41 280.45 255.01 293 255.76 295.51C256.51 298.02 260.41 303.51 263.36 304.96C263.616 305.114 263.901 305.213 264.197 305.251C264.493 305.288 264.794 305.265 265.08 305.18C267.41 304.23 268.21 297.44 268.6 294.18C268.68 293.53 268.74 292.97 268.8 292.56C269.16 290.19 268.55 277.89 268.43 275.49L250.7 278Z" fill="#263238"/>
<path d="M239.76 242.92C239.76 242.92 240.63 257.39 243.66 267.62C246.69 277.85 255.75 286.03 260.45 285.76C265.15 285.49 274.05 273.17 273.51 266.53C272.97 259.89 274.13 243.16 270.87 236.91C267.61 230.66 263.09 229.34 253.75 230.27C244.41 231.2 238.05 236.45 239.76 242.92Z" fill="white"/>
<path d="M260.22 286.14C255.1 286.14 246.22 277.65 243.31 267.73C240.4 257.81 239.44 243.8 239.39 242.98C239.072 241.828 239.017 240.619 239.228 239.442C239.439 238.265 239.912 237.151 240.61 236.18C242.97 232.78 247.74 230.49 253.71 229.9C263.61 228.9 268.02 230.64 271.21 236.74C273.58 241.29 273.64 251.05 273.69 258.9C273.69 261.98 273.69 264.63 273.88 266.5C274.24 270.82 270.74 277.33 267.1 281.5C265.66 283.16 262.88 285.97 260.47 286.11L260.22 286.14ZM258.46 230.38C257.06 230.38 255.51 230.47 253.78 230.64C248.12 231.21 243.42 233.44 241.23 236.64C240.591 237.526 240.16 238.544 239.968 239.619C239.775 240.694 239.828 241.798 240.12 242.85C240.125 242.873 240.125 242.897 240.12 242.92C240.12 243.07 241.03 257.48 244.01 267.54C247.01 277.76 256.14 285.68 260.42 285.41C261.97 285.32 264.2 283.73 266.52 281.06C270.06 276.99 273.46 270.71 273.12 266.6C272.96 264.7 272.95 262.03 272.93 258.94C272.88 251.17 272.82 241.51 270.53 237.12C268 232.29 264.85 230.38 258.46 230.38Z" fill="#263238"/>
<path d="M241.13 260.08C241.13 260.08 242.72 259.52 242.35 256.89C241.98 254.26 241.42 252.67 242.35 252.04C243.28 251.41 244.69 250.87 244.63 248.04C244.57 245.21 240.97 243.54 241.73 240.59C242.231 239.038 243.248 237.703 244.613 236.808C245.977 235.913 247.606 235.512 249.23 235.67C252.62 236.03 253.53 241.25 258.94 244C264.35 246.75 270.72 245.67 270.72 245.67C270.428 246.13 270.296 246.672 270.343 247.214C270.39 247.756 270.614 248.268 270.98 248.67C271.666 249.473 272.097 250.462 272.22 251.51C272.22 251.51 272.68 257.13 273.67 256.99C274.66 256.85 274.17 244.04 273.89 242.07C273.61 240.1 273.97 232.07 267.89 229.37C261.81 226.67 253.06 227.46 247.79 229.21C242.52 230.96 239.79 233.87 238.6 238.72C237.41 243.57 241.13 260.08 241.13 260.08Z" fill="#263238"/>
<path d="M241.13 260.451C241.071 260.465 241.009 260.465 240.95 260.451C240.86 260.392 240.793 260.304 240.76 260.201C240.61 259.521 237.07 243.521 238.23 238.641C239.39 233.761 242.32 230.641 247.66 228.871C253.3 226.991 262.11 226.451 268.03 229.031C273.48 231.421 273.93 237.851 274.15 240.951C274.15 241.401 274.2 241.771 274.24 242.031C274.39 243.031 274.57 246.781 274.61 250.221C274.67 257.221 274.11 257.311 273.7 257.371C273.609 257.385 273.516 257.379 273.428 257.353C273.34 257.327 273.259 257.282 273.19 257.221C272.3 256.511 271.92 252.701 271.83 251.551C271.696 250.579 271.29 249.664 270.66 248.911C270.351 248.534 270.137 248.089 270.034 247.612C269.932 247.136 269.944 246.642 270.07 246.171C266.203 246.615 262.289 245.993 258.75 244.371C256.447 243.1 254.468 241.314 252.97 239.151C251.7 237.531 250.69 236.241 249.17 236.091C247.637 235.941 246.098 236.318 244.807 237.16C243.517 238.001 242.551 239.257 242.07 240.721C241.7 242.161 242.52 243.301 243.38 244.501C244.264 245.475 244.83 246.696 245 248.001C245.07 250.721 243.81 251.521 242.89 252.111L242.56 252.321C242.07 252.661 242.2 253.551 242.49 255.231C242.57 255.711 242.66 256.231 242.74 256.811C243.15 259.701 241.35 260.371 241.28 260.401C241.235 260.43 241.184 260.447 241.13 260.451ZM258.21 228.001C254.713 227.985 251.236 228.511 247.9 229.561C242.76 231.271 240.09 234.031 238.96 238.791C237.96 243.021 240.77 256.631 241.38 259.491C241.681 259.159 241.895 258.758 242.004 258.324C242.112 257.889 242.111 257.435 242 257.001C241.92 256.431 241.83 255.911 241.75 255.431C241.43 253.621 241.23 252.431 242.14 251.781L242.48 251.561C243.34 251.011 244.31 250.401 244.25 248.101C244.096 246.927 243.586 245.828 242.79 244.951C241.87 243.661 240.91 242.331 241.36 240.541C242.17 237.371 245.79 234.991 249.26 235.351C251.1 235.541 252.26 237.011 253.58 238.701C255.01 240.774 256.904 242.486 259.11 243.701C264.35 246.361 270.6 245.351 270.66 245.341C270.733 245.325 270.81 245.333 270.878 245.363C270.947 245.394 271.003 245.446 271.04 245.511C271.084 245.572 271.108 245.646 271.108 245.721C271.108 245.796 271.084 245.87 271.04 245.931C270.804 246.324 270.702 246.783 270.749 247.239C270.795 247.695 270.989 248.124 271.3 248.461C272.037 249.324 272.494 250.392 272.61 251.521C272.681 253.23 273.018 254.917 273.61 256.521C274.17 254.811 273.85 244.221 273.56 242.131C273.56 241.861 273.49 241.471 273.46 241.001C273.25 238.001 272.83 231.921 267.79 229.721C264.746 228.507 261.487 227.922 258.21 228.001Z" fill="#263238"/>
<path d="M249.67 266.08C247.766 266.083 245.936 265.347 244.566 264.026C243.195 262.706 242.391 260.905 242.323 259.003C242.255 257.1 242.929 255.246 244.202 253.831C245.474 252.416 247.247 251.551 249.146 251.418C251.044 251.285 252.92 251.895 254.378 253.119C255.836 254.343 256.761 256.085 256.959 257.978C257.156 259.871 256.611 261.767 255.438 263.265C254.264 264.764 252.555 265.748 250.67 266.01C250.338 266.056 250.004 266.08 249.67 266.08ZM249.67 252.08C249.352 252.08 249.035 252.1 248.72 252.14C247.203 252.355 245.807 253.089 244.771 254.217C243.735 255.345 243.122 256.798 243.036 258.327C242.951 259.857 243.399 261.368 244.304 262.605C245.208 263.841 246.514 264.725 247.998 265.107C249.481 265.488 251.051 265.343 252.44 264.697C253.829 264.05 254.95 262.942 255.614 261.561C256.277 260.18 256.441 258.612 256.077 257.124C255.713 255.636 254.845 254.32 253.62 253.4C252.484 252.555 251.105 252.102 249.69 252.11L249.67 252.08Z" fill="#263238"/>
<path d="M265.58 263.82C263.717 263.817 261.924 263.107 260.564 261.834C259.203 260.561 258.376 258.82 258.25 256.961C258.123 255.103 258.705 253.265 259.88 251.819C261.055 250.373 262.735 249.426 264.58 249.17C265.537 249.033 266.512 249.086 267.449 249.326C268.386 249.566 269.267 249.988 270.04 250.569C270.814 251.149 271.465 251.876 271.958 252.709C272.45 253.541 272.774 254.462 272.91 255.42C273.062 256.465 272.988 257.53 272.691 258.543C272.394 259.556 271.882 260.494 271.19 261.291C270.498 262.088 269.642 262.727 268.681 263.164C267.72 263.6 266.676 263.824 265.62 263.82H265.58ZM265.58 249.82C265.269 249.82 264.958 249.84 264.65 249.88C262.939 250.111 261.386 250.998 260.316 252.352C259.246 253.707 258.744 255.424 258.916 257.141C259.087 258.859 259.918 260.442 261.234 261.559C262.551 262.675 264.249 263.237 265.971 263.126C267.694 263.015 269.306 262.24 270.468 260.963C271.629 259.687 272.25 258.009 272.2 256.284C272.149 254.559 271.43 252.921 270.196 251.715C268.961 250.509 267.306 249.83 265.58 249.82Z" fill="#263238"/>
<path d="M251.33 258.881C251.49 260.011 251.15 261.001 250.56 261.081C249.97 261.161 249.36 260.311 249.2 259.181C249.04 258.051 249.39 257.061 249.98 256.981C250.57 256.901 251.17 257.751 251.33 258.881Z" fill="#263238"/>
<path d="M264.78 257C264.94 258.13 264.6 259.11 264.01 259.2C263.42 259.29 262.81 258.43 262.65 257.3C262.49 256.17 262.83 255.18 263.42 255.1C264.01 255.02 264.62 255.83 264.78 257Z" fill="#263238"/>
<path d="M258.05 253.15C258.047 256.644 258.265 260.134 258.7 263.6C259.3 266.7 259.91 268.6 257.94 268.9C255.97 269.2 256 265.83 256 265.83" fill="white"/>
<path d="M257.72 269.29C257.321 269.295 256.935 269.149 256.64 268.88C255.64 268 255.64 265.88 255.64 265.82C255.642 265.723 255.682 265.63 255.751 265.562C255.82 265.493 255.912 265.453 256.01 265.45C256.11 265.45 256.207 265.49 256.278 265.562C256.35 265.633 256.39 265.73 256.39 265.83C256.343 266.722 256.608 267.603 257.14 268.32C257.243 268.41 257.365 268.475 257.496 268.511C257.627 268.547 257.765 268.554 257.9 268.53C258.057 268.522 258.211 268.481 258.352 268.411C258.493 268.34 258.618 268.241 258.72 268.12C259.13 267.54 258.85 266.22 258.51 264.54L258.34 263.67C257.899 260.184 257.679 256.674 257.68 253.16C257.68 253.06 257.72 252.963 257.791 252.892C257.862 252.82 257.959 252.78 258.06 252.78C258.109 252.779 258.157 252.788 258.203 252.806C258.248 252.824 258.29 252.851 258.324 252.886C258.359 252.92 258.386 252.962 258.404 253.007C258.422 253.053 258.431 253.101 258.43 253.15C258.429 256.621 258.646 260.087 259.08 263.53L259.25 264.39C259.64 266.32 259.93 267.71 259.33 268.56C259.171 268.764 258.972 268.933 258.745 269.055C258.517 269.177 258.267 269.251 258.01 269.27L257.72 269.29Z" fill="#263238"/>
<path d="M252.25 271.211C252.25 271.211 257.96 274.921 265.04 269.391L252.25 271.211Z" fill="white"/>
<path d="M257.07 272.791C255.321 272.815 253.597 272.38 252.07 271.531C252.028 271.504 251.991 271.47 251.963 271.429C251.935 271.388 251.915 271.342 251.904 271.294C251.894 271.245 251.894 271.195 251.903 271.147C251.913 271.098 251.932 271.052 251.96 271.011C251.985 270.969 252.019 270.933 252.058 270.905C252.098 270.876 252.143 270.856 252.191 270.846C252.239 270.836 252.288 270.835 252.336 270.845C252.384 270.854 252.429 270.873 252.47 270.901C252.7 271.041 258.06 274.381 264.83 269.101C264.868 269.07 264.913 269.048 264.96 269.035C265.007 269.022 265.057 269.018 265.106 269.024C265.154 269.03 265.201 269.046 265.244 269.07C265.287 269.094 265.324 269.127 265.355 269.166C265.385 269.204 265.407 269.249 265.42 269.296C265.433 269.343 265.437 269.393 265.431 269.441C265.425 269.49 265.409 269.537 265.385 269.58C265.361 269.623 265.328 269.66 265.29 269.691C262.984 271.631 260.083 272.725 257.07 272.791Z" fill="#263238"/>
<path d="M256.76 257.39C256.669 257.394 256.58 257.362 256.512 257.303C256.443 257.244 256.4 257.161 256.39 257.07C256.383 257.022 256.385 256.972 256.398 256.925C256.41 256.877 256.432 256.832 256.461 256.793C256.491 256.754 256.529 256.721 256.571 256.697C256.614 256.672 256.661 256.657 256.71 256.65L258.71 256.37C258.759 256.36 258.81 256.361 258.86 256.372C258.909 256.383 258.955 256.404 258.996 256.434C259.037 256.465 259.07 256.503 259.095 256.547C259.12 256.591 259.135 256.64 259.14 256.69C259.151 256.788 259.124 256.887 259.064 256.965C259.005 257.043 258.917 257.096 258.82 257.11L256.82 257.39H256.76Z" fill="#263238"/>
<path d="M240.87 259.821C240.779 259.813 240.694 259.773 240.63 259.709C240.566 259.644 240.527 259.558 240.521 259.467C240.515 259.376 240.542 259.286 240.597 259.214C240.652 259.141 240.731 259.09 240.82 259.071L242.3 258.861C242.394 258.857 242.487 258.889 242.559 258.95C242.631 259.011 242.678 259.096 242.691 259.19C242.703 259.284 242.68 259.379 242.626 259.457C242.573 259.534 242.492 259.589 242.4 259.611L240.93 259.821H240.87Z" fill="#263238"/>
<path d="M272.519 255.321C272.43 255.319 272.344 255.287 272.276 255.228C272.208 255.17 272.164 255.089 272.149 255.001C272.135 254.901 272.161 254.8 272.221 254.72C272.281 254.639 272.37 254.585 272.469 254.571L273.949 254.361C274.044 254.357 274.136 254.389 274.209 254.45C274.281 254.511 274.328 254.596 274.341 254.69C274.353 254.784 274.33 254.879 274.276 254.957C274.223 255.034 274.142 255.089 274.049 255.111L272.579 255.321H272.519Z" fill="#263238"/>
<path d="M244.879 253.35C244.712 253.349 244.548 253.307 244.399 253.23C244.284 253.167 244.183 253.081 244.101 252.978C244.02 252.876 243.959 252.758 243.923 252.631C243.886 252.505 243.875 252.373 243.89 252.242C243.905 252.112 243.946 251.985 244.009 251.87C245.009 250.07 248.089 247.28 252.749 249.56C252.988 249.677 253.171 249.884 253.257 250.135C253.343 250.386 253.326 250.662 253.209 250.9C253.093 251.139 252.886 251.322 252.635 251.408C252.383 251.494 252.108 251.477 251.869 251.36C247.739 249.36 245.869 252.69 245.759 252.83C245.673 252.988 245.546 253.12 245.391 253.211C245.236 253.303 245.059 253.351 244.879 253.35Z" fill="#263238"/>
<path d="M260.63 251.11C260.456 251.111 260.285 251.066 260.134 250.98C259.982 250.894 259.856 250.771 259.767 250.621C259.679 250.472 259.63 250.302 259.627 250.128C259.624 249.954 259.666 249.783 259.75 249.63C260.75 247.83 263.84 245.04 268.49 247.32C268.721 247.44 268.896 247.645 268.978 247.892C269.061 248.139 269.043 248.409 268.93 248.643C268.817 248.878 268.616 249.059 268.372 249.148C268.127 249.237 267.857 249.227 267.62 249.12C263.49 247.12 261.62 250.45 261.5 250.59C261.414 250.747 261.288 250.877 261.135 250.969C260.982 251.06 260.808 251.109 260.63 251.11Z" fill="#263238"/>
<path d="M249.14 262.661C249.051 262.646 248.97 262.6 248.912 262.532C248.853 262.463 248.821 262.376 248.821 262.286C248.821 262.195 248.853 262.108 248.912 262.04C248.97 261.971 249.051 261.925 249.14 261.911L252.42 261.451C252.469 261.442 252.519 261.444 252.567 261.456C252.615 261.467 252.66 261.489 252.7 261.519C252.739 261.549 252.772 261.587 252.796 261.63C252.82 261.673 252.835 261.721 252.84 261.771C252.847 261.819 252.844 261.869 252.832 261.916C252.819 261.964 252.798 262.009 252.768 262.048C252.738 262.087 252.701 262.12 252.658 262.144C252.616 262.169 252.569 262.184 252.52 262.191L249.24 262.661H249.14Z" fill="#263238"/>
<path d="M262.59 260.75C262.5 260.751 262.412 260.719 262.344 260.66C262.276 260.601 262.232 260.519 262.22 260.43C262.205 260.331 262.231 260.23 262.291 260.149C262.351 260.069 262.44 260.015 262.54 260L265.82 259.54C265.916 259.526 266.015 259.55 266.094 259.608C266.172 259.667 266.225 259.753 266.24 259.85C266.254 259.95 266.228 260.051 266.168 260.131C266.108 260.212 266.019 260.265 265.92 260.28L262.64 260.74L262.59 260.75Z" fill="#263238"/>
<path d="M327.837 343.552L213.338 359.827L218.916 399.073L333.415 382.797L327.837 343.552Z" fill="#263238"/>
<path d="M288.25 355.204L253.788 360.077L254.068 362.057L288.53 357.184L288.25 355.204Z" fill="white"/>
<path d="M317.32 372.972L230.813 385.205L231.093 387.185L317.6 374.952L317.32 372.972Z" fill="white"/>
<path d="M293.931 359.779L249.618 366.045L249.898 368.025L294.211 361.759L293.931 359.779Z" fill="white"/>
<path d="M243.101 370.396L242.646 370.46L243.756 378.311L244.211 378.246L243.101 370.396Z" fill="#263238"/>
<path d="M247.772 369.738L247.316 369.803L248.427 377.653L248.882 377.589L247.772 369.738Z" fill="#263238"/>
<path d="M249.005 369.433L248.55 369.498L249.666 377.349L250.121 377.284L249.005 369.433Z" fill="#263238"/>
<path d="M250.121 369.278L249.666 369.343L250.782 377.194L251.237 377.129L250.121 369.278Z" fill="#263238"/>
<path d="M252.568 368.926L252.112 368.991L253.228 376.842L253.684 376.778L252.568 368.926Z" fill="#263238"/>
<path d="M253.51 368.796L253.055 368.86L254.171 376.711L254.626 376.647L253.51 368.796Z" fill="#263238"/>
<path d="M244.835 370.145L243.924 370.273L245.034 378.124L245.945 377.995L244.835 370.145Z" fill="#263238"/>
<path d="M257.976 368.154L257.521 368.219L258.636 376.07L259.092 376.005L257.976 368.154Z" fill="#263238"/>
<path d="M259.699 367.913L258.788 368.042L259.904 375.893L260.815 375.764L259.699 367.913Z" fill="#263238"/>
<path d="M247.358 369.662L246.447 369.791L247.563 377.642L248.474 377.513L247.358 369.662Z" fill="#263238"/>
<path d="M251.583 369.19L250.672 369.318L251.782 377.169L252.693 377.04L251.583 369.19Z" fill="#263238"/>
<path d="M255.548 368.509L255.093 368.574L256.209 376.425L256.664 376.361L255.548 368.509Z" fill="#263238"/>
<path d="M256.5 368.369L256.045 368.434L257.161 376.285L257.616 376.22L256.5 368.369Z" fill="#263238"/>
<path d="M254.854 368.607L253.943 368.736L255.059 376.587L255.97 376.458L254.854 368.607Z" fill="#263238"/>
<path d="M261.51 367.67L261.055 367.734L262.171 375.585L262.626 375.521L261.51 367.67Z" fill="#263238"/>
<path d="M266.19 366.998L265.734 367.062L266.85 374.914L267.306 374.849L266.19 366.998Z" fill="#263238"/>
<path d="M267.132 366.858L266.677 366.923L267.793 374.774L268.248 374.709L267.132 366.858Z" fill="#263238"/>
<path d="M268.239 366.702L267.783 366.767L268.899 374.618L269.355 374.553L268.239 366.702Z" fill="#263238"/>
<path d="M270.714 366.34L270.259 366.404L271.375 374.255L271.83 374.191L270.714 366.34Z" fill="#263238"/>
<path d="M271.614 366.234L271.158 366.299L272.276 374.15L272.731 374.085L271.614 366.234Z" fill="#263238"/>
<path d="M263.269 367.384L262.358 367.514L263.476 375.365L264.387 375.235L263.269 367.384Z" fill="#263238"/>
<path d="M276.089 365.591L275.634 365.656L276.751 373.507L277.207 373.442L276.089 365.591Z" fill="#263238"/>
<path d="M277.826 365.337L276.915 365.467L278.031 373.318L278.942 373.188L277.826 365.337Z" fill="#263238"/>
<path d="M265.205 367.262L264.294 367.391L265.404 375.241L266.315 375.113L265.205 367.262Z" fill="#263238"/>
<path d="M269.71 366.627L268.799 366.756L269.909 374.607L270.82 374.478L269.71 366.627Z" fill="#263238"/>
<path d="M273.696 365.932L273.24 365.997L274.356 373.848L274.812 373.783L273.696 365.932Z" fill="#263238"/>
<path d="M274.626 365.783L274.171 365.848L275.287 373.699L275.742 373.634L274.626 365.783Z" fill="#263238"/>
<path d="M272.981 366.032L272.07 366.161L273.186 374.012L274.097 373.883L272.981 366.032Z" fill="#263238"/>
<path d="M279.112 365.158L278.656 365.223L279.772 373.074L280.228 373.009L279.112 365.158Z" fill="#263238"/>
<path d="M280.054 365.018L279.599 365.083L280.715 372.934L281.17 372.869L280.054 365.018Z" fill="#263238"/>
<path d="M284.522 364.385L284.066 364.45L285.182 372.301L285.638 372.237L284.522 364.385Z" fill="#263238"/>
<path d="M286.235 364.146L285.324 364.275L286.44 372.126L287.351 371.997L286.235 364.146Z" fill="#263238"/>
<path d="M282.114 364.721L281.658 364.786L282.774 372.637L283.23 372.572L282.114 364.721Z" fill="#263238"/>
<path d="M283.035 364.601L282.58 364.666L283.696 372.517L284.151 372.452L283.035 364.601Z" fill="#263238"/>
<path d="M281.129 365.016L280.218 365.145L281.328 372.995L282.239 372.866L281.129 365.016Z" fill="#263238"/>
<path d="M287.785 364.073L287.33 364.138L288.44 371.988L288.896 371.924L287.785 364.073Z" fill="#263238"/>
<path d="M292.456 363.426L292.001 363.49L293.111 371.341L293.567 371.277L292.456 363.426Z" fill="#263238"/>
<path d="M293.667 363.1L293.212 363.165L294.328 371.016L294.783 370.951L293.667 363.1Z" fill="#263238"/>
<path d="M294.793 362.933L294.338 362.998L295.454 370.849L295.909 370.784L294.793 362.933Z" fill="#263238"/>
<path d="M297.24 362.582L296.784 362.646L297.9 370.498L298.356 370.433L297.24 362.582Z" fill="#263238"/>
<path d="M297.903 362.641L297.447 362.705L298.557 370.556L299.013 370.491L297.903 362.641Z" fill="#263238"/>
<path d="M289.803 363.612L288.893 363.741L290.01 371.592L290.921 371.462L289.803 363.612Z" fill="#263238"/>
<path d="M302.648 361.8L302.192 361.864L303.308 369.715L303.764 369.651L302.648 361.8Z" fill="#263238"/>
<path d="M304.361 361.57L303.45 361.699L304.566 369.55L305.477 369.421L304.361 361.57Z" fill="#263238"/>
<path d="M292.03 363.318L291.119 363.447L292.235 371.298L293.146 371.169L292.03 363.318Z" fill="#263238"/>
<path d="M296.266 362.878L295.355 363.007L296.466 370.858L297.376 370.729L296.266 362.878Z" fill="#263238"/>
<path d="M300.23 362.155L299.774 362.22L300.89 370.071L301.346 370.006L300.23 362.155Z" fill="#263238"/>
<path d="M301.158 362.044L300.702 362.108L301.819 369.959L302.275 369.894L301.158 362.044Z" fill="#263238"/>
<path d="M299.535 362.252L298.624 362.382L299.74 370.233L300.651 370.103L299.535 362.252Z" fill="#263238"/>
<path d="M243.87 165.641C243.684 165.642 243.499 165.618 243.32 165.571C243.067 165.499 242.831 165.378 242.625 165.216C242.419 165.053 242.246 164.851 242.118 164.621C241.99 164.392 241.908 164.14 241.878 163.879C241.847 163.618 241.868 163.353 241.94 163.101C242.05 162.711 244.77 153.301 255.83 137.951C256.14 137.52 256.609 137.23 257.133 137.144C257.658 137.059 258.194 137.185 258.625 137.496C259.056 137.806 259.346 138.275 259.431 138.799C259.517 139.323 259.39 139.86 259.08 140.291C248.49 154.991 245.82 164.101 245.79 164.191C245.671 164.608 245.419 164.975 245.072 165.237C244.726 165.498 244.304 165.64 243.87 165.641Z" fill="#263238"/>
</svg>
