<svg width="501" height="500" viewBox="0 0 501 500" fill="none" xmlns="http://www.w3.org/2000/svg">
<path d="M469 108.18C467.413 105.513 465.747 102.876 464 100.27C440.83 65.9296 400.94 42.4396 361.7 31.8196C344.484 27.2366 326.797 24.6529 308.99 24.1196C192.37 20.1696 145.92 112.12 107.38 135.8C68.84 159.48 9.50005 200 13.5001 285C17.5001 370 78.72 450 197.31 455C315.9 460 323.81 406.58 390.02 386.81C433.84 373.73 465.02 329.55 480.22 288.73C501 233.08 500.02 160.81 469 108.18Z" fill="#52B788"/>
<path opacity="0.7" d="M469 108.18C467.413 105.513 465.747 102.876 464 100.27C440.83 65.9296 400.94 42.4396 361.7 31.8196C344.484 27.2366 326.797 24.6529 308.99 24.1196C192.37 20.1696 145.92 112.12 107.38 135.8C68.84 159.48 9.50005 200 13.5001 285C17.5001 370 78.72 450 197.31 455C315.9 460 323.81 406.58 390.02 386.81C433.84 373.73 465.02 329.55 480.22 288.73C501 233.08 500.02 160.81 469 108.18Z" fill="white"/>
<path d="M308.43 470.16H474.68" stroke="#263238" stroke-miterlimit="10"/>
<path d="M40.45 470.16H295.72" stroke="#263238" stroke-miterlimit="10"/>
<path d="M15.01 470.16H33.18" stroke="#263238" stroke-miterlimit="10"/>
<g opacity="0.3">
<path opacity="0.3" d="M190.82 386.76H169.05V334.98H203.05L207.88 341.88V346.19" stroke="black" stroke-linecap="round" stroke-linejoin="round"/>
<path opacity="0.3" d="M203.05 334.98V342.49H207.88L203.05 334.98Z" stroke="black" stroke-linecap="round" stroke-linejoin="round"/>
<path opacity="0.3" d="M175.01 349.801H186.43" stroke="black" stroke-linecap="round" stroke-linejoin="round"/>
<path opacity="0.3" d="M175.01 357.12H186.43" stroke="black" stroke-linecap="round" stroke-linejoin="round"/>
<path opacity="0.3" d="M175.01 364.431H186.43" stroke="black" stroke-linecap="round" stroke-linejoin="round"/>
<path opacity="0.3" d="M175.01 371.75H186.43" stroke="black" stroke-linecap="round" stroke-linejoin="round"/>
</g>
<path opacity="0.3" d="M190.82 349.19H186.6V386.25H190.82V349.19Z" fill="black"/>
<g opacity="0.3">
<path opacity="0.3" d="M229.52 398.65H191.26V346.87H224.69L229.52 353.76V398.65Z" stroke="black" stroke-linecap="round" stroke-linejoin="round"/>
<path opacity="0.3" d="M224.69 346.87V354.37H229.52L224.69 346.87Z" stroke="black" stroke-linecap="round" stroke-linejoin="round"/>
<path opacity="0.3" d="M196.65 361.69H223.78" stroke="black" stroke-linecap="round" stroke-linejoin="round"/>
<path opacity="0.3" d="M196.65 369H223.78" stroke="black" stroke-linecap="round" stroke-linejoin="round"/>
<path opacity="0.3" d="M196.65 376.32H223.78" stroke="black" stroke-linecap="round" stroke-linejoin="round"/>
<path opacity="0.3" d="M196.65 383.63H223.78" stroke="black" stroke-linecap="round" stroke-linejoin="round"/>
</g>
<path opacity="0.3" d="M109.36 41.2802L107.52 35.9902H85.6499V41.2802V67.3002V72.5802H131.72V41.2802H109.36Z" stroke="black" stroke-linecap="round" stroke-linejoin="round"/>
<path opacity="0.3" d="M56.3499 41.2802L54.5199 35.9902H32.6499V41.2802V67.3002V72.5802H78.7199V41.2802H56.3499Z" stroke="black" stroke-linecap="round" stroke-linejoin="round"/>
<path opacity="0.3" d="M400.03 310.24L398.19 304.95H376.33V310.24V336.26V341.55H422.4V310.24H400.03Z" stroke="black" stroke-linecap="round" stroke-linejoin="round"/>
<path opacity="0.3" d="M347.03 310.24L345.19 304.95H323.33V310.24V336.26V341.55H369.4V310.24H347.03Z" stroke="black" stroke-linecap="round" stroke-linejoin="round"/>
<path opacity="0.3" d="M56.3499 90.2802L54.5199 84.9902H32.6499V90.2802V116.3V121.58H78.7199V90.2802H56.3499Z" stroke="black" stroke-linecap="round" stroke-linejoin="round"/>
<path d="M486.45 133.15H433.66V143.71H486.45V133.15Z" stroke="#ABABAB" stroke-miterlimit="10"/>
<path d="M486.45 146.35H433.66V156.91H486.45V146.35Z" stroke="#ABABAB" stroke-miterlimit="10"/>
<path d="M486.45 159.561H433.66V170.121H486.45V159.561Z" stroke="#ABABAB" stroke-miterlimit="10"/>
<path d="M486.45 172.76H433.66V183.32H486.45V172.76Z" stroke="#ABABAB" stroke-miterlimit="10"/>
<path d="M486.45 185.96H433.66V196.52H486.45V185.96Z" stroke="#ABABAB" stroke-miterlimit="10"/>
<path d="M470.89 138.73C470.892 138.346 470.78 137.969 470.567 137.649C470.355 137.328 470.052 137.078 469.697 136.93C469.342 136.782 468.951 136.743 468.574 136.817C468.197 136.892 467.85 137.077 467.578 137.348C467.306 137.62 467.121 137.967 467.047 138.344C466.972 138.722 467.012 139.112 467.16 139.467C467.308 139.822 467.558 140.125 467.878 140.337C468.199 140.55 468.575 140.662 468.96 140.66C469.472 140.66 469.963 140.457 470.325 140.095C470.687 139.733 470.89 139.242 470.89 138.73V138.73Z" stroke="#ABABAB" stroke-miterlimit="10"/>
<path d="M477.65 138.73C477.65 138.348 477.537 137.975 477.325 137.658C477.113 137.34 476.811 137.093 476.459 136.947C476.106 136.801 475.718 136.762 475.344 136.837C474.969 136.911 474.625 137.095 474.355 137.365C474.085 137.635 473.902 137.979 473.827 138.353C473.753 138.728 473.791 139.116 473.937 139.468C474.083 139.821 474.33 140.122 474.648 140.335C474.965 140.547 475.338 140.66 475.72 140.66C475.974 140.661 476.225 140.612 476.46 140.516C476.695 140.419 476.908 140.277 477.088 140.097C477.267 139.918 477.409 139.705 477.506 139.47C477.602 139.235 477.651 138.984 477.65 138.73Z" stroke="#ABABAB" stroke-miterlimit="10"/>
<path d="M468.96 153.54C470.026 153.54 470.89 152.676 470.89 151.61C470.89 150.544 470.026 149.68 468.96 149.68C467.894 149.68 467.03 150.544 467.03 151.61C467.03 152.676 467.894 153.54 468.96 153.54Z" stroke="#ABABAB" stroke-miterlimit="10"/>
<path d="M475.72 153.54C476.786 153.54 477.65 152.676 477.65 151.61C477.65 150.544 476.786 149.68 475.72 149.68C474.654 149.68 473.79 150.544 473.79 151.61C473.79 152.676 474.654 153.54 475.72 153.54Z" stroke="#ABABAB" stroke-miterlimit="10"/>
<path d="M468.96 166.421C470.026 166.421 470.89 165.556 470.89 164.491C470.89 163.425 470.026 162.561 468.96 162.561C467.894 162.561 467.03 163.425 467.03 164.491C467.03 165.556 467.894 166.421 468.96 166.421Z" stroke="#ABABAB" stroke-miterlimit="10"/>
<path d="M475.72 166.421C476.786 166.421 477.65 165.556 477.65 164.491C477.65 163.425 476.786 162.561 475.72 162.561C474.654 162.561 473.79 163.425 473.79 164.491C473.79 165.556 474.654 166.421 475.72 166.421Z" stroke="#ABABAB" stroke-miterlimit="10"/>
<path d="M470.89 177.38C470.892 176.995 470.78 176.619 470.567 176.298C470.355 175.978 470.052 175.727 469.697 175.579C469.342 175.431 468.951 175.392 468.574 175.466C468.197 175.541 467.85 175.726 467.578 175.998C467.306 176.27 467.121 176.616 467.047 176.994C466.972 177.371 467.012 177.762 467.16 178.117C467.308 178.472 467.558 178.774 467.878 178.987C468.199 179.199 468.575 179.312 468.96 179.31C469.471 179.307 469.96 179.103 470.322 178.741C470.683 178.38 470.887 177.891 470.89 177.38V177.38Z" stroke="#ABABAB" stroke-miterlimit="10"/>
<path d="M477.65 177.38C477.65 176.998 477.537 176.625 477.325 176.308C477.113 175.991 476.811 175.743 476.459 175.597C476.106 175.451 475.718 175.413 475.344 175.487C474.969 175.562 474.625 175.746 474.355 176.015C474.085 176.285 473.902 176.629 473.827 177.004C473.753 177.378 473.791 177.766 473.937 178.119C474.083 178.471 474.33 178.773 474.648 178.985C474.965 179.197 475.338 179.31 475.72 179.31C476.232 179.31 476.723 179.107 477.085 178.745C477.447 178.383 477.65 177.892 477.65 177.38V177.38Z" stroke="#ABABAB" stroke-miterlimit="10"/>
<path d="M468.96 192.19C470.026 192.19 470.89 191.326 470.89 190.26C470.89 189.194 470.026 188.33 468.96 188.33C467.894 188.33 467.03 189.194 467.03 190.26C467.03 191.326 467.894 192.19 468.96 192.19Z" stroke="#ABABAB" stroke-miterlimit="10"/>
<path d="M475.72 192.19C476.786 192.19 477.65 191.326 477.65 190.26C477.65 189.194 476.786 188.33 475.72 188.33C474.654 188.33 473.79 189.194 473.79 190.26C473.79 191.326 474.654 192.19 475.72 192.19Z" stroke="#ABABAB" stroke-miterlimit="10"/>
<path d="M457.43 132.84V20.0801H292.88V360.04H456.56V197.16" stroke="#ABABAB" stroke-miterlimit="10"/>
<path d="M389.77 409.8C395.564 409.8 400.26 397.484 400.26 382.29C400.26 367.097 395.564 354.78 389.77 354.78C383.977 354.78 379.28 367.097 379.28 382.29C379.28 397.484 383.977 409.8 389.77 409.8Z" fill="#52B788" stroke="#263238" stroke-miterlimit="10"/>
<path d="M422.365 365.368C425.645 355.046 424.665 345.522 420.175 344.095C415.685 342.668 409.387 349.879 406.106 360.201C402.826 370.522 403.807 380.046 408.297 381.473C412.786 382.9 419.085 375.689 422.365 365.368Z" fill="#52B788" stroke="#263238" stroke-miterlimit="10"/>
<path d="M345.39 427.559C334.71 425.749 326.69 420.559 327.48 415.869C328.27 411.179 337.56 408.92 348.24 410.73C358.92 412.54 366.93 417.729 366.15 422.419C365.37 427.109 356.07 429.369 345.39 427.559Z" fill="#52B788" stroke="#263238" stroke-miterlimit="10"/>
<path d="M432.241 402.145C441.159 393.302 445.081 382.798 441.001 378.684C436.922 374.57 426.386 378.404 417.468 387.248C408.55 396.091 404.628 406.595 408.708 410.708C412.787 414.822 423.323 410.988 432.241 402.145Z" fill="#52B788" stroke="#263238" stroke-miterlimit="10"/>
<path d="M376.533 407.279C381.985 403.521 379.415 390.333 370.792 377.824C362.169 365.315 350.758 358.221 345.306 361.979C339.854 365.737 342.425 378.925 351.048 391.434C359.671 403.943 371.081 411.037 376.533 407.279Z" fill="#52B788" stroke="#263238" stroke-miterlimit="10"/>
<path d="M390.5 408.44L391.31 446.26" stroke="#263238" stroke-miterlimit="10" stroke-linecap="round"/>
<path d="M389.52 372.06L390.5 408.44" stroke="#263238" stroke-miterlimit="10" stroke-linecap="round"/>
<path d="M389.59 366.13L389.52 368.92" stroke="#263238" stroke-miterlimit="10" stroke-linecap="round"/>
<path d="M376.5 405.54C382.519 417.964 386.039 431.449 386.86 445.23" stroke="#263238" stroke-miterlimit="10" stroke-linecap="round"/>
<path d="M358.5 378C365.692 386.354 371.745 395.625 376.5 405.57" stroke="#263238" stroke-miterlimit="10" stroke-linecap="round"/>
<path d="M352.79 372C352.79 372 353.88 373 355.67 374.89" stroke="#263238" stroke-miterlimit="10" stroke-linecap="round"/>
<path d="M409.35 409.42C401.995 419.737 396.262 431.119 392.35 443.17" stroke="#263238" stroke-miterlimit="10" stroke-linecap="round"/>
<path d="M421.42 395.55C416.977 399.79 412.936 404.434 409.35 409.42" stroke="#263238" stroke-miterlimit="10" stroke-linecap="round"/>
<path d="M434.3 385.73C431.022 387.584 427.942 389.769 425.11 392.25" stroke="#263238" stroke-miterlimit="10" stroke-linecap="round"/>
<path d="M408.91 378.87C403.1 397.16 395.3 424.18 391.66 447.64" stroke="#263238" stroke-miterlimit="10" stroke-linecap="round"/>
<path d="M412.5 368C411.5 371.08 410.26 374.74 408.96 378.84" stroke="#263238" stroke-miterlimit="10" stroke-linecap="round"/>
<path d="M416.08 357.53C416.08 357.53 415.08 360.33 413.43 365.13" stroke="#263238" stroke-miterlimit="10" stroke-linecap="round"/>
<path d="M365.61 419.89C369.765 421.343 373.53 423.732 376.614 426.872C379.699 430.012 382.021 433.82 383.4 438" stroke="#263238" stroke-miterlimit="10" stroke-linecap="round"/>
<path d="M352.2 417.16C356.782 417.393 361.302 418.313 365.61 419.89" stroke="#263238" stroke-miterlimit="10" stroke-linecap="round"/>
<path d="M343.5 417.38C343.5 417.38 344.79 417.19 346.92 417.11" stroke="#263238" stroke-miterlimit="10" stroke-linecap="round"/>
<path d="M436.76 427.559C447.44 425.749 455.46 420.559 454.67 415.869C453.88 411.179 444.59 408.92 433.91 410.73C423.23 412.54 415.22 417.729 416 422.419C416.78 427.109 426.08 429.369 436.76 427.559Z" fill="#52B788" stroke="#263238" stroke-miterlimit="10"/>
<path d="M416.77 419.8C409.43 422.53 402.23 427.85 398.77 438.01" stroke="#263238" stroke-miterlimit="10" stroke-linecap="round"/>
<path d="M431.08 417.11C426.198 417.249 421.369 418.157 416.77 419.8" stroke="#263238" stroke-miterlimit="10" stroke-linecap="round"/>
<path d="M438.64 417.38C438.64 417.38 437.79 417.25 436.33 417.16" stroke="#263238" stroke-miterlimit="10" stroke-linecap="round"/>
<path d="M416.62 470.16C419.859 463.395 421.566 456 421.62 448.5C421.625 444.011 420.95 439.547 419.62 435.26H363.72C362.39 439.547 361.716 444.011 361.72 448.5C361.768 456 363.476 463.397 366.72 470.16H416.62Z" fill="#263238"/>
<path d="M362.29 441.45C362.13 442.45 362 443.5 361.91 444.55H421.4C421.31 443.5 421.19 442.47 421.03 441.45H362.29Z" fill="#7A7A7A"/>
<path d="M420.77 457.27C420.95 456.27 421.12 455.21 421.24 454.17H362.07C362.2 455.17 362.36 456.24 362.55 457.27H420.77Z" fill="#7A7A7A"/>
<path d="M368.96 448.67C368.96 449.146 368.819 449.612 368.554 450.009C368.289 450.405 367.913 450.714 367.472 450.896C367.032 451.079 366.547 451.126 366.08 451.033C365.612 450.94 365.183 450.711 364.846 450.374C364.509 450.037 364.279 449.607 364.186 449.14C364.093 448.672 364.141 448.188 364.323 447.747C364.506 447.307 364.815 446.931 365.211 446.666C365.607 446.401 366.073 446.26 366.55 446.26C366.866 446.26 367.18 446.322 367.472 446.443C367.765 446.564 368.03 446.742 368.254 446.966C368.478 447.189 368.655 447.455 368.776 447.747C368.898 448.04 368.96 448.353 368.96 448.67Z" fill="#8C8C8C"/>
<path d="M381 448.67C381 449.146 380.859 449.612 380.594 450.009C380.329 450.405 379.953 450.714 379.512 450.896C379.072 451.079 378.587 451.126 378.12 451.033C377.652 450.94 377.223 450.711 376.886 450.374C376.549 450.037 376.319 449.607 376.226 449.14C376.133 448.672 376.181 448.188 376.363 447.747C376.546 447.307 376.855 446.931 377.251 446.666C377.647 446.401 378.113 446.26 378.59 446.26C378.906 446.26 379.22 446.322 379.512 446.443C379.805 446.564 380.07 446.742 380.294 446.966C380.518 447.189 380.695 447.455 380.816 447.747C380.938 448.04 381 448.353 381 448.67Z" fill="#8C8C8C"/>
<path d="M393.03 448.67C393.03 449.147 392.888 449.613 392.623 450.01C392.358 450.406 391.981 450.715 391.54 450.897C391.099 451.079 390.614 451.126 390.146 451.033C389.678 450.939 389.249 450.708 388.912 450.37C388.576 450.032 388.347 449.602 388.255 449.134C388.163 448.666 388.212 448.181 388.396 447.741C388.58 447.3 388.891 446.925 389.288 446.661C389.686 446.397 390.153 446.258 390.63 446.26C391.267 446.262 391.878 446.517 392.328 446.969C392.777 447.421 393.03 448.032 393.03 448.67Z" fill="#8C8C8C"/>
<path d="M405.07 448.67C405.07 449.146 404.929 449.612 404.664 450.009C404.399 450.405 404.023 450.714 403.582 450.896C403.142 451.079 402.657 451.126 402.19 451.033C401.722 450.94 401.293 450.711 400.956 450.374C400.619 450.037 400.389 449.607 400.296 449.14C400.203 448.672 400.251 448.188 400.433 447.747C400.616 447.307 400.925 446.931 401.321 446.666C401.717 446.401 402.183 446.26 402.66 446.26C402.976 446.26 403.29 446.322 403.582 446.443C403.875 446.564 404.14 446.742 404.364 446.966C404.588 447.189 404.765 447.455 404.887 447.747C405.008 448.04 405.07 448.353 405.07 448.67Z" fill="#8C8C8C"/>
<path d="M417.11 448.67C417.11 449.146 416.969 449.612 416.704 450.009C416.439 450.405 416.063 450.714 415.622 450.896C415.182 451.079 414.697 451.126 414.23 451.033C413.762 450.94 413.333 450.711 412.996 450.374C412.659 450.037 412.429 449.607 412.336 449.14C412.243 448.672 412.291 448.188 412.473 447.747C412.656 447.307 412.965 446.931 413.361 446.666C413.757 446.401 414.223 446.26 414.7 446.26C415.017 446.26 415.33 446.322 415.622 446.443C415.915 446.564 416.18 446.742 416.404 446.966C416.628 447.189 416.805 447.455 416.927 447.747C417.048 448.04 417.11 448.353 417.11 448.67Z" fill="#8C8C8C"/>
<path d="M428.19 39.2891H171.76V299.059H428.19V39.2891Z" fill="#263238" stroke="#263238" stroke-linecap="round" stroke-linejoin="round"/>
<path d="M424.51 33.7695H163.07V294H424.51V33.7695Z" fill="white" stroke="#263238" stroke-linecap="round" stroke-linejoin="round"/>
<path d="M424.52 33.7695H417.5V294H424.52V33.7695Z" fill="#DEDEDE" stroke="#263238" stroke-linecap="round" stroke-linejoin="round"/>
<path d="M424.52 70H417.5V122.5H424.52V70Z" fill="#B8B8B8" stroke="#263238" stroke-linecap="round" stroke-linejoin="round"/>
<path d="M255.19 33.7695H248.17V294H255.19V33.7695Z" fill="#DEDEDE" stroke="#263238" stroke-linecap="round" stroke-linejoin="round"/>
<path d="M255.19 70H248.17V176.5H255.19V70Z" fill="#B8B8B8" stroke="#263238" stroke-linecap="round" stroke-linejoin="round"/>
<path d="M248.4 33.7695H163.07V294H248.4V33.7695Z" fill="white" stroke="#263238" stroke-linecap="round" stroke-linejoin="round"/>
<path d="M424.51 33.7695H163.07V56.9995H424.51V33.7695Z" fill="#DEDEDE" stroke="#263238" stroke-linecap="round" stroke-linejoin="round"/>
<path d="M246.97 117.25H165.23V161.3H246.97V117.25Z" fill="#52B788"/>
<path d="M424.51 33.7695H163.07V46.0595H424.51V33.7695Z" fill="#263238" stroke="#263238" stroke-linecap="round" stroke-linejoin="round"/>
<path d="M397.57 40.3995C397.57 39.8299 397.401 39.2731 397.085 38.7995C396.768 38.3259 396.318 37.9567 395.792 37.7388C395.266 37.5208 394.687 37.4637 394.128 37.5749C393.57 37.686 393.056 37.9603 392.654 38.3631C392.251 38.7658 391.977 39.279 391.865 39.8377C391.754 40.3963 391.811 40.9754 392.029 41.5017C392.247 42.0279 392.616 42.4777 393.09 42.7942C393.564 43.1106 394.12 43.2795 394.69 43.2795C395.069 43.2808 395.444 43.2073 395.794 43.063C396.144 42.9187 396.462 42.7066 396.729 42.4389C396.997 42.1712 397.209 41.8532 397.354 41.5032C397.498 41.1532 397.571 40.7781 397.57 40.3995Z" fill="white" stroke="#263238" stroke-linecap="round" stroke-linejoin="round"/>
<path d="M406.3 40.3995C406.3 39.8299 406.131 39.2731 405.815 38.7995C405.498 38.3259 405.048 37.9567 404.522 37.7388C403.996 37.5208 403.417 37.4637 402.858 37.5749C402.3 37.686 401.786 37.9603 401.384 38.3631C400.981 38.7658 400.707 39.279 400.595 39.8377C400.484 40.3963 400.541 40.9754 400.759 41.5017C400.977 42.0279 401.346 42.4777 401.82 42.7942C402.294 43.1106 402.85 43.2795 403.42 43.2795C403.799 43.2808 404.174 43.2073 404.524 43.063C404.874 42.9187 405.192 42.7066 405.46 42.4389C405.727 42.1712 405.939 41.8532 406.084 41.5032C406.228 41.1532 406.301 40.7781 406.3 40.3995Z" fill="white" stroke="#263238" stroke-linecap="round" stroke-linejoin="round"/>
<path d="M415.03 40.3995C415.03 39.8299 414.861 39.2731 414.545 38.7995C414.228 38.3259 413.778 37.9567 413.252 37.7388C412.726 37.5208 412.147 37.4637 411.588 37.5749C411.029 37.686 410.516 37.9603 410.114 38.3631C409.711 38.7658 409.436 39.279 409.325 39.8377C409.214 40.3963 409.271 40.9754 409.489 41.5017C409.707 42.0279 410.076 42.4777 410.55 42.7942C411.024 43.1106 411.58 43.2795 412.15 43.2795C412.529 43.2808 412.904 43.2073 413.254 43.063C413.604 42.9187 413.922 42.7066 414.189 42.4389C414.457 42.1712 414.669 41.8532 414.813 41.5032C414.958 41.1532 415.031 40.7781 415.03 40.3995Z" fill="white" stroke="#263238" stroke-linecap="round" stroke-linejoin="round"/>
<path d="M208.13 82.0591L206.47 77.2891H186.79V82.0591V105.479V110.249H228.27V82.0591H208.13Z" fill="white" stroke="#263238" stroke-linecap="round" stroke-linejoin="round"/>
<path d="M226.44 84.8193H188.61V105.629H226.44V84.8193Z" fill="white" stroke="#263238" stroke-linecap="round" stroke-linejoin="round"/>
<path d="M228.27 89.4395H186.79V110.249H228.27V89.4395Z" fill="white" stroke="#263238" stroke-linecap="round" stroke-linejoin="round"/>
<path d="M208.13 178.56L206.47 173.8H186.79V178.56V201.99V206.75H228.27V178.56H208.13Z" fill="white" stroke="#263238" stroke-linecap="round" stroke-linejoin="round"/>
<path d="M226.44 181.319H188.61V202.129H226.44V181.319Z" fill="white" stroke="#263238" stroke-linecap="round" stroke-linejoin="round"/>
<path d="M228.27 185.939H186.79V206.749H228.27V185.939Z" fill="white" stroke="#263238" stroke-linecap="round" stroke-linejoin="round"/>
<path d="M208.13 227.81L206.47 223.05H186.79V227.81V251.24V256H228.27V227.81H208.13Z" fill="white" stroke="#263238" stroke-linecap="round" stroke-linejoin="round"/>
<path d="M226.44 230.569H188.61V251.379H226.44V230.569Z" fill="white" stroke="#263238" stroke-linecap="round" stroke-linejoin="round"/>
<path d="M228.27 235.189H186.79V255.999H228.27V235.189Z" fill="white" stroke="#263238" stroke-linecap="round" stroke-linejoin="round"/>
<path d="M208.13 128.059L206.47 123.289H186.79V128.059V151.479V156.249H228.27V128.059H208.13Z" fill="#52B788" stroke="#263238" stroke-linecap="round" stroke-linejoin="round"/>
<path d="M226.44 130.819H188.61V151.629H226.44V130.819Z" fill="white" stroke="#263238" stroke-linecap="round" stroke-linejoin="round"/>
<path d="M228.27 135.439H186.79V156.249H228.27V135.439Z" fill="#52B788" stroke="#263238" stroke-linecap="round" stroke-linejoin="round"/>
<path d="M302.5 79.3291H264.33V128.349H302.5V79.3291Z" fill="white" stroke="#263238" stroke-linecap="round" stroke-linejoin="round"/>
<path d="M269.44 89.1592H297.05" stroke="#263238" stroke-linecap="round" stroke-linejoin="round"/>
<path d="M269.44 97.6797H297.05" stroke="#263238" stroke-linecap="round" stroke-linejoin="round"/>
<path d="M269.44 106.199H297.05" stroke="#263238" stroke-linecap="round" stroke-linejoin="round"/>
<path d="M269.44 114.72H297.05" stroke="#263238" stroke-linecap="round" stroke-linejoin="round"/>
<path d="M353 79.3291H314.83V128.349H353V79.3291Z" fill="white" stroke="#263238" stroke-linecap="round" stroke-linejoin="round"/>
<path d="M319.94 89.1592H347.55" stroke="#263238" stroke-linecap="round" stroke-linejoin="round"/>
<path d="M319.94 97.6797H347.55" stroke="#263238" stroke-linecap="round" stroke-linejoin="round"/>
<path d="M319.94 106.199H347.55" stroke="#263238" stroke-linecap="round" stroke-linejoin="round"/>
<path d="M319.94 114.72H347.55" stroke="#263238" stroke-linecap="round" stroke-linejoin="round"/>
<path d="M403.5 79.3291H365.33V128.349H403.5V79.3291Z" fill="white" stroke="#263238" stroke-linecap="round" stroke-linejoin="round"/>
<path d="M370.44 89.1592H398.05" stroke="#263238" stroke-linecap="round" stroke-linejoin="round"/>
<path d="M370.44 97.6797H398.05" stroke="#263238" stroke-linecap="round" stroke-linejoin="round"/>
<path d="M370.44 106.199H398.05" stroke="#263238" stroke-linecap="round" stroke-linejoin="round"/>
<path d="M370.44 114.72H398.05" stroke="#263238" stroke-linecap="round" stroke-linejoin="round"/>
<path d="M265.5 139H301" stroke="#263238" stroke-linecap="round" stroke-linejoin="round"/>
<path d="M316.5 139H352" stroke="#263238" stroke-linecap="round" stroke-linejoin="round"/>
<path d="M367.5 139H403" stroke="#263238" stroke-linecap="round" stroke-linejoin="round"/>
<path d="M302.5 152.329H264.33V201.349H302.5V152.329Z" fill="white" stroke="#263238" stroke-linecap="round" stroke-linejoin="round"/>
<path d="M269.44 162.159H297.05" stroke="#263238" stroke-linecap="round" stroke-linejoin="round"/>
<path d="M269.44 170.68H297.05" stroke="#263238" stroke-linecap="round" stroke-linejoin="round"/>
<path d="M269.44 179.199H297.05" stroke="#263238" stroke-linecap="round" stroke-linejoin="round"/>
<path d="M269.44 187.72H297.05" stroke="#263238" stroke-linecap="round" stroke-linejoin="round"/>
<path d="M353 152.329H314.83V201.349H353V152.329Z" fill="white" stroke="#263238" stroke-linecap="round" stroke-linejoin="round"/>
<path d="M319.94 162.159H347.55" stroke="#263238" stroke-linecap="round" stroke-linejoin="round"/>
<path d="M319.94 170.68H347.55" stroke="#263238" stroke-linecap="round" stroke-linejoin="round"/>
<path d="M319.94 179.199H347.55" stroke="#263238" stroke-linecap="round" stroke-linejoin="round"/>
<path d="M319.94 187.72H347.55" stroke="#263238" stroke-linecap="round" stroke-linejoin="round"/>
<path d="M403.5 152.329H365.33V201.349H403.5V152.329Z" fill="white" stroke="#263238" stroke-linecap="round" stroke-linejoin="round"/>
<path d="M370.44 162.159H398.05" stroke="#263238" stroke-linecap="round" stroke-linejoin="round"/>
<path d="M370.44 170.68H398.05" stroke="#263238" stroke-linecap="round" stroke-linejoin="round"/>
<path d="M370.44 179.199H398.05" stroke="#263238" stroke-linecap="round" stroke-linejoin="round"/>
<path d="M370.44 187.72H398.05" stroke="#263238" stroke-linecap="round" stroke-linejoin="round"/>
<path d="M265.5 212H301" stroke="#263238" stroke-linecap="round" stroke-linejoin="round"/>
<path d="M316.5 212H352" stroke="#263238" stroke-linecap="round" stroke-linejoin="round"/>
<path d="M367.5 212H403" stroke="#263238" stroke-linecap="round" stroke-linejoin="round"/>
<path d="M302.5 225.329H264.33V274.349H302.5V225.329Z" fill="white" stroke="#263238" stroke-linecap="round" stroke-linejoin="round"/>
<path d="M269.44 235.159H297.05" stroke="#263238" stroke-linecap="round" stroke-linejoin="round"/>
<path d="M269.44 243.68H297.05" stroke="#263238" stroke-linecap="round" stroke-linejoin="round"/>
<path d="M269.44 252.199H297.05" stroke="#263238" stroke-linecap="round" stroke-linejoin="round"/>
<path d="M269.44 260.72H297.05" stroke="#263238" stroke-linecap="round" stroke-linejoin="round"/>
<path d="M353 225.329H314.83V274.349H353V225.329Z" fill="white" stroke="#263238" stroke-linecap="round" stroke-linejoin="round"/>
<path d="M319.94 235.159H347.55" stroke="#263238" stroke-linecap="round" stroke-linejoin="round"/>
<path d="M319.94 243.68H347.55" stroke="#263238" stroke-linecap="round" stroke-linejoin="round"/>
<path d="M319.94 252.199H347.55" stroke="#263238" stroke-linecap="round" stroke-linejoin="round"/>
<path d="M319.94 260.72H347.55" stroke="#263238" stroke-linecap="round" stroke-linejoin="round"/>
<path d="M403.5 225.329H365.33V274.349H403.5V225.329Z" fill="white" stroke="#263238" stroke-linecap="round" stroke-linejoin="round"/>
<path d="M370.44 235.159H398.05" stroke="#263238" stroke-linecap="round" stroke-linejoin="round"/>
<path d="M370.44 243.68H398.05" stroke="#263238" stroke-linecap="round" stroke-linejoin="round"/>
<path d="M370.44 252.199H398.05" stroke="#263238" stroke-linecap="round" stroke-linejoin="round"/>
<path d="M370.44 260.72H398.05" stroke="#263238" stroke-linecap="round" stroke-linejoin="round"/>
<path d="M265.5 285H301" stroke="#263238" stroke-linecap="round" stroke-linejoin="round"/>
<path d="M316.5 285H352" stroke="#263238" stroke-linecap="round" stroke-linejoin="round"/>
<path d="M367.5 285H403" stroke="#263238" stroke-linecap="round" stroke-linejoin="round"/>
<path d="M319 49H209.5V54H319V49Z" fill="white" stroke="#263238" stroke-linecap="round" stroke-linejoin="round"/>
<path d="M359.5 49H326.5V54H359.5V49Z" fill="white" stroke="#263238" stroke-linecap="round" stroke-linejoin="round"/>
<path d="M269.07 70.9996H268.17L266.78 64.3196V70.9996H265.97V62.5996H267.28L268.65 69.3096L269.99 62.5996H271.29V70.9996H270.41V64.2496L269.07 70.9996Z" fill="#263238"/>
<path d="M273.74 67.9994L271.97 62.6094H272.97L274.28 66.7394L275.6 62.6094H276.5L274.67 67.9994V70.9994H273.74V67.9994Z" fill="#263238"/>
<path d="M281.85 66.5096V67.3696H279.92V70.9996H278.99V62.5996H282.32V63.4596H279.92V66.5096H281.85Z" fill="#263238"/>
<path d="M284 62.5996V70.9996H283.07V62.5996H284Z" fill="#263238"/>
<path d="M284.96 70.9996V62.5996H285.9V70.1496H288.3V70.9996H284.96Z" fill="#263238"/>
<path d="M291.99 66.3196V67.1596H289.94V70.1596H292.5V70.9996H289.05V62.5996H292.5V63.4596H289.98V66.3196H291.99Z" fill="#263238"/>
<path d="M296.96 64.6193V64.8493H296.07V64.5693C296.07 63.8193 295.79 63.3693 295.07 63.3693C294.35 63.3693 294.07 63.8193 294.07 64.5593C294.07 66.4393 296.89 66.6193 296.89 68.9893C296.89 70.2593 296.28 71.0793 295 71.0793C293.72 71.0793 293.12 70.2593 293.12 68.9893V68.5093H293.99V68.9993C293.99 69.7593 294.3 70.1993 294.99 70.1993C295.68 70.1993 295.99 69.7593 295.99 68.9993C295.99 67.1293 293.18 66.9993 293.18 64.5893C293.18 63.2893 293.78 62.4893 295.04 62.4893C296.3 62.4893 296.96 63.3493 296.96 64.6193Z" fill="#263238"/>
<path d="M165.09 198L193.78 164.15C193.78 164.15 194.07 156.4 193.5 154.97C192.93 153.54 194.93 147.51 195.5 145.5C196.07 143.49 194.36 140.05 196.36 140.05C198.36 140.05 198.95 145.5 198.95 146.36V147.22C198.95 147.22 203.82 135.17 204.4 134.03C204.98 132.89 206.69 131.73 207.27 134.03C207.85 136.33 204.4 145 204.4 145C205.134 144.847 205.896 144.899 206.601 145.152C207.307 145.404 207.93 145.846 208.4 146.43C209.84 148.43 210.98 147.58 211.56 149.02C211.898 149.862 212.185 150.724 212.42 151.6C212.42 151.6 216.15 153.32 216.42 154.47C216.69 155.62 210.42 155.33 210.42 155.33C210.42 155.33 204.42 165.08 202.1 166.23C200.57 167.032 199.128 167.994 197.8 169.1C197.8 169.1 180.59 207.82 177.43 212.99C174.27 218.16 164.23 214.71 164.23 214.71L165.09 198Z" fill="white" stroke="#263238" stroke-linecap="round" stroke-linejoin="round"/>
<path d="M60.67 340.6L64.67 365.6C64.67 365.6 54.34 389.12 57.21 401.17C60.08 413.22 69.54 451.66 69.54 451.66C69.54 451.66 68.11 467.15 68.97 468.59C69.83 470.03 76.43 469.73 78.15 469.16C79.87 468.59 82.15 467.44 82.15 462.85C82.15 458.26 79.56 450.8 79.56 447.65C79.56 444.5 79.28 410.65 84.73 389.41C88.0904 375.909 89.5379 362.003 89.03 348.1C89.07 346.62 60.67 340.6 60.67 340.6Z" fill="white" stroke="#263238" stroke-linecap="round" stroke-linejoin="round"/>
<path d="M69 458.79C68.72 463.05 68.53 467.79 69 468.55C69.86 469.98 76.46 469.69 78.18 469.12C79.9 468.55 82.18 467.4 82.18 462.81C82.1175 460.964 81.8764 459.129 81.46 457.33C79.6042 458.44 77.5342 459.144 75.3865 459.396C73.2388 459.648 71.0621 459.441 69 458.79Z" fill="#263238" stroke="#263238" stroke-linecap="round" stroke-linejoin="round"/>
<path d="M78.17 469.12C78.9593 468.916 79.6886 468.526 80.2973 467.983C80.906 467.441 81.3765 466.761 81.67 466C77.3877 466.636 73.0499 466.814 68.73 466.53C68.6921 467.207 68.7803 467.885 68.99 468.53C69.85 470 76.5 469.69 78.17 469.12Z" fill="white" stroke="#263238" stroke-linecap="round" stroke-linejoin="round"/>
<path d="M118.33 344.62L126.94 359.82C126.94 359.82 127.51 380.48 134.69 397.11C141.87 413.74 161.08 448.75 161.36 449.9C161.64 451.05 161.36 455.64 161.36 459.9C161.36 464.16 161.94 468.22 163.66 468.51C165.38 468.8 171.12 470.23 178.29 471.38C185.46 472.53 188.04 470.8 188.62 469.38C189.2 467.96 182.62 463.38 179.44 459.62C176.26 455.86 171.44 449.62 169.44 442.99C167.44 436.36 161.98 392.49 159.11 383.6C156.24 374.71 151.94 357.78 151.94 357.78L149.07 337.13L118.33 344.62Z" fill="white" stroke="#263238" stroke-linecap="round" stroke-linejoin="round"/>
<path d="M188.62 469.41C188.85 468.82 187.88 467.7 186.43 466.33C182.12 468.4 175.35 463.61 169.97 459.33C168.809 458.324 167.426 457.608 165.934 457.243C164.442 456.878 162.884 456.873 161.39 457.23C161.39 458.11 161.39 459.01 161.39 459.9C161.39 464.2 161.97 468.22 163.69 468.51C165.41 468.8 171.15 470.23 178.32 471.38C185.49 472.53 188.04 470.84 188.62 469.41Z" fill="#263238" stroke="#263238" stroke-linecap="round" stroke-linejoin="round"/>
<path d="M187.78 470.48C183.28 472.27 178.48 469.03 172.84 466.83C169.236 465.48 165.458 464.648 161.62 464.36C161.94 466.67 162.57 468.36 163.62 468.55C165.34 468.83 171.08 470.27 178.25 471.42C183.68 472.28 186.5 471.52 187.78 470.48Z" fill="white" stroke="#263238" stroke-linecap="round" stroke-linejoin="round"/>
<path d="M74.15 239.91C74.15 239.91 58.66 261.13 56.65 277.2C54.64 293.27 58.09 344.9 58.09 344.9C58.09 344.9 64.69 350.07 92.51 352.07C120.33 354.07 151.9 340.6 151.9 340.6C151.9 340.6 143.29 291.54 138.41 276.91C133.53 262.28 122.35 240.77 122.35 240.77L74.15 239.91Z" fill="#263238" stroke="#263238" stroke-linecap="round" stroke-linejoin="round"/>
<path d="M88.8699 300.55C96.9399 308.27 109.53 319.55 119.6 325.34" stroke="#878787" stroke-linecap="round" stroke-linejoin="round"/>
<path d="M80.75 292.5C80.75 292.5 82.12 293.93 84.43 296.22" stroke="#878787" stroke-linecap="round" stroke-linejoin="round"/>
<path d="M97.3999 312.85C97.3999 312.85 112.66 326.26 118.68 329.5" stroke="#878787" stroke-linecap="round" stroke-linejoin="round"/>
<path d="M78.4999 161.87C78.4999 161.87 55.4999 175.64 56.6499 178.23C57.7999 180.82 74.1499 239.91 74.1499 239.91C74.1499 239.91 79.5999 243.35 96.5299 243.35C113.46 243.35 122.35 240.77 122.35 240.77L133.25 205.19L160.25 217.24C160.25 217.24 162.25 208.92 162.25 205.77C162.25 202.62 160.25 195.77 160.25 195.77C160.25 195.77 132.99 174.25 130.13 171.96C127.27 169.67 112.34 163.64 112.34 163.64L78.4999 161.87Z" fill="white" stroke="#263238" stroke-linecap="round" stroke-linejoin="round"/>
<path d="M103.18 214.36C104.196 215.706 105.331 216.957 106.57 218.1" stroke="#263238" stroke-linecap="round" stroke-linejoin="round"/>
<path d="M91.0798 190.28C91.0798 190.28 95.1798 202.23 101.01 211.28" stroke="#263238" stroke-linecap="round" stroke-linejoin="round"/>
<path d="M94.8101 209.5C94.8101 209.5 101.41 219.5 106.57 223.27" stroke="#263238" stroke-linecap="round" stroke-linejoin="round"/>
<path d="M133.25 205.19L123.21 201.18" stroke="#263238" stroke-linecap="round" stroke-linejoin="round"/>
<path d="M120.34 112.53C120.926 116.696 121.788 120.819 122.92 124.87C124.36 129.17 128.37 129.74 128.37 132.04C128.37 134.34 123.5 138.92 123.5 138.92C123.5 138.92 121.5 151.55 119.5 152.98C117.5 154.41 109.5 150.98 109.5 150.98L107.5 159.88L92.87 159.59C92.87 159.59 93.73 150.41 91.72 145.25C89.71 140.09 87.99 136.35 87.99 136.35C87.99 136.35 82.83 119.43 96.89 113.98C110.95 108.53 120.34 112.53 120.34 112.53Z" fill="white" stroke="#263238" stroke-linecap="round" stroke-linejoin="round"/>
<path d="M109.73 130.6C109.73 130.6 110.01 128.88 112.88 126.3C115.75 123.72 114.6 120.56 114.88 116.83C115.16 113.1 118.04 113.97 119.76 114.25C121.48 114.53 126.07 111.67 119.76 103.64C113.45 95.6103 93.3599 95.8903 87.3399 100.2C81.3199 104.51 70.9899 110.52 78.7299 125.44C86.4699 140.36 90.7899 145.24 93.6599 147C96.5299 148.76 103.99 143.27 105.66 141.83C107.33 140.39 109.73 130.6 109.73 130.6Z" fill="#263238" stroke="#263238" stroke-linecap="round" stroke-linejoin="round"/>
<path d="M90.4998 105.93C90.4998 105.93 88.1998 113.93 82.7498 116.55C77.2998 119.17 67.5498 120.85 64.0998 115.4C60.6498 109.95 60.6598 95.6099 69.8398 91.5899C79.0198 87.5699 87.3398 92.7399 89.3498 97.5899C91.3598 102.44 90.4998 105.93 90.4998 105.93Z" fill="#263238" stroke="#263238" stroke-linecap="round" stroke-linejoin="round"/>
<path d="M112.02 132.9C112.02 132.9 106.86 122.29 106.86 128.02C106.86 133.75 107.72 139.5 108.58 140.36C109.44 141.22 111.73 139.21 111.73 139.21" fill="white"/>
<path d="M112.02 132.9C112.02 132.9 106.86 122.29 106.86 128.02C106.86 133.75 107.72 139.5 108.58 140.36C109.44 141.22 111.73 139.21 111.73 139.21" stroke="#263238" stroke-linecap="round" stroke-linejoin="round"/>
<path d="M121.55 126.78C121.55 127.78 121.25 128.67 120.87 128.67C120.49 128.67 120.18 127.82 120.18 126.78C120.18 125.74 120.49 124.89 120.87 124.89C121.25 124.89 121.55 125.73 121.55 126.78Z" fill="#263238"/>
<path d="M119.5 123.34C119.5 123.34 120.02 121.28 121.56 121.96" stroke="#263238" stroke-linecap="round" stroke-linejoin="round"/>
<path d="M115.18 164.46L76.45 163.31L83.91 155.85L112.02 157.28L115.18 164.46Z" fill="white" stroke="#263238" stroke-linecap="round" stroke-linejoin="round"/>
<path d="M46.6099 233C46.6099 233 41.4999 238.47 40.8799 250C40.2599 261.53 37.4299 295.61 37.4299 299.34C37.4299 303.07 37.4299 315.69 38.2899 317.41C39.1499 319.13 44.8899 321.72 44.8899 321.72L44.6099 316.84V309.9C44.6099 309.9 46.0399 314.78 47.1899 313.63C48.3399 312.48 46.8999 307.9 46.8999 306.17C46.8999 304.44 47.4699 299.86 46.8999 296.71C46.3191 294.089 45.5539 291.513 44.6099 289C44.6099 289 53.7899 262.32 55.7899 255.72C57.184 250.904 58.3354 246.021 59.2399 241.09L46.6099 233Z" fill="white" stroke="#263238" stroke-linecap="round" stroke-linejoin="round"/>
<path d="M56.6499 178.229L46.6099 233.02L60.9599 240.479L69.2799 222.119L56.6499 178.229Z" fill="white" stroke="#263238" stroke-linecap="round" stroke-linejoin="round"/>
<path d="M60.69 207.83L69.28 222.12L56.79 209.05" stroke="#263238" stroke-linecap="round" stroke-linejoin="round"/>
<path d="M56.79 201.36L59.14 205.27" stroke="#263238" stroke-linecap="round" stroke-linejoin="round"/>
<path d="M46.8999 222.41L66.9799 233.31L60.6699 243.63L44.8899 235.03L46.8999 222.41Z" fill="white" stroke="#263238" stroke-linecap="round" stroke-linejoin="round"/>
<path d="M159.07 193.43L153.33 218.96H167.68L166.24 197.16L159.07 193.43Z" fill="white" stroke="#263238" stroke-linecap="round" stroke-linejoin="round"/>
</svg>
