<svg width="500" height="500" viewBox="0 0 500 500" fill="none" xmlns="http://www.w3.org/2000/svg">
<path d="M93.43 75.6195L94.01 75.1495C147.42 31.8995 218.35 29.9995 270 76.4995C296.93 100.77 344.75 96.1195 379 104.9C497 135.16 476.57 279.11 418.3 348.7C365.71 411.49 251.77 425.7 175.21 394.78C107.94 367.64 60.58 307 43.72 243.56C42.0334 237.2 40.6534 230.783 39.58 224.31C30.71 170.32 47.74 113 93.43 75.6195Z" fill="#52B788"/>
<path opacity="0.7" d="M93.43 75.6195L94.01 75.1495C147.42 31.8995 218.35 29.9995 270 76.4995C296.93 100.77 344.75 96.1195 379 104.9C497 135.16 476.57 279.11 418.3 348.7C365.71 411.49 251.77 425.7 175.21 394.78C107.94 367.64 60.58 307 43.72 243.56C42.0334 237.2 40.6534 230.783 39.58 224.31C30.71 170.32 47.74 113 93.43 75.6195Z" fill="white"/>
<path d="M332.9 96.04H302.48V119.03" stroke="#263238" stroke-width="1.05369" stroke-linecap="round" stroke-linejoin="round"/>
<path d="M422.63 184.52V96.04H339.18" stroke="#263238" stroke-width="1.05369" stroke-linecap="round" stroke-linejoin="round"/>
<path d="M412.63 273.001H422.63V202.311" stroke="#263238" stroke-width="1.05369" stroke-linecap="round" stroke-linejoin="round"/>
<path d="M390.47 273H404.2" stroke="#263238" stroke-width="1.05369" stroke-linecap="round" stroke-linejoin="round"/>
<path d="M302.48 137.79V273H384.81" stroke="#263238" stroke-width="1.05369" stroke-linecap="round" stroke-linejoin="round"/>
<path d="M402.39 155.19H415.07V147.93" stroke="#263238" stroke-width="1.05369" stroke-linecap="round" stroke-linejoin="round"/>
<path d="M364.99 130.16V155.19H399.77" stroke="#263238" stroke-width="1.05369" stroke-linecap="round" stroke-linejoin="round"/>
<path d="M369.16 105.12H364.99V125.33" stroke="#263238" stroke-width="1.05369" stroke-linecap="round" stroke-linejoin="round"/>
<path d="M378.4 105.12H372.67" stroke="#263238" stroke-width="1.05369" stroke-linecap="round" stroke-linejoin="round"/>
<path d="M415.07 142.84V105.12H380.75" stroke="#263238" stroke-width="1.05369" stroke-linecap="round" stroke-linejoin="round"/>
<path d="M402.39 263.92H415.07V256.65" stroke="#263238" stroke-width="1.05369" stroke-linecap="round" stroke-linejoin="round"/>
<path d="M364.99 238.88V263.92H399.77" stroke="#263238" stroke-width="1.05369" stroke-linecap="round" stroke-linejoin="round"/>
<path d="M369.16 213.84H364.99V234.06" stroke="#263238" stroke-width="1.05369" stroke-linecap="round" stroke-linejoin="round"/>
<path d="M378.4 213.84H372.67" stroke="#263238" stroke-width="1.05369" stroke-linecap="round" stroke-linejoin="round"/>
<path d="M415.07 251.56V213.84H380.75" stroke="#263238" stroke-width="1.05369" stroke-linecap="round" stroke-linejoin="round"/>
<path d="M347.43 209.45H360.11V202.18" stroke="#263238" stroke-width="1.05369" stroke-linecap="round" stroke-linejoin="round"/>
<path d="M310.04 184.41V209.45H344.81" stroke="#263238" stroke-width="1.05369" stroke-linecap="round" stroke-linejoin="round"/>
<path d="M314.2 159.37H310.04V179.58" stroke="#263238" stroke-width="1.05369" stroke-linecap="round" stroke-linejoin="round"/>
<path d="M323.44 159.37H317.71" stroke="#263238" stroke-width="1.05369" stroke-linecap="round" stroke-linejoin="round"/>
<path d="M360.11 197.09V159.37H325.8" stroke="#263238" stroke-width="1.05369" stroke-linecap="round" stroke-linejoin="round"/>
<path d="M347.43 263.71H360.11V256.44" stroke="#263238" stroke-width="1.05369" stroke-linecap="round" stroke-linejoin="round"/>
<path d="M310.04 238.67V263.71H344.81" stroke="#263238" stroke-width="1.05369" stroke-linecap="round" stroke-linejoin="round"/>
<path d="M314.2 213.63H310.04V233.84" stroke="#263238" stroke-width="1.05369" stroke-linecap="round" stroke-linejoin="round"/>
<path d="M323.44 213.63H317.71" stroke="#263238" stroke-width="1.05369" stroke-linecap="round" stroke-linejoin="round"/>
<path d="M360.11 251.35V213.63H325.8" stroke="#263238" stroke-width="1.05369" stroke-linecap="round" stroke-linejoin="round"/>
<path d="M364.99 196.88V209.56H372.48" stroke="#263238" stroke-width="1.05369" stroke-linecap="round" stroke-linejoin="round"/>
<path d="M390.26 159.48H364.99V194.26" stroke="#263238" stroke-width="1.05369" stroke-linecap="round" stroke-linejoin="round"/>
<path d="M415.07 163.65V159.48H395.08" stroke="#263238" stroke-width="1.05369" stroke-linecap="round" stroke-linejoin="round"/>
<path d="M415.07 172.88V167.16" stroke="#263238" stroke-width="1.05369" stroke-linecap="round" stroke-linejoin="round"/>
<path d="M377.58 209.56H415.07V175.24" stroke="#263238" stroke-width="1.05369" stroke-linecap="round" stroke-linejoin="round"/>
<path d="M310.04 142.521V155.191H317.52" stroke="#263238" stroke-width="1.05369" stroke-linecap="round" stroke-linejoin="round"/>
<path d="M335.3 105.12H310.04V139.9" stroke="#263238" stroke-width="1.05369" stroke-linecap="round" stroke-linejoin="round"/>
<path d="M360.11 109.28V105.12H340.13" stroke="#263238" stroke-width="1.05369" stroke-linecap="round" stroke-linejoin="round"/>
<path d="M360.11 118.52V112.8" stroke="#263238" stroke-width="1.05369" stroke-linecap="round" stroke-linejoin="round"/>
<path d="M322.62 155.19H360.11V120.88" stroke="#263238" stroke-width="1.05369" stroke-linecap="round" stroke-linejoin="round"/>
<path d="M111.63 96.04H81.21V119.03" stroke="#263238" stroke-width="1.05369" stroke-linecap="round" stroke-linejoin="round"/>
<path d="M201.35 184.52V96.04H117.91" stroke="#263238" stroke-width="1.05369" stroke-linecap="round" stroke-linejoin="round"/>
<path d="M191.35 273.001H201.35V202.311" stroke="#263238" stroke-width="1.05369" stroke-linecap="round" stroke-linejoin="round"/>
<path d="M169.2 273H182.92" stroke="#263238" stroke-width="1.05369" stroke-linecap="round" stroke-linejoin="round"/>
<path d="M81.21 137.79V273H163.54" stroke="#263238" stroke-width="1.05369" stroke-linecap="round" stroke-linejoin="round"/>
<path d="M181.12 155.19H193.8V147.93" stroke="#263238" stroke-width="1.05369" stroke-linecap="round" stroke-linejoin="round"/>
<path d="M143.72 130.16V155.19H178.5" stroke="#263238" stroke-width="1.05369" stroke-linecap="round" stroke-linejoin="round"/>
<path d="M147.89 105.12H143.72V125.33" stroke="#263238" stroke-width="1.05369" stroke-linecap="round" stroke-linejoin="round"/>
<path d="M157.12 105.12H151.4" stroke="#263238" stroke-width="1.05369" stroke-linecap="round" stroke-linejoin="round"/>
<path d="M193.8 142.84V105.12H159.48" stroke="#263238" stroke-width="1.05369" stroke-linecap="round" stroke-linejoin="round"/>
<path d="M181.12 263.92H193.8V256.65" stroke="#263238" stroke-width="1.05369" stroke-linecap="round" stroke-linejoin="round"/>
<path d="M143.72 238.88V263.92H178.5" stroke="#263238" stroke-width="1.05369" stroke-linecap="round" stroke-linejoin="round"/>
<path d="M147.89 213.84H143.72V234.06" stroke="#263238" stroke-width="1.05369" stroke-linecap="round" stroke-linejoin="round"/>
<path d="M157.12 213.84H151.4" stroke="#263238" stroke-width="1.05369" stroke-linecap="round" stroke-linejoin="round"/>
<path d="M193.8 251.56V213.84H159.48" stroke="#263238" stroke-width="1.05369" stroke-linecap="round" stroke-linejoin="round"/>
<path d="M126.16 209.45H138.84V202.18" stroke="#263238" stroke-width="1.05369" stroke-linecap="round" stroke-linejoin="round"/>
<path d="M88.7598 184.41V209.45H123.54" stroke="#263238" stroke-width="1.05369" stroke-linecap="round" stroke-linejoin="round"/>
<path d="M92.9298 159.37H88.7598V179.58" stroke="#263238" stroke-width="1.05369" stroke-linecap="round" stroke-linejoin="round"/>
<path d="M102.16 159.37H96.4399" stroke="#263238" stroke-width="1.05369" stroke-linecap="round" stroke-linejoin="round"/>
<path d="M138.84 197.09V159.37H104.52" stroke="#263238" stroke-width="1.05369" stroke-linecap="round" stroke-linejoin="round"/>
<path d="M126.16 263.71H138.84V256.44" stroke="#263238" stroke-width="1.05369" stroke-linecap="round" stroke-linejoin="round"/>
<path d="M88.7598 238.67V263.71H123.54" stroke="#263238" stroke-width="1.05369" stroke-linecap="round" stroke-linejoin="round"/>
<path d="M92.9298 213.63H88.7598V233.84" stroke="#263238" stroke-width="1.05369" stroke-linecap="round" stroke-linejoin="round"/>
<path d="M102.16 213.63H96.4399" stroke="#263238" stroke-width="1.05369" stroke-linecap="round" stroke-linejoin="round"/>
<path d="M138.84 251.35V213.63H104.52" stroke="#263238" stroke-width="1.05369" stroke-linecap="round" stroke-linejoin="round"/>
<path d="M143.72 196.88V209.56H151.21" stroke="#263238" stroke-width="1.05369" stroke-linecap="round" stroke-linejoin="round"/>
<path d="M168.98 159.48H143.72V194.26" stroke="#263238" stroke-width="1.05369" stroke-linecap="round" stroke-linejoin="round"/>
<path d="M193.8 163.65V159.48H173.81" stroke="#263238" stroke-width="1.05369" stroke-linecap="round" stroke-linejoin="round"/>
<path d="M193.8 172.88V167.16" stroke="#263238" stroke-width="1.05369" stroke-linecap="round" stroke-linejoin="round"/>
<path d="M156.3 209.56H193.8V175.24" stroke="#263238" stroke-width="1.05369" stroke-linecap="round" stroke-linejoin="round"/>
<path d="M88.7598 142.521V155.191H96.2498" stroke="#263238" stroke-width="1.05369" stroke-linecap="round" stroke-linejoin="round"/>
<path d="M114.02 105.12H88.7598V139.9" stroke="#263238" stroke-width="1.05369" stroke-linecap="round" stroke-linejoin="round"/>
<path d="M138.84 109.28V105.12H118.85" stroke="#263238" stroke-width="1.05369" stroke-linecap="round" stroke-linejoin="round"/>
<path d="M138.84 118.52V112.8" stroke="#263238" stroke-width="1.05369" stroke-linecap="round" stroke-linejoin="round"/>
<path d="M101.34 155.19H138.84V120.88" stroke="#263238" stroke-width="1.05369" stroke-linecap="round" stroke-linejoin="round"/>
<path d="M283.77 53.7705C284.684 58.8108 284.312 64.0002 282.69 68.8591C281.068 73.718 278.248 78.0898 274.49 81.5705" stroke="#263238" stroke-width="1.05369" stroke-linecap="round" stroke-linejoin="round"/>
<path d="M253.05 28.6602C260.945 28.4813 268.601 31.3705 274.41 36.7202" stroke="#263238" stroke-width="1.05369" stroke-linecap="round" stroke-linejoin="round"/>
<path d="M223.68 64.6006C222.247 56.6311 224.038 48.4187 228.658 41.7691C233.279 35.1196 240.351 30.5771 248.32 29.1406" stroke="#263238" stroke-width="1.05369" stroke-linecap="round" stroke-linejoin="round"/>
<path d="M259.14 89.2302C252.29 90.4621 245.225 89.3174 239.115 85.9857C233.004 82.6541 228.215 77.3353 225.54 70.9102" stroke="#263238" stroke-width="1.05369" stroke-linecap="round" stroke-linejoin="round"/>
<path d="M235 39.82C238.511 36.4301 242.876 34.057 247.63 32.9541C252.384 31.8512 257.348 32.0598 261.992 33.5577C266.637 35.0556 270.788 37.7865 274.001 41.459C277.215 45.1315 279.371 49.6077 280.24 54.41" stroke="#263238" stroke-width="1.05369" stroke-linecap="round" stroke-linejoin="round"/>
<path d="M280.51 62.14C280.082 66.0656 278.796 69.8492 276.744 73.2228C274.692 76.5964 271.923 79.4776 268.633 81.6623C265.344 83.847 261.614 85.2819 257.709 85.8653C253.803 86.4486 249.817 86.1663 246.033 85.0382C242.248 83.9102 238.758 81.964 235.81 79.3374C232.861 76.7108 230.526 73.4681 228.969 69.8389C227.413 66.2097 226.673 62.2827 226.803 58.3359C226.933 54.3892 227.929 50.5192 229.72 47" stroke="#263238" stroke-width="1.05369" stroke-linecap="round" stroke-linejoin="round"/>
<path d="M251.66 39.1104L253.73 59.1804L240.5 67.4604" stroke="#263238" stroke-width="1.05369" stroke-linecap="round" stroke-linejoin="round"/>
<path d="M450.11 355.01H48.77V415.53H450.11V355.01Z" fill="white"/>
<path d="M450.11 355.01V399.77" stroke="#263238" stroke-width="1.05369" stroke-linecap="round" stroke-linejoin="round"/>
<path opacity="0.4" d="M450.11 370.89V355H48.77C48.7661 364.633 51.9925 373.989 57.9332 381.573C63.874 389.156 72.186 394.528 81.54 396.83C101.79 401.83 130.79 406.34 166.79 405.15C216.79 403.5 298.89 363.61 359.09 374.31C420.72 385.27 450.11 370.89 450.11 370.89Z" fill="#52B788"/>
<path d="M48.7702 336.739H443.58L454.11 351.059V356.649H38.2402" fill="white"/>
<path d="M48.7702 336.739H443.58L454.11 351.059V356.649H38.2402" stroke="#263238" stroke-width="1.05369" stroke-linecap="round" stroke-linejoin="round"/>
<path d="M29.8101 351.06H449.9" stroke="#263238" stroke-width="1.05369" stroke-linecap="round" stroke-linejoin="round"/>
<path d="M121.07 294.06C103.33 295.83 87.8 303.3 78.9 320.85C78.9 320.85 67.23 329.5 73.21 337.06L175.4 336.35C175.4 336.35 179.27 327.24 169.08 322.35C169.08 322.38 154.35 290.74 121.07 294.06Z" fill="white" stroke="#263238" stroke-width="1.05369" stroke-linecap="round" stroke-linejoin="round"/>
<path opacity="0.4" d="M108.89 296.339C108.89 296.339 100.51 299.869 108.89 309.179L112.41 306.719C112.41 306.719 119.56 310.829 123.18 310.889C126.8 310.949 132.28 305.959 132.28 305.959L134.4 310.149C134.4 310.149 139.24 301.399 134.4 297.229C129.56 293.059 108.89 296.339 108.89 296.339Z" fill="#52B788"/>
<path opacity="0.4" d="M81.71 323.629C83.5281 324.112 85.1522 325.147 86.359 326.59C87.5658 328.033 88.2962 329.814 88.45 331.689C89.07 338.349 158.27 334.599 158.27 334.599C158.27 334.599 157.57 326.269 163.96 323.599C163.96 323.599 165.21 321.789 160.91 322.599C158.522 322.969 156.322 324.114 154.65 325.859C154.65 325.859 153.96 320.939 155.35 318.709C156.74 316.479 149.51 318.159 149.51 321.629C149.51 325.099 145.82 318.629 146.76 312.839C147.7 307.049 143.51 317.179 142.83 320.839C142.15 324.499 102.96 324.609 101.71 323.319C100.46 322.029 99.71 314.789 98.01 313.539C96.31 312.289 96.09 317.969 96.09 317.969C96.09 317.969 95.41 311.969 93.21 311.289C91.01 310.609 93.52 317.289 93.65 320.839C93.65 320.839 91.43 318.539 89.07 318.839C86.71 319.139 88.93 321.199 89.21 323.569C89.49 325.939 82.94 320.999 81.71 323.629Z" fill="#52B788"/>
<path d="M119.32 309.08C119.32 309.08 116.08 313.45 116.32 318.08C116.32 318.08 121.18 315.08 122.5 311.54C122.5 311.54 126.25 317.35 130.7 317.18C130.7 317.18 127.16 310.64 125.54 309.62C129.373 307.03 132.445 303.464 134.44 299.29C134.44 299.29 131.5 299.58 131.57 298.58C131.57 298.58 125.64 308.4 122.57 309.11C119.281 307.406 116.725 304.562 115.38 301.11L108.9 300.27C108.9 300.27 113.85 307.36 119.32 309.08Z" fill="#52B788" stroke="#263238" stroke-width="1.05369" stroke-linecap="round" stroke-linejoin="round"/>
<path d="M121.67 307.999C119.97 304.859 113.2 301.129 113.2 301.129L108.89 306.489C100.82 299.409 108.89 292.489 108.89 292.489C111.1 289.489 129.37 287.639 133.52 292.489C137.67 297.339 137.52 301.899 135.72 306.359L131.87 300.199C131.87 300.199 125.4 302.319 123.78 307.989" fill="white"/>
<path d="M121.67 307.999C119.97 304.859 113.2 301.129 113.2 301.129L108.89 306.489C100.82 299.409 108.89 292.489 108.89 292.489C111.1 289.489 129.37 287.639 133.52 292.489C137.67 297.339 137.52 301.899 135.72 306.359L131.87 300.199C131.87 300.199 125.4 302.319 123.78 307.989" stroke="#263238" stroke-width="1.05369" stroke-linecap="round" stroke-linejoin="round"/>
<path d="M129.71 288.74C129.491 291.736 129.491 294.744 129.71 297.74C127.82 300.4 122.38 304.07 122.38 304.07C118.09 302.63 112.38 296.52 112.38 296.52C112.789 294.644 112.857 292.71 112.58 290.81C112.288 288.293 111.83 285.797 111.21 283.34C111.15 283.1 111.12 282.96 111.12 282.96H131C130.634 283.721 130.362 284.523 130.19 285.35C129.957 286.468 129.797 287.601 129.71 288.74Z" fill="#BFBFBF" stroke="#263238" stroke-width="1.05369" stroke-linecap="round" stroke-linejoin="round"/>
<path d="M130.18 285.339C129.95 286.461 129.793 287.597 129.71 288.739C126.71 291.669 121.07 295.069 112.62 290.799C112.328 288.282 111.87 285.787 111.25 283.329C117.12 283.249 126.23 284.669 130.18 285.339Z" fill="#263238"/>
<path d="M139.62 267.18C139.62 267.18 141.89 266.04 142.62 267.26C143.35 268.48 141.5 275.02 141.13 275.71C140.437 276.499 139.818 277.349 139.28 278.25C137.96 280.51 137.39 279.49 137.42 278.2" fill="#BFBFBF"/>
<path d="M139.62 267.18C139.62 267.18 141.89 266.04 142.62 267.26C143.35 268.48 141.5 275.02 141.13 275.71C140.437 276.499 139.818 277.349 139.28 278.25C137.96 280.51 137.39 279.49 137.42 278.2" stroke="#263238" stroke-width="1.05369" stroke-linecap="round" stroke-linejoin="round"/>
<path d="M104.19 266.18C104.19 266.18 101.99 264.93 101.19 266.1C100.39 267.27 101.87 273.9 102.19 274.61C102.84 275.439 103.412 276.326 103.9 277.26C105.1 279.59 105.72 278.6 105.76 277.31" fill="#BFBFBF"/>
<path d="M104.19 266.18C104.19 266.18 101.99 264.93 101.19 266.1C100.39 267.27 101.87 273.9 102.19 274.61C102.84 275.439 103.412 276.326 103.9 277.26C105.1 279.59 105.72 278.6 105.76 277.31" stroke="#263238" stroke-width="1.05369" stroke-linecap="round" stroke-linejoin="round"/>
<path d="M122.64 245.679C136.44 246.059 138.97 257.679 138.83 269.009C138.6 287.209 130.27 289.179 121.07 288.919C111.65 288.649 105.25 288.169 104.72 267.429C104.43 256.359 109.09 245.299 122.64 245.679Z" fill="#BFBFBF" stroke="#263238" stroke-width="1.05369" stroke-linecap="round" stroke-linejoin="round"/>
<path d="M117.83 260.41C117.83 260.41 114.3 258.25 110.59 262.47" stroke="#263238" stroke-width="1.05369" stroke-linecap="round" stroke-linejoin="round"/>
<path d="M126.49 260.34C127.873 259.976 129.334 260.048 130.673 260.548C132.013 261.047 133.164 261.949 133.97 263.13" stroke="#263238" stroke-width="1.05369" stroke-linecap="round" stroke-linejoin="round"/>
<path d="M116.32 266.909C116.32 268.029 115.67 268.909 114.93 268.909C114.19 268.909 113.63 267.969 113.66 266.859C113.69 265.749 114.31 264.859 115.05 264.859C115.79 264.859 116.35 265.799 116.32 266.909Z" fill="#263238"/>
<path d="M130.07 267.299C130.07 268.409 129.42 269.299 128.68 269.299C127.94 269.299 127.38 268.359 127.41 267.239C127.44 266.119 128.06 265.239 128.8 265.239C129.54 265.239 130.1 266.179 130.07 267.299Z" fill="#263238"/>
<path d="M135.56 273.69C135.56 273.69 137.42 272.91 139.77 267.8" stroke="#263238" stroke-width="1.05369" stroke-linecap="round" stroke-linejoin="round"/>
<path d="M108.16 272.92C108.16 272.92 105.51 271.69 104.72 267.43" stroke="#263238" stroke-width="1.05369" stroke-linecap="round" stroke-linejoin="round"/>
<path d="M107 272.22C107 272.22 118.74 269.22 121.63 269.08C124.52 268.94 136.79 273.08 136.79 273.08C136.79 273.08 134.73 285.21 132.32 287.67C129.91 290.13 117.32 291.35 110.83 287.37C109.12 286.28 107 272.22 107 272.22Z" fill="#52B788" stroke="#263238" stroke-width="1.05369" stroke-linecap="round" stroke-linejoin="round"/>
<path d="M104.8 269.76C105.151 266.84 105.915 263.984 107.07 261.28C108.108 259.167 108.495 256.793 108.18 254.46C108.18 254.46 110.46 248.15 120.72 248.46C123.639 248.496 126.519 249.137 129.178 250.342C131.837 251.547 134.218 253.289 136.17 255.46C136.17 255.46 135.73 260.98 136.17 262.22C136.61 263.46 139.04 268.36 138.74 271.49C138.74 271.49 141.85 264.99 141.59 264.43C141.33 263.87 143.39 263.87 143.27 261.82C143.15 259.77 140.58 258.42 142.17 256.27C143.76 254.12 144.96 253.13 143.47 250.99C141.98 248.85 140.37 246.76 141.02 243.99C141.67 241.22 134.31 240.71 132.08 239.69C129.85 238.67 130.84 237.69 128.83 236.78C126.82 235.87 122.06 236.58 120.61 237.24C119.16 237.9 116.01 235.7 112.85 237.06C109.69 238.42 107.27 238.21 107.52 240.6C107.77 242.99 105.61 243.11 103.9 244.36C102.19 245.61 101.4 248.64 102.07 250.08C102.74 251.52 101.67 252.72 100.85 254.37C100.03 256.02 99.41 259.08 100.52 260.65C101.63 262.22 103.37 261.37 102.79 262.87C102.21 264.37 104.8 269.76 104.8 269.76Z" fill="#263238"/>
<path d="M93.21 310.149C93.21 310.149 99.21 322.649 93.91 331.689" stroke="#263238" stroke-width="1.05369" stroke-linecap="round" stroke-linejoin="round"/>
<path d="M97.6599 311.569C97.6599 311.569 99.0998 318.349 96.0898 323.629" stroke="#263238" stroke-width="1.05369" stroke-linecap="round" stroke-linejoin="round"/>
<path d="M148.38 309.18C148.38 309.18 141.29 320.6 150.6 331" stroke="#263238" stroke-width="1.05369" stroke-linecap="round" stroke-linejoin="round"/>
<path d="M144.76 311.569C144.76 311.569 142.83 316.409 145.76 322.649" stroke="#263238" stroke-width="1.05369" stroke-linecap="round" stroke-linejoin="round"/>
<path d="M174.63 335.85C176.73 331.85 174.43 326.85 168.87 326.02C163.31 325.19 157.76 328.56 159.55 334.95C161.34 341.34 172 340.91 174.63 335.85Z" fill="#BFBFBF" stroke="#263238" stroke-width="1.05369" stroke-linecap="round" stroke-linejoin="round"/>
<path d="M164.53 327.8C164.53 327.8 143.34 331.97 138.07 331.47C132.8 330.97 126.5 327.61 124.07 328.72C121.64 329.83 118.29 335.92 117.74 336.8C117.19 337.68 120.48 339.49 122.31 339.4C123.433 339.271 124.522 338.932 125.52 338.4C125.52 338.4 127.18 341.99 136.23 339.15C136.23 339.15 164.94 344.54 172.23 338.67C176.76 335 175.45 331.67 172.06 329.67" fill="#BFBFBF"/>
<path d="M164.53 327.8C164.53 327.8 143.34 331.97 138.07 331.47C132.8 330.97 126.5 327.61 124.07 328.72C121.64 329.83 118.29 335.92 117.74 336.8C117.19 337.68 120.48 339.49 122.31 339.4C123.433 339.271 124.522 338.932 125.52 338.4C125.52 338.4 127.18 341.99 136.23 339.15C136.23 339.15 164.94 344.54 172.23 338.67C176.76 335 175.45 331.67 172.06 329.67" stroke="#263238" stroke-width="1.05369" stroke-linecap="round" stroke-linejoin="round"/>
<path d="M125.53 338.379C125.53 338.379 126.39 336.629 123.61 335.849C123.61 335.849 122.5 333.529 122.84 332.279" stroke="#263238" stroke-width="1.05369" stroke-linecap="round" stroke-linejoin="round"/>
<path d="M123.61 335.85C123.282 336.254 122.86 336.571 122.38 336.773C121.9 336.976 121.378 337.057 120.86 337.01" stroke="#263238" stroke-width="1.05369" stroke-linecap="round" stroke-linejoin="round"/>
<path d="M136.24 339.13C136.24 339.13 135.63 338.38 136.24 336.35" stroke="#263238" stroke-width="1.05369" stroke-linecap="round" stroke-linejoin="round"/>
<path d="M72.8399 335.65C71.0099 331.54 73.6399 326.65 79.2399 326.23C84.8399 325.81 90.1499 329.5 87.9399 335.75C85.7299 342 75.1599 340.88 72.8399 335.65Z" fill="#BFBFBF" stroke="#263238" stroke-width="1.05369" stroke-linecap="round" stroke-linejoin="round"/>
<path d="M83.4602 328.29C83.4602 328.29 104.32 333.86 109.61 333.71C114.9 333.56 121.41 330.63 123.75 331.9C126.09 333.17 129.04 339.47 129.53 340.38C130.02 341.29 126.61 342.89 124.79 342.68C123.68 342.461 122.619 342.041 121.66 341.44C121.66 341.44 119.76 344.91 110.93 341.44C110.93 341.44 81.9302 344.92 75.0702 338.58C70.7902 334.58 72.3202 331.34 75.8302 329.58" fill="#BFBFBF"/>
<path d="M83.4602 328.29C83.4602 328.29 104.32 333.86 109.61 333.71C114.9 333.56 121.41 330.63 123.75 331.9C126.09 333.17 129.04 339.47 129.53 340.38C130.02 341.29 126.61 342.89 124.79 342.68C123.68 342.461 122.619 342.041 121.66 341.44C121.66 341.44 119.76 344.91 110.93 341.44C110.93 341.44 81.9302 344.92 75.0702 338.58C70.7902 334.58 72.3202 331.34 75.8302 329.58" stroke="#263238" stroke-width="1.05369" stroke-linecap="round" stroke-linejoin="round"/>
<path d="M121.66 341.439C121.66 341.439 120.92 339.629 123.75 339.039C123.75 339.039 125.01 336.809 124.75 335.529" stroke="#263238" stroke-width="1.05369" stroke-linecap="round" stroke-linejoin="round"/>
<path d="M123.75 339C124.048 339.426 124.447 339.772 124.911 340.005C125.375 340.239 125.89 340.354 126.41 340.34" stroke="#263238" stroke-width="1.05369" stroke-linecap="round" stroke-linejoin="round"/>
<path d="M110.93 341.469C110.93 341.469 111.59 340.769 111.11 338.699" stroke="#263238" stroke-width="1.05369" stroke-linecap="round" stroke-linejoin="round"/>
<path d="M95.0001 346.54L98.7701 340.37C98.7701 340.37 85.1001 339.22 82.5101 338.19C79.9201 337.16 74.6101 339.45 74.6101 339.45C72.4776 337.8 69.7921 337.034 67.1101 337.31C60.3601 338.19 53.2401 338.2 52.3501 338.31L44.3501 343.43C44.3501 343.43 63.2401 344.21 67.9901 346.27L71.2701 346.78C71.2701 346.78 85.0001 346.13 95.0001 346.54Z" fill="#52B788" stroke="#263238" stroke-width="1.05369" stroke-linecap="round" stroke-linejoin="round"/>
<path d="M96.09 340L93.21 344.83C93.21 344.83 81.69 342.97 71.14 344.91L69.37 345.45C69.37 345.45 62.37 341.65 48.77 341.97L55 337.06C55 337.06 68.12 330.2 74.63 337.23C74.63 337.23 75.93 335.76 82.18 334.83C88.43 333.9 96.09 340 96.09 340Z" fill="white" stroke="#263238" stroke-width="1.05369" stroke-linecap="round" stroke-linejoin="round"/>
<path d="M74.6501 337.229L70.6501 343.399C70.6501 343.399 67.4801 340.659 61.2201 340.019C57.3943 339.668 53.5448 340.359 50.0801 342.019" stroke="#263238" stroke-width="1.05369" stroke-linecap="round" stroke-linejoin="round"/>
<path d="M70.6201 343.399C70.6201 343.399 73.5401 341.689 79.6201 340.809C85.7001 339.929 92.7501 344.349 92.7501 344.349" fill="white"/>
<path d="M70.6201 343.399C70.6201 343.399 73.5401 341.689 79.6201 340.809C85.7001 339.929 92.7501 344.349 92.7501 344.349" stroke="#263238" stroke-width="1.05369" stroke-linecap="round" stroke-linejoin="round"/>
<path d="M466.87 399.09V444.09L242.56 439.27L136.67 437L113.39 436.5V399.09H466.87Z" fill="white"/>
<path opacity="0.4" d="M460.93 399.09C458.55 405.02 453.32 411.9 442.28 417.7C416.85 431.04 365.16 409.52 333.89 410.9C313.4 411.8 279.51 428.78 242.56 439.31C223.16 444.84 202.91 448.59 183.3 447.31C165.05 446.11 149.13 442.57 136.68 437.05C126.3 432.45 118.32 426.46 113.4 419.3V399.09H460.93Z" fill="#52B788"/>
<path d="M113.39 399.09V444.14" stroke="#263238" stroke-width="1.05369" stroke-linecap="round" stroke-linejoin="round"/>
<path d="M468.43 370.989H128.04L108.02 392.599V401.029H469.6" fill="white"/>
<path d="M468.43 370.989H128.04L108.02 392.599V401.029H469.6" stroke="#263238" stroke-width="1.05369" stroke-linecap="round" stroke-linejoin="round"/>
<path d="M112.24 392.6H481.19" stroke="#263238" stroke-width="1.05369" stroke-linecap="round" stroke-linejoin="round"/>
<path d="M358.15 378.899V387.479H402.95L397.95 377.779L358.15 378.899Z" fill="white" stroke="#263238" stroke-width="1.05369" stroke-linecap="round" stroke-linejoin="round"/>
<path d="M406.84 378.9L435.94 375.22L456.86 382.63L430.19 389.22L406.84 378.9Z" fill="white" stroke="#263238" stroke-width="1.05369" stroke-linecap="round" stroke-linejoin="round"/>
<path d="M412.26 373.3C411.363 373.488 410.445 373.552 409.53 373.49C406.324 373.409 403.125 373.139 399.95 372.68C396.59 372.16 395.72 371.31 395.72 371.31L340.43 371.12H333.89C333.53 372.425 332.778 373.588 331.735 374.452C330.693 375.316 329.41 375.839 328.06 375.95C324.23 376.48 314.22 374.76 312.84 373.32C308.47 368.73 309.84 357.55 313.19 356.02C313.19 356.02 318.06 340.81 323.06 329.77C328.4 317.94 343.6 304.26 363.24 302C382.88 299.74 401.84 321.84 408.31 332.88C412.214 339.583 415.488 346.633 418.09 353.94C418.09 353.94 420.69 356.41 421.15 359.08C422.13 364.64 421.22 370.39 412.26 373.3Z" fill="white"/>
<path opacity="0.4" d="M411.15 372.16C410.682 372.684 410.136 373.133 409.53 373.49C406.324 373.409 403.125 373.139 399.95 372.68C396.59 372.16 395.72 371.31 395.72 371.31L340.43 371.12C336.8 368.68 334.33 365.92 333.89 362.98C332.44 352.87 325.35 351.62 318.89 352.52C318.89 352.52 320.98 346.41 325.83 346.7C330.68 346.99 335.03 352.52 335.03 352.52C334.29 345.08 324.73 333.29 327.65 333.9C330.57 334.51 337.17 342.27 337.5 342.65C337.32 342.26 333.15 333.51 336.76 333.91C340.37 334.31 343.76 348.18 343.76 348.18C343.76 348.18 355.96 355.58 363.9 356.65C371.84 357.72 391.71 346.7 391.71 346.7L392.53 354.06C392.53 354.06 403.27 347.25 408.28 350.52C413.29 353.79 414.13 368.51 411.15 372.16Z" fill="#52B788"/>
<path opacity="0.4" d="M364.23 340.479C361.6 336.169 351.17 331.049 351.17 331.049L345.81 334.049C333.36 324.329 341.6 311.139 341.6 311.139C344.99 306.959 377.6 304.479 384.02 311.139C390.44 317.799 389.69 326.689 386.86 332.799L379.96 329.749C379.96 329.749 369.96 332.659 367.47 340.449" fill="#52B788"/>
<path d="M412.26 373.3C411.363 373.488 410.445 373.552 409.53 373.49C406.324 373.409 403.125 373.139 399.95 372.68C396.59 372.16 395.72 371.31 395.72 371.31L340.43 371.12H333.89C333.53 372.425 332.778 373.588 331.735 374.452C330.693 375.316 329.41 375.839 328.06 375.95C324.23 376.48 314.22 374.76 312.84 373.32C308.47 368.73 309.84 357.55 313.19 356.02C313.19 356.02 318.06 340.81 323.06 329.77C328.4 317.94 343.6 304.26 363.24 302C382.88 299.74 401.84 321.84 408.31 332.88C412.214 339.583 415.488 346.633 418.09 353.94C418.09 353.94 420.69 356.41 421.15 359.08C422.13 364.64 421.22 370.39 412.26 373.3Z" stroke="#263238" stroke-width="1.05369" stroke-linecap="round" stroke-linejoin="round"/>
<path d="M360.71 338.22C360.71 338.22 356.27 344.22 356.54 350.52C356.54 350.52 363.21 346.41 365.02 341.52C365.02 341.52 370.16 349.52 376.27 349.26C376.27 349.26 371.41 340.26 369.19 338.89C374.449 335.334 378.664 330.439 381.4 324.71C381.4 324.71 377.4 325.12 377.47 323.71C377.47 323.71 369.33 337.18 365.16 338.16C360.638 335.821 357.127 331.908 355.29 327.16L346.4 326.01C346.4 326.01 353.21 335.85 360.71 338.22Z" fill="#52B788" stroke="#263238" stroke-width="1.05369" stroke-linecap="round" stroke-linejoin="round"/>
<path d="M363.94 336.69C361.6 332.38 352.32 327.26 352.32 327.26L347.55 330.26C336.47 320.53 343.79 307.34 343.79 307.34C346.79 303.16 375.86 300.68 381.55 307.34C387.24 314 386.61 322.89 384.08 329.01L377.94 326C377.94 326 369.05 328.92 366.83 336.7" fill="white"/>
<path d="M363.94 336.69C361.6 332.38 352.32 327.26 352.32 327.26L347.55 330.26C336.47 320.53 343.79 307.34 343.79 307.34C346.79 303.16 375.86 300.68 381.55 307.34C387.24 314 386.61 322.89 384.08 329.01L377.94 326C377.94 326 369.05 328.92 366.83 336.7" stroke="#263238" stroke-width="1.05369" stroke-linecap="round" stroke-linejoin="round"/>
<path d="M325.84 332.52C325.84 332.52 336.45 339.74 339.9 350.58C343.35 361.42 341.42 369.58 341.42 369.58" stroke="#263238" stroke-width="1.05369" stroke-linecap="round" stroke-linejoin="round"/>
<path d="M337.51 338.22C337.51 338.22 341.51 344.3 341.06 355.01" stroke="#263238" stroke-width="1.05369" stroke-linecap="round" stroke-linejoin="round"/>
<path d="M403 329.739C403 329.739 386.63 342.959 395.78 371.309" stroke="#263238" stroke-width="1.05369" stroke-linecap="round" stroke-linejoin="round"/>
<path d="M395.73 335.579C395.73 335.579 391.81 349.439 393.91 355.009" stroke="#263238" stroke-width="1.05369" stroke-linecap="round" stroke-linejoin="round"/>
<path d="M351.68 321C351.68 321 358.63 330.58 364.74 333.92C368.738 330.746 371.914 326.658 374 322C377.43 314.31 352.36 321 352.36 321" fill="white"/>
<path d="M351.68 321C351.68 321 358.63 330.58 364.74 333.92C368.738 330.746 371.914 326.658 374 322C377.43 314.31 352.36 321 352.36 321" stroke="#263238" stroke-width="1.05369" stroke-linecap="round" stroke-linejoin="round"/>
<path d="M387.25 290.459C387.25 290.459 390.18 288.669 391.35 290.229C392.52 291.789 390.72 300.819 390.3 301.789C389.88 302.759 389.62 302.229 388.09 305.429C386.56 308.629 385.67 307.319 385.58 305.569" fill="white"/>
<path d="M387.25 290.459C387.25 290.459 390.18 288.669 391.35 290.229C392.52 291.789 390.72 300.819 390.3 301.789C389.88 302.759 389.62 302.229 388.09 305.429C386.56 308.629 385.67 307.319 385.58 305.569" stroke="#263238" stroke-width="1.05369" stroke-linecap="round" stroke-linejoin="round"/>
<path d="M339.34 293.129C339.34 293.129 336.23 291.679 335.24 293.359C334.25 295.039 337.05 303.809 337.57 304.729C338.09 305.649 338.3 305.089 340.18 308.099C342.06 311.109 342.79 309.719 342.69 307.959" fill="white"/>
<path d="M339.34 293.129C339.34 293.129 336.23 291.679 335.24 293.359C334.25 295.039 337.05 303.809 337.57 304.729C338.09 305.649 338.3 305.089 340.18 308.099C342.06 311.109 342.79 309.719 342.69 307.959" stroke="#263238" stroke-width="1.05369" stroke-linecap="round" stroke-linejoin="round"/>
<path d="M361.9 267.589C380.58 266.589 385.31 281.959 386.4 297.239C388.14 321.819 377.13 322.239 364.68 322.939C351.95 323.649 343.26 326.879 340.19 298.939C338.55 284.059 343.58 268.609 361.9 267.589Z" fill="white" stroke="#263238" stroke-width="1.05369" stroke-linecap="round" stroke-linejoin="round"/>
<path d="M357.09 292.22C357.09 292.22 352.09 289.71 347.55 295.82" stroke="#263238" stroke-width="1.05369" stroke-linecap="round" stroke-linejoin="round"/>
<path d="M368.76 291.14C368.76 291.14 374.31 288.74 379.17 294.06" stroke="#263238" stroke-width="1.05369" stroke-linecap="round" stroke-linejoin="round"/>
<path d="M355.78 300.11C355.87 301.62 355.13 302.89 354.14 302.94C353.15 302.99 352.27 301.82 352.19 300.32C352.11 298.82 352.84 297.54 353.83 297.49C354.82 297.44 355.7 298.61 355.78 300.11Z" fill="#263238"/>
<path d="M374.38 299.079C374.47 300.579 373.73 301.849 372.74 301.909C371.75 301.969 370.87 300.779 370.74 299.279C370.61 297.779 371.4 296.509 372.39 296.449C373.38 296.389 374.3 297.569 374.38 299.079Z" fill="#263238"/>
<path d="M382.51 303.909C382.51 303.909 384.94 302.649 387.51 295.489" stroke="#263238" stroke-width="1.05369" stroke-linecap="round" stroke-linejoin="round"/>
<path d="M345.46 306C345.46 306 341.74 304.64 340.19 299" stroke="#263238" stroke-width="1.05369" stroke-linecap="round" stroke-linejoin="round"/>
<path d="M343.79 305.17C343.79 305.17 359.3 303.95 363.18 303.49C367.06 303.03 384.08 302.92 384.08 302.92C384.08 302.92 383.7 317.38 380.76 321C375.02 328.05 357.01 329.72 348.57 323C346.45 321.34 343.79 305.17 343.79 305.17Z" fill="#52B788" stroke="#263238" stroke-width="1.05369" stroke-linecap="round" stroke-linejoin="round"/>
<path d="M372.58 279.93C372.58 279.93 372.45 286.81 360.16 292.33C360.16 292.33 362.92 290.56 363.94 284.51C363.94 284.51 352.86 290.57 347.55 291.71L342.23 292.85L340.23 303.91C340.23 303.91 335.59 290.14 335.07 281.8C334.55 273.46 338.73 260.34 356.24 257.63C373.75 254.92 384.12 265.34 384.12 265.34C384.12 265.34 395.53 269.86 386.62 300.21C385.651 296.533 384.286 292.972 382.55 289.59C380 284.93 372.58 279.93 372.58 279.93Z" fill="#263238"/>
<path d="M312.76 370.46C309.82 364.88 313.05 357.81 320.83 356.7C328.61 355.59 336.4 360.25 333.9 369.2C331.4 378.15 316.5 377.56 312.76 370.46Z" fill="white" stroke="#263238" stroke-width="1.05369" stroke-linecap="round" stroke-linejoin="round"/>
<path d="M326.93 359.189C326.93 359.189 356.62 364.999 364 364.319C371.38 363.639 380.21 358.919 383.61 360.469C387.01 362.019 391.72 370.569 392.48 371.799C393.24 373.029 388.64 375.569 386.07 375.439C384.497 375.248 382.974 374.762 381.58 374.009C381.58 374.009 379.25 379.009 366.58 375.059C366.58 375.059 326.34 382.619 316.17 374.389C309.81 369.239 311.66 364.519 316.4 361.749" fill="white"/>
<path d="M326.93 359.189C326.93 359.189 356.62 364.999 364 364.319C371.38 363.639 380.21 358.919 383.61 360.469C387.01 362.019 391.72 370.569 392.48 371.799C393.24 373.029 388.64 375.569 386.07 375.439C384.497 375.248 382.974 374.762 381.58 374.009C381.58 374.009 379.25 379.009 366.58 375.059C366.58 375.059 326.34 382.619 316.17 374.389C309.81 369.239 311.66 364.519 316.4 361.749" stroke="#263238" stroke-width="1.05369" stroke-linecap="round" stroke-linejoin="round"/>
<path d="M381.58 373.999C381.58 373.999 380.38 371.539 384.27 370.449C384.27 370.449 385.83 367.209 385.34 365.449" stroke="#263238" stroke-width="1.05369" stroke-linecap="round" stroke-linejoin="round"/>
<path d="M384.27 370.46C384.27 370.46 385.98 372.56 388.12 372.09" stroke="#263238" stroke-width="1.05369" stroke-linecap="round" stroke-linejoin="round"/>
<path d="M366.57 375.06C366.57 375.06 367.43 374.01 366.57 371.17" stroke="#263238" stroke-width="1.05369" stroke-linecap="round" stroke-linejoin="round"/>
<path d="M409.48 352.81C410.747 352.461 412.081 352.43 413.363 352.72C414.645 353.01 415.836 353.61 416.83 354.47C420.63 357.47 424.61 372.6 413.16 375.75C401.71 378.9 395.87 354.47 409.48 352.81Z" fill="white" stroke="#263238" stroke-width="1.05369" stroke-linecap="round" stroke-linejoin="round"/>
<path d="M415.33 358.39C415.33 358.39 398.38 331.56 394.81 322.84L384.27 327.45C384.52 328.71 393.95 367.69 405.17 374C412.29 378 416 374.56 416.83 369.13" fill="white"/>
<path d="M415.33 358.39C415.33 358.39 398.38 331.56 394.81 322.84L384.27 327.45C384.52 328.71 393.95 367.69 405.17 374C412.29 378 416 374.56 416.83 369.13" stroke="#263238" stroke-width="1.05369" stroke-linecap="round" stroke-linejoin="round"/>
<path d="M386.2 328.769C386.2 328.769 381.55 328.349 380.2 324.879C378.85 321.409 385.2 312.469 385.2 312.469C385.2 312.469 383.9 306.409 385.58 305.569C387.26 304.729 391.82 301.459 393.29 302.469C394.76 303.479 396.29 306.669 396.56 310.469C396.83 314.269 394.51 324.999 394.51 324.999" fill="white"/>
<path d="M386.2 328.769C386.2 328.769 381.55 328.349 380.2 324.879C378.85 321.409 385.2 312.469 385.2 312.469C385.2 312.469 383.9 306.409 385.58 305.569C387.26 304.729 391.82 301.459 393.29 302.469C394.76 303.479 396.29 306.669 396.56 310.469C396.83 314.269 394.51 324.999 394.51 324.999" stroke="#263238" stroke-width="1.05369" stroke-linecap="round" stroke-linejoin="round"/>
<path d="M385.2 312.469C385.2 312.469 388.13 309.989 389.98 309.859L385.2 312.469Z" fill="white"/>
<path d="M385.2 312.469C385.2 312.469 388.13 309.989 389.98 309.859" stroke="#263238" stroke-width="1.05369" stroke-linecap="round" stroke-linejoin="round"/>
<path d="M388.28 310.409C388.532 309.134 388.66 307.838 388.66 306.539L388.28 310.409Z" fill="white"/>
<path d="M388.28 310.409C388.532 309.134 388.66 307.838 388.66 306.539" stroke="#263238" stroke-width="1.05369" stroke-linecap="round" stroke-linejoin="round"/>
<g opacity="0.2">
<path opacity="0.2" d="M372.58 264.92C372.58 264.92 374.03 275.76 366.58 284.51" stroke="white" stroke-width="1.05369" stroke-linecap="round" stroke-linejoin="round"/>
<path opacity="0.2" d="M368.76 264.64C367.521 269.646 364.859 274.187 361.095 277.713C357.331 281.24 352.627 283.6 347.55 284.51" stroke="white" stroke-width="1.05369" stroke-linecap="round" stroke-linejoin="round"/>
<path opacity="0.2" d="M363.68 264.64C363.68 264.64 360.15 277.64 343.79 276.59" stroke="white" stroke-width="1.05369" stroke-linecap="round" stroke-linejoin="round"/>
<path opacity="0.2" d="M377.46 274.72C377.46 274.72 383.62 279.72 385.46 285.09" stroke="white" stroke-width="1.05369" stroke-linecap="round" stroke-linejoin="round"/>
<path opacity="0.2" d="M377.46 270.06C377.46 270.06 381.95 270.34 384.08 271.8" stroke="white" stroke-width="1.05369" stroke-linecap="round" stroke-linejoin="round"/>
</g>
<path d="M441.57 424.359H55.2998C55.2985 432.626 56.9255 440.811 60.088 448.449C63.2504 456.086 67.8863 463.026 73.731 468.871C79.5756 474.717 86.5145 479.354 94.1514 482.517C101.788 485.681 109.974 487.309 118.24 487.309H378.63C386.896 487.309 395.081 485.681 402.718 482.517C410.355 479.354 417.294 474.717 423.139 468.871C428.983 463.026 433.619 456.086 436.782 448.449C439.944 440.811 441.571 432.626 441.57 424.359Z" fill="white"/>
<path d="M266.48 315.349L278.07 289.599C278.698 284.109 279.795 278.682 281.35 273.379C283.72 265.889 290.03 235.909 289.24 222.109C288.45 208.309 306.6 225.259 306.6 225.259C306.6 225.259 305.41 279.259 303.44 286.789C301.47 294.319 284.08 364.649 284.08 364.649" fill="white"/>
<path d="M266.48 315.349L278.07 289.599C278.698 284.109 279.795 278.682 281.35 273.379C283.72 265.889 290.03 235.909 289.24 222.109C288.45 208.309 306.6 225.259 306.6 225.259C306.6 225.259 305.41 279.259 303.44 286.789C301.47 294.319 284.08 364.649 284.08 364.649" stroke="#263238" stroke-width="1.05369" stroke-linecap="round" stroke-linejoin="round"/>
<path d="M295.82 329.769L292.94 333.639L292.41 334.349C292.41 334.349 287.96 379.349 278.87 397.469C278.43 398.369 277.96 399.209 277.49 399.969C267.49 416.059 253.73 330.969 253.73 330.969C253.73 330.969 258.32 314.399 266.25 311.339L269.58 301.979C269.58 301.979 294 321.449 295.82 329.769Z" fill="white"/>
<path opacity="0.4" d="M292.94 333.64L292.41 334.35C292.41 334.35 287.96 379.35 278.87 397.47C272.87 389.88 274.57 371.55 275.97 368.71C277.97 364.71 282.62 369.71 282.62 369.71C282.62 369.71 278.73 355.15 278.18 350.98C277.63 346.81 282.35 353.2 285.09 355.45C287.83 357.7 288.46 342.92 287.16 338.45C285.86 333.98 269.57 312.62 274.78 315.06C278.61 316.88 288.12 327.88 292.94 333.64Z" fill="#52B788"/>
<path d="M295.82 329.769L292.94 333.639L292.41 334.349C292.41 334.349 287.96 379.349 278.87 397.469C278.43 398.369 277.96 399.209 277.49 399.969C267.49 416.059 253.73 330.969 253.73 330.969C253.73 330.969 258.32 314.399 266.25 311.339L269.58 301.979C269.58 301.979 294 321.449 295.82 329.769Z" stroke="#263238" stroke-width="1.05369" stroke-linecap="round" stroke-linejoin="round"/>
<path d="M276.71 362.33C281.923 378.04 284.718 394.451 285 411C285.14 415.667 285.093 420.53 284.86 425.59H177.18L177.08 375.09C177.08 375.09 189.31 355.45 216.76 349.59C238.01 345.06 255.9 324.82 255.9 324.82C257.308 326.289 258.62 327.845 259.83 329.48" fill="white"/>
<path opacity="0.4" d="M284.87 425.61H178.3C181.06 410.85 188.53 398.48 193.49 399.77C201.49 401.85 204.26 416.44 208.57 420.56C212.88 424.68 221.35 418.94 234.19 415.74C247.03 412.54 259.09 422.59 266.01 421.62C270.01 421.05 278.6 415.52 285.01 411.02C285.15 415.674 285.103 420.537 284.87 425.61Z" fill="#52B788"/>
<path opacity="0.4" d="M200.73 359.19C200.73 359.19 194.53 361.88 192.31 375.06C192.31 375.06 199.31 371.63 203.57 371.31C207.83 370.99 231.09 383.31 231.09 383.31C231.09 383.31 236.49 362.98 242.46 357.7C248.43 352.42 260.46 353.56 260.46 353.56C260.46 353.56 249.61 341.64 239.86 341.47C235.86 341.4 229.39 349.81 222.04 352.55C211.63 356.39 200.73 359.19 200.73 359.19Z" fill="#52B788"/>
<path d="M276.71 362.33C281.923 378.04 284.718 394.451 285 411C285.14 415.667 285.093 420.53 284.86 425.59H177.18L177.08 375.09C177.08 375.09 189.31 355.45 216.76 349.59C238.01 345.06 255.9 324.82 255.9 324.82C257.308 326.289 258.62 327.845 259.83 329.48" stroke="#263238" stroke-width="1.05369" stroke-linecap="round" stroke-linejoin="round"/>
<path d="M233.81 367.67C233.81 367.67 241.29 345.67 244.81 345.3C248.33 344.93 257.38 350.73 257.38 350.73C241.51 325.23 217.45 338.9 207.38 344.82C186.82 356.97 189.38 375.11 189.38 375.11C189.38 375.11 197.38 366.31 200.99 365.17C204.6 364.03 220.85 375.11 220.85 375.11" fill="white"/>
<path d="M233.81 367.67C233.81 367.67 241.29 345.67 244.81 345.3C248.33 344.93 257.38 350.73 257.38 350.73C241.51 325.23 217.45 338.9 207.38 344.82C186.82 356.97 189.38 375.11 189.38 375.11C189.38 375.11 197.38 366.31 200.99 365.17C204.6 364.03 220.85 375.11 220.85 375.11" stroke="#263238" stroke-width="1.05369" stroke-linecap="round" stroke-linejoin="round"/>
<path d="M235.39 348.5C233.94 361.28 225 370.39 225 370.39C206.91 365.98 203.69 354.05 203.69 354.05C204.026 353.737 204.301 353.364 204.5 352.95C205.5 351.14 206.64 346.83 203.57 338.22C202.758 335.942 201.81 333.714 200.73 331.55L233 326C231.452 329.883 230.988 334.114 231.66 338.24C231.865 339.508 232.155 340.761 232.53 341.99C233.192 344.277 234.154 346.466 235.39 348.5Z" fill="white" stroke="#263238" stroke-width="1.05369" stroke-linecap="round" stroke-linejoin="round"/>
<path d="M247.22 367.26C245.35 364.96 226.59 371.84 226.59 371.84C226.59 371.84 205.33 376.84 206 380.39C206.67 383.94 210.54 391.85 214.8 390.81C219.06 389.77 224.61 379.55 224.61 379.55L219.92 399.77H224.61L227.61 379.03C231.78 384.24 234.81 395.39 234.81 395.39L237.49 391.64C235.74 385.64 229.63 377.05 229.63 377.05C229.63 377.05 242.63 382.26 245.83 382.68C249.03 383.1 249.1 369.55 247.22 367.26ZM213.9 385.39C212.55 385.7 212.03 384.03 211.51 381.85C210.99 379.67 222.03 376.65 222.03 376.65C222.03 376.65 215.26 385.08 213.9 385.39ZM243.9 376.53C242.54 377.36 230.66 373.72 230.66 373.72C230.66 373.72 244 369.86 244.42 371.32C244.84 372.78 245.27 375.7 243.92 376.53H243.9Z" fill="#52B788" stroke="#263238" stroke-width="1.05369" stroke-linecap="round" stroke-linejoin="round"/>
<path d="M225.05 377.78L222.94 372.78C222.94 372.78 226.59 370.25 229 371L228.49 375.81" fill="#52B788"/>
<path d="M225.05 377.78L222.94 372.78C222.94 372.78 226.59 370.25 229 371L228.49 375.81" stroke="#263238" stroke-width="1.05369" stroke-linecap="round" stroke-linejoin="round"/>
<path d="M295.89 228C295 228.22 285.4 225.35 284.29 217.62C283.18 209.89 276.45 199.84 276.45 199.84C276.45 199.84 278.11 195.97 281.75 197.96C283.81 199.08 284.84 204.14 289.92 206.35C291.076 202.781 291.811 199.089 292.11 195.35C292.77 188.5 293.43 179.68 296.11 179.01C298.79 178.34 298.99 180.33 298.99 181.87C298.99 183.41 298.1 193.8 298.99 195.35C299.88 196.9 303.87 179.7 304.99 178.87C307.78 176.74 309.19 180.55 309.19 180.55C309.19 180.55 305.43 197.11 305.87 198.44C306.31 199.77 311.62 187.84 311.87 186.29C312.12 184.74 315.1 185.69 315.18 188.5C315.25 190.67 309.88 203.08 310.32 204.4C310.76 205.72 314.32 196.62 315.32 195.96C316.32 195.3 318.74 196.4 316.73 202.64C314.984 207.674 313.591 212.823 312.56 218.05C311.45 224.24 306.37 228.45 302.17 228.05" fill="white"/>
<path d="M295.89 228C295 228.22 285.4 225.35 284.29 217.62C283.18 209.89 276.45 199.84 276.45 199.84C276.45 199.84 278.11 195.97 281.75 197.96C283.81 199.08 284.84 204.14 289.92 206.35C291.076 202.781 291.811 199.089 292.11 195.35C292.77 188.5 293.43 179.68 296.11 179.01C298.79 178.34 298.99 180.33 298.99 181.87C298.99 183.41 298.1 193.8 298.99 195.35C299.88 196.9 303.87 179.7 304.99 178.87C307.78 176.74 309.19 180.55 309.19 180.55C309.19 180.55 305.43 197.11 305.87 198.44C306.31 199.77 311.62 187.84 311.87 186.29C312.12 184.74 315.1 185.69 315.18 188.5C315.25 190.67 309.88 203.08 310.32 204.4C310.76 205.72 314.32 196.62 315.32 195.96C316.32 195.3 318.74 196.4 316.73 202.64C314.984 207.674 313.591 212.823 312.56 218.05C311.45 224.24 306.37 228.45 302.17 228.05" stroke="#263238" stroke-width="1.05369" stroke-linecap="round" stroke-linejoin="round"/>
<path d="M289.92 206.359C292.46 207.359 296.77 209.569 298.1 213.979" stroke="#263238" stroke-width="1.05369" stroke-linecap="round" stroke-linejoin="round"/>
<path d="M295.45 195.32C295.45 195.32 307.15 195.43 311.35 207.03" stroke="#263238" stroke-width="1.05369" stroke-linecap="round" stroke-linejoin="round"/>
<path d="M194.13 390.109C197.53 397.629 199.66 408.899 198.2 425.769L180.8 430.939L158.29 435.219C158.29 435.219 146.59 412.069 159.82 399.769C159.82 399.769 163.36 387.259 177.08 375.109C178.423 375.296 179.733 375.673 180.97 376.229" fill="white"/>
<path opacity="0.4" d="M198.2 425.77L187.61 428.92C186.654 426.605 186.168 424.124 186.18 421.62C185.61 403.85 167.31 399.77 167.31 399.77C174.39 396.1 182.69 403.13 183.79 405.01C182.48 401.69 180.16 394.57 183.87 395.46C189.6 396.85 195.08 407.69 195.08 407.69C195.08 407.69 192.31 390.74 195.56 393.74C198.08 401.13 199.44 411.43 198.2 425.77Z" fill="#52B788"/>
<path d="M194.13 390.109C197.53 397.629 199.66 408.899 198.2 425.769L180.8 430.939L158.29 435.219C158.29 435.219 146.59 412.069 159.82 399.769C159.82 399.769 163.36 387.259 177.08 375.109C178.423 375.296 179.733 375.673 180.97 376.229" stroke="#263238" stroke-width="1.05369" stroke-linecap="round" stroke-linejoin="round"/>
<path d="M148.67 433.6C143.4 426.6 149.4 419.6 153.15 414.15C156.9 408.7 160.03 403.55 160.03 403.55C160.03 403.55 173.24 402.55 180.24 410.82C187.24 419.09 188.58 425.65 185.24 431.47C181.9 437.29 157.94 446 148.67 433.6Z" fill="white" stroke="#263238" stroke-width="1.05369" stroke-linecap="round" stroke-linejoin="round"/>
<path d="M232.51 342C227.51 347.26 217.14 355.89 204.51 353C205.51 351.19 206.65 346.88 203.58 338.27H231.65C231.852 339.531 232.14 340.777 232.51 342Z" fill="#263238"/>
<path d="M247.9 290.89C247.9 290.89 252.03 287.57 254.12 289.73C256.21 291.89 255.24 306.06 254.8 307.62C254.36 309.18 253.8 308.44 252.12 313.62C250.44 318.8 248.8 316.99 248.31 314.33" fill="white"/>
<path d="M247.9 290.89C247.9 290.89 252.03 287.57 254.12 289.73C256.21 291.89 255.24 306.06 254.8 307.62C254.36 309.18 253.8 308.44 252.12 313.62C250.44 318.8 248.8 316.99 248.31 314.33" stroke="#263238" stroke-width="1.05369" stroke-linecap="round" stroke-linejoin="round"/>
<path d="M175.12 304.41C175.12 304.41 170.07 302.8 168.89 305.57C167.71 308.34 173.71 321.21 174.69 322.51C175.67 323.81 175.88 322.92 179.34 327.15C182.8 331.38 183.65 329.15 183.16 326.45" fill="white"/>
<path d="M175.12 304.41C175.12 304.41 170.07 302.8 168.89 305.57C167.71 308.34 173.71 321.21 174.69 322.51C175.67 323.81 175.88 322.92 179.34 327.15C182.8 331.38 183.65 329.15 183.16 326.45" stroke="#263238" stroke-width="1.05369" stroke-linecap="round" stroke-linejoin="round"/>
<path d="M203.78 254.43C232.15 249.16 242.42 271.81 247.09 294.98C254.6 332.25 238.47 339.91 219.55 343.43C200.21 347.02 186.92 348.83 176.73 306.72C171.29 284.25 175.94 259.6 203.78 254.43Z" fill="white" stroke="#263238" stroke-width="1.05369" stroke-linecap="round" stroke-linejoin="round"/>
<path d="M200.43 286.63C200.43 286.63 192.27 283.77 186.54 294.02" stroke="#263238" stroke-width="1.05369" stroke-linecap="round" stroke-linejoin="round"/>
<path d="M218.07 282.68C218.07 282.68 226.07 277.91 234.58 285.09" stroke="#263238" stroke-width="1.05369" stroke-linecap="round" stroke-linejoin="round"/>
<path d="M200.2 300.57C200.62 302.86 199.74 304.94 198.2 305.22C196.66 305.5 195.13 303.88 194.7 301.59C194.27 299.3 195.16 297.22 196.7 296.94C198.24 296.66 199.77 298.28 200.2 300.57Z" fill="#263238"/>
<path d="M228.45 295.32C228.87 297.61 227.99 299.7 226.45 299.98C224.91 300.26 223.37 298.63 222.94 296.34C222.51 294.05 223.4 291.97 224.94 291.69C226.48 291.41 228 293 228.45 295.32Z" fill="#263238"/>
<path d="M242.84 264.27C240.491 260.726 237.421 257.717 233.83 255.441C230.239 253.165 226.208 251.672 222 251.06C210.28 245.06 192.17 249.06 177.74 259.28C163.31 269.5 170.41 290.11 170.6 291.61C171.66 300.18 177.97 311.37 177.97 311.37C177.97 311.37 178.63 292.82 180.66 286.83C181.15 279.16 185.24 271.16 185.24 271.16C184.06 274.16 184.3 279.38 184.63 282.75C185.29 282.28 186 281.8 186.71 281.33C186.71 281.33 188.19 280.4 190.71 279.15C191.16 276.15 192.34 271.44 195.41 269.27C193.677 271.908 192.772 275.004 192.81 278.16C196.621 276.423 200.594 275.063 204.67 274.1L206.4 273.74C207.167 272.552 207.998 271.407 208.89 270.31C211.54 267.11 212.05 265.26 212.05 265.26C212.05 265.26 212.82 266.71 208.43 273.38C210.305 273.054 212.207 272.907 214.11 272.94C216.075 269.723 217.31 266.115 217.73 262.37C217.905 266.046 217.245 269.715 215.8 273.1C218.85 270.38 220.89 261.1 220.89 261.1C230.29 261.48 232.28 268.74 233.55 271.05C234.82 273.36 238.03 275.73 240.31 280.41C242.59 285.09 248 300.21 248 300.21C248 300.21 250.81 276.35 242.84 264.27Z" fill="#263238"/>
<path d="M242.46 306C242.46 306 245.92 303.6 248.46 292.13" stroke="#263238" stroke-width="1.05369" stroke-linecap="round" stroke-linejoin="round"/>
<path d="M186.18 316.41C186.18 316.41 180.18 315.07 176.73 306.72" stroke="#263238" stroke-width="1.05369" stroke-linecap="round" stroke-linejoin="round"/>
<path d="M183.47 315.509C183.47 315.509 206.12 304.139 211.98 302.669C217.84 301.199 244.67 304.129 244.67 304.129C244.67 304.129 245.79 329.789 241.95 335.869C238.11 341.949 212.83 350.009 197.95 344.689C194 343.289 183.47 315.509 183.47 315.509Z" fill="#52B788" stroke="#263238" stroke-width="1.05369" stroke-linecap="round" stroke-linejoin="round"/>
<path d="M276 277.22C276 277.22 275.8 276.48 275.43 275.22C273.31 270.55 269.86 263.75 266.14 259.67C268.353 261.549 270.322 263.699 272 266.07C268.72 258.75 263.5 250.57 256.66 250.88C244.37 251.44 234.22 267.16 234.22 267.16L237.88 271.26L238.88 272.34C238.88 272.34 247.41 264.23 252.71 266.34C258.01 268.45 264.5 290.72 264.5 290.72C265.102 286.794 264.956 282.791 264.07 278.92C266.84 284.63 268.88 289.92 268.88 289.92C270.795 288.771 272.423 287.201 273.64 285.33C272.69 280.94 271.04 275.33 268.38 271.57C268.38 271.57 272.05 274.31 275.22 282.06C275.758 280.504 276.022 278.866 276 277.22Z" fill="#263238"/>
<path d="M144.73 301.6C144.73 301.6 144.65 300.84 144.56 299.6C144.86 294.49 145.64 286.89 147.65 281.75C146.257 284.299 145.191 287.014 144.48 289.83C144.91 281.83 146.84 272.31 153.34 270.15C165.01 266.25 180.12 277.28 180.12 277.28L178.18 282.42L177.67 283.77C177.67 283.77 166.79 279.26 162.6 283.12C158.41 286.98 160.35 310.12 160.35 310.12C158.385 306.67 157.086 302.881 156.52 298.95C155.99 305.28 155.98 310.95 155.98 310.95C153.78 310.572 151.696 309.693 149.89 308.38C149.2 303.94 148.71 298.08 149.89 293.65C149.89 293.65 147.46 297.53 147.28 305.9C146.185 304.627 145.322 303.172 144.73 301.6Z" fill="#263238"/>
<path d="M54.1899 425.609H440.47" stroke="#263238" stroke-width="1.05369" stroke-linecap="round" stroke-linejoin="round"/>
<path d="M169.2 415.74C169.2 415.74 213.47 424.44 224.48 423.4C235.49 422.36 248.65 415.34 253.73 417.66C258.81 419.98 265.81 432.66 266.94 434.55C268.07 436.44 261.22 440.17 257.39 439.98C255.042 439.692 252.77 438.966 250.69 437.84C250.69 437.84 247.22 445.34 228.31 439.41C228.31 439.41 168.31 450.69 153.14 438.41C143.66 430.74 146.41 423.69 153.49 419.56" fill="white"/>
<path d="M169.2 415.74C169.2 415.74 213.47 424.44 224.48 423.4C235.49 422.36 248.65 415.34 253.73 417.66C258.81 419.98 265.81 432.66 266.94 434.55C268.07 436.44 261.22 440.17 257.39 439.98C255.042 439.692 252.77 438.966 250.69 437.84C250.69 437.84 247.22 445.34 228.31 439.41C228.31 439.41 168.31 450.69 153.14 438.41C143.66 430.74 146.41 423.69 153.49 419.56" stroke="#263238" stroke-width="1.05369" stroke-linecap="round" stroke-linejoin="round"/>
<path d="M250.69 437.84C250.69 437.84 248.9 434.18 254.69 432.55C254.69 432.55 257.02 427.71 256.29 425.09" stroke="#263238" stroke-width="1.05369" stroke-linecap="round" stroke-linejoin="round"/>
<path d="M254.7 432.55C254.7 432.55 257.25 435.68 260.45 434.98" stroke="#263238" stroke-width="1.05369" stroke-linecap="round" stroke-linejoin="round"/>
<path d="M228.31 439.41C228.31 439.41 229.59 437.84 228.31 433.6" stroke="#263238" stroke-width="1.05369" stroke-linecap="round" stroke-linejoin="round"/>
<g opacity="0.2">
<path opacity="0.2" d="M212.32 253.17C210.745 259.589 207.406 265.439 202.68 270.06" stroke="white" stroke-width="1.05369" stroke-linecap="round" stroke-linejoin="round"/>
<path opacity="0.2" d="M216.48 253.17C216.48 253.17 216.81 261.58 214.14 267.8" stroke="white" stroke-width="1.05369" stroke-linecap="round" stroke-linejoin="round"/>
<path opacity="0.2" d="M205.37 254.85C202.59 260.27 191.37 264.71 188.7 274.44" stroke="white" stroke-width="1.05369" stroke-linecap="round" stroke-linejoin="round"/>
<path opacity="0.2" d="M192.17 257.77C190.78 258.6 179.06 266.06 178.39 276.09" stroke="white" stroke-width="1.05369" stroke-linecap="round" stroke-linejoin="round"/>
</g>
<path d="M260.45 364.649C260.45 364.649 255.06 402.269 226.32 418.109" stroke="#263238" stroke-width="1.05369" stroke-linecap="round" stroke-linejoin="round"/>
<path d="M281.79 291.71C284.29 293.06 293.03 288.07 293.03 288.07" stroke="#263238" stroke-width="1.05369" stroke-linecap="round" stroke-linejoin="round"/>
<path d="M279.73 451.77L270.56 436.77C270.56 436.77 303.79 433.97 310.09 431.45C316.39 428.93 329.31 434.51 329.31 434.51C329.31 434.51 337.08 427.96 347.55 429.32C363.94 431.45 381.25 431.49 383.42 431.67L403 444.13C403 444.13 357 446 345.46 451L337.51 452.25C337.51 452.25 303.91 450.78 279.73 451.77Z" fill="#52B788" stroke="#263238" stroke-width="1.05369" stroke-linecap="round" stroke-linejoin="round"/>
<path d="M273 435.22L281.33 449.17C281.33 449.17 325.73 446.25 337.61 450.42L341.91 449.17C341.91 449.17 359.84 441.76 392.91 442.54L376.79 428.74C376.79 428.74 344.9 412.05 329.06 429.15C329.06 429.15 325.9 425.57 310.72 423.32C295.54 421.07 273 435.22 273 435.22Z" fill="white" stroke="#263238" stroke-width="1.05369" stroke-linecap="round" stroke-linejoin="round"/>
<path d="M329.1 429.149L338.9 444.149C338.9 444.149 346.61 437.509 361.82 435.949C371.12 435.068 380.485 436.724 388.92 440.739" stroke="#263238" stroke-width="1.05369" stroke-linecap="round" stroke-linejoin="round"/>
<path d="M338.9 444.13C338.9 444.13 331.81 440 317 437.84C302.19 435.68 285.08 446.46 285.08 446.46" fill="white"/>
<path d="M338.9 444.13C338.9 444.13 331.81 440 317 437.84C302.19 435.68 285.08 446.46 285.08 446.46" stroke="#263238" stroke-width="1.05369" stroke-linecap="round" stroke-linejoin="round"/>
<path d="M294.71 445.21C302.551 442.55 310.838 441.46 319.1 442C331.81 443.11 338.9 446.27 338.9 446.27C338.9 446.27 363.05 434.98 381.4 440.71" stroke="#263238" stroke-width="1.05369" stroke-linecap="round" stroke-linejoin="round"/>
<path d="M334.37 447.55C334.901 446.86 335.589 446.305 336.377 445.933C337.164 445.561 338.029 445.382 338.9 445.41C342.02 445.41 341.95 447.55 341.95 447.55" fill="white"/>
<path d="M334.37 447.55C334.901 446.86 335.589 446.305 336.377 445.933C337.164 445.561 338.029 445.382 338.9 445.41C342.02 445.41 341.95 447.55 341.95 447.55" stroke="#263238" stroke-width="1.05369" stroke-linecap="round" stroke-linejoin="round"/>
</svg>
