<svg width="500" height="500" viewBox="0 0 500 500" fill="none" xmlns="http://www.w3.org/2000/svg">
<path d="M151.67 237.67C151.67 281.28 96.02 320.51 74.58 359.54C41.12 420.45 103.25 465.35 190.88 465.35C324.39 465.35 480.98 292.94 443.63 156.44C428.47 101.05 373.75 48.7902 297.45 39.8602C139 21.3302 79.16 96.6902 79.16 152.3C79.16 210 151.67 200.54 151.67 237.67Z" fill="#52B788"/>
<path opacity="0.7" d="M151.67 237.67C151.67 281.28 96.02 320.51 74.58 359.54C41.12 420.45 103.25 465.35 190.88 465.35C324.39 465.35 480.98 292.94 443.63 156.44C428.47 101.05 373.75 48.7902 297.45 39.8602C139 21.3302 79.16 96.6902 79.16 152.3C79.16 210 151.67 200.54 151.67 237.67Z" fill="white"/>
<path d="M438.33 167.35H349.01V369.97H438.33V167.35Z" stroke="#263238" stroke-width="0.75" stroke-linecap="round" stroke-linejoin="round"/>
<path d="M430.49 175.189H356.85V362.129H430.49V175.189Z" stroke="#263238" stroke-width="0.75" stroke-linecap="round" stroke-linejoin="round"/>
<path d="M365.22 257.729L363.21 261.219" stroke="#263238" stroke-width="0.75" stroke-linecap="round" stroke-linejoin="round"/>
<path d="M386.36 221.13L367.54 253.73" stroke="#263238" stroke-width="0.75" stroke-linecap="round" stroke-linejoin="round"/>
<path d="M403.63 191.21L389.37 215.91" stroke="#263238" stroke-width="0.75" stroke-linecap="round" stroke-linejoin="round"/>
<path d="M406.65 185.989L405.13 188.609" stroke="#263238" stroke-width="0.75" stroke-linecap="round" stroke-linejoin="round"/>
<path d="M371.21 346.58L369.5 349.54" stroke="#263238" stroke-width="0.75" stroke-linecap="round" stroke-linejoin="round"/>
<path d="M375.17 339.72L373.36 342.87" stroke="#263238" stroke-width="0.75" stroke-linecap="round" stroke-linejoin="round"/>
<path d="M399.32 297.89L379.05 333.01" stroke="#263238" stroke-width="0.75" stroke-linecap="round" stroke-linejoin="round"/>
<path d="M417.27 266.8L401.4 294.3" stroke="#263238" stroke-width="0.75" stroke-linecap="round" stroke-linejoin="round"/>
<path d="M421.2 260L419.63 262.72" stroke="#263238" stroke-width="0.75" stroke-linecap="round" stroke-linejoin="round"/>
<path d="M393.67 324.21L379.05 349.54" stroke="#263238" stroke-width="0.75" stroke-linecap="round" stroke-linejoin="round"/>
<path d="M412.37 291.819L395.8 320.519" stroke="#263238" stroke-width="0.75" stroke-linecap="round" stroke-linejoin="round"/>
<path d="M416.26 285.09L414.3 288.48" stroke="#263238" stroke-width="0.75" stroke-linecap="round" stroke-linejoin="round"/>
<path d="M363.21 283.949L360.99 287.799" stroke="#263238" stroke-width="0.75" stroke-linecap="round" stroke-linejoin="round"/>
<path d="M382.64 250.3L364.99 280.87" stroke="#263238" stroke-width="0.75" stroke-linecap="round" stroke-linejoin="round"/>
<path d="M406.89 208.3L384.72 246.69" stroke="#263238" stroke-width="0.75" stroke-linecap="round" stroke-linejoin="round"/>
<path d="M421.46 183.06L408.6 205.34" stroke="#263238" stroke-width="0.75" stroke-linecap="round" stroke-linejoin="round"/>
<path d="M150.99 167.35H61.67V369.97H150.99V167.35Z" stroke="#263238" stroke-width="0.75" stroke-linecap="round" stroke-linejoin="round"/>
<path d="M143.15 175.189H69.51V362.129H143.15V175.189Z" stroke="#263238" stroke-width="0.75" stroke-linecap="round" stroke-linejoin="round"/>
<path d="M77.88 257.729L75.87 261.219" stroke="#263238" stroke-width="0.75" stroke-linecap="round" stroke-linejoin="round"/>
<path d="M99.0101 221.13L80.1901 253.73" stroke="#263238" stroke-width="0.75" stroke-linecap="round" stroke-linejoin="round"/>
<path d="M116.29 191.21L102.03 215.91" stroke="#263238" stroke-width="0.75" stroke-linecap="round" stroke-linejoin="round"/>
<path d="M119.3 185.989L117.79 188.609" stroke="#263238" stroke-width="0.75" stroke-linecap="round" stroke-linejoin="round"/>
<path d="M83.87 346.58L82.16 349.54" stroke="#263238" stroke-width="0.75" stroke-linecap="round" stroke-linejoin="round"/>
<path d="M87.83 339.72L86.01 342.87" stroke="#263238" stroke-width="0.75" stroke-linecap="round" stroke-linejoin="round"/>
<path d="M111.98 297.89L91.7001 333.01" stroke="#263238" stroke-width="0.75" stroke-linecap="round" stroke-linejoin="round"/>
<path d="M129.93 266.8L114.05 294.3" stroke="#263238" stroke-width="0.75" stroke-linecap="round" stroke-linejoin="round"/>
<path d="M133.86 260L132.28 262.72" stroke="#263238" stroke-width="0.75" stroke-linecap="round" stroke-linejoin="round"/>
<path d="M106.33 324.21L91.7001 349.54" stroke="#263238" stroke-width="0.75" stroke-linecap="round" stroke-linejoin="round"/>
<path d="M125.03 291.819L108.46 320.519" stroke="#263238" stroke-width="0.75" stroke-linecap="round" stroke-linejoin="round"/>
<path d="M128.91 285.09L126.96 288.48" stroke="#263238" stroke-width="0.75" stroke-linecap="round" stroke-linejoin="round"/>
<path d="M75.87 283.949L73.64 287.799" stroke="#263238" stroke-width="0.75" stroke-linecap="round" stroke-linejoin="round"/>
<path d="M95.29 250.3L77.64 280.87" stroke="#263238" stroke-width="0.75" stroke-linecap="round" stroke-linejoin="round"/>
<path d="M119.54 208.3L97.38 246.69" stroke="#263238" stroke-width="0.75" stroke-linecap="round" stroke-linejoin="round"/>
<path d="M134.11 183.06L121.25 205.34" stroke="#263238" stroke-width="0.75" stroke-linecap="round" stroke-linejoin="round"/>
<path d="M29.5 454.43H470.5" stroke="#263238" stroke-linecap="round" stroke-linejoin="round"/>
<path d="M182.69 375.21H175.04V401.22H182.69V375.21Z" fill="#52B788"/>
<path opacity="0.2" d="M182.69 375.21H175.04V401.22H182.69V375.21Z" fill="black"/>
<path d="M190.35 378.069H182.7V401.219H190.35V378.069Z" fill="#52B788"/>
<path d="M199.9 378.069H194.5V401.219H199.9V378.069Z" fill="#52B788"/>
<path opacity="0.9" d="M199.9 378.069H194.5V401.219H199.9V378.069Z" fill="white"/>
<path d="M194.51 375.63H189.61V401.23H194.51V375.63Z" fill="#52B788"/>
<path opacity="0.1" d="M194.51 375.63H189.61V401.23H194.51V375.63Z" fill="black"/>
<path d="M207.56 375.21H199.91V401.22H207.56V375.21Z" fill="#52B788"/>
<path d="M215.21 378.069H207.56V401.219H215.21V378.069Z" fill="#52B788"/>
<path opacity="0.2" d="M215.21 378.069H207.56V401.219H215.21V378.069Z" fill="#263238"/>
<path d="M224.77 378.069H219.37V401.219H224.77V378.069Z" fill="#52B788"/>
<path opacity="0.8" d="M224.77 378.069H219.37V401.219H224.77V378.069Z" fill="white"/>
<path d="M219.37 375.63H214.47V401.23H219.37V375.63Z" fill="#52B788"/>
<path opacity="0.1" d="M219.37 375.63H214.47V401.23H219.37V375.63Z" fill="black"/>
<path d="M261.27 401.229H268.92V375.219H261.27V401.229Z" fill="#52B788"/>
<path opacity="0.2" d="M261.27 401.229H268.92V375.219H261.27V401.229Z" fill="black"/>
<path d="M253.61 401.229H261.26V378.079H253.61V401.229Z" fill="#52B788"/>
<path d="M244.06 401.229H249.46V378.079H244.06V401.229Z" fill="#52B788"/>
<path opacity="0.9" d="M244.06 401.229H249.46V378.079H244.06V401.229Z" fill="white"/>
<path d="M249.45 401.22H254.35V375.62H249.45V401.22Z" fill="#52B788"/>
<path opacity="0.1" d="M249.45 401.22H254.35V375.62H249.45V401.22Z" fill="black"/>
<path d="M236.4 401.229H244.05V375.219H236.4V401.229Z" fill="#52B788"/>
<path d="M228.75 401.229H236.4V378.079H228.75V401.229Z" fill="#52B788"/>
<path opacity="0.2" d="M228.75 401.229H236.4V378.079H228.75V401.229Z" fill="#263238"/>
<path d="M224.59 401.22H229.49V375.62H224.59V401.22Z" fill="#52B788"/>
<path opacity="0.1" d="M224.59 401.22H229.49V375.62H224.59V401.22Z" fill="black"/>
<path d="M305.37 401.229H313.02V375.219H305.37V401.229Z" fill="#52B788"/>
<path opacity="0.2" d="M305.37 401.229H313.02V375.219H305.37V401.229Z" fill="black"/>
<path d="M297.71 401.229H305.36V378.079H297.71V401.229Z" fill="#52B788"/>
<path d="M288.16 401.229H293.56V378.079H288.16V401.229Z" fill="#52B788"/>
<path opacity="0.9" d="M288.16 401.229H293.56V378.079H288.16V401.229Z" fill="white"/>
<path d="M293.55 401.22H298.45V375.62H293.55V401.22Z" fill="#52B788"/>
<path opacity="0.1" d="M293.55 401.22H298.45V375.62H293.55V401.22Z" fill="black"/>
<path d="M280.5 401.229H288.15V375.219H280.5V401.229Z" fill="#52B788"/>
<path d="M318 400.311L323.024 398.964L316.262 373.734L311.237 375.081L318 400.311Z" fill="#52B788"/>
<path d="M272.85 401.229H280.5V378.079H272.85V401.229Z" fill="#52B788"/>
<path opacity="0.2" d="M272.85 401.229H280.5V378.079H272.85V401.229Z" fill="#263238"/>
<path d="M268.69 401.22H273.59V375.62H268.69V401.22Z" fill="#52B788"/>
<path opacity="0.1" d="M268.69 401.22H273.59V375.62H268.69V401.22Z" fill="black"/>
<path d="M320.561 435.017L325.7 433.64L318.968 408.516L313.829 409.893L320.561 435.017Z" fill="#52B788"/>
<path opacity="0.2" d="M320.561 435.017L325.7 433.64L318.968 408.516L313.829 409.893L320.561 435.017Z" fill="black"/>
<path d="M307.36 434.76H315.01V411.61H307.36V434.76Z" fill="#52B788"/>
<path d="M297.79 434.76H303.19V411.61H297.79V434.76Z" fill="#52B788"/>
<path opacity="0.9" d="M297.79 434.76H303.19V411.61H297.79V434.76Z" fill="white"/>
<path d="M303.19 434.77H308.09V409.17H303.19V434.77Z" fill="#52B788"/>
<path opacity="0.1" d="M303.19 434.77H308.09V409.17H303.19V434.77Z" fill="black"/>
<path d="M290.15 434.77H297.8V408.76H290.15V434.77Z" fill="#52B788"/>
<path d="M282.49 434.76H290.14V411.61H282.49V434.76Z" fill="#52B788"/>
<path opacity="0.2" d="M282.49 434.76H290.14V411.61H282.49V434.76Z" fill="#263238"/>
<path d="M272.94 434.76H278.34V411.61H272.94V434.76Z" fill="#52B788"/>
<path opacity="0.8" d="M272.94 434.76H278.34V411.61H272.94V434.76Z" fill="white"/>
<path d="M278.33 434.77H283.23V409.17H278.33V434.77Z" fill="#52B788"/>
<path opacity="0.1" d="M278.33 434.77H283.23V409.17H278.33V434.77Z" fill="black"/>
<path d="M236.44 408.76H228.79V434.77H236.44V408.76Z" fill="#52B788"/>
<path opacity="0.2" d="M236.44 408.76H228.79V434.77H236.44V408.76Z" fill="black"/>
<path d="M244.09 411.619H236.44V434.769H244.09V411.619Z" fill="#52B788"/>
<path d="M253.65 411.619H248.25V434.769H253.65V411.619Z" fill="#52B788"/>
<path opacity="0.9" d="M253.65 411.619H248.25V434.769H253.65V411.619Z" fill="white"/>
<path d="M248.25 409.17H243.35V434.77H248.25V409.17Z" fill="#52B788"/>
<path opacity="0.1" d="M248.25 409.17H243.35V434.77H248.25V409.17Z" fill="black"/>
<path d="M261.3 408.76H253.65V434.77H261.3V408.76Z" fill="#52B788"/>
<path d="M268.95 411.619H261.3V434.769H268.95V411.619Z" fill="#52B788"/>
<path opacity="0.2" d="M268.95 411.619H261.3V434.769H268.95V411.619Z" fill="#263238"/>
<path d="M273.11 409.17H268.21V434.77H273.11V409.17Z" fill="#52B788"/>
<path opacity="0.1" d="M273.11 409.17H268.21V434.77H273.11V409.17Z" fill="black"/>
<path d="M192.34 408.76H184.69V434.77H192.34V408.76Z" fill="#52B788"/>
<path opacity="0.2" d="M192.34 408.76H184.69V434.77H192.34V408.76Z" fill="black"/>
<path d="M199.99 411.619H192.34V434.769H199.99V411.619Z" fill="#52B788"/>
<path d="M209.55 411.619H204.15V434.769H209.55V411.619Z" fill="#52B788"/>
<path opacity="0.9" d="M209.55 411.619H204.15V434.769H209.55V411.619Z" fill="white"/>
<path d="M204.15 409.17H199.25V434.77H204.15V409.17Z" fill="#52B788"/>
<path opacity="0.1" d="M204.15 409.17H199.25V434.77H204.15V409.17Z" fill="black"/>
<path d="M217.2 408.76H209.55V434.77H217.2V408.76Z" fill="#52B788"/>
<path d="M184.674 409.871L179.671 408.53L172.939 433.654L177.942 434.995L184.674 409.871Z" fill="#52B788"/>
<path d="M224.85 411.619H217.2V434.769H224.85V411.619Z" fill="#52B788"/>
<path opacity="0.2" d="M224.85 411.619H217.2V434.769H224.85V411.619Z" fill="#263238"/>
<path d="M229.01 409.17H224.11V434.77H229.01V409.17Z" fill="#52B788"/>
<path opacity="0.1" d="M229.01 409.17H224.11V434.77H229.01V409.17Z" fill="black"/>
<path d="M180.92 454.43H173.27L172.22 439.63H181.97L180.92 454.43Z" fill="#263238"/>
<path d="M326.73 454.43H319.08L318.03 439.63H327.78L326.73 454.43Z" fill="#263238"/>
<path d="M335.16 365.39H164.84C163.867 365.39 162.933 365.776 162.245 366.465C161.557 367.153 161.17 368.086 161.17 369.06V438.64C161.17 439.613 161.557 440.546 162.245 441.235C162.933 441.923 163.867 442.31 164.84 442.31H335.16C336.133 442.31 337.067 441.923 337.755 441.235C338.443 440.546 338.83 439.613 338.83 438.64V369.06C338.83 368.086 338.443 367.153 337.755 366.465C337.067 365.776 336.133 365.39 335.16 365.39ZM331.48 372.74V401.23H168.48V372.74H331.48ZM168.52 435V406.48H331.52V435H168.52Z" fill="white" stroke="#263238" stroke-width="0.75" stroke-linecap="round" stroke-linejoin="round"/>
<path d="M309.98 219.239H192.13C188.341 219.239 185.27 222.311 185.27 226.099V251.399C185.27 255.188 188.341 258.259 192.13 258.259H309.98C313.769 258.259 316.84 255.188 316.84 251.399V226.099C316.84 222.311 313.769 219.239 309.98 219.239Z" fill="#263238" stroke="#263238" stroke-linecap="round" stroke-linejoin="round"/>
<path d="M307.88 217.14H190.03C186.241 217.14 183.17 220.211 183.17 224V249.3C183.17 253.088 186.241 256.16 190.03 256.16H307.88C311.669 256.16 314.74 253.088 314.74 249.3V224C314.74 220.211 311.669 217.14 307.88 217.14Z" fill="white" stroke="#263238" stroke-linecap="round" stroke-linejoin="round"/>
<path d="M307.88 217.14H190.03C186.241 217.14 183.17 220.211 183.17 224V249.3C183.17 253.088 186.241 256.16 190.03 256.16H307.88C311.669 256.16 314.74 253.088 314.74 249.3V224C314.74 220.211 311.669 217.14 307.88 217.14Z" stroke="#263238" stroke-linecap="round" stroke-linejoin="round"/>
<path d="M212.3 248.17H194.97V226.25H206.52L212.3 232.03V248.17Z" fill="#52B788"/>
<path opacity="0.5" d="M212.3 248.17H194.97V226.25H206.52L212.3 232.03V248.17Z" fill="white"/>
<path d="M212.3 248.17H194.97V226.25H206.52L212.3 232.03V248.17Z" stroke="#263238" stroke-linecap="round" stroke-linejoin="round"/>
<path d="M206.52 232.03H212.3L206.52 226.25V232.03Z" fill="#52B788" stroke="#263238" stroke-linecap="round" stroke-linejoin="round"/>
<path d="M198.82 237.879C198.548 237.853 198.295 237.727 198.111 237.524C197.927 237.322 197.825 237.058 197.825 236.784C197.825 236.511 197.927 236.247 198.111 236.045C198.295 235.842 198.548 235.716 198.82 235.689H208.45C208.722 235.716 208.975 235.842 209.159 236.045C209.343 236.247 209.445 236.511 209.445 236.784C209.445 237.058 209.343 237.322 209.159 237.524C208.975 237.727 208.722 237.853 208.45 237.879H198.82Z" fill="#858585" stroke="#263238" stroke-width="0.75" stroke-linecap="round" stroke-linejoin="round"/>
<path d="M198.82 242.49C198.548 242.464 198.295 242.337 198.111 242.135C197.927 241.932 197.825 241.668 197.825 241.395C197.825 241.121 197.927 240.857 198.111 240.655C198.295 240.452 198.548 240.326 198.82 240.3H206.35C206.622 240.326 206.875 240.452 207.059 240.655C207.243 240.857 207.345 241.121 207.345 241.395C207.345 241.668 207.243 241.932 207.059 242.135C206.875 242.337 206.622 242.464 206.35 242.49H198.82Z" fill="#858585" stroke="#263238" stroke-width="0.75" stroke-linecap="round" stroke-linejoin="round"/>
<path d="M256.11 239.14H223.86C223.285 239.178 222.747 239.433 222.353 239.854C221.96 240.274 221.741 240.829 221.741 241.405C221.741 241.981 221.96 242.535 222.353 242.956C222.747 243.376 223.285 243.631 223.86 243.67H256.11V239.14Z" fill="#52B788"/>
<path d="M223.86 243.67C223.285 243.632 222.747 243.376 222.353 242.956C221.96 242.535 221.741 241.981 221.741 241.405C221.741 240.829 221.96 240.274 222.353 239.854C222.747 239.433 223.285 239.178 223.86 239.14H300.66C300.97 239.119 301.281 239.162 301.574 239.267C301.867 239.371 302.135 239.535 302.362 239.747C302.589 239.96 302.769 240.216 302.893 240.501C303.017 240.786 303.081 241.094 303.081 241.405C303.081 241.716 303.017 242.023 302.893 242.308C302.769 242.593 302.589 242.85 302.362 243.062C302.135 243.275 301.867 243.438 301.574 243.543C301.281 243.647 300.97 243.69 300.66 243.67H223.86Z" stroke="#263238" stroke-linecap="round" stroke-linejoin="round"/>
<path d="M256.84 233H254.41V231.85L256.72 226.38H258.11V231.85H258.71V233H258.11V234.47H256.84V233ZM256.84 231.85V228.7L255.59 231.86L256.84 231.85Z" fill="#263238"/>
<path d="M259.3 232.56V231.93H260.5V232.65C260.5 233.23 260.75 233.44 261.16 233.44C261.57 233.44 261.82 233.23 261.82 232.65V230.84C261.82 230.26 261.56 230.04 261.16 230.04C260.76 230.04 260.5 230.26 260.5 230.84V230.91H259.3L259.53 226.39H262.88V227.55H260.66L260.56 229.48C260.672 229.29 260.833 229.134 261.027 229.03C261.221 228.926 261.44 228.878 261.66 228.89C262.59 228.89 263.07 229.55 263.07 230.74V232.56C263.07 233.86 262.42 234.56 261.17 234.56C259.92 234.56 259.3 233.86 259.3 232.56Z" fill="#263238"/>
<path d="M263.88 229.59V227.59C263.865 227.42 263.885 227.248 263.939 227.086C263.994 226.924 264.082 226.776 264.197 226.649C264.312 226.523 264.452 226.422 264.609 226.354C264.765 226.285 264.934 226.249 265.105 226.249C265.276 226.249 265.445 226.285 265.601 226.354C265.758 226.422 265.898 226.523 266.013 226.649C266.128 226.776 266.216 226.924 266.271 227.086C266.325 227.248 266.345 227.42 266.33 227.59V229.59C266.345 229.76 266.325 229.931 266.271 230.093C266.216 230.255 266.128 230.404 266.013 230.53C265.898 230.656 265.758 230.757 265.601 230.826C265.445 230.895 265.276 230.931 265.105 230.931C264.934 230.931 264.765 230.895 264.609 230.826C264.452 230.757 264.312 230.656 264.197 230.53C264.082 230.404 263.994 230.255 263.939 230.093C263.885 229.931 263.865 229.76 263.88 229.59ZM265.52 229.65V227.51C265.52 227.16 265.36 227.01 265.11 227.01C264.86 227.01 264.69 227.16 264.69 227.51V229.65C264.69 230.01 264.84 230.16 265.11 230.16C265.38 230.16 265.52 230 265.52 229.65ZM268.04 226.39H268.85L265.72 234.48H264.91L268.04 226.39ZM267.43 233.3V231.3C267.415 231.13 267.435 230.958 267.489 230.796C267.544 230.634 267.632 230.486 267.747 230.359C267.862 230.233 268.002 230.132 268.159 230.064C268.315 229.995 268.484 229.959 268.655 229.959C268.826 229.959 268.995 229.995 269.151 230.064C269.308 230.132 269.448 230.233 269.563 230.359C269.678 230.486 269.766 230.634 269.821 230.796C269.875 230.958 269.895 231.13 269.88 231.3V233.3C269.895 233.47 269.875 233.642 269.821 233.803C269.766 233.965 269.678 234.114 269.563 234.24C269.448 234.366 269.308 234.467 269.151 234.536C268.995 234.605 268.826 234.641 268.655 234.641C268.484 234.641 268.315 234.605 268.159 234.536C268.002 234.467 267.862 234.366 267.747 234.24C267.632 234.114 267.544 233.965 267.489 233.803C267.435 233.642 267.415 233.47 267.43 233.3ZM269.07 233.36V231.22C269.07 230.86 268.91 230.71 268.65 230.71C268.39 230.71 268.24 230.86 268.24 231.22V233.36C268.24 233.72 268.39 233.87 268.65 233.87C268.91 233.87 269.07 233.72 269.07 233.36Z" fill="#263238"/>
<path d="M309.98 264.52H192.13C188.341 264.52 185.27 267.591 185.27 271.38V296.68C185.27 300.468 188.341 303.54 192.13 303.54H309.98C313.769 303.54 316.84 300.468 316.84 296.68V271.38C316.84 267.591 313.769 264.52 309.98 264.52Z" fill="#263238" stroke="#263238" stroke-linecap="round" stroke-linejoin="round"/>
<path d="M307.88 262.42H190.03C186.241 262.42 183.17 265.491 183.17 269.28V294.58C183.17 298.369 186.241 301.44 190.03 301.44H307.88C311.669 301.44 314.74 298.369 314.74 294.58V269.28C314.74 265.491 311.669 262.42 307.88 262.42Z" fill="white" stroke="#263238" stroke-linecap="round" stroke-linejoin="round"/>
<path d="M281.55 284.14H223.86C223.285 284.178 222.747 284.433 222.353 284.854C221.96 285.274 221.741 285.829 221.741 286.405C221.741 286.981 221.96 287.535 222.353 287.956C222.747 288.376 223.285 288.631 223.86 288.67H281.55V284.14Z" fill="#52B788"/>
<path d="M223.86 288.67C223.285 288.632 222.747 288.376 222.353 287.956C221.96 287.535 221.741 286.981 221.741 286.405C221.741 285.829 221.96 285.274 222.353 284.854C222.747 284.433 223.285 284.178 223.86 284.14H300.66C300.97 284.119 301.281 284.162 301.574 284.267C301.867 284.371 302.135 284.535 302.362 284.747C302.589 284.96 302.769 285.216 302.893 285.501C303.017 285.786 303.081 286.094 303.081 286.405C303.081 286.716 303.017 287.023 302.893 287.308C302.769 287.593 302.589 287.85 302.362 288.062C302.135 288.275 301.867 288.438 301.574 288.543C301.281 288.647 300.97 288.69 300.66 288.67H223.86Z" stroke="#263238" stroke-linecap="round" stroke-linejoin="round"/>
<path d="M254.56 277.6V276.88C254.521 276.554 254.579 276.223 254.726 275.93C254.874 275.636 255.105 275.393 255.39 275.23C255.118 275.071 254.899 274.836 254.76 274.553C254.621 274.27 254.569 273.953 254.61 273.64V273.31C254.61 272.796 254.814 272.302 255.178 271.938C255.542 271.575 256.036 271.37 256.55 271.37C257.065 271.37 257.558 271.575 257.922 271.938C258.286 272.302 258.49 272.796 258.49 273.31V273.64C258.526 273.953 258.471 274.27 258.331 274.552C258.19 274.834 257.971 275.07 257.7 275.23C257.987 275.392 258.22 275.634 258.37 275.928C258.519 276.222 258.578 276.553 258.54 276.88V277.6C258.54 278.131 258.329 278.639 257.954 279.014C257.579 279.389 257.07 279.6 256.54 279.6C256.01 279.6 255.501 279.389 255.126 279.014C254.751 278.639 254.54 278.131 254.54 277.6H254.56ZM257.27 277.53V276.75C257.27 276.14 257.02 275.84 256.55 275.84C256.08 275.84 255.83 276.14 255.83 276.75V277.53C255.83 278.14 256.08 278.44 256.55 278.44C257.02 278.44 257.27 278.14 257.27 277.53ZM257.27 273.88V273.24C257.27 272.71 257.04 272.43 256.6 272.43C256.16 272.43 255.93 272.71 255.93 273.24V273.88C255.93 274.41 256.16 274.69 256.6 274.69C257.04 274.69 257.22 274.41 257.22 273.88H257.27Z" fill="#263238"/>
<path d="M259.3 277.56V276.93H260.5V277.65C260.5 278.23 260.75 278.44 261.16 278.44C261.57 278.44 261.82 278.23 261.82 277.65V275.84C261.82 275.26 261.56 275.04 261.16 275.04C260.76 275.04 260.5 275.26 260.5 275.84V275.91H259.3L259.53 271.39H262.88V272.55H260.66L260.56 274.48C260.672 274.29 260.833 274.134 261.027 274.03C261.221 273.926 261.44 273.878 261.66 273.89C262.59 273.89 263.07 274.55 263.07 275.74V277.56C263.089 277.82 263.054 278.082 262.967 278.328C262.881 278.574 262.744 278.8 262.566 278.991C262.389 279.182 262.173 279.335 261.934 279.439C261.694 279.544 261.436 279.597 261.175 279.597C260.914 279.597 260.656 279.544 260.416 279.439C260.177 279.335 259.962 279.182 259.784 278.991C259.606 278.8 259.469 278.574 259.383 278.328C259.296 278.082 259.261 277.82 259.28 277.56H259.3Z" fill="#263238"/>
<path d="M263.88 274.59V272.59C263.865 272.42 263.885 272.248 263.939 272.086C263.994 271.924 264.082 271.776 264.197 271.649C264.312 271.523 264.452 271.422 264.609 271.354C264.765 271.285 264.934 271.249 265.105 271.249C265.276 271.249 265.445 271.285 265.601 271.354C265.758 271.422 265.898 271.523 266.013 271.649C266.128 271.776 266.216 271.924 266.271 272.086C266.325 272.248 266.345 272.42 266.33 272.59V274.59C266.345 274.76 266.325 274.931 266.271 275.093C266.216 275.255 266.128 275.404 266.013 275.53C265.898 275.656 265.758 275.757 265.601 275.826C265.445 275.895 265.276 275.931 265.105 275.931C264.934 275.931 264.765 275.895 264.609 275.826C264.452 275.757 264.312 275.656 264.197 275.53C264.082 275.404 263.994 275.255 263.939 275.093C263.885 274.931 263.865 274.76 263.88 274.59ZM265.52 274.65V272.51C265.52 272.16 265.36 272 265.11 272C264.86 272 264.69 272.16 264.69 272.51V274.65C264.69 275.01 264.84 275.16 265.11 275.16C265.38 275.16 265.52 275 265.52 274.65ZM268.04 271.39H268.85L265.72 279.48H264.91L268.04 271.39ZM267.43 278.3V276.3C267.415 276.13 267.435 275.958 267.489 275.796C267.544 275.634 267.632 275.486 267.747 275.359C267.862 275.233 268.002 275.132 268.159 275.064C268.315 274.995 268.484 274.959 268.655 274.959C268.826 274.959 268.995 274.995 269.151 275.064C269.308 275.132 269.448 275.233 269.563 275.359C269.678 275.486 269.766 275.634 269.821 275.796C269.875 275.958 269.895 276.13 269.88 276.3V278.3C269.895 278.47 269.875 278.641 269.821 278.803C269.766 278.965 269.678 279.114 269.563 279.24C269.448 279.366 269.308 279.467 269.151 279.536C268.995 279.605 268.826 279.641 268.655 279.641C268.484 279.641 268.315 279.605 268.159 279.536C268.002 279.467 267.862 279.366 267.747 279.24C267.632 279.114 267.544 278.965 267.489 278.803C267.435 278.641 267.415 278.47 267.43 278.3ZM269.07 278.36V276.22C269.07 275.86 268.91 275.71 268.65 275.71C268.39 275.71 268.24 275.86 268.24 276.22V278.36C268.24 278.72 268.39 278.87 268.65 278.87C268.91 278.87 269.07 278.72 269.07 278.36Z" fill="#263238"/>
<path d="M212.3 293.17H194.97V271.25H206.52L212.3 277.03V293.17Z" fill="#52B788"/>
<path opacity="0.5" d="M212.3 293.17H194.97V271.25H206.52L212.3 277.03V293.17Z" fill="white" stroke="#263238" stroke-linecap="round" stroke-linejoin="round"/>
<path d="M212.3 293.17H194.97V271.25H206.52L212.3 277.03V293.17Z" stroke="#263238" stroke-linecap="round" stroke-linejoin="round"/>
<path d="M198.82 282.879C198.548 282.853 198.295 282.727 198.111 282.524C197.927 282.322 197.825 282.058 197.825 281.784C197.825 281.511 197.927 281.247 198.111 281.045C198.295 280.842 198.548 280.716 198.82 280.689H208.45C208.722 280.716 208.975 280.842 209.159 281.045C209.343 281.247 209.445 281.511 209.445 281.784C209.445 282.058 209.343 282.322 209.159 282.524C208.975 282.727 208.722 282.853 208.45 282.879H198.82Z" fill="#858585" stroke="#263238" stroke-width="0.75" stroke-linecap="round" stroke-linejoin="round"/>
<path d="M198.82 287.49C198.548 287.464 198.295 287.337 198.111 287.135C197.927 286.932 197.825 286.668 197.825 286.395C197.825 286.121 197.927 285.857 198.111 285.655C198.295 285.452 198.548 285.326 198.82 285.3H206.35C206.622 285.326 206.875 285.452 207.059 285.655C207.243 285.857 207.345 286.121 207.345 286.395C207.345 286.668 207.243 286.932 207.059 287.135C206.875 287.337 206.622 287.464 206.35 287.49H198.82Z" fill="#858585" stroke="#263238" stroke-width="0.75" stroke-linecap="round" stroke-linejoin="round"/>
<path d="M206.52 277.03H212.3L206.52 271.25V277.03Z" fill="#52B788" stroke="#263238" stroke-linecap="round" stroke-linejoin="round"/>
<path d="M326.09 158.779H176.01C172.221 158.779 169.15 161.851 169.15 165.639V200.509C169.15 204.298 172.221 207.369 176.01 207.369H326.09C329.879 207.369 332.95 204.298 332.95 200.509V165.639C332.95 161.851 329.879 158.779 326.09 158.779Z" fill="#263238" stroke="#263238" stroke-linecap="round" stroke-linejoin="round"/>
<path d="M323.99 156.68H173.91C170.121 156.68 167.05 159.751 167.05 163.54V198.41C167.05 202.198 170.121 205.27 173.91 205.27H323.99C327.779 205.27 330.85 202.198 330.85 198.41V163.54C330.85 159.751 327.779 156.68 323.99 156.68Z" fill="white" stroke="#263238" stroke-linecap="round" stroke-linejoin="round"/>
<path d="M224.22 201.27H192.13V160.68H213.52L224.22 171.37V201.27Z" fill="#52B788"/>
<path opacity="0.7" d="M224.22 201.27H192.13V160.68H213.52L224.22 171.37V201.27Z" fill="white"/>
<path d="M224.22 201.27H192.13V160.68H213.52L224.22 171.37V201.27Z" stroke="#263238" stroke-linecap="round" stroke-linejoin="round"/>
<path d="M213.52 171.37H224.22L213.52 160.68V171.37Z" fill="#52B788" stroke="#263238" stroke-linecap="round" stroke-linejoin="round"/>
<path d="M201.6 176.37H195.3V182.67H201.6V176.37Z" stroke="white" stroke-width="0.75" stroke-linecap="round" stroke-linejoin="round"/>
<path d="M208.08 176.37H201.78V182.67H208.08V176.37Z" stroke="white" stroke-width="0.75" stroke-linecap="round" stroke-linejoin="round"/>
<path d="M214.57 176.37H208.27V182.67H214.57V176.37Z" stroke="white" stroke-width="0.75" stroke-linecap="round" stroke-linejoin="round"/>
<path d="M221.05 176.37H214.75V182.67H221.05V176.37Z" stroke="white" stroke-width="0.75" stroke-linecap="round" stroke-linejoin="round"/>
<path d="M201.6 182.67H195.3V188.97H201.6V182.67Z" stroke="white" stroke-width="0.75" stroke-linecap="round" stroke-linejoin="round"/>
<path d="M208.08 182.67H201.78V188.97H208.08V182.67Z" stroke="white" stroke-width="0.75" stroke-linecap="round" stroke-linejoin="round"/>
<path d="M214.57 182.67H208.27V188.97H214.57V182.67Z" stroke="white" stroke-width="0.75" stroke-linecap="round" stroke-linejoin="round"/>
<path d="M221.05 182.67H214.75V188.97H221.05V182.67Z" stroke="white" stroke-width="0.75" stroke-linecap="round" stroke-linejoin="round"/>
<path d="M201.6 188.97H195.3V195.27H201.6V188.97Z" stroke="white" stroke-width="0.75" stroke-linecap="round" stroke-linejoin="round"/>
<path d="M208.08 188.97H201.78V195.27H208.08V188.97Z" stroke="white" stroke-width="0.75" stroke-linecap="round" stroke-linejoin="round"/>
<path d="M214.57 188.97H208.27V195.27H214.57V188.97Z" stroke="white" stroke-width="0.75" stroke-linecap="round" stroke-linejoin="round"/>
<path d="M221.05 188.97H214.75V195.27H221.05V188.97Z" stroke="white" stroke-width="0.75" stroke-linecap="round" stroke-linejoin="round"/>
<path d="M195.42 194.66L201.78 188.82L204.93 188.97L208.37 182.76L211.42 185.82L214.84 182.23L217.9 176.37" stroke="#52B788" stroke-width="2" stroke-linecap="round" stroke-linejoin="round"/>
<path d="M214.29 178.2L217.9 176.37L218.63 180.31" stroke="#52B788" stroke-width="2" stroke-linecap="round" stroke-linejoin="round"/>
<path d="M236.84 179.679H235V178.459C236.46 178.459 237 178.139 237.38 177.069H238.54V188.069H236.81L236.84 179.679Z" fill="#263238"/>
<path d="M240.59 185.48V179.68C240.59 178.982 240.867 178.313 241.36 177.82C241.854 177.327 242.523 177.05 243.22 177.05C243.918 177.05 244.587 177.327 245.08 177.82C245.573 178.313 245.85 178.982 245.85 179.68V185.48C245.85 186.177 245.573 186.846 245.08 187.339C244.587 187.833 243.918 188.11 243.22 188.11C242.523 188.11 241.854 187.833 241.36 187.339C240.867 186.846 240.59 186.177 240.59 185.48ZM244.12 185.59V179.59C244.12 178.81 243.77 178.51 243.22 178.51C242.67 178.51 242.32 178.81 242.32 179.59V185.59C242.32 186.38 242.67 186.68 243.22 186.68C243.77 186.68 244.12 186.38 244.12 185.59Z" fill="#263238"/>
<path d="M246.89 185.48V179.68C246.89 178.982 247.167 178.313 247.66 177.82C248.154 177.327 248.823 177.05 249.52 177.05C250.218 177.05 250.886 177.327 251.38 177.82C251.873 178.313 252.15 178.982 252.15 179.68V185.48C252.15 186.177 251.873 186.846 251.38 187.339C250.886 187.833 250.218 188.11 249.52 188.11C248.823 188.11 248.154 187.833 247.66 187.339C247.167 186.846 246.89 186.177 246.89 185.48ZM250.42 185.59V179.59C250.42 178.81 250.07 178.51 249.52 178.51C248.97 178.51 248.62 178.81 248.62 179.59V185.59C248.62 186.38 248.97 186.68 249.52 186.68C250.07 186.68 250.42 186.38 250.42 185.59Z" fill="#263238"/>
<path d="M253.22 181.43V178.68C253.22 178.237 253.396 177.812 253.709 177.499C254.022 177.186 254.447 177.01 254.89 177.01C255.333 177.01 255.758 177.186 256.071 177.499C256.384 177.812 256.56 178.237 256.56 178.68V181.43C256.56 181.873 256.384 182.297 256.071 182.611C255.758 182.924 255.333 183.1 254.89 183.1C254.447 183.1 254.022 182.924 253.709 182.611C253.396 182.297 253.22 181.873 253.22 181.43ZM255.46 181.51V178.6C255.46 178.11 255.24 177.9 254.89 177.9C254.54 177.9 254.32 178.11 254.32 178.6V181.51C254.32 182 254.53 182.2 254.89 182.2C255.25 182.2 255.46 182 255.46 181.51ZM258.89 177.07H260L255.73 188.07H254.63L258.89 177.07ZM258.05 186.49V183.73C258.05 183.51 258.093 183.293 258.177 183.091C258.261 182.888 258.384 182.704 258.539 182.549C258.694 182.394 258.878 182.271 259.081 182.187C259.284 182.103 259.501 182.06 259.72 182.06C259.939 182.06 260.157 182.103 260.359 182.187C260.562 182.271 260.746 182.394 260.901 182.549C261.056 182.704 261.179 182.888 261.263 183.091C261.347 183.293 261.39 183.51 261.39 183.73V186.49C261.39 186.709 261.347 186.926 261.263 187.129C261.179 187.331 261.056 187.516 260.901 187.671C260.746 187.826 260.562 187.949 260.359 188.033C260.157 188.117 259.939 188.16 259.72 188.16C259.501 188.16 259.284 188.117 259.081 188.033C258.878 187.949 258.694 187.826 258.539 187.671C258.384 187.516 258.261 187.331 258.177 187.129C258.093 186.926 258.05 186.709 258.05 186.49ZM260.29 186.57V183.65C260.29 183.16 260.07 182.96 259.72 182.96C259.37 182.96 259.16 183.16 259.16 183.65V186.57C259.16 187.05 259.36 187.26 259.72 187.26C260.08 187.26 260.29 187.05 260.29 186.57Z" fill="#263238"/>
<path d="M264.19 184.65V180.3C264.19 179.804 264.387 179.328 264.738 178.977C265.088 178.627 265.564 178.43 266.06 178.43C266.556 178.43 267.032 178.627 267.382 178.977C267.733 179.328 267.93 179.804 267.93 180.3V181.16H266.73V180.22C266.73 179.69 266.47 179.47 266.09 179.47C265.71 179.47 265.46 179.69 265.46 180.22V184.74C265.46 185.27 265.71 185.48 266.09 185.48C266.47 185.48 266.73 185.27 266.73 184.74V183.5H267.93V184.65C267.93 185.146 267.733 185.621 267.382 185.972C267.032 186.323 266.556 186.52 266.06 186.52C265.564 186.52 265.088 186.323 264.738 185.972C264.387 185.621 264.19 185.146 264.19 184.65Z" fill="#263238"/>
<path d="M268.62 184.6V180.35C268.62 179.838 268.823 179.347 269.185 178.985C269.547 178.623 270.038 178.42 270.55 178.42C271.062 178.42 271.553 178.623 271.915 178.985C272.277 179.347 272.48 179.838 272.48 180.35V184.6C272.48 185.112 272.277 185.603 271.915 185.965C271.553 186.327 271.062 186.53 270.55 186.53C270.038 186.53 269.547 186.327 269.185 185.965C268.823 185.603 268.62 185.112 268.62 184.6ZM271.21 184.68V180.27C271.21 179.69 270.96 179.47 270.55 179.47C270.14 179.47 269.89 179.69 269.89 180.27V184.68C269.89 185.26 270.15 185.48 270.55 185.48C270.95 185.48 271.21 185.26 271.21 184.68Z" fill="#263238"/>
<path d="M273.33 178.43H275.15L275.96 184.22L276.77 178.43H278.58V186.52H277.38V180.4L276.45 186.52H275.39L274.47 180.4V186.52H273.36L273.33 178.43Z" fill="#263238"/>
<path d="M279.55 178.43H281.42C282.69 178.43 283.31 179.14 283.31 180.43V181.23C283.31 182.52 282.69 183.23 281.42 183.23H280.82V186.52H279.55V178.43ZM281.42 182.07C281.82 182.07 282.04 181.89 282.04 181.31V180.31C282.04 179.73 281.82 179.55 281.42 179.55H280.82V182.03L281.42 182.07Z" fill="#263238"/>
<path d="M284 178.43H285.27V185.36H287.36V186.52H284V178.43Z" fill="#263238"/>
<path d="M288 178.43H291.46V179.59H289.27V181.72H291V182.88H289.26V185.36H291.45V186.52H288V178.43Z" fill="#263238"/>
<path d="M293.16 179.59H291.84V178.43H295.76V179.59H294.43V186.52H293.16V179.59Z" fill="#263238"/>
<path d="M296.38 178.43H299.84V179.59H297.65V181.72H299.39V182.88H297.65V185.36H299.84V186.52H296.38V178.43Z" fill="#263238"/>
<path d="M300.57 178.43H302.51C303.78 178.43 304.4 179.14 304.4 180.43V184.52C304.4 185.81 303.78 186.52 302.51 186.52H300.57V178.43ZM302.48 185.36C302.89 185.36 303.13 185.15 303.13 184.58V180.37C303.13 179.8 302.89 179.59 302.48 179.59H301.84V185.36H302.48Z" fill="#263238"/>
<path d="M309.98 309.81H192.13C188.341 309.81 185.27 312.881 185.27 316.67V341.97C185.27 345.758 188.341 348.83 192.13 348.83H309.98C313.769 348.83 316.84 345.758 316.84 341.97V316.67C316.84 312.881 313.769 309.81 309.98 309.81Z" fill="#263238" stroke="#263238" stroke-linecap="round" stroke-linejoin="round"/>
<path d="M307.88 307.71H190.03C186.241 307.71 183.17 310.781 183.17 314.57V339.87C183.17 343.659 186.241 346.73 190.03 346.73H307.88C311.669 346.73 314.74 343.659 314.74 339.87V314.57C314.74 310.781 311.669 307.71 307.88 307.71Z" fill="white" stroke="#263238" stroke-linecap="round" stroke-linejoin="round"/>
<path d="M277.48 329.149H223.86C223.261 329.149 222.686 329.388 222.262 329.811C221.838 330.235 221.6 330.81 221.6 331.409C221.6 332.009 221.838 332.584 222.262 333.007C222.686 333.431 223.261 333.669 223.86 333.669H277.48V329.149Z" fill="#52B788"/>
<path d="M223.86 333.669C223.261 333.669 222.686 333.431 222.262 333.007C221.838 332.584 221.6 332.009 221.6 331.409C221.6 330.81 221.838 330.235 222.262 329.811C222.686 329.388 223.261 329.149 223.86 329.149H300.66C300.957 329.149 301.251 329.208 301.525 329.321C301.799 329.435 302.048 329.602 302.258 329.811C302.468 330.021 302.634 330.27 302.748 330.545C302.862 330.819 302.92 331.113 302.92 331.409C302.92 331.706 302.862 332 302.748 332.274C302.634 332.548 302.468 332.798 302.258 333.007C302.048 333.217 301.799 333.384 301.525 333.497C301.251 333.611 300.957 333.669 300.66 333.669H223.86Z" stroke="#263238" stroke-linecap="round" stroke-linejoin="round"/>
<path d="M212.3 338.18H194.97V316.26H206.52L212.3 322.03V338.18Z" fill="#52B788"/>
<path opacity="0.5" d="M212.3 338.18H194.97V316.26H206.52L212.3 322.03V338.18Z" fill="white"/>
<path d="M212.3 338.18H194.97V316.26H206.52L212.3 322.03V338.18Z" stroke="#263238" stroke-linecap="round" stroke-linejoin="round"/>
<path d="M198.82 327.889C198.548 327.863 198.295 327.737 198.111 327.534C197.927 327.332 197.825 327.068 197.825 326.794C197.825 326.521 197.927 326.257 198.111 326.054C198.295 325.852 198.548 325.725 198.82 325.699H208.45C208.722 325.725 208.975 325.852 209.159 326.054C209.343 326.257 209.445 326.521 209.445 326.794C209.445 327.068 209.343 327.332 209.159 327.534C208.975 327.737 208.722 327.863 208.45 327.889H198.82Z" fill="#858585" stroke="#263238" stroke-width="0.75" stroke-linecap="round" stroke-linejoin="round"/>
<path d="M198.82 332.49C198.531 332.49 198.254 332.375 198.049 332.17C197.845 331.966 197.73 331.689 197.73 331.4C197.73 331.11 197.845 330.833 198.049 330.629C198.254 330.424 198.531 330.31 198.82 330.31H206.35C206.639 330.31 206.916 330.424 207.121 330.629C207.325 330.833 207.44 331.11 207.44 331.4C207.44 331.689 207.325 331.966 207.121 332.17C206.916 332.375 206.639 332.49 206.35 332.49H198.82Z" fill="#858585" stroke="#263238" stroke-width="0.75" stroke-linecap="round" stroke-linejoin="round"/>
<path d="M206.52 322.03H212.3L206.52 316.26V322.03Z" fill="#52B788" stroke="#263238" stroke-linecap="round" stroke-linejoin="round"/>
<path d="M257.2 317.549H254.63V316.399H258.44V317.509L256.44 324.509H255.14L257.2 317.549Z" fill="#263238"/>
<path d="M259.24 322.57V318.32C259.24 317.808 259.443 317.317 259.805 316.955C260.167 316.593 260.658 316.39 261.17 316.39C261.682 316.39 262.173 316.593 262.535 316.955C262.897 317.317 263.1 317.808 263.1 318.32V322.57C263.1 323.082 262.897 323.572 262.535 323.934C262.173 324.296 261.682 324.5 261.17 324.5C260.658 324.5 260.167 324.296 259.805 323.934C259.443 323.572 259.24 323.082 259.24 322.57ZM261.83 322.65V318.24C261.83 317.66 261.57 317.44 261.17 317.44C260.77 317.44 260.51 317.66 260.51 318.24V322.65C260.51 323.23 260.77 323.44 261.17 323.44C261.57 323.44 261.83 323.23 261.83 322.65Z" fill="#263238"/>
<path d="M263.88 319.6V317.6C263.865 317.429 263.885 317.258 263.939 317.096C263.994 316.934 264.082 316.785 264.197 316.659C264.312 316.533 264.452 316.432 264.609 316.363C264.765 316.294 264.934 316.259 265.105 316.259C265.276 316.259 265.445 316.294 265.601 316.363C265.758 316.432 265.898 316.533 266.013 316.659C266.128 316.785 266.216 316.934 266.271 317.096C266.325 317.258 266.345 317.429 266.33 317.6V319.6C266.345 319.77 266.325 319.941 266.271 320.103C266.216 320.265 266.128 320.414 266.013 320.54C265.898 320.666 265.758 320.767 265.601 320.836C265.445 320.905 265.276 320.94 265.105 320.94C264.934 320.94 264.765 320.905 264.609 320.836C264.452 320.767 264.312 320.666 264.197 320.54C264.082 320.414 263.994 320.265 263.939 320.103C263.885 319.941 263.865 319.77 263.88 319.6ZM265.52 319.66V317.52C265.52 317.16 265.36 317.01 265.11 317.01C264.86 317.01 264.69 317.16 264.69 317.52V319.66C264.69 320.01 264.84 320.16 265.11 320.16C265.38 320.16 265.52 320 265.52 319.66ZM268 316.4H268.81L265.68 324.48H264.87L268 316.4ZM267.39 323.31V321.31C267.375 321.139 267.395 320.968 267.449 320.806C267.504 320.644 267.592 320.495 267.707 320.369C267.822 320.243 267.962 320.142 268.119 320.073C268.275 320.004 268.444 319.969 268.615 319.969C268.786 319.969 268.955 320.004 269.111 320.073C269.268 320.142 269.408 320.243 269.523 320.369C269.638 320.495 269.726 320.644 269.781 320.806C269.835 320.968 269.855 321.139 269.84 321.31V323.31C269.855 323.48 269.835 323.651 269.781 323.813C269.726 323.975 269.638 324.124 269.523 324.25C269.408 324.376 269.268 324.477 269.111 324.546C268.955 324.615 268.786 324.65 268.615 324.65C268.444 324.65 268.275 324.615 268.119 324.546C267.962 324.477 267.822 324.376 267.707 324.25C267.592 324.124 267.504 323.975 267.449 323.813C267.395 323.651 267.375 323.48 267.39 323.31ZM269.03 323.36V321.23C269.03 320.87 268.87 320.72 268.61 320.72C268.35 320.72 268.2 320.87 268.2 321.23V323.36C268.2 323.72 268.35 323.87 268.61 323.87C268.87 323.87 269.07 323.72 269.07 323.36H269.03Z" fill="#263238"/>
<path d="M118.44 110.2L144.83 89.7998L171.22 110.2H118.44Z" fill="#263238" stroke="#263238" stroke-linecap="round" stroke-linejoin="round"/>
<path d="M151.73 88.2002H137.93V100H151.73V88.2002Z" fill="#263238" stroke="#263238" stroke-linecap="round" stroke-linejoin="round"/>
<path d="M144.83 58.8799V99.9999" stroke="#263238" stroke-width="0.75" stroke-linecap="round" stroke-linejoin="round"/>
<path d="M328.77 110.2L355.17 89.7998L381.56 110.2H328.77Z" fill="#263238" stroke="#263238" stroke-linecap="round" stroke-linejoin="round"/>
<path d="M362.07 88.2002H348.27V100H362.07V88.2002Z" fill="#263238" stroke="#263238" stroke-linecap="round" stroke-linejoin="round"/>
<path d="M355.17 56.8799V99.9999" stroke="#263238" stroke-width="0.75" stroke-linecap="round" stroke-linejoin="round"/>
<path d="M365.47 428.59L364.91 445.09L373.45 445.5L376.56 428.59H365.47Z" fill="white" stroke="#263238" stroke-linecap="round" stroke-linejoin="round"/>
<path d="M348.76 450.15C351.64 449.15 356.62 447.45 358.49 446.28C359.99 445.34 362.08 442.28 363.63 441.42C363.955 441.279 364.306 441.206 364.66 441.206C365.014 441.206 365.365 441.279 365.69 441.42C365.942 441.7 366.105 442.048 366.16 442.42C366.203 442.581 366.292 442.727 366.417 442.837C366.542 442.948 366.697 443.02 366.862 443.043C367.027 443.067 367.196 443.041 367.347 442.969C367.498 442.898 367.624 442.783 367.71 442.64C367.949 442.17 368.291 441.76 368.71 441.44C370.03 440.7 373.6 440.49 374.77 441.44C376.71 443.03 377.41 448.51 377.77 450.98C377.86 451.52 377.77 454.52 377.77 454.52H346.61V453.15C346.606 452.487 346.811 451.84 347.198 451.301C347.584 450.762 348.131 450.359 348.76 450.15Z" fill="white" stroke="#263238" stroke-linecap="round" stroke-linejoin="round"/>
<path d="M377.79 454.5H346.61V453.13C346.609 452.789 346.667 452.451 346.78 452.13H377.83C377.83 453.18 377.79 454.5 377.79 454.5Z" fill="#858585" stroke="#263238" stroke-linecap="round" stroke-linejoin="round"/>
<path d="M370.86 300.67L364.31 434.87L376.31 436.87C376.31 436.87 383.87 398.03 384.79 385.31C385.01 382.31 384.79 373.26 384.79 373.26L393.28 331.47C393.28 331.47 398.87 326.31 399.52 301.74L370.86 300.67Z" fill="#263238" stroke="#263238" stroke-linecap="round" stroke-linejoin="round"/>
<path opacity="0.7" d="M388.62 352.61C389.08 350.67 389.62 348.76 390.27 346.86C390.37 346.59 390.49 346.34 390.61 346.09C390.908 343.25 391.365 340.429 391.98 337.64C392.192 336.599 392.753 335.66 393.57 334.98C393.803 334.453 394.152 333.984 394.589 333.609C395.027 333.234 395.543 332.961 396.1 332.81C395.732 330.228 395.171 327.678 394.42 325.18C393.66 322.56 392.42 320.05 392.05 317.34C391.95 316.64 391.55 315.91 391.68 315.83C390.82 315.495 389.979 315.115 389.16 314.69L389.01 314.57C388.243 327.236 388.113 339.932 388.62 352.61Z" fill="black"/>
<path d="M370.29 377.43C372.414 376.938 374.364 375.877 375.93 374.36" stroke="#7F7F7F" stroke-width="0.75" stroke-linecap="round" stroke-linejoin="round"/>
<path d="M362.73 437.42L377.24 438.61L378.32 433.91L362.73 432.69V437.42Z" fill="#52B788" stroke="#263238" stroke-linecap="round" stroke-linejoin="round"/>
<path d="M404.63 426.56L407.72 445.85L415.62 445.23L415.36 425.48L404.63 426.56Z" fill="white" stroke="#263238" stroke-linecap="round" stroke-linejoin="round"/>
<path d="M391.4 450.15C394.29 449.15 399.27 447.45 401.13 446.28C402.63 445.34 404.73 442.28 406.27 441.42C406.597 441.279 406.949 441.206 407.305 441.206C407.661 441.206 408.013 441.279 408.34 441.42C408.521 441.607 408.648 441.838 408.71 442.09C408.764 442.282 408.873 442.453 409.024 442.582C409.176 442.71 409.362 442.791 409.559 442.814C409.757 442.836 409.957 442.799 410.133 442.708C410.309 442.617 410.455 442.475 410.55 442.3C410.754 441.955 411.026 441.656 411.35 441.42C412.67 440.68 416.24 440.47 417.41 441.42C419.35 443.01 420.05 448.49 420.41 450.96C420.49 451.5 420.41 454.5 420.41 454.5H389.26V453.13C389.259 452.472 389.465 451.83 389.85 451.295C390.234 450.761 390.776 450.36 391.4 450.15Z" fill="white" stroke="#263238" stroke-linecap="round" stroke-linejoin="round"/>
<path d="M420.44 454.5H389.26V453.13C389.256 452.79 389.31 452.452 389.42 452.13H420.47C420.47 453.18 420.44 454.5 420.44 454.5Z" fill="#858585" stroke="#263238" stroke-linecap="round" stroke-linejoin="round"/>
<path d="M387.56 304.72C387.56 304.72 390.56 322.09 393.32 336.66C395.2 346.54 395.32 375.73 395.32 375.73L404.9 436L416.71 434.41C416.71 434.41 416.85 397.31 415.52 385.41C415.22 382.76 414.73 374.89 414.73 374.89C414.73 374.89 415.18 343.41 417.61 332.89C419.35 325.39 422.81 317.51 418.61 302.14L387.56 304.72Z" fill="#263238" stroke="#263238" stroke-linecap="round" stroke-linejoin="round"/>
<path d="M397.91 377.43C399.112 379.092 400.898 380.239 402.91 380.64" stroke="#7F7F7F" stroke-width="0.75" stroke-linecap="round" stroke-linejoin="round"/>
<path d="M402.92 433.29L403.6 437.71L418.24 436.14L418.14 431.38L402.92 433.29Z" fill="#52B788" stroke="#263238" stroke-linecap="round" stroke-linejoin="round"/>
<path d="M331.83 224.37L328.6 218.94C328.6 218.94 327.82 210.07 326.02 208.34C324.22 206.61 320.22 201.52 319.65 202.52C318.75 204.12 322.08 206.97 322.08 206.97L322.69 210.27C322.69 210.27 317.3 206.39 315.78 206.39C315.78 206.39 311.48 201.3 309.96 201.29C308.44 201.28 310.58 204.81 310.58 204.81C310.58 204.81 309.13 203.7 308.85 204.39C308.57 205.08 310.72 207.44 310.72 207.44C310.72 207.44 309.89 208.34 311.14 210.27C310.967 210.894 310.969 211.553 311.145 212.175C311.322 212.798 311.666 213.36 312.14 213.8C313.8 215.12 322.72 220.17 322.72 220.17L325.72 227.23L331.83 224.37Z" fill="#858585" stroke="#263238" stroke-linecap="round" stroke-linejoin="round"/>
<path d="M311.9 207.58C311.9 207.58 313.08 208.06 312.59 209.79C313.061 210.459 313.325 211.252 313.35 212.07C313.47 213.59 321.17 212.84 323.25 216.07" stroke="#263238" stroke-width="0.75" stroke-linecap="round" stroke-linejoin="round"/>
<path d="M311.9 205.71L315.04 209.03" stroke="#263238" stroke-width="0.75" stroke-linecap="round" stroke-linejoin="round"/>
<path d="M365.17 223L344.56 239.06L330.44 219.82L323.25 223.42C323.25 223.42 334.55 254.64 343.1 254.64C352.19 254.64 369.47 240.04 369.47 240.04C369.47 240.04 370.56 237.25 365.17 223Z" fill="#52B788" stroke="#263238" stroke-linecap="round" stroke-linejoin="round"/>
<path d="M345.34 240.59C345.822 241.614 346.181 242.691 346.41 243.8" stroke="#263238" stroke-width="0.75" stroke-linecap="round" stroke-linejoin="round"/>
<path d="M365.17 223L369.56 281.11V305.25C369.56 305.25 394.85 308.25 419.8 304.61L418.94 279.76L421.47 224.37C421.47 224.37 409.89 216 392.11 216C374.33 216 365.17 223 365.17 223Z" fill="#52B788" stroke="#263238" stroke-linecap="round" stroke-linejoin="round"/>
<path opacity="0.2" d="M419.8 304.61L419 282.34C418.57 293.07 406.73 289.04 404.05 288.54C401.18 288 397.88 297.46 397.88 297.46C397.88 297.46 386.88 299.35 378.27 298.68C369.66 298.01 369.53 290.15 369.53 290.15V305.25C369.53 305.25 394.85 308.29 419.8 304.61Z" fill="black"/>
<path d="M381.41 280.55C392.015 279.41 402.193 275.744 411.09 269.86L381.41 280.55Z" fill="#52B788"/>
<path d="M381.41 280.55C392.015 279.41 402.193 275.744 411.09 269.86" stroke="#263238" stroke-width="0.75" stroke-linecap="round" stroke-linejoin="round"/>
<path d="M377 280.85C377 280.85 377.85 280.85 379.35 280.74L377 280.85Z" fill="#52B788"/>
<path d="M377 280.85C377 280.85 377.85 280.85 379.35 280.74" stroke="#263238" stroke-width="0.75" stroke-linecap="round" stroke-linejoin="round"/>
<path d="M385.56 225.8L381.18 224.21L377 228.25L380.06 215.75L383.75 212.85L385.63 214.04L394.03 213.72L400.56 214.25L403.67 213.29L406.99 216.61L399.6 230.74L396.5 225.39L389.66 226.24L385.56 225.8Z" fill="#52B788"/>
<path opacity="0.5" d="M385.56 225.8L381.18 224.21L377 228.25L380.06 215.75L383.75 212.85L385.63 214.04L394.03 213.72L400.56 214.25L403.67 213.29L406.99 216.61L399.6 230.74L396.5 225.39L389.66 226.24L385.56 225.8Z" fill="white"/>
<path d="M385.56 225.8L381.18 224.21L377 228.25L380.06 215.75L383.75 212.85L385.63 214.04L394.03 213.72L400.56 214.25L403.67 213.29L406.99 216.61L399.6 230.74L396.5 225.39L389.66 226.24L385.56 225.8Z" stroke="#263238" stroke-linecap="round" stroke-linejoin="round"/>
<path d="M400.11 216.57L399.11 201.29L389.45 203L387.45 210.18L385.45 216.4L384.5 216.5L387.13 230.78L401.07 216.78L400.11 216.57Z" fill="#858585"/>
<path d="M376.36 202.35C376.36 206.23 376.96 214.91 382.29 215.92C387.81 216.97 394.14 210.69 396.41 208.18C396.979 207.556 397.423 206.83 397.72 206.04L398.93 202.83C399.72 202.89 400.511 202.724 401.21 202.35H376.36Z" fill="#263238" stroke="#263238" stroke-width="0.5" stroke-linecap="round" stroke-linejoin="round"/>
<path d="M400.11 216.57L399.11 201.29L389.45 203L387.45 210.18L385.45 216.4L384.5 216.5L387.13 230.78L401.07 216.78L400.11 216.57Z" stroke="#263238" stroke-linecap="round" stroke-linejoin="round"/>
<path d="M382.8 182.73C382.8 182.73 378.23 179.25 380.47 176.51C381.64 175.09 383.16 176.96 383.16 176.96C383.16 176.96 382.35 172.6 385.6 171.96C388.6 171.4 388.48 174.84 388.48 174.84C388.48 174.84 390.03 171.89 392.74 172.55C394.9 173.07 394.07 176.13 394.07 176.13C394.07 176.13 396.95 172.55 399.93 174.13C402.5 175.48 400.38 178.72 400.38 178.72C400.38 178.72 403.44 177.64 405.15 179.36C406.86 181.08 405.15 183.36 405.15 183.36C405.15 183.36 408.52 183.36 408.67 185.88C408.82 188.4 406.06 188.88 406.06 188.88C406.06 188.88 409.96 190.14 409.99 193.2C410.02 196.26 407.41 195.28 407.41 195.28C407.41 195.28 409.03 198.16 407.68 199.69C407.528 199.895 407.331 200.061 407.103 200.176C406.876 200.29 406.625 200.35 406.37 200.35C406.115 200.35 405.864 200.29 405.637 200.176C405.409 200.061 405.212 199.895 405.06 199.69C405.06 199.69 406.75 203.32 404.61 204.38C403.08 205.13 402.18 203.29 402.18 203.29C402.18 203.29 400.89 206.43 399.33 204.51C397.77 202.59 390.03 187.8 390.03 187.8L382.8 182.73Z" fill="#263238" stroke="#263238" stroke-width="0.75" stroke-linecap="round" stroke-linejoin="round"/>
<path d="M381.48 182.87L378.6 188.87C378.305 189.496 378.151 190.179 378.15 190.87V192.75L376.56 196.75C376.478 196.959 376.411 197.172 376.36 197.39C375.85 199.52 373.42 210.96 379.36 213.29C384.6 215.35 391.98 210.38 394.69 208.34C395.366 207.832 395.936 207.196 396.37 206.47L398.17 203.55C398.934 203.779 399.751 203.759 400.504 203.495C401.256 203.231 401.906 202.736 402.36 202.08C403.97 199.77 405.83 198.52 403.62 196.44C401.41 194.36 399.37 197.69 399.37 197.69L399.67 191.82L397.11 187.32L396.98 184.49C396.98 184.49 388.6 183.56 382.98 180.49L381.48 182.87Z" fill="white" stroke="#263238" stroke-width="0.75" stroke-linecap="round" stroke-linejoin="round"/>
<path d="M381.48 182.87L378.6 188.87C378.305 189.496 378.151 190.179 378.15 190.87V192.75L376.56 196.75C376.478 196.959 376.411 197.172 376.36 197.39C375.85 199.52 373.42 210.96 379.36 213.29C384.6 215.35 391.98 210.38 394.69 208.34C395.366 207.832 395.936 207.196 396.37 206.47L398.17 203.55C398.934 203.779 399.751 203.759 400.504 203.495C401.256 203.231 401.906 202.736 402.36 202.08C403.97 199.77 405.83 198.52 403.62 196.44C401.41 194.36 399.37 197.69 399.37 197.69L399.67 191.82L397.11 187.32L396.98 184.49C396.98 184.49 388.6 183.56 382.98 180.49L381.48 182.87Z" fill="#858585" stroke="#263238" stroke-linecap="round" stroke-linejoin="round"/>
<path d="M386.58 203.36C384.96 206.49 382.76 205.97 381.38 205.19" stroke="#263238" stroke-width="0.75" stroke-linecap="round" stroke-linejoin="round"/>
<path d="M386.61 196.25C386.39 196.96 385.94 197.45 385.61 197.35C385.28 197.25 385.17 196.58 385.39 195.87C385.61 195.16 386.06 194.66 386.39 194.77C386.72 194.88 386.83 195.54 386.61 196.25Z" fill="#263238"/>
<path d="M379.93 194.18C379.71 194.9 379.26 195.39 378.93 195.28C378.6 195.17 378.49 194.51 378.71 193.8C378.93 193.09 379.39 192.6 379.71 192.71C380.03 192.82 380.15 193.47 379.93 194.18Z" fill="#263238"/>
<path d="M379.45 189.56C379.715 189.486 379.992 189.468 380.265 189.505C380.537 189.543 380.799 189.637 381.034 189.78C381.268 189.924 381.471 190.114 381.628 190.34C381.786 190.565 381.896 190.821 381.95 191.09" stroke="#263238" stroke-width="0.75" stroke-linecap="round" stroke-linejoin="round"/>
<path d="M385.2 192.29C385.2 192.29 387.53 189.84 389.1 192.44" stroke="#263238" stroke-width="0.75" stroke-linecap="round" stroke-linejoin="round"/>
<path d="M382 194.811C381.791 195.766 381.341 196.652 380.693 197.385C380.046 198.119 379.222 198.675 378.3 199.001L380.12 201.891" stroke="#263238" stroke-width="0.75" stroke-linecap="round" stroke-linejoin="round"/>
<path d="M393.61 309.46L393.1 312.55C393.027 313.06 393.153 313.579 393.453 313.998C393.753 314.417 394.203 314.705 394.71 314.8L426.78 320.06C427.29 320.133 427.809 320.007 428.228 319.707C428.647 319.407 428.935 318.957 429.03 318.45L429.53 315.36L393.61 309.46Z" fill="#52B788" stroke="#263238" stroke-width="0.75" stroke-linecap="round" stroke-linejoin="round"/>
<path d="M430.966 295.889L398.53 290.566C397.566 290.408 396.655 291.061 396.497 292.026L393.282 311.614C393.124 312.579 393.778 313.489 394.742 313.647L427.178 318.97C428.143 319.129 429.053 318.475 429.212 317.51L432.426 297.922C432.585 296.958 431.931 296.047 430.966 295.889Z" fill="#52B788"/>
<path opacity="0.5" d="M430.966 295.889L398.53 290.566C397.566 290.408 396.655 291.061 396.497 292.026L393.282 311.614C393.124 312.579 393.778 313.489 394.742 313.647L427.178 318.97C428.143 319.129 429.053 318.475 429.212 317.51L432.426 297.922C432.585 296.958 431.931 296.047 430.966 295.889Z" fill="white"/>
<path d="M430.966 295.889L398.53 290.566C397.566 290.408 396.655 291.061 396.497 292.026L393.282 311.614C393.124 312.579 393.778 313.489 394.742 313.647L427.178 318.97C428.143 319.129 429.053 318.475 429.212 317.51L432.426 297.922C432.585 296.958 431.931 296.047 430.966 295.889Z" stroke="#263238" stroke-linecap="round" stroke-linejoin="round"/>
<path d="M418.45 299.54L416.68 305.54L410.68 309.83C409.831 312.456 408.829 315.031 407.68 317.54C407.603 317.68 407.564 317.837 407.565 317.996C407.566 318.156 407.607 318.312 407.685 318.451C407.763 318.59 407.875 318.707 408.011 318.791C408.146 318.875 408.301 318.922 408.46 318.93C409.29 318.93 410.26 318.54 410.79 316.93C410.79 316.93 411.02 320.09 412.97 318.16C412.97 318.16 414.16 321.22 416.02 318.81C416.02 318.81 420.33 319.45 421.02 316.34C421.71 313.23 422.73 307.75 422.73 307.75L425.47 301.32L418.45 299.54Z" fill="#858585" stroke="#263238" stroke-linecap="round" stroke-linejoin="round"/>
<path d="M410.75 315.7L411.43 311.07" stroke="#263238" stroke-width="0.75" stroke-linecap="round" stroke-linejoin="round"/>
<path d="M411.82 316C411.82 316 412.29 317.53 413.35 317.28C414.41 317.03 415.92 318.21 419.22 316.82" stroke="#263238" stroke-width="0.75" stroke-linecap="round" stroke-linejoin="round"/>
<path d="M421.47 224.37C421.47 224.37 436.47 266.05 436.19 272.14C435.91 278.23 425.24 304.72 425.24 304.72L417 302.1L422.5 271.03L417.57 249.44C417.57 249.44 416.45 233.61 421.47 224.37Z" fill="#52B788" stroke="#263238" stroke-linecap="round" stroke-linejoin="round"/>
<path d="M424.35 270.34C424.903 269.916 425.544 269.622 426.226 269.478C426.908 269.335 427.613 269.345 428.29 269.51" stroke="#263238" stroke-width="0.75" stroke-linecap="round" stroke-linejoin="round"/>
<path d="M414.6 302.76C414.301 302.364 414.078 301.916 413.94 301.44C413.363 301.429 412.804 301.637 412.374 302.021C411.945 302.406 411.677 302.94 411.625 303.514C411.573 304.088 411.741 304.661 412.094 305.117C412.448 305.572 412.961 305.877 413.53 305.97C414.128 306.068 414.74 305.926 415.233 305.573C415.726 305.221 416.06 304.687 416.16 304.09C415.516 303.816 414.972 303.352 414.6 302.76Z" fill="white"/>
<path d="M121.94 214.79L123.76 223.76L103.54 224.61L107.05 199.75L120.67 201.33L121.94 214.79Z" fill="white"/>
<path d="M131 201.18L114.09 206.18C114.301 208.118 114.703 210.031 115.29 211.89C116.29 214.77 122.38 219.89 126.29 219.83C130.2 219.77 130.64 207.31 130.64 207.31L133 206C133.135 205.923 133.252 205.818 133.344 205.692C133.436 205.567 133.5 205.423 133.532 205.271C133.564 205.119 133.564 204.962 133.53 204.81C133.497 204.658 133.432 204.515 133.34 204.39L131 201.18Z" fill="#263238" stroke="#263238" stroke-width="0.75" stroke-linecap="round" stroke-linejoin="round"/>
<path d="M121.94 214.79L123.76 223.76L103.54 224.61L107.05 199.75L120.67 201.33L121.94 214.79Z" stroke="#263238" stroke-linecap="round" stroke-linejoin="round"/>
<path d="M122.87 183.19C122.87 183.19 127.78 184.19 127.28 178.86C126.78 173.53 117.63 176.79 112.86 177.39C108.09 177.99 92.69 183.74 98.14 192.82C98.14 192.82 94.93 197.94 106.49 206.53C106.49 206.53 111.98 203.95 114.99 207.72L117.34 203.14L123.34 192.6L122.87 183.19Z" fill="#263238" stroke="#263238" stroke-linecap="round" stroke-linejoin="round"/>
<path d="M122.51 182.389C122.51 182.389 127.21 185.009 129.91 181.729C129.91 181.729 130.21 188.729 122.51 182.389Z" fill="#263238" stroke="#263238" stroke-linecap="round" stroke-linejoin="round"/>
<path d="M123 181.66C123 181.66 130 189.03 129.76 194.08V198.69L133.46 202.85C133.563 202.957 133.642 203.085 133.69 203.225C133.737 203.366 133.753 203.515 133.736 203.663C133.719 203.81 133.669 203.952 133.59 204.078C133.511 204.204 133.405 204.31 133.28 204.39L131.13 205.88C131.13 205.88 131.76 217.68 128.06 218.1C124.36 218.52 118.2 214.1 116.97 211.5C116.044 209.115 115.373 206.637 114.97 204.11C113.893 203.818 112.928 203.211 112.199 202.366C111.47 201.522 111.011 200.478 110.88 199.37C110.45 195.49 114.36 195.6 115.37 198.14L116.19 200.21L118.73 200.12C118.73 200.12 117.28 196.46 118.14 195.38C119 194.3 122.38 191.67 120.83 189.16C119.28 186.65 119.8 182.38 123 181.66Z" fill="white" stroke="#263238" stroke-linecap="round" stroke-linejoin="round"/>
<path d="M127 208.189C127.291 208.706 127.738 209.119 128.276 209.368C128.814 209.618 129.417 209.691 130 209.579" stroke="#263238" stroke-width="0.75" stroke-linecap="round" stroke-linejoin="round"/>
<path d="M125.16 194.109C125.16 194.109 126.75 191.899 128.26 193.919" stroke="#263238" stroke-linecap="round" stroke-linejoin="round"/>
<path d="M127.67 198.72C127.67 199.41 127.4 199.98 127.03 199.99C126.66 200 126.34 199.45 126.32 198.76C126.3 198.07 126.59 197.5 126.96 197.49C127.33 197.48 127.65 198 127.67 198.72Z" fill="#263238"/>
<path d="M95.5999 420.24L92.6799 445.37L101.37 446.71L106.16 421.87L95.5999 420.24Z" fill="white" stroke="#263238" stroke-linecap="round" stroke-linejoin="round"/>
<path d="M91.5099 309.2C91.5099 309.2 91.8599 323.76 96.9999 334L98.1699 372.64L92.2399 434.9L105.43 436.16L117.43 371.04L121.43 312.04L91.5099 309.2Z" fill="#52B788" stroke="#263238" stroke-linecap="round" stroke-linejoin="round"/>
<path opacity="0.2" d="M119.57 340.41L118.47 333.48L113.47 311.67L112.55 311.2L91.5499 309.2C91.5499 309.2 91.5499 311.59 92.0199 315.12L102.39 321C102.634 324.692 103.468 328.322 104.86 331.75C104.985 332.05 105.03 332.376 104.992 332.698C104.954 333.02 104.834 333.327 104.643 333.589C104.452 333.851 104.197 334.06 103.902 334.195C103.608 334.33 103.283 334.387 102.96 334.36C101.89 334.28 100.96 334.36 100.96 335.06C100.96 336.68 108.78 341.91 108.78 341.91C108.78 341.91 116.67 367.41 116.39 376.83L117.46 371.03L119.57 340.41Z" fill="black"/>
<path d="M122.12 421.89L123.07 447.17H131.86L132.8 421.89H122.12Z" fill="white" stroke="#263238" stroke-linecap="round" stroke-linejoin="round"/>
<path d="M145.86 450.73C142.958 449.846 140.135 448.722 137.42 447.37C136.12 446.56 134.3 443.91 132.96 443.16C132.679 443.039 132.376 442.976 132.07 442.976C131.764 442.976 131.461 443.039 131.18 443.16C130.54 443.68 130.51 446.39 130.51 446.39C130.51 446.39 129.38 443.63 128.56 443.16C127.42 442.52 124.32 442.33 123.31 443.16C121.63 444.53 121.02 449.29 120.69 451.43C120.61 451.9 120.69 454.5 120.69 454.5H147.69V453.31C147.692 452.743 147.517 452.189 147.189 451.727C146.86 451.264 146.396 450.916 145.86 450.73Z" fill="#263238" stroke="#263238" stroke-linecap="round" stroke-linejoin="round"/>
<path d="M140.51 310.399L138.35 368.809L134.74 435.499H121C121 435.499 118.12 384.309 118.84 369.499L111.63 335.249C111.63 335.249 104.06 325.149 105.86 312.899L140.51 310.399Z" fill="#52B788" stroke="#263238" stroke-linecap="round" stroke-linejoin="round"/>
<path d="M119.78 430.54L120.23 438.56H135.28L136.45 430.54H119.78Z" fill="#52B788" stroke="#263238" stroke-linecap="round" stroke-linejoin="round"/>
<path d="M91.14 429.85L90.83 437.87L105.81 439.3L107.74 431.43L91.14 429.85Z" fill="#52B788" stroke="#263238" stroke-linecap="round" stroke-linejoin="round"/>
<path d="M163.29 271.95L142.5 258.73L164.41 236.82L185.21 250.04L163.29 271.95Z" fill="#52B788" stroke="#263238" stroke-linecap="round" stroke-linejoin="round"/>
<path d="M164.48 267.43L147.76 256.8L165.38 239.18L182.1 249.81L164.48 267.43Z" fill="white" stroke="#263238" stroke-width="0.75" stroke-linecap="round" stroke-linejoin="round"/>
<path d="M165.7 249.18L168.62 246.26L164.87 243.88L161.95 246.79L165.7 249.18Z" stroke="#263238" stroke-width="0.75" stroke-linecap="round" stroke-linejoin="round"/>
<path d="M161.17 253.72L164.09 250.8L160.33 248.41L157.42 251.33L161.17 253.72Z" stroke="#263238" stroke-width="0.75" stroke-linecap="round" stroke-linejoin="round"/>
<path d="M156.48 258.41L159.39 255.49L155.64 253.1L152.72 256.02L156.48 258.41Z" stroke="#263238" stroke-width="0.75" stroke-linecap="round" stroke-linejoin="round"/>
<path d="M172.85 240.229L170.09 242.999C169.959 243.13 169.86 243.288 169.798 243.462C169.737 243.636 169.716 243.822 169.736 244.005C169.756 244.188 169.817 244.365 169.915 244.522C170.012 244.678 170.144 244.811 170.3 244.91L174.3 247.479C174.741 247.761 175.265 247.883 175.784 247.827C176.304 247.77 176.79 247.539 177.16 247.169L179.71 244.609L172.85 240.229Z" fill="#858585" stroke="#263238" stroke-linecap="round" stroke-linejoin="round"/>
<path d="M98.87 223.16L102.48 215.23C102.48 215.23 123.39 212.89 128.97 230.37L98.87 223.16Z" fill="#858585" stroke="#263238" stroke-linecap="round" stroke-linejoin="round"/>
<path d="M86.9999 229.92C86.9999 229.92 81.8399 269.45 83.2099 283.46C84.2899 294.54 91.5899 303.92 91.5899 303.92L102.41 299.68L96.9099 283.46C96.9099 283.46 98.6199 254.26 100.24 247.46L86.9999 229.92Z" fill="#858585" stroke="#263238" stroke-linecap="round" stroke-linejoin="round"/>
<path d="M88.46 301.98L91.51 305.63L104.01 300.76L102.39 295.89L88.46 301.98Z" fill="#858585" stroke="#263238" stroke-linecap="round" stroke-linejoin="round"/>
<path d="M87 229.92C87 229.92 85.37 252.63 90 268.59C94.63 284.55 90 310.76 90 310.76C90 310.76 111.31 324.55 144 314C144 314 139.95 236.4 134.54 232.08C129.13 227.76 98.6 211.27 87 229.92Z" fill="#858585" stroke="#263238" stroke-linecap="round" stroke-linejoin="round"/>
<path opacity="0.2" d="M144 314C144 314 142.61 287.4 140.38 264.48C135.65 253 127.92 237.71 127.51 259.18C126.91 290.23 146.02 288.4 130.88 293.81C127.495 295.092 123.868 295.612 120.259 295.332C116.65 295.052 113.147 293.979 110 292.19C109.748 292.061 109.46 292.022 109.183 292.08C108.906 292.137 108.657 292.287 108.478 292.506C108.298 292.724 108.198 292.997 108.195 293.28C108.192 293.562 108.285 293.838 108.46 294.06C112.26 298.89 118.03 301.9 122.46 303.63C122.86 303.783 123.198 304.064 123.422 304.429C123.645 304.794 123.742 305.223 123.696 305.649C123.651 306.075 123.465 306.474 123.169 306.783C122.873 307.093 122.483 307.296 122.06 307.36C107.8 309.47 96.6199 301.89 91.4899 297.48C90.8899 305.12 89.8999 310.76 89.8999 310.76C89.8999 310.76 111.31 324.55 144 314Z" fill="black"/>
<path d="M134.56 232.09C136.509 232.985 138.201 234.358 139.477 236.082C140.754 237.806 141.573 239.824 141.86 241.95C142.94 249.39 149.86 272.24 149.86 272.24L152.16 270.75C154.08 271.612 155.662 273.084 156.66 274.938C157.658 276.791 158.017 278.922 157.68 281C157.68 281 152.06 292 145.92 289.93C139.61 287.79 136.08 282.63 132.92 274.19C131.25 269.69 126.43 256.13 126.43 256.13" fill="#858585"/>
<path d="M134.56 232.09C136.509 232.985 138.201 234.358 139.477 236.082C140.754 237.806 141.573 239.824 141.86 241.95C142.94 249.39 149.86 272.24 149.86 272.24L152.16 270.75C154.08 271.612 155.662 273.084 156.66 274.938C157.658 276.791 158.017 278.922 157.68 281C157.68 281 152.06 292 145.92 289.93C139.61 287.79 136.08 282.63 132.92 274.19C131.25 269.69 126.43 256.13 126.43 256.13" stroke="#263238" stroke-linecap="round" stroke-linejoin="round"/>
<path d="M152.62 278.859C152.656 279.447 152.629 280.037 152.54 280.619" stroke="#263238" stroke-width="0.75" stroke-linecap="round" stroke-linejoin="round"/>
<path d="M148.49 283.46C148.49 283.46 150.38 280.46 150.11 273.99C151.019 274.679 151.712 275.612 152.11 276.68" stroke="#263238" stroke-width="0.75" stroke-linecap="round" stroke-linejoin="round"/>
<path d="M153.67 270.119L160.88 264.979C161.24 263.381 162.025 261.91 163.151 260.72C164.278 259.531 165.704 258.667 167.28 258.219C167.28 258.219 170.61 252.719 172.5 253.359C174.39 253.999 170.25 256.239 169.89 259.119L171.42 261.169C171.42 261.169 176.42 260.289 177.64 258.669C177.64 258.669 177.37 262.099 175.39 262.669C175.39 262.669 175.39 265.279 174.04 265.189L164.12 267.989L158.35 278.759L153.67 270.119Z" fill="white" stroke="#263238" stroke-linecap="round" stroke-linejoin="round"/>
<path d="M124.15 295.12C125.29 295.015 126.42 294.821 127.53 294.54" stroke="#263238" stroke-width="0.75" stroke-linecap="round" stroke-linejoin="round"/>
<path d="M95.8099 278.729C95.8099 278.729 106.44 294.989 121.81 295.209" stroke="#263238" stroke-width="0.75" stroke-linecap="round" stroke-linejoin="round"/>
<path d="M150.56 270.3C150.56 270.3 158.08 275.98 157.36 282.83L160.07 277.64C160.07 277.64 159.98 273.27 153.76 268.64L150.56 270.3Z" fill="#858585" stroke="#263238" stroke-linecap="round" stroke-linejoin="round"/>
<path d="M120.69 454.5H147.69V453.31C147.69 453.018 147.642 452.727 147.55 452.45H120.65C120.65 453.36 120.69 454.5 120.69 454.5Z" fill="white" stroke="#263238" stroke-width="0.75" stroke-linecap="round" stroke-linejoin="round"/>
<path d="M115 450.73C112.098 449.846 109.275 448.722 106.56 447.37C105.26 446.56 103.44 443.91 102.11 443.16C101.827 443.039 101.523 442.976 101.215 442.976C100.907 442.976 100.603 443.039 100.32 443.16C99.68 443.68 99.65 446.39 99.65 446.39C99.65 446.39 98.53 443.63 97.7 443.16C96.56 442.52 93.46 442.33 92.45 443.16C90.77 444.53 90.16 449.29 89.83 451.43C89.75 451.9 89.83 454.5 89.83 454.5H116.83V453.31C116.832 452.743 116.657 452.189 116.329 451.727C116 451.264 115.536 450.916 115 450.73Z" fill="#263238" stroke="#263238" stroke-linecap="round" stroke-linejoin="round"/>
<path d="M89.8099 454.5H116.81V453.31C116.81 453.018 116.762 452.727 116.67 452.45H89.7699C89.7699 453.36 89.8099 454.5 89.8099 454.5Z" fill="white" stroke="#263238" stroke-width="0.75" stroke-linecap="round" stroke-linejoin="round"/>
<path d="M129.64 369.89C129.64 369.89 126.77 374.84 122.12 372.95" stroke="#263238" stroke-width="0.75" stroke-linecap="round" stroke-linejoin="round"/>
<path d="M109.63 371.63C109.63 371.63 104.48 376.03 100.22 372.95" stroke="#263238" stroke-width="0.75" stroke-linecap="round" stroke-linejoin="round"/>
<path d="M163.37 243.53L164.09 247.11H170.47L165.28 245.9L165.53 243.46L163.37 243.53Z" fill="#52B788"/>
</svg>
